ISO-10303-21;
HEADER;
/* Generated by software containing ST-Developer
 * from STEP Tools, Inc. (www.steptools.com) 
 */
/* OPTION: using custom renumber hook */

FILE_DESCRIPTION(
/* description */ ('STEP AP242 Edition 2',
'CAx-IF Rec.Pracs.---Representation and Presentation of Product Manufa
cturing Information (PMI)---4.0---2014-10-13',
'CAx-IF Rec.Pracs.---3D Tessellated Geometry---0.4---2014-09-14','2;1',
'CAx-IF Rec.Pracs.---User Defined Attributes---1.5---2016-08-15'),
/* implementation_level */ '2;1');

FILE_NAME(
/* name */ '07768277-ee57-4e7a-891f-d99356e53f53',
/* time_stamp */ '2026-09-29T21:10:08Z',
/* author */ (''),
/* organization */ (''),
/* preprocessor_version */ 'ST-DEVELOPER v20',
/* originating_system */ 'ONSHAPE BY PTC INC, 1.221',
/* authorisation */ '  ');

FILE_SCHEMA (('AP242_MANAGED_MODEL_BASED_3D_ENGINEERING_MIM_LF { 1 0 10303 442 3 1 4 }'));
ENDSEC;

DATA;
#10=SHAPE_REPRESENTATION_RELATIONSHIP('','',#195,#11);
#11=ADVANCED_BREP_SHAPE_REPRESENTATION('',(#193),#313);
#12=CYLINDRICAL_SURFACE('',#210,0.001);
#13=CYLINDRICAL_SURFACE('',#211,0.001);
#14=CYLINDRICAL_SURFACE('',#212,0.001);
#15=CYLINDRICAL_SURFACE('',#213,0.001);
#16=CIRCLE('',#200,0.001);
#17=CIRCLE('',#201,0.001);
#18=CIRCLE('',#202,0.001);
#19=CIRCLE('',#203,0.001);
#20=CIRCLE('',#205,0.001);
#21=CIRCLE('',#206,0.001);
#22=CIRCLE('',#207,0.001);
#23=CIRCLE('',#208,0.001);
#24=ORIENTED_EDGE('',*,*,#64,.T.);
#25=ORIENTED_EDGE('',*,*,#65,.T.);
#26=ORIENTED_EDGE('',*,*,#66,.F.);
#27=ORIENTED_EDGE('',*,*,#67,.F.);
#28=ORIENTED_EDGE('',*,*,#68,.F.);
#29=ORIENTED_EDGE('',*,*,#69,.F.);
#30=ORIENTED_EDGE('',*,*,#70,.T.);
#31=ORIENTED_EDGE('',*,*,#71,.T.);
#32=ORIENTED_EDGE('',*,*,#72,.F.);
#33=ORIENTED_EDGE('',*,*,#73,.F.);
#34=ORIENTED_EDGE('',*,*,#74,.F.);
#35=ORIENTED_EDGE('',*,*,#75,.F.);
#36=ORIENTED_EDGE('',*,*,#69,.T.);
#37=ORIENTED_EDGE('',*,*,#76,.T.);
#38=ORIENTED_EDGE('',*,*,#64,.F.);
#39=ORIENTED_EDGE('',*,*,#77,.F.);
#40=ORIENTED_EDGE('',*,*,#78,.T.);
#41=ORIENTED_EDGE('',*,*,#79,.T.);
#42=ORIENTED_EDGE('',*,*,#80,.T.);
#43=ORIENTED_EDGE('',*,*,#81,.T.);
#44=ORIENTED_EDGE('',*,*,#82,.F.);
#45=ORIENTED_EDGE('',*,*,#71,.F.);
#46=ORIENTED_EDGE('',*,*,#83,.T.);
#47=ORIENTED_EDGE('',*,*,#66,.T.);
#48=ORIENTED_EDGE('',*,*,#83,.F.);
#49=ORIENTED_EDGE('',*,*,#70,.F.);
#50=ORIENTED_EDGE('',*,*,#77,.T.);
#51=ORIENTED_EDGE('',*,*,#67,.T.);
#52=ORIENTED_EDGE('',*,*,#74,.T.);
#53=ORIENTED_EDGE('',*,*,#79,.F.);
#54=ORIENTED_EDGE('',*,*,#73,.T.);
#55=ORIENTED_EDGE('',*,*,#80,.F.);
#56=ORIENTED_EDGE('',*,*,#72,.T.);
#57=ORIENTED_EDGE('',*,*,#81,.F.);
#58=ORIENTED_EDGE('',*,*,#75,.T.);
#59=ORIENTED_EDGE('',*,*,#78,.F.);
#60=ORIENTED_EDGE('',*,*,#82,.T.);
#61=ORIENTED_EDGE('',*,*,#65,.F.);
#62=ORIENTED_EDGE('',*,*,#76,.F.);
#63=ORIENTED_EDGE('',*,*,#68,.T.);
#64=EDGE_CURVE('',#84,#85,#100,.T.);
#65=EDGE_CURVE('',#85,#86,#101,.F.);
#66=EDGE_CURVE('',#87,#86,#102,.T.);
#67=EDGE_CURVE('',#84,#87,#103,.T.);
#68=EDGE_CURVE('',#88,#89,#104,.F.);
#69=EDGE_CURVE('',#90,#88,#105,.T.);
#70=EDGE_CURVE('',#90,#91,#106,.T.);
#71=EDGE_CURVE('',#91,#89,#107,.T.);
#72=EDGE_CURVE('',#92,#92,#16,.T.);
#73=EDGE_CURVE('',#93,#93,#17,.T.);
#74=EDGE_CURVE('',#94,#94,#18,.T.);
#75=EDGE_CURVE('',#95,#95,#19,.T.);
#76=EDGE_CURVE('',#88,#85,#108,.F.);
#77=EDGE_CURVE('',#90,#84,#109,.T.);
#78=EDGE_CURVE('',#96,#96,#20,.T.);
#79=EDGE_CURVE('',#97,#97,#21,.T.);
#80=EDGE_CURVE('',#98,#98,#22,.T.);
#81=EDGE_CURVE('',#99,#99,#23,.T.);
#82=EDGE_CURVE('',#89,#86,#110,.F.);
#83=EDGE_CURVE('',#91,#87,#111,.T.);
#84=VERTEX_POINT('',#268);
#85=VERTEX_POINT('',#269);
#86=VERTEX_POINT('',#271);
#87=VERTEX_POINT('',#273);
#88=VERTEX_POINT('',#277);
#89=VERTEX_POINT('',#278);
#90=VERTEX_POINT('',#280);
#91=VERTEX_POINT('',#282);
#92=VERTEX_POINT('',#286);
#93=VERTEX_POINT('',#288);
#94=VERTEX_POINT('',#290);
#95=VERTEX_POINT('',#292);
#96=VERTEX_POINT('',#297);
#97=VERTEX_POINT('',#299);
#98=VERTEX_POINT('',#301);
#99=VERTEX_POINT('',#303);
#100=LINE('',#267,#112);
#101=LINE('',#270,#113);
#102=LINE('',#272,#114);
#103=LINE('',#274,#115);
#104=LINE('',#276,#116);
#105=LINE('',#279,#117);
#106=LINE('',#281,#118);
#107=LINE('',#283,#119);
#108=LINE('',#293,#120);
#109=LINE('',#294,#121);
#110=LINE('',#304,#122);
#111=LINE('',#305,#123);
#112=VECTOR('',#219,1.);
#113=VECTOR('',#220,1.);
#114=VECTOR('',#221,1.);
#115=VECTOR('',#222,1.);
#116=VECTOR('',#225,1.);
#117=VECTOR('',#226,1.);
#118=VECTOR('',#227,1.);
#119=VECTOR('',#228,1.);
#120=VECTOR('',#239,1.);
#121=VECTOR('',#240,1.);
#122=VECTOR('',#251,1.);
#123=VECTOR('',#252,1.);
#124=EDGE_LOOP('',(#24,#25,#26,#27));
#125=EDGE_LOOP('',(#28,#29,#30,#31));
#126=EDGE_LOOP('',(#32));
#127=EDGE_LOOP('',(#33));
#128=EDGE_LOOP('',(#34));
#129=EDGE_LOOP('',(#35));
#130=EDGE_LOOP('',(#36,#37,#38,#39));
#131=EDGE_LOOP('',(#40));
#132=EDGE_LOOP('',(#41));
#133=EDGE_LOOP('',(#42));
#134=EDGE_LOOP('',(#43));
#135=EDGE_LOOP('',(#44,#45,#46,#47));
#136=EDGE_LOOP('',(#48,#49,#50,#51));
#137=EDGE_LOOP('',(#52));
#138=EDGE_LOOP('',(#53));
#139=EDGE_LOOP('',(#54));
#140=EDGE_LOOP('',(#55));
#141=EDGE_LOOP('',(#56));
#142=EDGE_LOOP('',(#57));
#143=EDGE_LOOP('',(#58));
#144=EDGE_LOOP('',(#59));
#145=EDGE_LOOP('',(#60,#61,#62,#63));
#146=FACE_BOUND('',#124,.T.);
#147=FACE_BOUND('',#125,.T.);
#148=FACE_BOUND('',#126,.T.);
#149=FACE_BOUND('',#127,.T.);
#150=FACE_BOUND('',#128,.T.);
#151=FACE_BOUND('',#129,.T.);
#152=FACE_BOUND('',#130,.T.);
#153=FACE_BOUND('',#131,.T.);
#154=FACE_BOUND('',#132,.T.);
#155=FACE_BOUND('',#133,.T.);
#156=FACE_BOUND('',#134,.T.);
#157=FACE_BOUND('',#135,.T.);
#158=FACE_BOUND('',#136,.T.);
#159=FACE_BOUND('',#137,.T.);
#160=FACE_BOUND('',#138,.T.);
#161=FACE_BOUND('',#139,.T.);
#162=FACE_BOUND('',#140,.T.);
#163=FACE_BOUND('',#141,.T.);
#164=FACE_BOUND('',#142,.T.);
#165=FACE_BOUND('',#143,.T.);
#166=FACE_BOUND('',#144,.T.);
#167=FACE_BOUND('',#145,.T.);
#168=PLANE('',#197);
#169=PLANE('',#198);
#170=PLANE('',#199);
#171=PLANE('',#204);
#172=PLANE('',#209);
#173=PLANE('',#214);
#174=ADVANCED_FACE('',(#146),#168,.T.);
#175=ADVANCED_FACE('',(#147),#169,.F.);
#176=ADVANCED_FACE('',(#148,#149,#150,#151,#152),#170,.T.);
#177=ADVANCED_FACE('',(#153,#154,#155,#156,#157),#171,.F.);
#178=ADVANCED_FACE('',(#158),#172,.T.);
#179=ADVANCED_FACE('',(#159,#160),#12,.F.);
#180=ADVANCED_FACE('',(#161,#162),#13,.F.);
#181=ADVANCED_FACE('',(#163,#164),#14,.F.);
#182=ADVANCED_FACE('',(#165,#166),#15,.F.);
#183=ADVANCED_FACE('',(#167),#173,.F.);
#184=CLOSED_SHELL('',(#174,#175,#176,#177,#178,#179,#180,#181,#182,#183));
#185=STYLED_ITEM('',(#186),#193);
#186=PRESENTATION_STYLE_ASSIGNMENT((#187));
#187=SURFACE_STYLE_USAGE(.BOTH.,#188);
#188=SURFACE_SIDE_STYLE('',(#189));
#189=SURFACE_STYLE_FILL_AREA(#190);
#190=FILL_AREA_STYLE('',(#191));
#191=FILL_AREA_STYLE_COLOUR('',#192);
#192=COLOUR_RGB('',0.768627450980392,0.886274509803922,0.952941176470588);
#193=MANIFOLD_SOLID_BREP('Maintien cam\X\E9ra',#184);
#194=SHAPE_DEFINITION_REPRESENTATION(#318,#195);
#195=SHAPE_REPRESENTATION('Maintien cam\X\E9ra',(#196),#313);
#196=AXIS2_PLACEMENT_3D('',#265,#215,#216);
#197=AXIS2_PLACEMENT_3D('',#266,#217,#218);
#198=AXIS2_PLACEMENT_3D('',#275,#223,#224);
#199=AXIS2_PLACEMENT_3D('',#284,#229,#230);
#200=AXIS2_PLACEMENT_3D('',#285,#231,#232);
#201=AXIS2_PLACEMENT_3D('',#287,#233,#234);
#202=AXIS2_PLACEMENT_3D('',#289,#235,#236);
#203=AXIS2_PLACEMENT_3D('',#291,#237,#238);
#204=AXIS2_PLACEMENT_3D('',#295,#241,#242);
#205=AXIS2_PLACEMENT_3D('',#296,#243,#244);
#206=AXIS2_PLACEMENT_3D('',#298,#245,#246);
#207=AXIS2_PLACEMENT_3D('',#300,#247,#248);
#208=AXIS2_PLACEMENT_3D('',#302,#249,#250);
#209=AXIS2_PLACEMENT_3D('',#306,#253,#254);
#210=AXIS2_PLACEMENT_3D('',#307,#255,#256);
#211=AXIS2_PLACEMENT_3D('',#308,#257,#258);
#212=AXIS2_PLACEMENT_3D('',#309,#259,#260);
#213=AXIS2_PLACEMENT_3D('',#310,#261,#262);
#214=AXIS2_PLACEMENT_3D('',#311,#263,#264);
#215=DIRECTION('',(0.,0.,1.));
#216=DIRECTION('',(1.,0.,0.));
#217=DIRECTION('',(0.,8.41464485022483E-16,-1.));
#218=DIRECTION('',(0.,1.,8.41464485022483E-16));
#219=DIRECTION('',(0.,-1.,-8.41464485022483E-16));
#220=DIRECTION('',(1.,0.,0.));
#221=DIRECTION('',(0.,-1.,-8.41464485022483E-16));
#222=DIRECTION('',(-1.,0.,0.));
#223=DIRECTION('',(0.,0.,-1.));
#224=DIRECTION('',(-1.,0.,0.));
#225=DIRECTION('',(1.,0.,0.));
#226=DIRECTION('',(0.,-1.,0.));
#227=DIRECTION('',(-1.,0.,0.));
#228=DIRECTION('',(0.,-1.,0.));
#229=DIRECTION('',(1.,0.,0.));
#230=DIRECTION('',(0.,1.,0.));
#231=DIRECTION('',(1.,0.,0.));
#232=DIRECTION('',(0.,0.,-1.));
#233=DIRECTION('',(1.,0.,0.));
#234=DIRECTION('',(0.,0.,-1.));
#235=DIRECTION('',(1.,0.,0.));
#236=DIRECTION('',(0.,0.,-1.));
#237=DIRECTION('',(1.,0.,0.));
#238=DIRECTION('',(0.,0.,-1.));
#239=DIRECTION('',(0.,0.,1.));
#240=DIRECTION('',(0.,0.,-1.));
#241=DIRECTION('',(1.,0.,0.));
#242=DIRECTION('',(0.,1.,0.));
#243=DIRECTION('',(1.,0.,0.));
#244=DIRECTION('',(0.,0.,-1.));
#245=DIRECTION('',(1.,0.,0.));
#246=DIRECTION('',(0.,0.,-1.));
#247=DIRECTION('',(1.,0.,0.));
#248=DIRECTION('',(0.,0.,-1.));
#249=DIRECTION('',(1.,0.,0.));
#250=DIRECTION('',(0.,0.,-1.));
#251=DIRECTION('',(0.,0.,1.));
#252=DIRECTION('',(0.,0.,-1.));
#253=DIRECTION('',(0.,1.,0.));
#254=DIRECTION('',(0.,0.,1.));
#255=DIRECTION('',(-1.,0.,0.));
#256=DIRECTION('',(0.,0.,1.));
#257=DIRECTION('',(-1.,0.,0.));
#258=DIRECTION('',(0.,0.,1.));
#259=DIRECTION('',(-1.,0.,0.));
#260=DIRECTION('',(0.,0.,1.));
#261=DIRECTION('',(-1.,0.,0.));
#262=DIRECTION('',(0.,0.,1.));
#263=DIRECTION('',(0.,1.,0.));
#264=DIRECTION('',(0.,0.,1.));
#265=CARTESIAN_POINT('',(0.,0.,0.));
#266=CARTESIAN_POINT('',(0.004,-0.0025,-0.0125));
#267=CARTESIAN_POINT('',(0.004,-0.0025,-0.0125));
#268=CARTESIAN_POINT('',(0.004,0.012,-0.0125));
#269=CARTESIAN_POINT('',(0.004,-0.0072,-0.0125));
#270=CARTESIAN_POINT('',(0.004,-0.0072,-0.0125));
#271=CARTESIAN_POINT('',(0.001,-0.0072,-0.0125));
#272=CARTESIAN_POINT('',(0.001,-0.0025,-0.0125));
#273=CARTESIAN_POINT('',(0.001,0.012,-0.0125));
#274=CARTESIAN_POINT('',(0.004,0.012,-0.0125));
#275=CARTESIAN_POINT('',(0.004,0.0104846117967978,0.0125));
#276=CARTESIAN_POINT('',(0.004,-0.0072,0.0125));
#277=CARTESIAN_POINT('',(0.004,-0.0072,0.0125));
#278=CARTESIAN_POINT('',(0.001,-0.0072,0.0125));
#279=CARTESIAN_POINT('',(0.004,0.0104846117967978,0.0125));
#280=CARTESIAN_POINT('',(0.004,0.012,0.0125));
#281=CARTESIAN_POINT('',(0.004,0.012,0.0125));
#282=CARTESIAN_POINT('',(0.001,0.012,0.0125));
#283=CARTESIAN_POINT('',(0.001,0.0104846117967978,0.0125));
#284=CARTESIAN_POINT('',(0.004,9.75000000000281E-7,-2.49975313379447E-7));
#285=CARTESIAN_POINT('',(0.004,-0.0025,-0.0105));
#286=CARTESIAN_POINT('',(0.004,-0.0025,-0.0115));
#287=CARTESIAN_POINT('',(0.004,0.01,0.0105));
#288=CARTESIAN_POINT('',(0.004,0.01,0.0095));
#289=CARTESIAN_POINT('',(0.004,0.01,-0.0105));
#290=CARTESIAN_POINT('',(0.004,0.01,-0.0115));
#291=CARTESIAN_POINT('',(0.004,-0.0025,0.0105));
#292=CARTESIAN_POINT('',(0.004,-0.0025,0.0095));
#293=CARTESIAN_POINT('',(0.004,-0.0072,-0.01025));
#294=CARTESIAN_POINT('',(0.004,0.012,0.0109846117967978));
#295=CARTESIAN_POINT('',(0.001,9.75000000000281E-7,-2.49975313379447E-7));
#296=CARTESIAN_POINT('',(0.001,-0.0025,0.0105));
#297=CARTESIAN_POINT('',(0.001,-0.0025,0.0095));
#298=CARTESIAN_POINT('',(0.001,0.01,-0.0105));
#299=CARTESIAN_POINT('',(0.001,0.01,-0.0115));
#300=CARTESIAN_POINT('',(0.001,0.01,0.0105));
#301=CARTESIAN_POINT('',(0.001,0.01,0.0095));
#302=CARTESIAN_POINT('',(0.001,-0.0025,-0.0105));
#303=CARTESIAN_POINT('',(0.001,-0.0025,-0.0115));
#304=CARTESIAN_POINT('',(0.001,-0.0072,-0.01025));
#305=CARTESIAN_POINT('',(0.001,0.012,0.0109846117967978));
#306=CARTESIAN_POINT('',(0.004,0.012,0.0109846117967978));
#307=CARTESIAN_POINT('',(0.004,0.01,-0.0105));
#308=CARTESIAN_POINT('',(0.004,0.01,0.0105));
#309=CARTESIAN_POINT('',(0.004,-0.0025,-0.0105));
#310=CARTESIAN_POINT('',(0.004,-0.0025,0.0105));
#311=CARTESIAN_POINT('',(0.004,-0.0072,-0.01025));
#312=MECHANICAL_DESIGN_GEOMETRIC_PRESENTATION_REPRESENTATION('',(#185),
#313);
#313=(
GEOMETRIC_REPRESENTATION_CONTEXT(3)
GLOBAL_UNCERTAINTY_ASSIGNED_CONTEXT((#314))
GLOBAL_UNIT_ASSIGNED_CONTEXT((#317,#316,#315))
REPRESENTATION_CONTEXT('Maintien cam\X\E9ra','TOP_LEVEL_ASSEMBLY_PART')
);
#314=UNCERTAINTY_MEASURE_WITH_UNIT(LENGTH_MEASURE(1.E-8),#317,
'DISTANCE_ACCURACY_VALUE','Maximum Tolerance applied to model');
#315=(
NAMED_UNIT(*)
SI_UNIT($,.STERADIAN.)
SOLID_ANGLE_UNIT()
);
#316=(
NAMED_UNIT(*)
PLANE_ANGLE_UNIT()
SI_UNIT($,.RADIAN.)
);
#317=(
LENGTH_UNIT()
NAMED_UNIT(*)
SI_UNIT($,.METRE.)
);
#318=PRODUCT_DEFINITION_SHAPE('','',#319);
#319=PRODUCT_DEFINITION('','',#321,#320);
#320=PRODUCT_DEFINITION_CONTEXT('',#327,'design');
#321=PRODUCT_DEFINITION_FORMATION_WITH_SPECIFIED_SOURCE('','',#323,
 .NOT_KNOWN.);
#322=PRODUCT_RELATED_PRODUCT_CATEGORY('','',(#323));
#323=PRODUCT('Maintien cam\X\E9ra','Maintien cam\X\E9ra',
'Maintien cam\X\E9ra',(#325));
#324=PRODUCT_CATEGORY('','');
#325=PRODUCT_CONTEXT('',#327,'mechanical');
#326=APPLICATION_PROTOCOL_DEFINITION('international standard',
'ap242_managed_model_based_3d_engineering',2020,#327);
#327=APPLICATION_CONTEXT('managed model based 3d engineering');
ENDSEC;
END-ISO-10303-21;
