ISO-10303-21;
HEADER;
/* Generated by software containing ST-Developer
 * from STEP Tools, Inc. (www.steptools.com) 
 */
/* OPTION: using custom renumber hook */

FILE_DESCRIPTION(
/* description */ ('STEP AP242 Edition 2',
'CAx-IF Rec.Pracs.---Representation and Presentation of Product Manufa
cturing Information (PMI)---4.0---2014-10-13',
'CAx-IF Rec.Pracs.---3D Tessellated Geometry---0.4---2014-09-14','2;1',
'CAx-IF Rec.Pracs.---User Defined Attributes---1.5---2016-08-15'),
/* implementation_level */ '2;1');

FILE_NAME(
/* name */ 'Assemblage V2 - Diffuseur (1)',
/* time_stamp */ '2026-09-29T21:10:08Z',
/* author */ (''),
/* organization */ (''),
/* preprocessor_version */ 'ST-DEVELOPER v20',
/* originating_system */ 'ONSHAPE BY PTC INC, 1.221',
/* authorisation */ '  ');

FILE_SCHEMA (('AP242_MANAGED_MODEL_BASED_3D_ENGINEERING_MIM_LF { 1 0 10303 442 3 1 4 }'));
ENDSEC;

DATA;
#10=SHAPE_REPRESENTATION_RELATIONSHIP('','',#683,#11);
#11=ADVANCED_BREP_SHAPE_REPRESENTATION('',(#681),#1077);
#12=ORIENTED_EDGE('',*,*,#188,.F.);
#13=ORIENTED_EDGE('',*,*,#189,.T.);
#14=ORIENTED_EDGE('',*,*,#190,.T.);
#15=ORIENTED_EDGE('',*,*,#191,.F.);
#16=ORIENTED_EDGE('',*,*,#192,.T.);
#17=ORIENTED_EDGE('',*,*,#193,.T.);
#18=ORIENTED_EDGE('',*,*,#194,.F.);
#19=ORIENTED_EDGE('',*,*,#195,.T.);
#20=ORIENTED_EDGE('',*,*,#190,.F.);
#21=ORIENTED_EDGE('',*,*,#196,.T.);
#22=ORIENTED_EDGE('',*,*,#197,.T.);
#23=ORIENTED_EDGE('',*,*,#198,.F.);
#24=ORIENTED_EDGE('',*,*,#199,.T.);
#25=ORIENTED_EDGE('',*,*,#200,.T.);
#26=ORIENTED_EDGE('',*,*,#192,.F.);
#27=ORIENTED_EDGE('',*,*,#201,.T.);
#28=ORIENTED_EDGE('',*,*,#202,.T.);
#29=ORIENTED_EDGE('',*,*,#203,.T.);
#30=ORIENTED_EDGE('',*,*,#199,.F.);
#31=ORIENTED_EDGE('',*,*,#204,.T.);
#32=ORIENTED_EDGE('',*,*,#194,.T.);
#33=ORIENTED_EDGE('',*,*,#205,.T.);
#34=ORIENTED_EDGE('',*,*,#202,.F.);
#35=ORIENTED_EDGE('',*,*,#206,.T.);
#36=ORIENTED_EDGE('',*,*,#207,.F.);
#37=ORIENTED_EDGE('',*,*,#208,.T.);
#38=ORIENTED_EDGE('',*,*,#204,.F.);
#39=ORIENTED_EDGE('',*,*,#209,.T.);
#40=ORIENTED_EDGE('',*,*,#210,.F.);
#41=ORIENTED_EDGE('',*,*,#209,.F.);
#42=ORIENTED_EDGE('',*,*,#201,.F.);
#43=ORIENTED_EDGE('',*,*,#211,.F.);
#44=ORIENTED_EDGE('',*,*,#212,.F.);
#45=ORIENTED_EDGE('',*,*,#213,.T.);
#46=ORIENTED_EDGE('',*,*,#214,.F.);
#47=ORIENTED_EDGE('',*,*,#197,.F.);
#48=ORIENTED_EDGE('',*,*,#215,.F.);
#49=ORIENTED_EDGE('',*,*,#216,.T.);
#50=ORIENTED_EDGE('',*,*,#217,.T.);
#51=ORIENTED_EDGE('',*,*,#218,.F.);
#52=ORIENTED_EDGE('',*,*,#219,.F.);
#53=ORIENTED_EDGE('',*,*,#220,.T.);
#54=ORIENTED_EDGE('',*,*,#221,.T.);
#55=ORIENTED_EDGE('',*,*,#216,.F.);
#56=ORIENTED_EDGE('',*,*,#222,.F.);
#57=ORIENTED_EDGE('',*,*,#223,.T.);
#58=ORIENTED_EDGE('',*,*,#224,.T.);
#59=ORIENTED_EDGE('',*,*,#220,.F.);
#60=ORIENTED_EDGE('',*,*,#225,.F.);
#61=ORIENTED_EDGE('',*,*,#188,.T.);
#62=ORIENTED_EDGE('',*,*,#226,.F.);
#63=ORIENTED_EDGE('',*,*,#213,.F.);
#64=ORIENTED_EDGE('',*,*,#227,.F.);
#65=ORIENTED_EDGE('',*,*,#218,.T.);
#66=ORIENTED_EDGE('',*,*,#228,.T.);
#67=ORIENTED_EDGE('',*,*,#223,.F.);
#68=ORIENTED_EDGE('',*,*,#229,.F.);
#69=ORIENTED_EDGE('',*,*,#224,.F.);
#70=ORIENTED_EDGE('',*,*,#230,.F.);
#71=ORIENTED_EDGE('',*,*,#214,.T.);
#72=ORIENTED_EDGE('',*,*,#231,.F.);
#73=ORIENTED_EDGE('',*,*,#221,.F.);
#74=ORIENTED_EDGE('',*,*,#229,.T.);
#75=ORIENTED_EDGE('',*,*,#226,.T.);
#76=ORIENTED_EDGE('',*,*,#232,.F.);
#77=ORIENTED_EDGE('',*,*,#217,.F.);
#78=ORIENTED_EDGE('',*,*,#231,.T.);
#79=ORIENTED_EDGE('',*,*,#191,.T.);
#80=ORIENTED_EDGE('',*,*,#230,.T.);
#81=ORIENTED_EDGE('',*,*,#228,.F.);
#82=ORIENTED_EDGE('',*,*,#232,.T.);
#83=ORIENTED_EDGE('',*,*,#198,.T.);
#84=ORIENTED_EDGE('',*,*,#208,.F.);
#85=ORIENTED_EDGE('',*,*,#233,.T.);
#86=ORIENTED_EDGE('',*,*,#234,.T.);
#87=ORIENTED_EDGE('',*,*,#206,.F.);
#88=ORIENTED_EDGE('',*,*,#234,.F.);
#89=ORIENTED_EDGE('',*,*,#235,.T.);
#90=ORIENTED_EDGE('',*,*,#211,.T.);
#91=ORIENTED_EDGE('',*,*,#195,.F.);
#92=ORIENTED_EDGE('',*,*,#233,.F.);
#93=ORIENTED_EDGE('',*,*,#236,.F.);
#94=ORIENTED_EDGE('',*,*,#237,.T.);
#95=ORIENTED_EDGE('',*,*,#238,.T.);
#96=ORIENTED_EDGE('',*,*,#239,.T.);
#97=ORIENTED_EDGE('',*,*,#210,.T.);
#98=ORIENTED_EDGE('',*,*,#240,.F.);
#99=ORIENTED_EDGE('',*,*,#241,.F.);
#100=ORIENTED_EDGE('',*,*,#236,.T.);
#101=ORIENTED_EDGE('',*,*,#207,.T.);
#102=ORIENTED_EDGE('',*,*,#239,.F.);
#103=ORIENTED_EDGE('',*,*,#242,.F.);
#104=ORIENTED_EDGE('',*,*,#235,.F.);
#105=ORIENTED_EDGE('',*,*,#238,.F.);
#106=ORIENTED_EDGE('',*,*,#243,.T.);
#107=ORIENTED_EDGE('',*,*,#240,.T.);
#108=ORIENTED_EDGE('',*,*,#244,.T.);
#109=ORIENTED_EDGE('',*,*,#245,.F.);
#110=ORIENTED_EDGE('',*,*,#246,.F.);
#111=ORIENTED_EDGE('',*,*,#247,.T.);
#112=ORIENTED_EDGE('',*,*,#248,.F.);
#113=ORIENTED_EDGE('',*,*,#247,.F.);
#114=ORIENTED_EDGE('',*,*,#249,.T.);
#115=ORIENTED_EDGE('',*,*,#250,.T.);
#116=ORIENTED_EDGE('',*,*,#251,.F.);
#117=ORIENTED_EDGE('',*,*,#250,.F.);
#118=ORIENTED_EDGE('',*,*,#252,.T.);
#119=ORIENTED_EDGE('',*,*,#253,.T.);
#120=ORIENTED_EDGE('',*,*,#254,.T.);
#121=ORIENTED_EDGE('',*,*,#253,.F.);
#122=ORIENTED_EDGE('',*,*,#255,.F.);
#123=ORIENTED_EDGE('',*,*,#245,.T.);
#124=ORIENTED_EDGE('',*,*,#246,.T.);
#125=ORIENTED_EDGE('',*,*,#255,.T.);
#126=ORIENTED_EDGE('',*,*,#252,.F.);
#127=ORIENTED_EDGE('',*,*,#249,.F.);
#128=ORIENTED_EDGE('',*,*,#241,.T.);
#129=ORIENTED_EDGE('',*,*,#243,.F.);
#130=ORIENTED_EDGE('',*,*,#237,.F.);
#131=ORIENTED_EDGE('',*,*,#242,.T.);
#132=ORIENTED_EDGE('',*,*,#219,.T.);
#133=ORIENTED_EDGE('',*,*,#215,.T.);
#134=ORIENTED_EDGE('',*,*,#227,.T.);
#135=ORIENTED_EDGE('',*,*,#222,.T.);
#136=ORIENTED_EDGE('',*,*,#244,.F.);
#137=ORIENTED_EDGE('',*,*,#248,.T.);
#138=ORIENTED_EDGE('',*,*,#251,.T.);
#139=ORIENTED_EDGE('',*,*,#254,.F.);
#140=ORIENTED_EDGE('',*,*,#256,.T.);
#141=ORIENTED_EDGE('',*,*,#212,.T.);
#142=ORIENTED_EDGE('',*,*,#257,.F.);
#143=ORIENTED_EDGE('',*,*,#258,.T.);
#144=ORIENTED_EDGE('',*,*,#196,.F.);
#145=ORIENTED_EDGE('',*,*,#259,.F.);
#146=ORIENTED_EDGE('',*,*,#260,.F.);
#147=ORIENTED_EDGE('',*,*,#257,.T.);
#148=ORIENTED_EDGE('',*,*,#189,.F.);
#149=ORIENTED_EDGE('',*,*,#261,.F.);
#150=ORIENTED_EDGE('',*,*,#262,.F.);
#151=ORIENTED_EDGE('',*,*,#259,.T.);
#152=ORIENTED_EDGE('',*,*,#263,.T.);
#153=ORIENTED_EDGE('',*,*,#264,.F.);
#154=ORIENTED_EDGE('',*,*,#265,.F.);
#155=ORIENTED_EDGE('',*,*,#266,.T.);
#156=ORIENTED_EDGE('',*,*,#267,.T.);
#157=ORIENTED_EDGE('',*,*,#268,.F.);
#158=ORIENTED_EDGE('',*,*,#269,.F.);
#159=ORIENTED_EDGE('',*,*,#264,.T.);
#160=ORIENTED_EDGE('',*,*,#270,.F.);
#161=ORIENTED_EDGE('',*,*,#271,.F.);
#162=ORIENTED_EDGE('',*,*,#272,.T.);
#163=ORIENTED_EDGE('',*,*,#268,.T.);
#164=ORIENTED_EDGE('',*,*,#273,.F.);
#165=ORIENTED_EDGE('',*,*,#266,.F.);
#166=ORIENTED_EDGE('',*,*,#274,.T.);
#167=ORIENTED_EDGE('',*,*,#271,.T.);
#168=ORIENTED_EDGE('',*,*,#261,.T.);
#169=ORIENTED_EDGE('',*,*,#225,.T.);
#170=ORIENTED_EDGE('',*,*,#256,.F.);
#171=ORIENTED_EDGE('',*,*,#275,.T.);
#172=ORIENTED_EDGE('',*,*,#265,.T.);
#173=ORIENTED_EDGE('',*,*,#269,.T.);
#174=ORIENTED_EDGE('',*,*,#272,.F.);
#175=ORIENTED_EDGE('',*,*,#274,.F.);
#176=ORIENTED_EDGE('',*,*,#258,.F.);
#177=ORIENTED_EDGE('',*,*,#260,.T.);
#178=ORIENTED_EDGE('',*,*,#262,.T.);
#179=ORIENTED_EDGE('',*,*,#275,.F.);
#180=ORIENTED_EDGE('',*,*,#193,.F.);
#181=ORIENTED_EDGE('',*,*,#200,.F.);
#182=ORIENTED_EDGE('',*,*,#203,.F.);
#183=ORIENTED_EDGE('',*,*,#205,.F.);
#184=ORIENTED_EDGE('',*,*,#263,.F.);
#185=ORIENTED_EDGE('',*,*,#273,.T.);
#186=ORIENTED_EDGE('',*,*,#270,.T.);
#187=ORIENTED_EDGE('',*,*,#267,.F.);
#188=EDGE_CURVE('',#276,#277,#328,.T.);
#189=EDGE_CURVE('',#276,#278,#329,.T.);
#190=EDGE_CURVE('',#278,#279,#330,.T.);
#191=EDGE_CURVE('',#277,#279,#331,.F.);
#192=EDGE_CURVE('',#280,#281,#332,.T.);
#193=EDGE_CURVE('',#281,#282,#333,.T.);
#194=EDGE_CURVE('',#283,#282,#334,.T.);
#195=EDGE_CURVE('',#283,#280,#335,.F.);
#196=EDGE_CURVE('',#278,#284,#336,.T.);
#197=EDGE_CURVE('',#284,#285,#337,.T.);
#198=EDGE_CURVE('',#279,#285,#338,.F.);
#199=EDGE_CURVE('',#286,#287,#339,.T.);
#200=EDGE_CURVE('',#287,#281,#340,.T.);
#201=EDGE_CURVE('',#280,#286,#341,.F.);
#202=EDGE_CURVE('',#288,#289,#342,.T.);
#203=EDGE_CURVE('',#289,#287,#343,.T.);
#204=EDGE_CURVE('',#286,#288,#344,.F.);
#205=EDGE_CURVE('',#282,#289,#345,.T.);
#206=EDGE_CURVE('',#288,#283,#346,.F.);
#207=EDGE_CURVE('',#290,#291,#347,.T.);
#208=EDGE_CURVE('',#290,#288,#348,.T.);
#209=EDGE_CURVE('',#286,#291,#349,.T.);
#210=EDGE_CURVE('',#291,#292,#350,.T.);
#211=EDGE_CURVE('',#292,#280,#351,.T.);
#212=EDGE_CURVE('',#293,#284,#352,.T.);
#213=EDGE_CURVE('',#293,#294,#353,.T.);
#214=EDGE_CURVE('',#285,#294,#354,.F.);
#215=EDGE_CURVE('',#295,#296,#355,.F.);
#216=EDGE_CURVE('',#295,#297,#356,.T.);
#217=EDGE_CURVE('',#297,#298,#357,.F.);
#218=EDGE_CURVE('',#296,#298,#358,.T.);
#219=EDGE_CURVE('',#299,#295,#359,.F.);
#220=EDGE_CURVE('',#299,#300,#360,.T.);
#221=EDGE_CURVE('',#300,#297,#361,.F.);
#222=EDGE_CURVE('',#301,#299,#362,.F.);
#223=EDGE_CURVE('',#301,#302,#363,.T.);
#224=EDGE_CURVE('',#302,#300,#364,.F.);
#225=EDGE_CURVE('',#276,#293,#365,.T.);
#226=EDGE_CURVE('',#294,#277,#366,.F.);
#227=EDGE_CURVE('',#296,#301,#367,.F.);
#228=EDGE_CURVE('',#298,#302,#368,.F.);
#229=EDGE_CURVE('',#300,#294,#369,.T.);
#230=EDGE_CURVE('',#285,#302,#370,.T.);
#231=EDGE_CURVE('',#297,#277,#371,.T.);
#232=EDGE_CURVE('',#298,#279,#372,.T.);
#233=EDGE_CURVE('',#290,#303,#373,.T.);
#234=EDGE_CURVE('',#303,#283,#374,.T.);
#235=EDGE_CURVE('',#303,#292,#375,.T.);
#236=EDGE_CURVE('',#304,#290,#376,.T.);
#237=EDGE_CURVE('',#304,#305,#377,.T.);
#238=EDGE_CURVE('',#305,#303,#378,.T.);
#239=EDGE_CURVE('',#306,#291,#379,.T.);
#240=EDGE_CURVE('',#307,#292,#380,.T.);
#241=EDGE_CURVE('',#306,#307,#381,.T.);
#242=EDGE_CURVE('',#304,#306,#382,.T.);
#243=EDGE_CURVE('',#305,#307,#383,.T.);
#244=EDGE_CURVE('',#308,#309,#384,.T.);
#245=EDGE_CURVE('',#310,#309,#385,.T.);
#246=EDGE_CURVE('',#311,#310,#386,.T.);
#247=EDGE_CURVE('',#311,#308,#387,.T.);
#248=EDGE_CURVE('',#308,#312,#388,.T.);
#249=EDGE_CURVE('',#311,#313,#389,.T.);
#250=EDGE_CURVE('',#313,#312,#390,.T.);
#251=EDGE_CURVE('',#312,#314,#391,.T.);
#252=EDGE_CURVE('',#313,#315,#392,.T.);
#253=EDGE_CURVE('',#315,#314,#393,.T.);
#254=EDGE_CURVE('',#309,#314,#394,.T.);
#255=EDGE_CURVE('',#310,#315,#395,.T.);
#256=EDGE_CURVE('',#316,#293,#396,.T.);
#257=EDGE_CURVE('',#317,#284,#397,.T.);
#258=EDGE_CURVE('',#317,#316,#398,.T.);
#259=EDGE_CURVE('',#318,#278,#399,.T.);
#260=EDGE_CURVE('',#317,#318,#400,.T.);
#261=EDGE_CURVE('',#319,#276,#401,.T.);
#262=EDGE_CURVE('',#318,#319,#402,.T.);
#263=EDGE_CURVE('',#320,#321,#403,.T.);
#264=EDGE_CURVE('',#322,#321,#404,.T.);
#265=EDGE_CURVE('',#323,#322,#405,.T.);
#266=EDGE_CURVE('',#323,#320,#406,.T.);
#267=EDGE_CURVE('',#321,#324,#407,.T.);
#268=EDGE_CURVE('',#325,#324,#408,.T.);
#269=EDGE_CURVE('',#322,#325,#409,.T.);
#270=EDGE_CURVE('',#326,#324,#410,.T.);
#271=EDGE_CURVE('',#327,#326,#411,.T.);
#272=EDGE_CURVE('',#327,#325,#412,.T.);
#273=EDGE_CURVE('',#320,#326,#413,.T.);
#274=EDGE_CURVE('',#323,#327,#414,.T.);
#275=EDGE_CURVE('',#316,#319,#415,.T.);
#276=VERTEX_POINT('',#898);
#277=VERTEX_POINT('',#899);
#278=VERTEX_POINT('',#901);
#279=VERTEX_POINT('',#903);
#280=VERTEX_POINT('',#907);
#281=VERTEX_POINT('',#908);
#282=VERTEX_POINT('',#910);
#283=VERTEX_POINT('',#912);
#284=VERTEX_POINT('',#916);
#285=VERTEX_POINT('',#918);
#286=VERTEX_POINT('',#922);
#287=VERTEX_POINT('',#923);
#288=VERTEX_POINT('',#928);
#289=VERTEX_POINT('',#929);
#290=VERTEX_POINT('',#937);
#291=VERTEX_POINT('',#938);
#292=VERTEX_POINT('',#943);
#293=VERTEX_POINT('',#947);
#294=VERTEX_POINT('',#949);
#295=VERTEX_POINT('',#953);
#296=VERTEX_POINT('',#954);
#297=VERTEX_POINT('',#956);
#298=VERTEX_POINT('',#958);
#299=VERTEX_POINT('',#962);
#300=VERTEX_POINT('',#964);
#301=VERTEX_POINT('',#968);
#302=VERTEX_POINT('',#970);
#303=VERTEX_POINT('',#988);
#304=VERTEX_POINT('',#994);
#305=VERTEX_POINT('',#996);
#306=VERTEX_POINT('',#1000);
#307=VERTEX_POINT('',#1002);
#308=VERTEX_POINT('',#1010);
#309=VERTEX_POINT('',#1011);
#310=VERTEX_POINT('',#1013);
#311=VERTEX_POINT('',#1015);
#312=VERTEX_POINT('',#1019);
#313=VERTEX_POINT('',#1021);
#314=VERTEX_POINT('',#1025);
#315=VERTEX_POINT('',#1027);
#316=VERTEX_POINT('',#1036);
#317=VERTEX_POINT('',#1038);
#318=VERTEX_POINT('',#1042);
#319=VERTEX_POINT('',#1046);
#320=VERTEX_POINT('',#1050);
#321=VERTEX_POINT('',#1051);
#322=VERTEX_POINT('',#1053);
#323=VERTEX_POINT('',#1055);
#324=VERTEX_POINT('',#1059);
#325=VERTEX_POINT('',#1061);
#326=VERTEX_POINT('',#1065);
#327=VERTEX_POINT('',#1067);
#328=LINE('',#897,#416);
#329=LINE('',#900,#417);
#330=LINE('',#902,#418);
#331=LINE('',#904,#419);
#332=LINE('',#906,#420);
#333=LINE('',#909,#421);
#334=LINE('',#911,#422);
#335=LINE('',#913,#423);
#336=LINE('',#915,#424);
#337=LINE('',#917,#425);
#338=LINE('',#919,#426);
#339=LINE('',#921,#427);
#340=LINE('',#924,#428);
#341=LINE('',#925,#429);
#342=LINE('',#927,#430);
#343=LINE('',#930,#431);
#344=LINE('',#931,#432);
#345=LINE('',#933,#433);
#346=LINE('',#934,#434);
#347=LINE('',#936,#435);
#348=LINE('',#939,#436);
#349=LINE('',#940,#437);
#350=LINE('',#942,#438);
#351=LINE('',#944,#439);
#352=LINE('',#946,#440);
#353=LINE('',#948,#441);
#354=LINE('',#950,#442);
#355=LINE('',#952,#443);
#356=LINE('',#955,#444);
#357=LINE('',#957,#445);
#358=LINE('',#959,#446);
#359=LINE('',#961,#447);
#360=LINE('',#963,#448);
#361=LINE('',#965,#449);
#362=LINE('',#967,#450);
#363=LINE('',#969,#451);
#364=LINE('',#971,#452);
#365=LINE('',#973,#453);
#366=LINE('',#974,#454);
#367=LINE('',#976,#455);
#368=LINE('',#977,#456);
#369=LINE('',#979,#457);
#370=LINE('',#980,#458);
#371=LINE('',#982,#459);
#372=LINE('',#984,#460);
#373=LINE('',#987,#461);
#374=LINE('',#989,#462);
#375=LINE('',#991,#463);
#376=LINE('',#993,#464);
#377=LINE('',#995,#465);
#378=LINE('',#997,#466);
#379=LINE('',#999,#467);
#380=LINE('',#1001,#468);
#381=LINE('',#1003,#469);
#382=LINE('',#1005,#470);
#383=LINE('',#1007,#471);
#384=LINE('',#1009,#472);
#385=LINE('',#1012,#473);
#386=LINE('',#1014,#474);
#387=LINE('',#1016,#475);
#388=LINE('',#1018,#476);
#389=LINE('',#1020,#477);
#390=LINE('',#1022,#478);
#391=LINE('',#1024,#479);
#392=LINE('',#1026,#480);
#393=LINE('',#1028,#481);
#394=LINE('',#1030,#482);
#395=LINE('',#1031,#483);
#396=LINE('',#1035,#484);
#397=LINE('',#1037,#485);
#398=LINE('',#1039,#486);
#399=LINE('',#1041,#487);
#400=LINE('',#1043,#488);
#401=LINE('',#1045,#489);
#402=LINE('',#1047,#490);
#403=LINE('',#1049,#491);
#404=LINE('',#1052,#492);
#405=LINE('',#1054,#493);
#406=LINE('',#1056,#494);
#407=LINE('',#1058,#495);
#408=LINE('',#1060,#496);
#409=LINE('',#1062,#497);
#410=LINE('',#1064,#498);
#411=LINE('',#1066,#499);
#412=LINE('',#1068,#500);
#413=LINE('',#1070,#501);
#414=LINE('',#1071,#502);
#415=LINE('',#1073,#503);
#416=VECTOR('',#729,1.);
#417=VECTOR('',#730,1.);
#418=VECTOR('',#731,1.);
#419=VECTOR('',#732,1.);
#420=VECTOR('',#735,1.);
#421=VECTOR('',#736,1.);
#422=VECTOR('',#737,1.);
#423=VECTOR('',#738,1.);
#424=VECTOR('',#741,1.);
#425=VECTOR('',#742,1.);
#426=VECTOR('',#743,1.);
#427=VECTOR('',#746,1.);
#428=VECTOR('',#747,1.);
#429=VECTOR('',#748,1.);
#430=VECTOR('',#751,1.);
#431=VECTOR('',#752,1.);
#432=VECTOR('',#753,1.);
#433=VECTOR('',#756,1.);
#434=VECTOR('',#757,1.);
#435=VECTOR('',#760,1.);
#436=VECTOR('',#761,1.);
#437=VECTOR('',#762,1.);
#438=VECTOR('',#765,1.);
#439=VECTOR('',#766,1.);
#440=VECTOR('',#769,1.);
#441=VECTOR('',#770,1.);
#442=VECTOR('',#771,1.);
#443=VECTOR('',#774,1.);
#444=VECTOR('',#775,1.);
#445=VECTOR('',#776,1.);
#446=VECTOR('',#777,1.);
#447=VECTOR('',#780,1.);
#448=VECTOR('',#781,1.);
#449=VECTOR('',#782,1.);
#450=VECTOR('',#785,1.);
#451=VECTOR('',#786,1.);
#452=VECTOR('',#787,1.);
#453=VECTOR('',#790,1.);
#454=VECTOR('',#791,1.);
#455=VECTOR('',#794,1.);
#456=VECTOR('',#795,1.);
#457=VECTOR('',#798,1.);
#458=VECTOR('',#799,1.);
#459=VECTOR('',#802,1.);
#460=VECTOR('',#805,1.);
#461=VECTOR('',#810,1.);
#462=VECTOR('',#811,1.);
#463=VECTOR('',#814,1.);
#464=VECTOR('',#817,1.);
#465=VECTOR('',#818,1.);
#466=VECTOR('',#819,1.);
#467=VECTOR('',#822,1.);
#468=VECTOR('',#823,1.);
#469=VECTOR('',#824,1.);
#470=VECTOR('',#827,1.);
#471=VECTOR('',#830,1.);
#472=VECTOR('',#833,1.);
#473=VECTOR('',#834,1.);
#474=VECTOR('',#835,1.);
#475=VECTOR('',#836,1.);
#476=VECTOR('',#839,1.);
#477=VECTOR('',#840,1.);
#478=VECTOR('',#841,1.);
#479=VECTOR('',#844,1.);
#480=VECTOR('',#845,1.);
#481=VECTOR('',#846,1.);
#482=VECTOR('',#849,1.);
#483=VECTOR('',#850,1.);
#484=VECTOR('',#857,1.);
#485=VECTOR('',#858,1.);
#486=VECTOR('',#859,1.);
#487=VECTOR('',#862,1.);
#488=VECTOR('',#863,1.);
#489=VECTOR('',#866,1.);
#490=VECTOR('',#867,1.);
#491=VECTOR('',#870,1.);
#492=VECTOR('',#871,1.);
#493=VECTOR('',#872,1.);
#494=VECTOR('',#873,1.);
#495=VECTOR('',#876,1.);
#496=VECTOR('',#877,1.);
#497=VECTOR('',#878,1.);
#498=VECTOR('',#881,1.);
#499=VECTOR('',#882,1.);
#500=VECTOR('',#883,1.);
#501=VECTOR('',#886,1.);
#502=VECTOR('',#887,1.);
#503=VECTOR('',#890,1.);
#504=EDGE_LOOP('',(#12,#13,#14,#15));
#505=EDGE_LOOP('',(#16,#17,#18,#19));
#506=EDGE_LOOP('',(#20,#21,#22,#23));
#507=EDGE_LOOP('',(#24,#25,#26,#27));
#508=EDGE_LOOP('',(#28,#29,#30,#31));
#509=EDGE_LOOP('',(#32,#33,#34,#35));
#510=EDGE_LOOP('',(#36,#37,#38,#39));
#511=EDGE_LOOP('',(#40,#41,#42,#43));
#512=EDGE_LOOP('',(#44,#45,#46,#47));
#513=EDGE_LOOP('',(#48,#49,#50,#51));
#514=EDGE_LOOP('',(#52,#53,#54,#55));
#515=EDGE_LOOP('',(#56,#57,#58,#59));
#516=EDGE_LOOP('',(#60,#61,#62,#63));
#517=EDGE_LOOP('',(#64,#65,#66,#67));
#518=EDGE_LOOP('',(#68,#69,#70,#71));
#519=EDGE_LOOP('',(#72,#73,#74,#75));
#520=EDGE_LOOP('',(#76,#77,#78,#79));
#521=EDGE_LOOP('',(#80,#81,#82,#83));
#522=EDGE_LOOP('',(#84,#85,#86,#87));
#523=EDGE_LOOP('',(#88,#89,#90,#91));
#524=EDGE_LOOP('',(#92,#93,#94,#95));
#525=EDGE_LOOP('',(#96,#97,#98,#99));
#526=EDGE_LOOP('',(#100,#101,#102,#103));
#527=EDGE_LOOP('',(#104,#105,#106,#107));
#528=EDGE_LOOP('',(#108,#109,#110,#111));
#529=EDGE_LOOP('',(#112,#113,#114,#115));
#530=EDGE_LOOP('',(#116,#117,#118,#119));
#531=EDGE_LOOP('',(#120,#121,#122,#123));
#532=EDGE_LOOP('',(#124,#125,#126,#127));
#533=EDGE_LOOP('',(#128,#129,#130,#131));
#534=EDGE_LOOP('',(#132,#133,#134,#135));
#535=EDGE_LOOP('',(#136,#137,#138,#139));
#536=EDGE_LOOP('',(#140,#141,#142,#143));
#537=EDGE_LOOP('',(#144,#145,#146,#147));
#538=EDGE_LOOP('',(#148,#149,#150,#151));
#539=EDGE_LOOP('',(#152,#153,#154,#155));
#540=EDGE_LOOP('',(#156,#157,#158,#159));
#541=EDGE_LOOP('',(#160,#161,#162,#163));
#542=EDGE_LOOP('',(#164,#165,#166,#167));
#543=EDGE_LOOP('',(#168,#169,#170,#171));
#544=EDGE_LOOP('',(#172,#173,#174,#175));
#545=EDGE_LOOP('',(#176,#177,#178,#179));
#546=EDGE_LOOP('',(#180,#181,#182,#183));
#547=EDGE_LOOP('',(#184,#185,#186,#187));
#548=FACE_BOUND('',#504,.T.);
#549=FACE_BOUND('',#505,.T.);
#550=FACE_BOUND('',#506,.T.);
#551=FACE_BOUND('',#507,.T.);
#552=FACE_BOUND('',#508,.T.);
#553=FACE_BOUND('',#509,.T.);
#554=FACE_BOUND('',#510,.T.);
#555=FACE_BOUND('',#511,.T.);
#556=FACE_BOUND('',#512,.T.);
#557=FACE_BOUND('',#513,.T.);
#558=FACE_BOUND('',#514,.T.);
#559=FACE_BOUND('',#515,.T.);
#560=FACE_BOUND('',#516,.T.);
#561=FACE_BOUND('',#517,.T.);
#562=FACE_BOUND('',#518,.T.);
#563=FACE_BOUND('',#519,.T.);
#564=FACE_BOUND('',#520,.T.);
#565=FACE_BOUND('',#521,.T.);
#566=FACE_BOUND('',#522,.T.);
#567=FACE_BOUND('',#523,.T.);
#568=FACE_BOUND('',#524,.T.);
#569=FACE_BOUND('',#525,.T.);
#570=FACE_BOUND('',#526,.T.);
#571=FACE_BOUND('',#527,.T.);
#572=FACE_BOUND('',#528,.T.);
#573=FACE_BOUND('',#529,.T.);
#574=FACE_BOUND('',#530,.T.);
#575=FACE_BOUND('',#531,.T.);
#576=FACE_BOUND('',#532,.T.);
#577=FACE_BOUND('',#533,.T.);
#578=FACE_BOUND('',#534,.T.);
#579=FACE_BOUND('',#535,.T.);
#580=FACE_BOUND('',#536,.T.);
#581=FACE_BOUND('',#537,.T.);
#582=FACE_BOUND('',#538,.T.);
#583=FACE_BOUND('',#539,.T.);
#584=FACE_BOUND('',#540,.T.);
#585=FACE_BOUND('',#541,.T.);
#586=FACE_BOUND('',#542,.T.);
#587=FACE_BOUND('',#543,.T.);
#588=FACE_BOUND('',#544,.T.);
#589=FACE_BOUND('',#545,.T.);
#590=FACE_BOUND('',#546,.T.);
#591=FACE_BOUND('',#547,.T.);
#592=PLANE('',#685);
#593=PLANE('',#686);
#594=PLANE('',#687);
#595=PLANE('',#688);
#596=PLANE('',#689);
#597=PLANE('',#690);
#598=PLANE('',#691);
#599=PLANE('',#692);
#600=PLANE('',#693);
#601=PLANE('',#694);
#602=PLANE('',#695);
#603=PLANE('',#696);
#604=PLANE('',#697);
#605=PLANE('',#698);
#606=PLANE('',#699);
#607=PLANE('',#700);
#608=PLANE('',#701);
#609=PLANE('',#702);
#610=PLANE('',#703);
#611=PLANE('',#704);
#612=PLANE('',#705);
#613=PLANE('',#706);
#614=PLANE('',#707);
#615=PLANE('',#708);
#616=PLANE('',#709);
#617=PLANE('',#710);
#618=PLANE('',#711);
#619=PLANE('',#712);
#620=PLANE('',#713);
#621=PLANE('',#714);
#622=PLANE('',#715);
#623=PLANE('',#716);
#624=PLANE('',#717);
#625=PLANE('',#718);
#626=PLANE('',#719);
#627=PLANE('',#720);
#628=PLANE('',#721);
#629=PLANE('',#722);
#630=PLANE('',#723);
#631=PLANE('',#724);
#632=ADVANCED_FACE('',(#548),#592,.T.);
#633=ADVANCED_FACE('',(#549),#593,.T.);
#634=ADVANCED_FACE('',(#550),#594,.T.);
#635=ADVANCED_FACE('',(#551),#595,.T.);
#636=ADVANCED_FACE('',(#552),#596,.T.);
#637=ADVANCED_FACE('',(#553),#597,.T.);
#638=ADVANCED_FACE('',(#554),#598,.F.);
#639=ADVANCED_FACE('',(#555),#599,.F.);
#640=ADVANCED_FACE('',(#556),#600,.T.);
#641=ADVANCED_FACE('',(#557),#601,.F.);
#642=ADVANCED_FACE('',(#558),#602,.F.);
#643=ADVANCED_FACE('',(#559),#603,.F.);
#644=ADVANCED_FACE('',(#560),#604,.T.);
#645=ADVANCED_FACE('',(#561),#605,.F.);
#646=ADVANCED_FACE('',(#562),#606,.T.);
#647=ADVANCED_FACE('',(#563),#607,.T.);
#648=ADVANCED_FACE('',(#564),#608,.T.);
#649=ADVANCED_FACE('',(#565),#609,.T.);
#650=ADVANCED_FACE('',(#566),#610,.F.);
#651=ADVANCED_FACE('',(#567),#611,.F.);
#652=ADVANCED_FACE('',(#568),#612,.T.);
#653=ADVANCED_FACE('',(#569),#613,.F.);
#654=ADVANCED_FACE('',(#570),#614,.F.);
#655=ADVANCED_FACE('',(#571),#615,.T.);
#656=ADVANCED_FACE('',(#572),#616,.F.);
#657=ADVANCED_FACE('',(#573),#617,.T.);
#658=ADVANCED_FACE('',(#574),#618,.T.);
#659=ADVANCED_FACE('',(#575),#619,.F.);
#660=ADVANCED_FACE('',(#576,#577),#620,.F.);
#661=ADVANCED_FACE('',(#578,#579),#621,.T.);
#662=ADVANCED_FACE('',(#580),#622,.T.);
#663=ADVANCED_FACE('',(#581),#623,.F.);
#664=ADVANCED_FACE('',(#582),#624,.F.);
#665=ADVANCED_FACE('',(#583),#625,.F.);
#666=ADVANCED_FACE('',(#584),#626,.F.);
#667=ADVANCED_FACE('',(#585),#627,.T.);
#668=ADVANCED_FACE('',(#586),#628,.T.);
#669=ADVANCED_FACE('',(#587),#629,.T.);
#670=ADVANCED_FACE('',(#588,#589),#630,.T.);
#671=ADVANCED_FACE('',(#590,#591),#631,.F.);
#672=CLOSED_SHELL('',(#632,#633,#634,#635,#636,#637,#638,#639,#640,#641,
#642,#643,#644,#645,#646,#647,#648,#649,#650,#651,#652,#653,#654,#655,#656,
#657,#658,#659,#660,#661,#662,#663,#664,#665,#666,#667,#668,#669,#670,#671));
#673=STYLED_ITEM('',(#674),#681);
#674=PRESENTATION_STYLE_ASSIGNMENT((#675));
#675=SURFACE_STYLE_USAGE(.BOTH.,#676);
#676=SURFACE_SIDE_STYLE('',(#677));
#677=SURFACE_STYLE_FILL_AREA(#678);
#678=FILL_AREA_STYLE('',(#679));
#679=FILL_AREA_STYLE_COLOUR('',#680);
#680=COLOUR_RGB('',0.647058823529412,0.647058823529412,0.647058823529412);
#681=MANIFOLD_SOLID_BREP('Diffuseur',#672);
#682=SHAPE_DEFINITION_REPRESENTATION(#1082,#683);
#683=SHAPE_REPRESENTATION('Diffuseur',(#684),#1077);
#684=AXIS2_PLACEMENT_3D('',#895,#725,#726);
#685=AXIS2_PLACEMENT_3D('',#896,#727,#728);
#686=AXIS2_PLACEMENT_3D('',#905,#733,#734);
#687=AXIS2_PLACEMENT_3D('',#914,#739,#740);
#688=AXIS2_PLACEMENT_3D('',#920,#744,#745);
#689=AXIS2_PLACEMENT_3D('',#926,#749,#750);
#690=AXIS2_PLACEMENT_3D('',#932,#754,#755);
#691=AXIS2_PLACEMENT_3D('',#935,#758,#759);
#692=AXIS2_PLACEMENT_3D('',#941,#763,#764);
#693=AXIS2_PLACEMENT_3D('',#945,#767,#768);
#694=AXIS2_PLACEMENT_3D('',#951,#772,#773);
#695=AXIS2_PLACEMENT_3D('',#960,#778,#779);
#696=AXIS2_PLACEMENT_3D('',#966,#783,#784);
#697=AXIS2_PLACEMENT_3D('',#972,#788,#789);
#698=AXIS2_PLACEMENT_3D('',#975,#792,#793);
#699=AXIS2_PLACEMENT_3D('',#978,#796,#797);
#700=AXIS2_PLACEMENT_3D('',#981,#800,#801);
#701=AXIS2_PLACEMENT_3D('',#983,#803,#804);
#702=AXIS2_PLACEMENT_3D('',#985,#806,#807);
#703=AXIS2_PLACEMENT_3D('',#986,#808,#809);
#704=AXIS2_PLACEMENT_3D('',#990,#812,#813);
#705=AXIS2_PLACEMENT_3D('',#992,#815,#816);
#706=AXIS2_PLACEMENT_3D('',#998,#820,#821);
#707=AXIS2_PLACEMENT_3D('',#1004,#825,#826);
#708=AXIS2_PLACEMENT_3D('',#1006,#828,#829);
#709=AXIS2_PLACEMENT_3D('',#1008,#831,#832);
#710=AXIS2_PLACEMENT_3D('',#1017,#837,#838);
#711=AXIS2_PLACEMENT_3D('',#1023,#842,#843);
#712=AXIS2_PLACEMENT_3D('',#1029,#847,#848);
#713=AXIS2_PLACEMENT_3D('',#1032,#851,#852);
#714=AXIS2_PLACEMENT_3D('',#1033,#853,#854);
#715=AXIS2_PLACEMENT_3D('',#1034,#855,#856);
#716=AXIS2_PLACEMENT_3D('',#1040,#860,#861);
#717=AXIS2_PLACEMENT_3D('',#1044,#864,#865);
#718=AXIS2_PLACEMENT_3D('',#1048,#868,#869);
#719=AXIS2_PLACEMENT_3D('',#1057,#874,#875);
#720=AXIS2_PLACEMENT_3D('',#1063,#879,#880);
#721=AXIS2_PLACEMENT_3D('',#1069,#884,#885);
#722=AXIS2_PLACEMENT_3D('',#1072,#888,#889);
#723=AXIS2_PLACEMENT_3D('',#1074,#891,#892);
#724=AXIS2_PLACEMENT_3D('',#1075,#893,#894);
#725=DIRECTION('',(0.,0.,1.));
#726=DIRECTION('',(1.,0.,0.));
#727=DIRECTION('',(0.,-0.995037190209989,-0.0995037190209992));
#728=DIRECTION('',(1.,0.,0.));
#729=DIRECTION('',(0.705345615858598,-0.0705345615858581,0.705345615858598));
#730=DIRECTION('',(1.,0.,0.));
#731=DIRECTION('',(-0.705345615858598,-0.0705345615858581,0.705345615858598));
#732=DIRECTION('',(-1.,1.21252158331421E-17,1.21252158331422E-18));
#733=DIRECTION('',(0.,-0.995037190209989,-0.0995037190209992));
#734=DIRECTION('',(1.,0.,0.));
#735=DIRECTION('',(-0.705345615858598,-0.0705345615858581,0.705345615858598));
#736=DIRECTION('',(-1.,0.,0.));
#737=DIRECTION('',(0.705345615858598,-0.0705345615858581,0.705345615858598));
#738=DIRECTION('',(-1.,1.21252158331421E-17,1.21252158331422E-18));
#739=DIRECTION('',(0.0995037190209992,-0.995037190209989,-6.09284555011621E-18));
#740=DIRECTION('',(6.12323399573677E-17,0.,1.));
#741=DIRECTION('',(5.75841817751637E-17,-3.64815818220393E-19,1.));
#742=DIRECTION('',(-0.705345615858598,-0.0705345615858561,-0.7053456158586));
#743=DIRECTION('',(-6.24448615406819E-17,1.21252158331421E-17,-1.));
#744=DIRECTION('',(0.0995037190209992,-0.995037190209989,-6.09284555011621E-18));
#745=DIRECTION('',(6.12323399573677E-17,0.,1.));
#746=DIRECTION('',(-0.705345615858598,-0.0705345615858561,-0.7053456158586));
#747=DIRECTION('',(-6.12323399573677E-17,0.,-1.));
#748=DIRECTION('',(-6.24448615406819E-17,1.21252158331421E-17,-1.));
#749=DIRECTION('',(-1.21856911002324E-17,-0.995037190209989,0.0995037190209992));
#750=DIRECTION('',(-1.,0.,-1.22464679914735E-16));
#751=DIRECTION('',(0.705345615858598,-0.0705345615858582,-0.705345615858598));
#752=DIRECTION('',(1.,0.,1.22464679914735E-16));
#753=DIRECTION('',(1.,1.21252158331421E-17,1.21252158331421E-16));
#754=DIRECTION('',(-0.0995037190209992,-0.995037190209989,-6.09284555011622E-18));
#755=DIRECTION('',(6.12323399573677E-17,0.,-1.));
#756=DIRECTION('',(-6.12323399573677E-17,0.,1.));
#757=DIRECTION('',(-6.00198183740535E-17,1.21252158331421E-17,1.));
#758=DIRECTION('',(1.21856911002324E-16,-0.0995037190209992,-0.995037190209989));
#759=DIRECTION('',(0.,0.995037190209989,-0.0995037190209992));
#760=DIRECTION('',(1.,1.22464679914735E-15,0.));
#761=DIRECTION('',(-0.0990147542976677,-0.990147542976674,0.0990147542976677));
#762=DIRECTION('',(-0.0990147542976677,0.990147542976674,-0.0990147542976677));
#763=DIRECTION('',(-0.995037190209989,-0.0995037190209992,6.0928455501162E-17));
#764=DIRECTION('',(-0.0995037190209992,0.995037190209989,1.82785366503486E-17));
#765=DIRECTION('',(-1.26161707343768E-16,6.49293673863999E-16,-1.));
#766=DIRECTION('',(0.0990147542976677,-0.990147542976674,-0.0990147542976677));
#767=DIRECTION('',(-1.21856911002324E-17,-0.995037190209989,0.0995037190209992));
#768=DIRECTION('',(-1.,0.,-1.22464679914735E-16));
#769=DIRECTION('',(1.,-1.22464679914736E-17,0.));
#770=DIRECTION('',(0.705345615858598,-0.0705345615858582,-0.705345615858598));
#771=DIRECTION('',(1.,1.21252158331421E-17,1.21252158331421E-16));
#772=DIRECTION('',(-1.21856911002324E-17,-0.995037190209989,-0.0995037190209992));
#773=DIRECTION('',(1.,0.,-1.22464679914735E-16));
#774=DIRECTION('',(-1.,0.,1.22464679914735E-16));
#775=DIRECTION('',(0.705345615858599,-0.0705345615858601,0.705345615858597));
#776=DIRECTION('',(-1.,1.21252158331421E-17,1.21252158331422E-18));
#777=DIRECTION('',(-0.705345615858597,-0.0705345615858601,0.705345615858599));
#778=DIRECTION('',(-0.0995037190209992,-0.995037190209989,6.09284555011622E-18));
#779=DIRECTION('',(-6.12323399573677E-17,0.,-1.));
#780=DIRECTION('',(6.12323399573677E-17,0.,1.));
#781=DIRECTION('',(0.705345615858597,-0.0705345615858601,-0.705345615858599));
#782=DIRECTION('',(-6.00198183740535E-17,1.21252158331421E-17,1.));
#783=DIRECTION('',(0.,-0.995037190209989,0.0995037190209992));
#784=DIRECTION('',(-1.,0.,0.));
#785=DIRECTION('',(1.,0.,0.));
#786=DIRECTION('',(-0.705345615858598,-0.0705345615858601,-0.705345615858598));
#787=DIRECTION('',(1.,1.21252158331421E-17,1.21252158331421E-16));
#788=DIRECTION('',(-0.0995037190209992,-0.995037190209989,-6.09284555011622E-18));
#789=DIRECTION('',(6.12323399573677E-17,0.,-1.));
#790=DIRECTION('',(5.75841817751637E-17,-1.18816521732532E-17,1.));
#791=DIRECTION('',(-6.00198183740535E-17,1.21252158331421E-17,1.));
#792=DIRECTION('',(0.0995037190209992,-0.995037190209989,-1.82785366503486E-17));
#793=DIRECTION('',(1.83697019872103E-16,0.,1.));
#794=DIRECTION('',(-1.83697019872103E-16,0.,-1.));
#795=DIRECTION('',(-6.24448615406819E-17,1.21252158331421E-17,-1.));
#796=DIRECTION('',(1.21856911002324E-16,-0.0995037190209992,-0.995037190209989));
#797=DIRECTION('',(0.,0.995037190209989,-0.0995037190209992));
#798=DIRECTION('',(-0.0990147542976677,-0.990147542976674,0.0990147542976677));
#799=DIRECTION('',(-0.0990147542976677,0.990147542976674,-0.0990147542976677));
#800=DIRECTION('',(0.995037190209989,-0.0995037190209992,6.0928455501162E-17));
#801=DIRECTION('',(0.0995037190209992,0.995037190209989,-6.09284555011622E-18));
#802=DIRECTION('',(-0.0990147542976677,-0.990147542976674,-0.0990147542976677));
#803=DIRECTION('',(0.,-0.0995037190209992,0.995037190209989));
#804=DIRECTION('',(1.21856911002324E-17,0.995037190209989,0.0995037190209992));
#805=DIRECTION('',(0.0990147542976677,-0.990147542976674,-0.0990147542976677));
#806=DIRECTION('',(-0.995037190209989,-0.0995037190209992,6.0928455501162E-17));
#807=DIRECTION('',(-0.0995037190209992,0.995037190209989,1.82785366503486E-17));
#808=DIRECTION('',(0.995037190209989,-0.0995037190209992,6.0928455501162E-17));
#809=DIRECTION('',(0.0995037190209992,0.995037190209989,-6.09284555011622E-18));
#810=DIRECTION('',(-1.26161707343768E-16,-1.87394047301135E-15,-1.));
#811=DIRECTION('',(-0.0990147542976677,-0.990147542976674,-0.0990147542976677));
#812=DIRECTION('',(0.,-0.0995037190209992,0.995037190209989));
#813=DIRECTION('',(1.21856911002324E-17,0.995037190209989,0.0995037190209992));
#814=DIRECTION('',(1.,0.,0.));
#815=DIRECTION('',(-1.,0.,1.26161707343768E-16));
#816=DIRECTION('',(1.26161707343768E-16,0.,1.));
#817=DIRECTION('',(0.,-1.,0.));
#818=DIRECTION('',(-1.26161707343768E-16,0.,-1.));
#819=DIRECTION('',(0.,-1.,0.));
#820=DIRECTION('',(-1.,0.,1.26161707343768E-16));
#821=DIRECTION('',(1.26161707343768E-16,0.,1.));
#822=DIRECTION('',(0.,-1.,0.));
#823=DIRECTION('',(0.,-1.,0.));
#824=DIRECTION('',(-1.26161707343768E-16,0.,-1.));
#825=DIRECTION('',(0.,0.,-1.));
#826=DIRECTION('',(-1.,0.,0.));
#827=DIRECTION('',(1.,0.,0.));
#828=DIRECTION('',(0.,0.,-1.));
#829=DIRECTION('',(-1.,0.,0.));
#830=DIRECTION('',(1.,0.,0.));
#831=DIRECTION('',(-1.,0.,1.38777878078145E-16));
#832=DIRECTION('',(1.38777878078145E-16,0.,1.));
#833=DIRECTION('',(-1.38777878078145E-16,0.,-1.));
#834=DIRECTION('',(0.,-1.,0.));
#835=DIRECTION('',(-1.38777878078145E-16,0.,-1.));
#836=DIRECTION('',(0.,-1.,0.));
#837=DIRECTION('',(0.,0.,-1.));
#838=DIRECTION('',(-1.,0.,0.));
#839=DIRECTION('',(1.,0.,0.));
#840=DIRECTION('',(1.,0.,0.));
#841=DIRECTION('',(0.,-1.,0.));
#842=DIRECTION('',(-1.,0.,1.38777878078145E-16));
#843=DIRECTION('',(1.38777878078145E-16,0.,1.));
#844=DIRECTION('',(-1.38777878078145E-16,0.,-1.));
#845=DIRECTION('',(-1.38777878078145E-16,0.,-1.));
#846=DIRECTION('',(0.,-1.,0.));
#847=DIRECTION('',(0.,0.,-1.));
#848=DIRECTION('',(-1.,0.,0.));
#849=DIRECTION('',(1.,0.,0.));
#850=DIRECTION('',(1.,0.,0.));
#851=DIRECTION('',(0.,-1.,0.));
#852=DIRECTION('',(1.,0.,0.));
#853=DIRECTION('',(0.,-1.,0.));
#854=DIRECTION('',(1.,0.,0.));
#855=DIRECTION('',(0.,0.,-1.));
#856=DIRECTION('',(-1.,0.,0.));
#857=DIRECTION('',(0.,1.,0.));
#858=DIRECTION('',(0.,1.,0.));
#859=DIRECTION('',(-1.,0.,0.));
#860=DIRECTION('',(1.,0.,-5.75841817751637E-17));
#861=DIRECTION('',(-5.75841817751637E-17,0.,-1.));
#862=DIRECTION('',(0.,1.,0.));
#863=DIRECTION('',(-5.75841817751637E-17,0.,-1.));
#864=DIRECTION('',(0.,0.,-1.));
#865=DIRECTION('',(-1.,0.,0.));
#866=DIRECTION('',(0.,1.,0.));
#867=DIRECTION('',(-1.,0.,0.));
#868=DIRECTION('',(0.,0.,-1.));
#869=DIRECTION('',(-1.,0.,0.));
#870=DIRECTION('',(-1.,0.,0.));
#871=DIRECTION('',(0.,1.,0.));
#872=DIRECTION('',(-1.,0.,0.));
#873=DIRECTION('',(0.,1.,0.));
#874=DIRECTION('',(1.,0.,0.));
#875=DIRECTION('',(0.,0.,-1.));
#876=DIRECTION('',(0.,0.,-1.));
#877=DIRECTION('',(0.,1.,0.));
#878=DIRECTION('',(0.,0.,-1.));
#879=DIRECTION('',(0.,0.,-1.));
#880=DIRECTION('',(-1.,0.,0.));
#881=DIRECTION('',(-1.,0.,0.));
#882=DIRECTION('',(0.,1.,0.));
#883=DIRECTION('',(-1.,0.,0.));
#884=DIRECTION('',(1.,0.,0.));
#885=DIRECTION('',(0.,0.,-1.));
#886=DIRECTION('',(0.,0.,-1.));
#887=DIRECTION('',(0.,0.,-1.));
#888=DIRECTION('',(1.,0.,-5.75841817751637E-17));
#889=DIRECTION('',(-5.75841817751637E-17,0.,-1.));
#890=DIRECTION('',(-5.75841817751637E-17,0.,-1.));
#891=DIRECTION('',(0.,-1.,0.));
#892=DIRECTION('',(1.,0.,0.));
#893=DIRECTION('',(0.,-1.,0.));
#894=DIRECTION('',(1.,0.,0.));
#895=CARTESIAN_POINT('',(0.,0.,0.));
#896=CARTESIAN_POINT('',(-9.49101269339199E-18,-0.1,-0.0625));
#897=CARTESIAN_POINT('',(-0.064987592975525,-0.0997512407024475,-0.064987592975525));
#898=CARTESIAN_POINT('',(-0.06025,-0.100225,-0.06025));
#899=CARTESIAN_POINT('',(-0.0600124070244751,-0.100248759297552,-0.0600124070244751));
#900=CARTESIAN_POINT('',(-9.49101269339199E-18,-0.100225,-0.06025));
#901=CARTESIAN_POINT('',(0.06025,-0.100225,-0.06025));
#902=CARTESIAN_POINT('',(0.064987592975525,-0.0997512407024475,-0.064987592975525));
#903=CARTESIAN_POINT('',(0.0600124070244751,-0.100248759297552,-0.0600124070244751));
#904=CARTESIAN_POINT('',(-1.28830418227135E-18,-0.100248759297552,-0.0600124070244751));
#905=CARTESIAN_POINT('',(-9.49101269339199E-18,-0.1,-0.0625));
#906=CARTESIAN_POINT('',(0.064987592975525,-0.0997512407024475,-0.064987592975525));
#907=CARTESIAN_POINT('',(0.064987592975525,-0.0997512407024475,-0.064987592975525));
#908=CARTESIAN_POINT('',(0.0625,-0.1,-0.0625));
#909=CARTESIAN_POINT('',(-9.49101269339199E-18,-0.1,-0.0625));
#910=CARTESIAN_POINT('',(-0.0625,-0.1,-0.0625));
#911=CARTESIAN_POINT('',(-0.064987592975525,-0.0997512407024475,-0.064987592975525));
#912=CARTESIAN_POINT('',(-0.064987592975525,-0.0997512407024475,-0.064987592975525));
#913=CARTESIAN_POINT('',(-1.28830418227135E-18,-0.0997512407024475,-0.064987592975525));
#914=CARTESIAN_POINT('',(0.0625,-0.1,-1.33180339407275E-17));
#915=CARTESIAN_POINT('',(0.06025,-0.100225,-1.31885516152924E-17));
#916=CARTESIAN_POINT('',(0.06025,-0.100225,0.06025));
#917=CARTESIAN_POINT('',(0.064987592975525,-0.0997512407024476,0.064987592975525));
#918=CARTESIAN_POINT('',(0.0600124070244751,-0.100248759297552,0.0600124070244751));
#919=CARTESIAN_POINT('',(0.0600124070244751,-0.100248759297552,-4.96300429085393E-18));
#920=CARTESIAN_POINT('',(0.0625,-0.1,-1.33180339407275E-17));
#921=CARTESIAN_POINT('',(0.064987592975525,-0.0997512407024476,0.064987592975525));
#922=CARTESIAN_POINT('',(0.064987592975525,-0.0997512407024476,0.064987592975525));
#923=CARTESIAN_POINT('',(0.0625,-0.1,0.0625));
#924=CARTESIAN_POINT('',(0.0625,-0.1,-1.33180339407275E-17));
#925=CARTESIAN_POINT('',(0.064987592975525,-0.0997512407024475,-5.26764656835974E-18));
#926=CARTESIAN_POINT('',(1.83697019872103E-18,-0.1,0.0625));
#927=CARTESIAN_POINT('',(-0.064987592975525,-0.0997512407024476,0.064987592975525));
#928=CARTESIAN_POINT('',(-0.064987592975525,-0.0997512407024476,0.064987592975525));
#929=CARTESIAN_POINT('',(-0.0625,-0.1,0.0625));
#930=CARTESIAN_POINT('',(1.83697019872103E-18,-0.1,0.0625));
#931=CARTESIAN_POINT('',(-6.67038058990542E-18,-0.0997512407024475,0.064987592975525));
#932=CARTESIAN_POINT('',(-0.0625,-0.1,5.66399144605651E-18));
#933=CARTESIAN_POINT('',(-0.0625,-0.1,5.66399144605651E-18));
#934=CARTESIAN_POINT('',(-0.064987592975525,-0.0997512407024475,-2.69103820381703E-18));
#935=CARTESIAN_POINT('',(-6.67038058990542E-18,0.00544677909953271,0.0544677909953269));
#936=CARTESIAN_POINT('',(-1.52700049402761E-19,0.000124689052802063,0.055));
#937=CARTESIAN_POINT('',(-0.055,0.000124689052802166,0.055));
#938=CARTESIAN_POINT('',(0.055,0.00012468905280233,0.055));
#939=CARTESIAN_POINT('',(-0.0539337930443924,0.0107867586088785,0.0539337930443923));
#940=CARTESIAN_POINT('',(0.0539337930443924,0.0107867586088785,0.0539337930443924));
#941=CARTESIAN_POINT('',(0.0544677909953269,0.00544677909953271,-3.33519029495271E-18));
#942=CARTESIAN_POINT('',(0.055,0.000124689052802063,-6.85793409072276E-18));
#943=CARTESIAN_POINT('',(0.055,0.000124689052802697,-0.055));
#944=CARTESIAN_POINT('',(0.0539337930443924,0.0107867586088785,-0.0539337930443924));
#945=CARTESIAN_POINT('',(1.83697019872103E-18,-0.1,0.0625));
#946=CARTESIAN_POINT('',(1.83421474342295E-18,-0.100225,0.06025));
#947=CARTESIAN_POINT('',(-0.06025,-0.100225,0.06025));
#948=CARTESIAN_POINT('',(-0.064987592975525,-0.0997512407024476,0.064987592975525));
#949=CARTESIAN_POINT('',(-0.0600124070244751,-0.100248759297553,0.0600124070244751));
#950=CARTESIAN_POINT('',(-6.0610960348938E-18,-0.100248759297553,0.0600124070244751));
#951=CARTESIAN_POINT('',(-6.4293956955236E-18,0.,-0.0525));
#952=CARTESIAN_POINT('',(-6.4293956955236E-18,0.,-0.0525));
#953=CARTESIAN_POINT('',(-0.0525,-2.57498015965307E-18,-0.0525));
#954=CARTESIAN_POINT('',(0.0525,-4.01154803819636E-18,-0.0525));
#955=CARTESIAN_POINT('',(-0.054987592975525,0.000248759297552491,-0.054987592975525));
#956=CARTESIAN_POINT('',(-0.050012407024475,-0.000248759297552504,-0.050012407024475));
#957=CARTESIAN_POINT('',(-6.36573831239965E-20,-0.000248759297552503,-0.050012407024475));
#958=CARTESIAN_POINT('',(0.050012407024475,-0.000248759297552504,-0.050012407024475));
#959=CARTESIAN_POINT('',(0.054987592975525,0.000248759297552491,-0.054987592975525));
#960=CARTESIAN_POINT('',(-0.0525,0.,3.2146978477618E-18));
#961=CARTESIAN_POINT('',(-0.0525,0.,3.2146978477618E-18));
#962=CARTESIAN_POINT('',(-0.0525,-1.46367293285543E-18,0.0525));
#963=CARTESIAN_POINT('',(-0.054987592975525,0.000248759297552492,0.054987592975525));
#964=CARTESIAN_POINT('',(-0.050012407024475,-0.000248759297552504,0.050012407024475));
#965=CARTESIAN_POINT('',(-0.050012407024475,-0.000248759297552502,-2.9987193258849E-18));
#966=CARTESIAN_POINT('',(0.,0.,0.0525));
#967=CARTESIAN_POINT('',(0.,0.,0.0525));
#968=CARTESIAN_POINT('',(0.0525,-2.46655994240452E-18,0.0525));
#969=CARTESIAN_POINT('',(0.054987592975525,0.000248759297552491,0.054987592975525));
#970=CARTESIAN_POINT('',(0.050012407024475,-0.000248759297552504,0.050012407024475));
#971=CARTESIAN_POINT('',(-6.0610960348938E-18,-0.000248759297552501,0.050012407024475));
#972=CARTESIAN_POINT('',(-0.0625,-0.1,5.66399144605651E-18));
#973=CARTESIAN_POINT('',(-0.06025,-0.100225,5.53175366532341E-18));
#974=CARTESIAN_POINT('',(-0.0600124070244751,-0.100248759297553,-2.38639592631122E-18));
#975=CARTESIAN_POINT('',(0.0525,0.,-9.6440935432854E-18));
#976=CARTESIAN_POINT('',(0.0525,0.,-9.6440935432854E-18));
#977=CARTESIAN_POINT('',(0.050012407024475,-0.000248759297552502,-3.12603409213289E-18));
#978=CARTESIAN_POINT('',(-6.0610960348938E-18,0.00494926050442771,0.049492605044277));
#979=CARTESIAN_POINT('',(-0.0490073834261959,0.0098014766852392,0.0490073834261958));
#980=CARTESIAN_POINT('',(0.0490073834261959,0.0098014766852392,0.0490073834261959));
#981=CARTESIAN_POINT('',(-0.049492605044277,0.00494926050442771,-3.0305480174469E-18));
#982=CARTESIAN_POINT('',(-0.0490073834261958,0.0098014766852392,-0.0490073834261959));
#983=CARTESIAN_POINT('',(0.,0.00494926050442771,-0.049492605044277));
#984=CARTESIAN_POINT('',(0.0490073834261959,0.0098014766852392,-0.0490073834261958));
#985=CARTESIAN_POINT('',(0.049492605044277,0.00494926050442771,-3.0305480174469E-18));
#986=CARTESIAN_POINT('',(-0.0544677909953269,0.00544677909953271,-3.33519029495271E-18));
#987=CARTESIAN_POINT('',(-0.055,0.000124689052802063,6.70523404131999E-18));
#988=CARTESIAN_POINT('',(-0.055,0.000124689052802063,-0.055));
#989=CARTESIAN_POINT('',(-0.0539337930443924,0.0107867586088785,-0.0539337930443924));
#990=CARTESIAN_POINT('',(0.,0.00544677909953271,-0.0544677909953269));
#991=CARTESIAN_POINT('',(0.,0.000124689052802063,-0.055));
#992=CARTESIAN_POINT('',(-0.055,0.02,0.));
#993=CARTESIAN_POINT('',(-0.055,0.02,0.055));
#994=CARTESIAN_POINT('',(-0.055,0.02,0.055));
#995=CARTESIAN_POINT('',(-0.055,0.02,0.));
#996=CARTESIAN_POINT('',(-0.055,0.02,-0.055));
#997=CARTESIAN_POINT('',(-0.055,0.02,-0.055));
#998=CARTESIAN_POINT('',(0.055,0.02,0.));
#999=CARTESIAN_POINT('',(0.055,0.02,0.055));
#1000=CARTESIAN_POINT('',(0.055,0.02,0.055));
#1001=CARTESIAN_POINT('',(0.055,0.02,-0.055));
#1002=CARTESIAN_POINT('',(0.055,0.02,-0.055));
#1003=CARTESIAN_POINT('',(0.055,0.02,0.));
#1004=CARTESIAN_POINT('',(6.93889390390723E-18,0.02,0.055));
#1005=CARTESIAN_POINT('',(6.93889390390723E-18,0.02,0.055));
#1006=CARTESIAN_POINT('',(-6.93889390390723E-18,0.02,-0.055));
#1007=CARTESIAN_POINT('',(-6.93889390390723E-18,0.02,-0.055));
#1008=CARTESIAN_POINT('',(-0.05,0.02,0.));
#1009=CARTESIAN_POINT('',(-0.05,0.,0.));
#1010=CARTESIAN_POINT('',(-0.05,0.,0.05));
#1011=CARTESIAN_POINT('',(-0.05,0.,-0.05));
#1012=CARTESIAN_POINT('',(-0.05,0.02,-0.05));
#1013=CARTESIAN_POINT('',(-0.05,0.02,-0.05));
#1014=CARTESIAN_POINT('',(-0.05,0.02,0.));
#1015=CARTESIAN_POINT('',(-0.05,0.02,0.05));
#1016=CARTESIAN_POINT('',(-0.05,0.02,0.05));
#1017=CARTESIAN_POINT('',(6.93889390390723E-18,0.02,0.05));
#1018=CARTESIAN_POINT('',(6.93889390390723E-18,0.,0.05));
#1019=CARTESIAN_POINT('',(0.05,0.,0.05));
#1020=CARTESIAN_POINT('',(6.93889390390723E-18,0.02,0.05));
#1021=CARTESIAN_POINT('',(0.05,0.02,0.05));
#1022=CARTESIAN_POINT('',(0.05,0.02,0.05));
#1023=CARTESIAN_POINT('',(0.05,0.02,0.));
#1024=CARTESIAN_POINT('',(0.05,0.,0.));
#1025=CARTESIAN_POINT('',(0.05,0.,-0.05));
#1026=CARTESIAN_POINT('',(0.05,0.02,0.));
#1027=CARTESIAN_POINT('',(0.05,0.02,-0.05));
#1028=CARTESIAN_POINT('',(0.05,0.02,-0.05));
#1029=CARTESIAN_POINT('',(-6.93889390390723E-18,0.02,-0.05));
#1030=CARTESIAN_POINT('',(-6.93889390390723E-18,0.,-0.05));
#1031=CARTESIAN_POINT('',(-6.93889390390723E-18,0.02,-0.05));
#1032=CARTESIAN_POINT('',(0.,0.02,0.));
#1033=CARTESIAN_POINT('',(0.,0.,0.));
#1034=CARTESIAN_POINT('',(1.04083408558608E-17,-0.168,0.06025));
#1035=CARTESIAN_POINT('',(-0.06025,-0.168,0.06025));
#1036=CARTESIAN_POINT('',(-0.06025,-0.168,0.06025));
#1037=CARTESIAN_POINT('',(0.06025,-0.168,0.06025));
#1038=CARTESIAN_POINT('',(0.06025,-0.168,0.06025));
#1039=CARTESIAN_POINT('',(1.04083408558608E-17,-0.168,0.06025));
#1040=CARTESIAN_POINT('',(0.06025,-0.168,0.));
#1041=CARTESIAN_POINT('',(0.06025,-0.168,-0.06025));
#1042=CARTESIAN_POINT('',(0.06025,-0.168,-0.06025));
#1043=CARTESIAN_POINT('',(0.06025,-0.168,0.));
#1044=CARTESIAN_POINT('',(0.,-0.168,-0.06025));
#1045=CARTESIAN_POINT('',(-0.06025,-0.168,-0.06025));
#1046=CARTESIAN_POINT('',(-0.06025,-0.168,-0.06025));
#1047=CARTESIAN_POINT('',(0.,-0.168,-0.06025));
#1048=CARTESIAN_POINT('',(0.,-0.168,0.065));
#1049=CARTESIAN_POINT('',(0.,-0.1,0.065));
#1050=CARTESIAN_POINT('',(0.065,-0.1,0.065));
#1051=CARTESIAN_POINT('',(-0.065,-0.1,0.065));
#1052=CARTESIAN_POINT('',(-0.065,-0.168,0.065));
#1053=CARTESIAN_POINT('',(-0.065,-0.168,0.065));
#1054=CARTESIAN_POINT('',(0.,-0.168,0.065));
#1055=CARTESIAN_POINT('',(0.065,-0.168,0.065));
#1056=CARTESIAN_POINT('',(0.065,-0.168,0.065));
#1057=CARTESIAN_POINT('',(-0.065,-0.168,0.));
#1058=CARTESIAN_POINT('',(-0.065,-0.1,0.));
#1059=CARTESIAN_POINT('',(-0.065,-0.1,-0.065));
#1060=CARTESIAN_POINT('',(-0.065,-0.168,-0.065));
#1061=CARTESIAN_POINT('',(-0.065,-0.168,-0.065));
#1062=CARTESIAN_POINT('',(-0.065,-0.168,0.));
#1063=CARTESIAN_POINT('',(0.,-0.168,-0.065));
#1064=CARTESIAN_POINT('',(0.,-0.1,-0.065));
#1065=CARTESIAN_POINT('',(0.065,-0.1,-0.065));
#1066=CARTESIAN_POINT('',(0.065,-0.168,-0.065));
#1067=CARTESIAN_POINT('',(0.065,-0.168,-0.065));
#1068=CARTESIAN_POINT('',(0.,-0.168,-0.065));
#1069=CARTESIAN_POINT('',(0.065,-0.168,0.));
#1070=CARTESIAN_POINT('',(0.065,-0.1,0.));
#1071=CARTESIAN_POINT('',(0.065,-0.168,0.));
#1072=CARTESIAN_POINT('',(-0.06025,-0.168,0.));
#1073=CARTESIAN_POINT('',(-0.06025,-0.168,0.));
#1074=CARTESIAN_POINT('',(0.,-0.168,0.));
#1075=CARTESIAN_POINT('',(0.,-0.1,0.));
#1076=MECHANICAL_DESIGN_GEOMETRIC_PRESENTATION_REPRESENTATION('',(#673),
#1077);
#1077=(
GEOMETRIC_REPRESENTATION_CONTEXT(3)
GLOBAL_UNCERTAINTY_ASSIGNED_CONTEXT((#1078))
GLOBAL_UNIT_ASSIGNED_CONTEXT((#1081,#1080,#1079))
REPRESENTATION_CONTEXT('Diffuseur','TOP_LEVEL_ASSEMBLY_PART')
);
#1078=UNCERTAINTY_MEASURE_WITH_UNIT(LENGTH_MEASURE(1.E-8),#1081,
'DISTANCE_ACCURACY_VALUE','Maximum Tolerance applied to model');
#1079=(
NAMED_UNIT(*)
SI_UNIT($,.STERADIAN.)
SOLID_ANGLE_UNIT()
);
#1080=(
NAMED_UNIT(*)
PLANE_ANGLE_UNIT()
SI_UNIT($,.RADIAN.)
);
#1081=(
LENGTH_UNIT()
NAMED_UNIT(*)
SI_UNIT($,.METRE.)
);
#1082=PRODUCT_DEFINITION_SHAPE('','',#1083);
#1083=PRODUCT_DEFINITION('','',#1085,#1084);
#1084=PRODUCT_DEFINITION_CONTEXT('',#1091,'design');
#1085=PRODUCT_DEFINITION_FORMATION_WITH_SPECIFIED_SOURCE('','',#1087,
 .NOT_KNOWN.);
#1086=PRODUCT_RELATED_PRODUCT_CATEGORY('','',(#1087));
#1087=PRODUCT('Diffuseur','Diffuseur','Diffuseur',(#1089));
#1088=PRODUCT_CATEGORY('','');
#1089=PRODUCT_CONTEXT('',#1091,'mechanical');
#1090=APPLICATION_PROTOCOL_DEFINITION('international standard',
'ap242_managed_model_based_3d_engineering',2020,#1091);
#1091=APPLICATION_CONTEXT('managed model based 3d engineering');
ENDSEC;
END-ISO-10303-21;
