ISO-10303-21;
HEADER;
/* Generated by software containing ST-Developer
 * from STEP Tools, Inc. (www.steptools.com) 
 */
/* OPTION: using custom renumber hook */

FILE_DESCRIPTION(
/* description */ ('STEP AP242 Edition 2',
'CAx-IF Rec.Pracs.---Representation and Presentation of Product Manufa
cturing Information (PMI)---4.0---2014-10-13',
'CAx-IF Rec.Pracs.---3D Tessellated Geometry---0.4---2014-09-14','2;1',
'CAx-IF Rec.Pracs.---User Defined Attributes---1.5---2016-08-15'),
/* implementation_level */ '2;1');

FILE_NAME(
/* name */ 'Assemblage V2 - Pied section d''essai',
/* time_stamp */ '2026-09-29T21:10:08Z',
/* author */ (''),
/* organization */ (''),
/* preprocessor_version */ 'ST-DEVELOPER v20',
/* originating_system */ 'ONSHAPE BY PTC INC, 1.221',
/* authorisation */ '  ');

FILE_SCHEMA (('AP242_MANAGED_MODEL_BASED_3D_ENGINEERING_MIM_LF { 1 0 10303 442 3 1 4 }'));
ENDSEC;

DATA;
#10=SHAPE_REPRESENTATION_RELATIONSHIP('','',#319,#11);
#11=ADVANCED_BREP_SHAPE_REPRESENTATION('',(#317),#521);
#12=CYLINDRICAL_SURFACE('',#328,0.005);
#13=CYLINDRICAL_SURFACE('',#332,0.005);
#14=CYLINDRICAL_SURFACE('',#338,0.001);
#15=CYLINDRICAL_SURFACE('',#342,0.001);
#16=CYLINDRICAL_SURFACE('',#347,0.00175);
#17=CYLINDRICAL_SURFACE('',#348,0.00175);
#18=LINE('',#439,#46);
#19=LINE('',#442,#47);
#20=LINE('',#444,#48);
#21=LINE('',#446,#49);
#22=LINE('',#450,#50);
#23=LINE('',#453,#51);
#24=LINE('',#455,#52);
#25=LINE('',#457,#53);
#26=LINE('',#463,#54);
#27=LINE('',#465,#55);
#28=LINE('',#467,#56);
#29=LINE('',#471,#57);
#30=LINE('',#475,#58);
#31=LINE('',#477,#59);
#32=LINE('',#479,#60);
#33=LINE('',#483,#61);
#34=LINE('',#487,#62);
#35=LINE('',#488,#63);
#36=LINE('',#490,#64);
#37=LINE('',#492,#65);
#38=LINE('',#494,#66);
#39=LINE('',#496,#67);
#40=LINE('',#498,#68);
#41=LINE('',#500,#69);
#42=LINE('',#504,#70);
#43=LINE('',#508,#71);
#44=LINE('',#510,#72);
#45=LINE('',#512,#73);
#46=VECTOR('',#355,1.);
#47=VECTOR('',#356,1.);
#48=VECTOR('',#357,1.);
#49=VECTOR('',#358,1.);
#50=VECTOR('',#363,1.);
#51=VECTOR('',#364,1.);
#52=VECTOR('',#365,1.);
#53=VECTOR('',#366,1.);
#54=VECTOR('',#373,1.);
#55=VECTOR('',#374,1.);
#56=VECTOR('',#375,1.);
#57=VECTOR('',#380,1.);
#58=VECTOR('',#385,1.);
#59=VECTOR('',#386,1.);
#60=VECTOR('',#387,1.);
#61=VECTOR('',#392,1.);
#62=VECTOR('',#397,1.);
#63=VECTOR('',#398,1.);
#64=VECTOR('',#401,1.);
#65=VECTOR('',#402,1.);
#66=VECTOR('',#403,1.);
#67=VECTOR('',#406,1.);
#68=VECTOR('',#407,1.);
#69=VECTOR('',#408,1.);
#70=VECTOR('',#413,1.);
#71=VECTOR('',#418,1.);
#72=VECTOR('',#419,1.);
#73=VECTOR('',#420,1.);
#74=ORIENTED_EDGE('',*,*,#154,.T.);
#75=ORIENTED_EDGE('',*,*,#155,.F.);
#76=ORIENTED_EDGE('',*,*,#156,.F.);
#77=ORIENTED_EDGE('',*,*,#157,.T.);
#78=ORIENTED_EDGE('',*,*,#158,.T.);
#79=ORIENTED_EDGE('',*,*,#159,.F.);
#80=ORIENTED_EDGE('',*,*,#160,.T.);
#81=ORIENTED_EDGE('',*,*,#161,.F.);
#82=ORIENTED_EDGE('',*,*,#162,.F.);
#83=ORIENTED_EDGE('',*,*,#163,.T.);
#84=ORIENTED_EDGE('',*,*,#164,.T.);
#85=ORIENTED_EDGE('',*,*,#165,.F.);
#86=ORIENTED_EDGE('',*,*,#166,.F.);
#87=ORIENTED_EDGE('',*,*,#167,.F.);
#88=ORIENTED_EDGE('',*,*,#168,.T.);
#89=ORIENTED_EDGE('',*,*,#161,.T.);
#90=ORIENTED_EDGE('',*,*,#169,.T.);
#91=ORIENTED_EDGE('',*,*,#170,.F.);
#92=ORIENTED_EDGE('',*,*,#171,.F.);
#93=ORIENTED_EDGE('',*,*,#167,.T.);
#94=ORIENTED_EDGE('',*,*,#172,.F.);
#95=ORIENTED_EDGE('',*,*,#173,.F.);
#96=ORIENTED_EDGE('',*,*,#174,.T.);
#97=ORIENTED_EDGE('',*,*,#170,.T.);
#98=ORIENTED_EDGE('',*,*,#175,.F.);
#99=ORIENTED_EDGE('',*,*,#176,.F.);
#100=ORIENTED_EDGE('',*,*,#177,.T.);
#101=ORIENTED_EDGE('',*,*,#173,.T.);
#102=ORIENTED_EDGE('',*,*,#178,.T.);
#103=ORIENTED_EDGE('',*,*,#163,.F.);
#104=ORIENTED_EDGE('',*,*,#179,.F.);
#105=ORIENTED_EDGE('',*,*,#176,.T.);
#106=ORIENTED_EDGE('',*,*,#180,.F.);
#107=ORIENTED_EDGE('',*,*,#158,.F.);
#108=ORIENTED_EDGE('',*,*,#181,.T.);
#109=ORIENTED_EDGE('',*,*,#182,.T.);
#110=ORIENTED_EDGE('',*,*,#183,.T.);
#111=ORIENTED_EDGE('',*,*,#184,.F.);
#112=ORIENTED_EDGE('',*,*,#185,.F.);
#113=ORIENTED_EDGE('',*,*,#156,.T.);
#114=ORIENTED_EDGE('',*,*,#186,.T.);
#115=ORIENTED_EDGE('',*,*,#187,.F.);
#116=ORIENTED_EDGE('',*,*,#188,.F.);
#117=ORIENTED_EDGE('',*,*,#184,.T.);
#118=ORIENTED_EDGE('',*,*,#189,.T.);
#119=ORIENTED_EDGE('',*,*,#190,.F.);
#120=ORIENTED_EDGE('',*,*,#191,.F.);
#121=ORIENTED_EDGE('',*,*,#187,.T.);
#122=ORIENTED_EDGE('',*,*,#192,.F.);
#123=ORIENTED_EDGE('',*,*,#182,.F.);
#124=ORIENTED_EDGE('',*,*,#193,.T.);
#125=ORIENTED_EDGE('',*,*,#190,.T.);
#126=ORIENTED_EDGE('',*,*,#181,.F.);
#127=ORIENTED_EDGE('',*,*,#157,.F.);
#128=ORIENTED_EDGE('',*,*,#185,.T.);
#129=ORIENTED_EDGE('',*,*,#188,.T.);
#130=ORIENTED_EDGE('',*,*,#191,.T.);
#131=ORIENTED_EDGE('',*,*,#193,.F.);
#132=ORIENTED_EDGE('',*,*,#168,.F.);
#133=ORIENTED_EDGE('',*,*,#171,.T.);
#134=ORIENTED_EDGE('',*,*,#174,.F.);
#135=ORIENTED_EDGE('',*,*,#177,.F.);
#136=ORIENTED_EDGE('',*,*,#179,.T.);
#137=ORIENTED_EDGE('',*,*,#162,.T.);
#138=ORIENTED_EDGE('',*,*,#180,.T.);
#139=ORIENTED_EDGE('',*,*,#192,.T.);
#140=ORIENTED_EDGE('',*,*,#189,.F.);
#141=ORIENTED_EDGE('',*,*,#186,.F.);
#142=ORIENTED_EDGE('',*,*,#183,.F.);
#143=ORIENTED_EDGE('',*,*,#155,.T.);
#144=ORIENTED_EDGE('',*,*,#166,.T.);
#145=ORIENTED_EDGE('',*,*,#160,.F.);
#146=ORIENTED_EDGE('',*,*,#178,.F.);
#147=ORIENTED_EDGE('',*,*,#175,.T.);
#148=ORIENTED_EDGE('',*,*,#172,.T.);
#149=ORIENTED_EDGE('',*,*,#169,.F.);
#150=ORIENTED_EDGE('',*,*,#154,.F.);
#151=ORIENTED_EDGE('',*,*,#164,.F.);
#152=ORIENTED_EDGE('',*,*,#159,.T.);
#153=ORIENTED_EDGE('',*,*,#165,.T.);
#154=EDGE_CURVE('',#194,#194,#222,.F.);
#155=EDGE_CURVE('',#195,#196,#18,.T.);
#156=EDGE_CURVE('',#197,#195,#19,.T.);
#157=EDGE_CURVE('',#197,#198,#20,.T.);
#158=EDGE_CURVE('',#198,#196,#21,.T.);
#159=EDGE_CURVE('',#199,#199,#223,.T.);
#160=EDGE_CURVE('',#200,#201,#22,.T.);
#161=EDGE_CURVE('',#202,#201,#23,.T.);
#162=EDGE_CURVE('',#203,#202,#24,.T.);
#163=EDGE_CURVE('',#203,#200,#25,.T.);
#164=EDGE_CURVE('',#204,#204,#224,.T.);
#165=EDGE_CURVE('',#205,#205,#225,.T.);
#166=EDGE_CURVE('',#206,#201,#26,.T.);
#167=EDGE_CURVE('',#207,#206,#27,.T.);
#168=EDGE_CURVE('',#207,#202,#28,.T.);
#169=EDGE_CURVE('',#206,#208,#226,.T.);
#170=EDGE_CURVE('',#209,#208,#29,.T.);
#171=EDGE_CURVE('',#207,#209,#227,.T.);
#172=EDGE_CURVE('',#210,#208,#30,.T.);
#173=EDGE_CURVE('',#211,#210,#31,.T.);
#174=EDGE_CURVE('',#211,#209,#32,.T.);
#175=EDGE_CURVE('',#212,#210,#228,.T.);
#176=EDGE_CURVE('',#213,#212,#33,.T.);
#177=EDGE_CURVE('',#213,#211,#229,.T.);
#178=EDGE_CURVE('',#212,#200,#34,.T.);
#179=EDGE_CURVE('',#213,#203,#35,.T.);
#180=EDGE_CURVE('',#196,#214,#36,.T.);
#181=EDGE_CURVE('',#198,#215,#37,.T.);
#182=EDGE_CURVE('',#215,#214,#38,.T.);
#183=EDGE_CURVE('',#195,#216,#39,.T.);
#184=EDGE_CURVE('',#217,#216,#40,.T.);
#185=EDGE_CURVE('',#197,#217,#41,.T.);
#186=EDGE_CURVE('',#216,#218,#230,.T.);
#187=EDGE_CURVE('',#219,#218,#42,.T.);
#188=EDGE_CURVE('',#217,#219,#231,.T.);
#189=EDGE_CURVE('',#218,#220,#43,.T.);
#190=EDGE_CURVE('',#221,#220,#44,.T.);
#191=EDGE_CURVE('',#219,#221,#45,.T.);
#192=EDGE_CURVE('',#214,#220,#232,.T.);
#193=EDGE_CURVE('',#215,#221,#233,.T.);
#194=VERTEX_POINT('',#438);
#195=VERTEX_POINT('',#440);
#196=VERTEX_POINT('',#441);
#197=VERTEX_POINT('',#443);
#198=VERTEX_POINT('',#445);
#199=VERTEX_POINT('',#448);
#200=VERTEX_POINT('',#451);
#201=VERTEX_POINT('',#452);
#202=VERTEX_POINT('',#454);
#203=VERTEX_POINT('',#456);
#204=VERTEX_POINT('',#459);
#205=VERTEX_POINT('',#461);
#206=VERTEX_POINT('',#464);
#207=VERTEX_POINT('',#466);
#208=VERTEX_POINT('',#470);
#209=VERTEX_POINT('',#472);
#210=VERTEX_POINT('',#476);
#211=VERTEX_POINT('',#478);
#212=VERTEX_POINT('',#482);
#213=VERTEX_POINT('',#484);
#214=VERTEX_POINT('',#491);
#215=VERTEX_POINT('',#493);
#216=VERTEX_POINT('',#497);
#217=VERTEX_POINT('',#499);
#218=VERTEX_POINT('',#503);
#219=VERTEX_POINT('',#505);
#220=VERTEX_POINT('',#509);
#221=VERTEX_POINT('',#511);
#222=CIRCLE('',#322,0.00175);
#223=CIRCLE('',#323,0.00175);
#224=CIRCLE('',#325,0.00175);
#225=CIRCLE('',#326,0.00175);
#226=CIRCLE('',#329,0.005);
#227=CIRCLE('',#330,0.005);
#228=CIRCLE('',#333,0.005);
#229=CIRCLE('',#334,0.005);
#230=CIRCLE('',#339,0.001);
#231=CIRCLE('',#340,0.001);
#232=CIRCLE('',#343,0.001);
#233=CIRCLE('',#344,0.001);
#234=EDGE_LOOP('',(#74));
#235=EDGE_LOOP('',(#75,#76,#77,#78));
#236=EDGE_LOOP('',(#79));
#237=EDGE_LOOP('',(#80,#81,#82,#83));
#238=EDGE_LOOP('',(#84));
#239=EDGE_LOOP('',(#85));
#240=EDGE_LOOP('',(#86,#87,#88,#89));
#241=EDGE_LOOP('',(#90,#91,#92,#93));
#242=EDGE_LOOP('',(#94,#95,#96,#97));
#243=EDGE_LOOP('',(#98,#99,#100,#101));
#244=EDGE_LOOP('',(#102,#103,#104,#105));
#245=EDGE_LOOP('',(#106,#107,#108,#109));
#246=EDGE_LOOP('',(#110,#111,#112,#113));
#247=EDGE_LOOP('',(#114,#115,#116,#117));
#248=EDGE_LOOP('',(#118,#119,#120,#121));
#249=EDGE_LOOP('',(#122,#123,#124,#125));
#250=EDGE_LOOP('',(#126,#127,#128,#129,#130,#131));
#251=EDGE_LOOP('',(#132,#133,#134,#135,#136,#137));
#252=EDGE_LOOP('',(#138,#139,#140,#141,#142,#143));
#253=EDGE_LOOP('',(#144,#145,#146,#147,#148,#149));
#254=EDGE_LOOP('',(#150));
#255=EDGE_LOOP('',(#151));
#256=EDGE_LOOP('',(#152));
#257=EDGE_LOOP('',(#153));
#258=FACE_BOUND('',#234,.T.);
#259=FACE_BOUND('',#235,.T.);
#260=FACE_BOUND('',#236,.T.);
#261=FACE_BOUND('',#237,.T.);
#262=FACE_BOUND('',#238,.T.);
#263=FACE_BOUND('',#239,.T.);
#264=FACE_BOUND('',#240,.T.);
#265=FACE_BOUND('',#241,.T.);
#266=FACE_BOUND('',#242,.T.);
#267=FACE_BOUND('',#243,.T.);
#268=FACE_BOUND('',#244,.T.);
#269=FACE_BOUND('',#245,.T.);
#270=FACE_BOUND('',#246,.T.);
#271=FACE_BOUND('',#247,.T.);
#272=FACE_BOUND('',#248,.T.);
#273=FACE_BOUND('',#249,.T.);
#274=FACE_BOUND('',#250,.T.);
#275=FACE_BOUND('',#251,.T.);
#276=FACE_BOUND('',#252,.T.);
#277=FACE_BOUND('',#253,.T.);
#278=FACE_BOUND('',#254,.T.);
#279=FACE_BOUND('',#255,.T.);
#280=FACE_BOUND('',#256,.T.);
#281=FACE_BOUND('',#257,.T.);
#282=PLANE('',#321);
#283=PLANE('',#324);
#284=PLANE('',#327);
#285=PLANE('',#331);
#286=PLANE('',#335);
#287=PLANE('',#336);
#288=PLANE('',#337);
#289=PLANE('',#341);
#290=PLANE('',#345);
#291=PLANE('',#346);
#292=ADVANCED_FACE('',(#258,#259,#260),#282,.T.);
#293=ADVANCED_FACE('',(#261,#262,#263),#283,.F.);
#294=ADVANCED_FACE('',(#264),#284,.T.);
#295=ADVANCED_FACE('',(#265),#12,.T.);
#296=ADVANCED_FACE('',(#266),#285,.T.);
#297=ADVANCED_FACE('',(#267),#13,.T.);
#298=ADVANCED_FACE('',(#268),#286,.F.);
#299=ADVANCED_FACE('',(#269),#287,.T.);
#300=ADVANCED_FACE('',(#270),#288,.F.);
#301=ADVANCED_FACE('',(#271),#14,.F.);
#302=ADVANCED_FACE('',(#272),#289,.F.);
#303=ADVANCED_FACE('',(#273),#15,.F.);
#304=ADVANCED_FACE('',(#274,#275),#290,.T.);
#305=ADVANCED_FACE('',(#276,#277),#291,.F.);
#306=ADVANCED_FACE('',(#278,#279),#16,.F.);
#307=ADVANCED_FACE('',(#280,#281),#17,.F.);
#308=CLOSED_SHELL('',(#292,#293,#294,#295,#296,#297,#298,#299,#300,#301,
#302,#303,#304,#305,#306,#307));
#309=STYLED_ITEM('',(#310),#317);
#310=PRESENTATION_STYLE_ASSIGNMENT((#311));
#311=SURFACE_STYLE_USAGE(.BOTH.,#312);
#312=SURFACE_SIDE_STYLE('',(#313));
#313=SURFACE_STYLE_FILL_AREA(#314);
#314=FILL_AREA_STYLE('',(#315));
#315=FILL_AREA_STYLE_COLOUR('',#316);
#316=COLOUR_RGB('',0.615686274509804,0.811764705882353,0.929411764705882);
#317=MANIFOLD_SOLID_BREP('Pied section d''essai',#308);
#318=SHAPE_DEFINITION_REPRESENTATION(#526,#319);
#319=SHAPE_REPRESENTATION('Pied section d''essai',(#320),#521);
#320=AXIS2_PLACEMENT_3D('',#435,#349,#350);
#321=AXIS2_PLACEMENT_3D('',#436,#351,#352);
#322=AXIS2_PLACEMENT_3D('',#437,#353,#354);
#323=AXIS2_PLACEMENT_3D('',#447,#359,#360);
#324=AXIS2_PLACEMENT_3D('',#449,#361,#362);
#325=AXIS2_PLACEMENT_3D('',#458,#367,#368);
#326=AXIS2_PLACEMENT_3D('',#460,#369,#370);
#327=AXIS2_PLACEMENT_3D('',#462,#371,#372);
#328=AXIS2_PLACEMENT_3D('',#468,#376,#377);
#329=AXIS2_PLACEMENT_3D('',#469,#378,#379);
#330=AXIS2_PLACEMENT_3D('',#473,#381,#382);
#331=AXIS2_PLACEMENT_3D('',#474,#383,#384);
#332=AXIS2_PLACEMENT_3D('',#480,#388,#389);
#333=AXIS2_PLACEMENT_3D('',#481,#390,#391);
#334=AXIS2_PLACEMENT_3D('',#485,#393,#394);
#335=AXIS2_PLACEMENT_3D('',#486,#395,#396);
#336=AXIS2_PLACEMENT_3D('',#489,#399,#400);
#337=AXIS2_PLACEMENT_3D('',#495,#404,#405);
#338=AXIS2_PLACEMENT_3D('',#501,#409,#410);
#339=AXIS2_PLACEMENT_3D('',#502,#411,#412);
#340=AXIS2_PLACEMENT_3D('',#506,#414,#415);
#341=AXIS2_PLACEMENT_3D('',#507,#416,#417);
#342=AXIS2_PLACEMENT_3D('',#513,#421,#422);
#343=AXIS2_PLACEMENT_3D('',#514,#423,#424);
#344=AXIS2_PLACEMENT_3D('',#515,#425,#426);
#345=AXIS2_PLACEMENT_3D('',#516,#427,#428);
#346=AXIS2_PLACEMENT_3D('',#517,#429,#430);
#347=AXIS2_PLACEMENT_3D('',#518,#431,#432);
#348=AXIS2_PLACEMENT_3D('',#519,#433,#434);
#349=DIRECTION('',(0.,0.,1.));
#350=DIRECTION('',(1.,0.,0.));
#351=DIRECTION('',(2.66080484589092E-16,0.,-1.));
#352=DIRECTION('',(-1.,0.,-2.66080484589092E-16));
#353=DIRECTION('',(2.66080484589092E-16,0.,-1.));
#354=DIRECTION('',(-1.,0.,-2.66080484589092E-16));
#355=DIRECTION('',(-1.,0.,-2.66080484589092E-16));
#356=DIRECTION('',(0.,1.,0.));
#357=DIRECTION('',(-1.,0.,-2.66080484589092E-16));
#358=DIRECTION('',(0.,1.,0.));
#359=DIRECTION('',(2.66080484589092E-16,0.,-1.));
#360=DIRECTION('',(-1.,0.,-2.66080484589092E-16));
#361=DIRECTION('',(0.,0.,-1.));
#362=DIRECTION('',(-1.,0.,0.));
#363=DIRECTION('',(-1.,0.,0.));
#364=DIRECTION('',(0.,1.,0.));
#365=DIRECTION('',(-1.,0.,0.));
#366=DIRECTION('',(0.,1.,0.));
#367=DIRECTION('',(0.,0.,-1.));
#368=DIRECTION('',(1.,0.,0.));
#369=DIRECTION('',(0.,0.,1.));
#370=DIRECTION('',(1.,0.,0.));
#371=DIRECTION('',(-0.859462776670608,0.,0.511198332858832));
#372=DIRECTION('',(0.511198332858832,0.,0.859462776670608));
#373=DIRECTION('',(0.511198332858832,0.,0.859462776670608));
#374=DIRECTION('',(0.,1.,0.));
#375=DIRECTION('',(0.511198332858832,0.,0.859462776670608));
#376=DIRECTION('',(0.,1.,0.));
#377=DIRECTION('',(0.,0.,1.));
#378=DIRECTION('',(0.,-1.,0.));
#379=DIRECTION('',(0.,0.,-1.));
#380=DIRECTION('',(0.,1.,0.));
#381=DIRECTION('',(0.,-1.,0.));
#382=DIRECTION('',(0.,0.,-1.));
#383=DIRECTION('',(0.,0.,-1.));
#384=DIRECTION('',(-1.,0.,0.));
#385=DIRECTION('',(-1.,0.,0.));
#386=DIRECTION('',(0.,1.,0.));
#387=DIRECTION('',(-1.,0.,0.));
#388=DIRECTION('',(0.,1.,0.));
#389=DIRECTION('',(0.,0.,1.));
#390=DIRECTION('',(0.,1.,0.));
#391=DIRECTION('',(0.,0.,-1.));
#392=DIRECTION('',(0.,1.,0.));
#393=DIRECTION('',(0.,1.,0.));
#394=DIRECTION('',(0.,0.,-1.));
#395=DIRECTION('',(-0.859462776670608,0.,-0.511198332858832));
#396=DIRECTION('',(-0.511198332858832,0.,0.859462776670608));
#397=DIRECTION('',(-0.511198332858832,0.,0.859462776670608));
#398=DIRECTION('',(-0.511198332858832,0.,0.859462776670608));
#399=DIRECTION('',(0.859462776670608,0.,-0.511198332858832));
#400=DIRECTION('',(-0.511198332858832,0.,-0.859462776670608));
#401=DIRECTION('',(-0.511198332858832,0.,-0.859462776670608));
#402=DIRECTION('',(-0.511198332858832,0.,-0.859462776670608));
#403=DIRECTION('',(0.,1.,0.));
#404=DIRECTION('',(0.859462776670608,0.,0.511198332858832));
#405=DIRECTION('',(0.511198332858832,0.,-0.859462776670608));
#406=DIRECTION('',(0.511198332858832,0.,-0.859462776670608));
#407=DIRECTION('',(0.,1.,0.));
#408=DIRECTION('',(0.511198332858832,0.,-0.859462776670608));
#409=DIRECTION('',(0.,1.,0.));
#410=DIRECTION('',(0.,0.,1.));
#411=DIRECTION('',(0.,1.,0.));
#412=DIRECTION('',(0.,0.,-1.));
#413=DIRECTION('',(0.,1.,0.));
#414=DIRECTION('',(0.,1.,0.));
#415=DIRECTION('',(0.,0.,-1.));
#416=DIRECTION('',(-2.41492729632433E-16,0.,-1.));
#417=DIRECTION('',(-1.,0.,2.41492729632433E-16));
#418=DIRECTION('',(-1.,0.,2.41492729632433E-16));
#419=DIRECTION('',(0.,1.,0.));
#420=DIRECTION('',(-1.,0.,2.41492729632433E-16));
#421=DIRECTION('',(0.,1.,0.));
#422=DIRECTION('',(0.,0.,1.));
#423=DIRECTION('',(0.,-1.,0.));
#424=DIRECTION('',(0.,0.,-1.));
#425=DIRECTION('',(0.,-1.,0.));
#426=DIRECTION('',(0.,0.,-1.));
#427=DIRECTION('',(0.,-1.,0.));
#428=DIRECTION('',(1.,0.,0.));
#429=DIRECTION('',(0.,-1.,0.));
#430=DIRECTION('',(1.,0.,0.));
#431=DIRECTION('',(0.,0.,1.));
#432=DIRECTION('',(1.,0.,0.));
#433=DIRECTION('',(0.,0.,1.));
#434=DIRECTION('',(1.,0.,0.));
#435=CARTESIAN_POINT('',(0.,0.,0.));
#436=CARTESIAN_POINT('',(-0.0260781767389779,-0.025,0.035));
#437=CARTESIAN_POINT('',(0.03,-3.36229035702822E-18,0.035));
#438=CARTESIAN_POINT('',(0.02825,-3.36229035702822E-18,0.035));
#439=CARTESIAN_POINT('',(-0.0260781767389779,0.025,0.035));
#440=CARTESIAN_POINT('',(0.0521563534779558,0.025,0.035));
#441=CARTESIAN_POINT('',(-0.0521563534779558,0.025,0.035));
#442=CARTESIAN_POINT('',(0.0521563534779558,-0.025,0.035));
#443=CARTESIAN_POINT('',(0.0521563534779558,-0.025,0.035));
#444=CARTESIAN_POINT('',(-0.0260781767389779,-0.025,0.035));
#445=CARTESIAN_POINT('',(-0.0521563534779558,-0.025,0.035));
#446=CARTESIAN_POINT('',(-0.0521563534779558,-0.025,0.035));
#447=CARTESIAN_POINT('',(-0.03,-3.36229035702822E-18,0.035));
#448=CARTESIAN_POINT('',(-0.03175,-3.36229035702822E-18,0.035));
#449=CARTESIAN_POINT('',(0.0275,-0.025,0.04));
#450=CARTESIAN_POINT('',(0.0275,0.025,0.04));
#451=CARTESIAN_POINT('',(0.055,0.025,0.04));
#452=CARTESIAN_POINT('',(-0.055,0.025,0.04));
#453=CARTESIAN_POINT('',(-0.055,-0.025,0.04));
#454=CARTESIAN_POINT('',(-0.055,-0.025,0.04));
#455=CARTESIAN_POINT('',(0.0275,-0.025,0.04));
#456=CARTESIAN_POINT('',(0.055,-0.025,0.04));
#457=CARTESIAN_POINT('',(0.055,-0.025,0.04));
#458=CARTESIAN_POINT('',(0.03,-3.36229035702822E-18,0.04));
#459=CARTESIAN_POINT('',(0.03175,-3.36229035702822E-18,0.04));
#460=CARTESIAN_POINT('',(-0.03,-3.36229035702822E-18,0.04));
#461=CARTESIAN_POINT('',(-0.02825,-3.36229035702822E-18,0.04));
#462=CARTESIAN_POINT('',(-0.0646486569416765,-0.025,0.0237779958321471));
#463=CARTESIAN_POINT('',(-0.0646486569416765,0.025,0.0237779958321471));
#464=CARTESIAN_POINT('',(-0.0742973138833531,0.025,0.00755599166429414));
#465=CARTESIAN_POINT('',(-0.0742973138833531,-0.025,0.00755599166429414));
#466=CARTESIAN_POINT('',(-0.0742973138833531,-0.025,0.00755599166429414));
#467=CARTESIAN_POINT('',(-0.0646486569416765,-0.025,0.0237779958321471));
#468=CARTESIAN_POINT('',(-0.07,-0.025,0.005));
#469=CARTESIAN_POINT('',(-0.07,0.025,0.005));
#470=CARTESIAN_POINT('',(-0.07,0.025,0.));
#471=CARTESIAN_POINT('',(-0.07,-0.025,0.));
#472=CARTESIAN_POINT('',(-0.07,-0.025,0.));
#473=CARTESIAN_POINT('',(-0.07,-0.025,0.005));
#474=CARTESIAN_POINT('',(-0.035,-0.025,0.));
#475=CARTESIAN_POINT('',(-0.035,0.025,0.));
#476=CARTESIAN_POINT('',(0.07,0.025,-1.38777878078145E-17));
#477=CARTESIAN_POINT('',(0.07,-0.025,-1.38777878078145E-17));
#478=CARTESIAN_POINT('',(0.07,-0.025,-1.38777878078145E-17));
#479=CARTESIAN_POINT('',(-0.035,-0.025,0.));
#480=CARTESIAN_POINT('',(0.07,-0.025,0.005));
#481=CARTESIAN_POINT('',(0.07,0.025,0.005));
#482=CARTESIAN_POINT('',(0.0742973138833531,0.025,0.00755599166429414));
#483=CARTESIAN_POINT('',(0.0742973138833531,-0.025,0.00755599166429414));
#484=CARTESIAN_POINT('',(0.0742973138833531,-0.025,0.00755599166429414));
#485=CARTESIAN_POINT('',(0.07,-0.025,0.005));
#486=CARTESIAN_POINT('',(0.0646486569416765,-0.025,0.0237779958321471));
#487=CARTESIAN_POINT('',(0.0646486569416765,0.025,0.0237779958321471));
#488=CARTESIAN_POINT('',(0.0646486569416765,-0.025,0.0237779958321471));
#489=CARTESIAN_POINT('',(-0.0606287552577073,-0.025,0.0207555991664294));
#490=CARTESIAN_POINT('',(-0.0606287552577073,0.025,0.0207555991664294));
#491=CARTESIAN_POINT('',(-0.0691011570374588,0.025,0.00651119833285881));
#492=CARTESIAN_POINT('',(-0.0606287552577073,-0.025,0.0207555991664294));
#493=CARTESIAN_POINT('',(-0.0691011570374588,-0.025,0.00651119833285881));
#494=CARTESIAN_POINT('',(-0.0691011570374588,-0.025,0.00651119833285881));
#495=CARTESIAN_POINT('',(0.0606287552577073,-0.025,0.0207555991664294));
#496=CARTESIAN_POINT('',(0.0606287552577073,0.025,0.0207555991664294));
#497=CARTESIAN_POINT('',(0.0691011570374588,0.025,0.00651119833285881));
#498=CARTESIAN_POINT('',(0.0691011570374588,-0.025,0.00651119833285881));
#499=CARTESIAN_POINT('',(0.0691011570374588,-0.025,0.00651119833285881));
#500=CARTESIAN_POINT('',(0.0606287552577073,-0.025,0.0207555991664294));
#501=CARTESIAN_POINT('',(0.0682416942607882,-0.025,0.006));
#502=CARTESIAN_POINT('',(0.0682416942607882,0.025,0.006));
#503=CARTESIAN_POINT('',(0.0682416942607882,0.025,0.005));
#504=CARTESIAN_POINT('',(0.0682416942607882,-0.025,0.005));
#505=CARTESIAN_POINT('',(0.0682416942607882,-0.025,0.005));
#506=CARTESIAN_POINT('',(0.0682416942607882,-0.025,0.006));
#507=CARTESIAN_POINT('',(0.0341208471303941,-0.025,0.005));
#508=CARTESIAN_POINT('',(0.0341208471303941,0.025,0.005));
#509=CARTESIAN_POINT('',(-0.0682416942607882,0.025,0.005));
#510=CARTESIAN_POINT('',(-0.0682416942607882,-0.025,0.005));
#511=CARTESIAN_POINT('',(-0.0682416942607882,-0.025,0.005));
#512=CARTESIAN_POINT('',(0.0341208471303941,-0.025,0.005));
#513=CARTESIAN_POINT('',(-0.0682416942607882,-0.025,0.006));
#514=CARTESIAN_POINT('',(-0.0682416942607882,0.025,0.006));
#515=CARTESIAN_POINT('',(-0.0682416942607882,-0.025,0.006));
#516=CARTESIAN_POINT('',(0.,-0.025,0.02));
#517=CARTESIAN_POINT('',(0.,0.025,0.02));
#518=CARTESIAN_POINT('',(0.03,-3.36229035702822E-18,0.015));
#519=CARTESIAN_POINT('',(-0.03,-3.36229035702822E-18,0.015));
#520=MECHANICAL_DESIGN_GEOMETRIC_PRESENTATION_REPRESENTATION('',(#309),
#521);
#521=(
GEOMETRIC_REPRESENTATION_CONTEXT(3)
GLOBAL_UNCERTAINTY_ASSIGNED_CONTEXT((#522))
GLOBAL_UNIT_ASSIGNED_CONTEXT((#525,#524,#523))
REPRESENTATION_CONTEXT('Pied section d''essai',
'TOP_LEVEL_ASSEMBLY_PART')
);
#522=UNCERTAINTY_MEASURE_WITH_UNIT(LENGTH_MEASURE(1.E-8),#525,
'DISTANCE_ACCURACY_VALUE','Maximum Tolerance applied to model');
#523=(
NAMED_UNIT(*)
SI_UNIT($,.STERADIAN.)
SOLID_ANGLE_UNIT()
);
#524=(
NAMED_UNIT(*)
PLANE_ANGLE_UNIT()
SI_UNIT($,.RADIAN.)
);
#525=(
LENGTH_UNIT()
NAMED_UNIT(*)
SI_UNIT($,.METRE.)
);
#526=PRODUCT_DEFINITION_SHAPE('','',#527);
#527=PRODUCT_DEFINITION('','',#529,#528);
#528=PRODUCT_DEFINITION_CONTEXT('',#535,'design');
#529=PRODUCT_DEFINITION_FORMATION_WITH_SPECIFIED_SOURCE('','',#531,
 .NOT_KNOWN.);
#530=PRODUCT_RELATED_PRODUCT_CATEGORY('','',(#531));
#531=PRODUCT('Pied section d''essai','Pied section d''essai',
'Pied section d''essai',(#533));
#532=PRODUCT_CATEGORY('','');
#533=PRODUCT_CONTEXT('',#535,'mechanical');
#534=APPLICATION_PROTOCOL_DEFINITION('international standard',
'ap242_managed_model_based_3d_engineering',2020,#535);
#535=APPLICATION_CONTEXT('managed model based 3d engineering');
ENDSEC;
END-ISO-10303-21;
