ISO-10303-21;
HEADER;
/* Generated by software containing ST-Developer
 * from STEP Tools, Inc. (www.steptools.com) 
 */
/* OPTION: using custom renumber hook */

FILE_DESCRIPTION(
/* description */ ('STEP AP242 Edition 2',
'CAx-IF Rec.Pracs.---Representation and Presentation of Product Manufa
cturing Information (PMI)---4.0---2014-10-13',
'CAx-IF Rec.Pracs.---3D Tessellated Geometry---0.4---2014-09-14','2;1',
'CAx-IF Rec.Pracs.---User Defined Attributes---1.5---2016-08-15'),
/* implementation_level */ '2;1');

FILE_NAME(
/* name */ 'e5b47050-0c5e-4d5b-b901-5ad6f33add35',
/* time_stamp */ '2026-09-29T21:10:09Z',
/* author */ (''),
/* organization */ (''),
/* preprocessor_version */ 'ST-DEVELOPER v20',
/* originating_system */ 'ONSHAPE BY PTC INC, 1.221',
/* authorisation */ '  ');

FILE_SCHEMA (('AP242_MANAGED_MODEL_BASED_3D_ENGINEERING_MIM_LF { 1 0 10303 442 3 1 4 }'));
ENDSEC;

DATA;
#10=SHAPE_REPRESENTATION_RELATIONSHIP('','',#350,#11);
#11=ADVANCED_BREP_SHAPE_REPRESENTATION('',(#348),#568);
#12=CYLINDRICAL_SURFACE('',#365,0.000625);
#13=CYLINDRICAL_SURFACE('',#368,0.000625);
#14=CYLINDRICAL_SURFACE('',#371,0.000625);
#15=CYLINDRICAL_SURFACE('',#374,0.000625);
#16=LINE('',#484,#49);
#17=LINE('',#487,#50);
#18=LINE('',#489,#51);
#19=LINE('',#491,#52);
#20=LINE('',#493,#53);
#21=LINE('',#495,#54);
#22=LINE('',#497,#55);
#23=LINE('',#499,#56);
#24=LINE('',#501,#57);
#25=LINE('',#503,#58);
#26=LINE('',#505,#59);
#27=LINE('',#507,#60);
#28=LINE('',#509,#61);
#29=LINE('',#511,#62);
#30=LINE('',#513,#63);
#31=LINE('',#515,#64);
#32=LINE('',#517,#65);
#33=LINE('',#519,#66);
#34=LINE('',#521,#67);
#35=LINE('',#524,#68);
#36=LINE('',#526,#69);
#37=LINE('',#528,#70);
#38=LINE('',#529,#71);
#39=LINE('',#531,#72);
#40=LINE('',#533,#73);
#41=LINE('',#535,#74);
#42=LINE('',#537,#75);
#43=LINE('',#539,#76);
#44=LINE('',#541,#77);
#45=LINE('',#543,#78);
#46=LINE('',#561,#79);
#47=LINE('',#563,#80);
#48=LINE('',#564,#81);
#49=VECTOR('',#393,1.);
#50=VECTOR('',#394,1.);
#51=VECTOR('',#395,1.);
#52=VECTOR('',#396,1.);
#53=VECTOR('',#397,1.);
#54=VECTOR('',#398,1.);
#55=VECTOR('',#399,1.);
#56=VECTOR('',#400,1.);
#57=VECTOR('',#403,1.);
#58=VECTOR('',#404,1.);
#59=VECTOR('',#405,1.);
#60=VECTOR('',#408,1.);
#61=VECTOR('',#409,1.);
#62=VECTOR('',#412,1.);
#63=VECTOR('',#413,1.);
#64=VECTOR('',#414,1.);
#65=VECTOR('',#415,1.);
#66=VECTOR('',#416,1.);
#67=VECTOR('',#419,1.);
#68=VECTOR('',#420,1.);
#69=VECTOR('',#421,1.);
#70=VECTOR('',#422,1.);
#71=VECTOR('',#423,1.);
#72=VECTOR('',#424,1.);
#73=VECTOR('',#427,1.);
#74=VECTOR('',#428,1.);
#75=VECTOR('',#431,1.);
#76=VECTOR('',#432,1.);
#77=VECTOR('',#435,1.);
#78=VECTOR('',#438,1.);
#79=VECTOR('',#465,1.);
#80=VECTOR('',#468,1.);
#81=VECTOR('',#469,1.);
#82=ORIENTED_EDGE('',*,*,#164,.T.);
#83=ORIENTED_EDGE('',*,*,#165,.T.);
#84=ORIENTED_EDGE('',*,*,#166,.T.);
#85=ORIENTED_EDGE('',*,*,#167,.T.);
#86=ORIENTED_EDGE('',*,*,#168,.F.);
#87=ORIENTED_EDGE('',*,*,#169,.T.);
#88=ORIENTED_EDGE('',*,*,#170,.F.);
#89=ORIENTED_EDGE('',*,*,#171,.F.);
#90=ORIENTED_EDGE('',*,*,#172,.T.);
#91=ORIENTED_EDGE('',*,*,#173,.T.);
#92=ORIENTED_EDGE('',*,*,#174,.F.);
#93=ORIENTED_EDGE('',*,*,#175,.F.);
#94=ORIENTED_EDGE('',*,*,#172,.F.);
#95=ORIENTED_EDGE('',*,*,#176,.F.);
#96=ORIENTED_EDGE('',*,*,#177,.T.);
#97=ORIENTED_EDGE('',*,*,#178,.T.);
#98=ORIENTED_EDGE('',*,*,#171,.T.);
#99=ORIENTED_EDGE('',*,*,#179,.F.);
#100=ORIENTED_EDGE('',*,*,#180,.F.);
#101=ORIENTED_EDGE('',*,*,#176,.T.);
#102=ORIENTED_EDGE('',*,*,#170,.T.);
#103=ORIENTED_EDGE('',*,*,#181,.T.);
#104=ORIENTED_EDGE('',*,*,#182,.F.);
#105=ORIENTED_EDGE('',*,*,#183,.T.);
#106=ORIENTED_EDGE('',*,*,#184,.F.);
#107=ORIENTED_EDGE('',*,*,#185,.F.);
#108=ORIENTED_EDGE('',*,*,#179,.T.);
#109=ORIENTED_EDGE('',*,*,#186,.T.);
#110=ORIENTED_EDGE('',*,*,#187,.T.);
#111=ORIENTED_EDGE('',*,*,#188,.T.);
#112=ORIENTED_EDGE('',*,*,#189,.T.);
#113=ORIENTED_EDGE('',*,*,#168,.T.);
#114=ORIENTED_EDGE('',*,*,#190,.F.);
#115=ORIENTED_EDGE('',*,*,#191,.F.);
#116=ORIENTED_EDGE('',*,*,#175,.T.);
#117=ORIENTED_EDGE('',*,*,#192,.F.);
#118=ORIENTED_EDGE('',*,*,#193,.F.);
#119=ORIENTED_EDGE('',*,*,#190,.T.);
#120=ORIENTED_EDGE('',*,*,#174,.T.);
#121=ORIENTED_EDGE('',*,*,#194,.F.);
#122=ORIENTED_EDGE('',*,*,#195,.F.);
#123=ORIENTED_EDGE('',*,*,#192,.T.);
#124=ORIENTED_EDGE('',*,*,#173,.F.);
#125=ORIENTED_EDGE('',*,*,#178,.F.);
#126=ORIENTED_EDGE('',*,*,#196,.T.);
#127=ORIENTED_EDGE('',*,*,#194,.T.);
#128=ORIENTED_EDGE('',*,*,#191,.T.);
#129=ORIENTED_EDGE('',*,*,#193,.T.);
#130=ORIENTED_EDGE('',*,*,#195,.T.);
#131=ORIENTED_EDGE('',*,*,#196,.F.);
#132=ORIENTED_EDGE('',*,*,#177,.F.);
#133=ORIENTED_EDGE('',*,*,#180,.T.);
#134=ORIENTED_EDGE('',*,*,#185,.T.);
#135=ORIENTED_EDGE('',*,*,#197,.T.);
#136=ORIENTED_EDGE('',*,*,#198,.T.);
#137=ORIENTED_EDGE('',*,*,#164,.F.);
#138=ORIENTED_EDGE('',*,*,#198,.F.);
#139=ORIENTED_EDGE('',*,*,#199,.T.);
#140=ORIENTED_EDGE('',*,*,#165,.F.);
#141=ORIENTED_EDGE('',*,*,#199,.F.);
#142=ORIENTED_EDGE('',*,*,#200,.T.);
#143=ORIENTED_EDGE('',*,*,#166,.F.);
#144=ORIENTED_EDGE('',*,*,#200,.F.);
#145=ORIENTED_EDGE('',*,*,#201,.T.);
#146=ORIENTED_EDGE('',*,*,#167,.F.);
#147=ORIENTED_EDGE('',*,*,#201,.F.);
#148=ORIENTED_EDGE('',*,*,#184,.T.);
#149=ORIENTED_EDGE('',*,*,#202,.T.);
#150=ORIENTED_EDGE('',*,*,#186,.F.);
#151=ORIENTED_EDGE('',*,*,#197,.F.);
#152=ORIENTED_EDGE('',*,*,#182,.T.);
#153=ORIENTED_EDGE('',*,*,#203,.T.);
#154=ORIENTED_EDGE('',*,*,#188,.F.);
#155=ORIENTED_EDGE('',*,*,#204,.F.);
#156=ORIENTED_EDGE('',*,*,#204,.T.);
#157=ORIENTED_EDGE('',*,*,#187,.F.);
#158=ORIENTED_EDGE('',*,*,#202,.F.);
#159=ORIENTED_EDGE('',*,*,#183,.F.);
#160=ORIENTED_EDGE('',*,*,#181,.F.);
#161=ORIENTED_EDGE('',*,*,#169,.F.);
#162=ORIENTED_EDGE('',*,*,#189,.F.);
#163=ORIENTED_EDGE('',*,*,#203,.F.);
#164=EDGE_CURVE('',#205,#205,#235,.T.);
#165=EDGE_CURVE('',#206,#206,#236,.T.);
#166=EDGE_CURVE('',#207,#207,#237,.T.);
#167=EDGE_CURVE('',#208,#208,#238,.T.);
#168=EDGE_CURVE('',#209,#210,#16,.T.);
#169=EDGE_CURVE('',#209,#211,#17,.T.);
#170=EDGE_CURVE('',#212,#211,#18,.T.);
#171=EDGE_CURVE('',#213,#212,#19,.T.);
#172=EDGE_CURVE('',#213,#214,#20,.T.);
#173=EDGE_CURVE('',#214,#215,#21,.T.);
#174=EDGE_CURVE('',#216,#215,#22,.T.);
#175=EDGE_CURVE('',#210,#216,#23,.T.);
#176=EDGE_CURVE('',#217,#213,#24,.T.);
#177=EDGE_CURVE('',#217,#218,#25,.T.);
#178=EDGE_CURVE('',#218,#214,#26,.T.);
#179=EDGE_CURVE('',#219,#212,#27,.T.);
#180=EDGE_CURVE('',#217,#219,#28,.T.);
#181=EDGE_CURVE('',#211,#220,#29,.F.);
#182=EDGE_CURVE('',#221,#220,#30,.T.);
#183=EDGE_CURVE('',#221,#222,#31,.T.);
#184=EDGE_CURVE('',#223,#222,#32,.T.);
#185=EDGE_CURVE('',#219,#223,#33,.T.);
#186=EDGE_CURVE('',#224,#225,#34,.T.);
#187=EDGE_CURVE('',#225,#226,#35,.T.);
#188=EDGE_CURVE('',#226,#227,#36,.T.);
#189=EDGE_CURVE('',#227,#209,#37,.F.);
#190=EDGE_CURVE('',#228,#210,#38,.T.);
#191=EDGE_CURVE('',#224,#228,#39,.T.);
#192=EDGE_CURVE('',#229,#216,#40,.T.);
#193=EDGE_CURVE('',#228,#229,#41,.T.);
#194=EDGE_CURVE('',#230,#215,#42,.T.);
#195=EDGE_CURVE('',#229,#230,#43,.T.);
#196=EDGE_CURVE('',#218,#230,#44,.T.);
#197=EDGE_CURVE('',#223,#224,#45,.T.);
#198=EDGE_CURVE('',#231,#231,#239,.T.);
#199=EDGE_CURVE('',#232,#232,#240,.T.);
#200=EDGE_CURVE('',#233,#233,#241,.T.);
#201=EDGE_CURVE('',#234,#234,#242,.T.);
#202=EDGE_CURVE('',#222,#225,#46,.T.);
#203=EDGE_CURVE('',#220,#227,#47,.T.);
#204=EDGE_CURVE('',#221,#226,#48,.T.);
#205=VERTEX_POINT('',#477);
#206=VERTEX_POINT('',#479);
#207=VERTEX_POINT('',#481);
#208=VERTEX_POINT('',#483);
#209=VERTEX_POINT('',#485);
#210=VERTEX_POINT('',#486);
#211=VERTEX_POINT('',#488);
#212=VERTEX_POINT('',#490);
#213=VERTEX_POINT('',#492);
#214=VERTEX_POINT('',#494);
#215=VERTEX_POINT('',#496);
#216=VERTEX_POINT('',#498);
#217=VERTEX_POINT('',#502);
#218=VERTEX_POINT('',#504);
#219=VERTEX_POINT('',#508);
#220=VERTEX_POINT('',#512);
#221=VERTEX_POINT('',#514);
#222=VERTEX_POINT('',#516);
#223=VERTEX_POINT('',#518);
#224=VERTEX_POINT('',#522);
#225=VERTEX_POINT('',#523);
#226=VERTEX_POINT('',#525);
#227=VERTEX_POINT('',#527);
#228=VERTEX_POINT('',#530);
#229=VERTEX_POINT('',#534);
#230=VERTEX_POINT('',#538);
#231=VERTEX_POINT('',#546);
#232=VERTEX_POINT('',#550);
#233=VERTEX_POINT('',#554);
#234=VERTEX_POINT('',#558);
#235=CIRCLE('',#353,0.000625);
#236=CIRCLE('',#354,0.000625);
#237=CIRCLE('',#355,0.000625);
#238=CIRCLE('',#356,0.000625);
#239=CIRCLE('',#366,0.000625);
#240=CIRCLE('',#369,0.000625);
#241=CIRCLE('',#372,0.000625);
#242=CIRCLE('',#375,0.000625);
#243=EDGE_LOOP('',(#82));
#244=EDGE_LOOP('',(#83));
#245=EDGE_LOOP('',(#84));
#246=EDGE_LOOP('',(#85));
#247=EDGE_LOOP('',(#86,#87,#88,#89,#90,#91,#92,#93));
#248=EDGE_LOOP('',(#94,#95,#96,#97));
#249=EDGE_LOOP('',(#98,#99,#100,#101));
#250=EDGE_LOOP('',(#102,#103,#104,#105,#106,#107,#108));
#251=EDGE_LOOP('',(#109,#110,#111,#112,#113,#114,#115));
#252=EDGE_LOOP('',(#116,#117,#118,#119));
#253=EDGE_LOOP('',(#120,#121,#122,#123));
#254=EDGE_LOOP('',(#124,#125,#126,#127));
#255=EDGE_LOOP('',(#128,#129,#130,#131,#132,#133,#134,#135));
#256=EDGE_LOOP('',(#136));
#257=EDGE_LOOP('',(#137));
#258=EDGE_LOOP('',(#138));
#259=EDGE_LOOP('',(#139));
#260=EDGE_LOOP('',(#140));
#261=EDGE_LOOP('',(#141));
#262=EDGE_LOOP('',(#142));
#263=EDGE_LOOP('',(#143));
#264=EDGE_LOOP('',(#144));
#265=EDGE_LOOP('',(#145));
#266=EDGE_LOOP('',(#146));
#267=EDGE_LOOP('',(#147));
#268=EDGE_LOOP('',(#148,#149,#150,#151));
#269=EDGE_LOOP('',(#152,#153,#154,#155));
#270=EDGE_LOOP('',(#156,#157,#158,#159));
#271=EDGE_LOOP('',(#160,#161,#162,#163));
#272=FACE_BOUND('',#243,.T.);
#273=FACE_BOUND('',#244,.T.);
#274=FACE_BOUND('',#245,.T.);
#275=FACE_BOUND('',#246,.T.);
#276=FACE_BOUND('',#247,.T.);
#277=FACE_BOUND('',#248,.T.);
#278=FACE_BOUND('',#249,.T.);
#279=FACE_BOUND('',#250,.T.);
#280=FACE_BOUND('',#251,.T.);
#281=FACE_BOUND('',#252,.T.);
#282=FACE_BOUND('',#253,.T.);
#283=FACE_BOUND('',#254,.T.);
#284=FACE_BOUND('',#255,.T.);
#285=FACE_BOUND('',#256,.T.);
#286=FACE_BOUND('',#257,.T.);
#287=FACE_BOUND('',#258,.T.);
#288=FACE_BOUND('',#259,.T.);
#289=FACE_BOUND('',#260,.T.);
#290=FACE_BOUND('',#261,.T.);
#291=FACE_BOUND('',#262,.T.);
#292=FACE_BOUND('',#263,.T.);
#293=FACE_BOUND('',#264,.T.);
#294=FACE_BOUND('',#265,.T.);
#295=FACE_BOUND('',#266,.T.);
#296=FACE_BOUND('',#267,.T.);
#297=FACE_BOUND('',#268,.T.);
#298=FACE_BOUND('',#269,.T.);
#299=FACE_BOUND('',#270,.T.);
#300=FACE_BOUND('',#271,.T.);
#301=PLANE('',#352);
#302=PLANE('',#357);
#303=PLANE('',#358);
#304=PLANE('',#359);
#305=PLANE('',#360);
#306=PLANE('',#361);
#307=PLANE('',#362);
#308=PLANE('',#363);
#309=PLANE('',#364);
#310=PLANE('',#367);
#311=PLANE('',#370);
#312=PLANE('',#373);
#313=PLANE('',#376);
#314=PLANE('',#377);
#315=PLANE('',#378);
#316=PLANE('',#379);
#317=PLANE('',#380);
#318=ADVANCED_FACE('',(#272,#273,#274,#275,#276),#301,.F.);
#319=ADVANCED_FACE('',(#277),#302,.T.);
#320=ADVANCED_FACE('',(#278),#303,.F.);
#321=ADVANCED_FACE('',(#279),#304,.F.);
#322=ADVANCED_FACE('',(#280),#305,.F.);
#323=ADVANCED_FACE('',(#281),#306,.F.);
#324=ADVANCED_FACE('',(#282),#307,.F.);
#325=ADVANCED_FACE('',(#283),#308,.T.);
#326=ADVANCED_FACE('',(#284),#309,.T.);
#327=ADVANCED_FACE('',(#285,#286),#12,.T.);
#328=ADVANCED_FACE('',(#287),#310,.F.);
#329=ADVANCED_FACE('',(#288,#289),#13,.T.);
#330=ADVANCED_FACE('',(#290),#311,.F.);
#331=ADVANCED_FACE('',(#291,#292),#14,.T.);
#332=ADVANCED_FACE('',(#293),#312,.F.);
#333=ADVANCED_FACE('',(#294,#295),#15,.T.);
#334=ADVANCED_FACE('',(#296),#313,.F.);
#335=ADVANCED_FACE('',(#297),#314,.F.);
#336=ADVANCED_FACE('',(#298),#315,.F.);
#337=ADVANCED_FACE('',(#299),#316,.F.);
#338=ADVANCED_FACE('',(#300),#317,.T.);
#339=CLOSED_SHELL('',(#318,#319,#320,#321,#322,#323,#324,#325,#326,#327,
#328,#329,#330,#331,#332,#333,#334,#335,#336,#337,#338));
#340=STYLED_ITEM('',(#341),#348);
#341=PRESENTATION_STYLE_ASSIGNMENT((#342));
#342=SURFACE_STYLE_USAGE(.BOTH.,#343);
#343=SURFACE_SIDE_STYLE('',(#344));
#344=SURFACE_STYLE_FILL_AREA(#345);
#345=FILL_AREA_STYLE('',(#346));
#346=FILL_AREA_STYLE_COLOUR('',#347);
#347=COLOUR_RGB('',0.917647058823529,0.917647058823529,0.917647058823529);
#348=MANIFOLD_SOLID_BREP('Support cam\X\E9ra',#339);
#349=SHAPE_DEFINITION_REPRESENTATION(#573,#350);
#350=SHAPE_REPRESENTATION('Support cam\X\E9ra',(#351),#568);
#351=AXIS2_PLACEMENT_3D('',#474,#381,#382);
#352=AXIS2_PLACEMENT_3D('',#475,#383,#384);
#353=AXIS2_PLACEMENT_3D('',#476,#385,#386);
#354=AXIS2_PLACEMENT_3D('',#478,#387,#388);
#355=AXIS2_PLACEMENT_3D('',#480,#389,#390);
#356=AXIS2_PLACEMENT_3D('',#482,#391,#392);
#357=AXIS2_PLACEMENT_3D('',#500,#401,#402);
#358=AXIS2_PLACEMENT_3D('',#506,#406,#407);
#359=AXIS2_PLACEMENT_3D('',#510,#410,#411);
#360=AXIS2_PLACEMENT_3D('',#520,#417,#418);
#361=AXIS2_PLACEMENT_3D('',#532,#425,#426);
#362=AXIS2_PLACEMENT_3D('',#536,#429,#430);
#363=AXIS2_PLACEMENT_3D('',#540,#433,#434);
#364=AXIS2_PLACEMENT_3D('',#542,#436,#437);
#365=AXIS2_PLACEMENT_3D('',#544,#439,#440);
#366=AXIS2_PLACEMENT_3D('',#545,#441,#442);
#367=AXIS2_PLACEMENT_3D('',#547,#443,#444);
#368=AXIS2_PLACEMENT_3D('',#548,#445,#446);
#369=AXIS2_PLACEMENT_3D('',#549,#447,#448);
#370=AXIS2_PLACEMENT_3D('',#551,#449,#450);
#371=AXIS2_PLACEMENT_3D('',#552,#451,#452);
#372=AXIS2_PLACEMENT_3D('',#553,#453,#454);
#373=AXIS2_PLACEMENT_3D('',#555,#455,#456);
#374=AXIS2_PLACEMENT_3D('',#556,#457,#458);
#375=AXIS2_PLACEMENT_3D('',#557,#459,#460);
#376=AXIS2_PLACEMENT_3D('',#559,#461,#462);
#377=AXIS2_PLACEMENT_3D('',#560,#463,#464);
#378=AXIS2_PLACEMENT_3D('',#562,#466,#467);
#379=AXIS2_PLACEMENT_3D('',#565,#470,#471);
#380=AXIS2_PLACEMENT_3D('',#566,#472,#473);
#381=DIRECTION('',(0.,0.,1.));
#382=DIRECTION('',(1.,0.,0.));
#383=DIRECTION('',(1.,0.,0.));
#384=DIRECTION('',(0.,1.,0.));
#385=DIRECTION('',(1.,0.,0.));
#386=DIRECTION('',(0.,0.,-1.));
#387=DIRECTION('',(1.,0.,0.));
#388=DIRECTION('',(0.,0.,-1.));
#389=DIRECTION('',(1.,0.,0.));
#390=DIRECTION('',(0.,0.,-1.));
#391=DIRECTION('',(1.,0.,0.));
#392=DIRECTION('',(0.,0.,-1.));
#393=DIRECTION('',(0.,1.,0.));
#394=DIRECTION('',(0.,0.,1.));
#395=DIRECTION('',(0.,-1.,1.11022302462516E-16));
#396=DIRECTION('',(0.,0.,1.));
#397=DIRECTION('',(0.,-1.,8.89601782552209E-17));
#398=DIRECTION('',(0.,1.0842021724855E-16,-1.));
#399=DIRECTION('',(0.,-1.,-7.11681426041767E-16));
#400=DIRECTION('',(0.,0.,1.));
#401=DIRECTION('',(0.,-8.89601782552209E-17,-1.));
#402=DIRECTION('',(0.,1.,-8.89601782552209E-17));
#403=DIRECTION('',(-1.,0.,0.));
#404=DIRECTION('',(0.,-1.,8.89601782552209E-17));
#405=DIRECTION('',(-1.,0.,0.));
#406=DIRECTION('',(0.,-1.,0.));
#407=DIRECTION('',(0.,0.,-1.));
#408=DIRECTION('',(-1.,0.,0.));
#409=DIRECTION('',(0.,0.,1.));
#410=DIRECTION('',(0.,-1.11022302462516E-16,-1.));
#411=DIRECTION('',(0.,1.,-1.11022302462516E-16));
#412=DIRECTION('',(0.707106781186548,0.707106781186548,-7.8504622934189E-17));
#413=DIRECTION('',(1.,0.,0.));
#414=DIRECTION('',(0.,-1.,1.11022302462516E-16));
#415=DIRECTION('',(-1.,0.,0.));
#416=DIRECTION('',(0.,-1.,1.11022302462516E-16));
#417=DIRECTION('',(0.,0.,1.));
#418=DIRECTION('',(1.,0.,0.));
#419=DIRECTION('',(-1.,0.,0.));
#420=DIRECTION('',(0.,1.,0.));
#421=DIRECTION('',(1.,0.,0.));
#422=DIRECTION('',(-0.707106781186548,-0.707106781186548,0.));
#423=DIRECTION('',(-1.,0.,0.));
#424=DIRECTION('',(0.,1.,0.));
#425=DIRECTION('',(0.,-1.,0.));
#426=DIRECTION('',(0.,0.,-1.));
#427=DIRECTION('',(-1.,0.,0.));
#428=DIRECTION('',(0.,0.,1.));
#429=DIRECTION('',(0.,7.11681426041767E-16,-1.));
#430=DIRECTION('',(0.,1.,7.11681426041767E-16));
#431=DIRECTION('',(-1.,0.,0.));
#432=DIRECTION('',(0.,-1.,-7.11681426041767E-16));
#433=DIRECTION('',(0.,1.,1.0842021724855E-16));
#434=DIRECTION('',(0.,-1.0842021724855E-16,1.));
#435=DIRECTION('',(0.,1.0842021724855E-16,-1.));
#436=DIRECTION('',(1.,0.,0.));
#437=DIRECTION('',(0.,1.,0.));
#438=DIRECTION('',(0.,0.,-1.));
#439=DIRECTION('',(1.,0.,0.));
#440=DIRECTION('',(0.,0.,-1.));
#441=DIRECTION('',(1.,0.,0.));
#442=DIRECTION('',(0.,0.,-1.));
#443=DIRECTION('',(1.,0.,0.));
#444=DIRECTION('',(0.,1.,0.));
#445=DIRECTION('',(1.,0.,0.));
#446=DIRECTION('',(0.,0.,-1.));
#447=DIRECTION('',(1.,0.,0.));
#448=DIRECTION('',(0.,0.,-1.));
#449=DIRECTION('',(1.,0.,0.));
#450=DIRECTION('',(0.,1.,0.));
#451=DIRECTION('',(1.,0.,0.));
#452=DIRECTION('',(0.,0.,-1.));
#453=DIRECTION('',(1.,0.,0.));
#454=DIRECTION('',(0.,0.,-1.));
#455=DIRECTION('',(1.,0.,0.));
#456=DIRECTION('',(0.,1.,0.));
#457=DIRECTION('',(1.,0.,0.));
#458=DIRECTION('',(0.,0.,-1.));
#459=DIRECTION('',(1.,0.,0.));
#460=DIRECTION('',(0.,0.,-1.));
#461=DIRECTION('',(1.,0.,0.));
#462=DIRECTION('',(0.,1.,0.));
#463=DIRECTION('',(0.,1.,0.));
#464=DIRECTION('',(0.,0.,1.));
#465=DIRECTION('',(0.,0.,-1.));
#466=DIRECTION('',(0.,-1.,0.));
#467=DIRECTION('',(0.,0.,-1.));
#468=DIRECTION('',(0.,0.,-1.));
#469=DIRECTION('',(0.,0.,-1.));
#470=DIRECTION('',(1.,0.,0.));
#471=DIRECTION('',(0.,1.,0.));
#472=DIRECTION('',(-0.707106781186548,0.707106781186548,0.));
#473=DIRECTION('',(0.,0.,1.));
#474=CARTESIAN_POINT('',(0.,0.,0.));
#475=CARTESIAN_POINT('',(0.001,9.75000000000281E-7,-2.49975313379447E-7));
#476=CARTESIAN_POINT('',(0.001,0.01,0.0105));
#477=CARTESIAN_POINT('',(0.001,0.01,0.009875));
#478=CARTESIAN_POINT('',(0.001,-0.0025,0.0105));
#479=CARTESIAN_POINT('',(0.001,-0.0025,0.009875));
#480=CARTESIAN_POINT('',(0.001,-0.0025,-0.0105));
#481=CARTESIAN_POINT('',(0.001,-0.0025,-0.011125));
#482=CARTESIAN_POINT('',(0.001,0.01,-0.0105));
#483=CARTESIAN_POINT('',(0.001,0.01,-0.011125));
#484=CARTESIAN_POINT('',(0.001,-0.01,-0.0125));
#485=CARTESIAN_POINT('',(0.001,-0.035,-0.0125));
#486=CARTESIAN_POINT('',(0.001,0.012,-0.0125));
#487=CARTESIAN_POINT('',(0.001,-0.035,0.0125));
#488=CARTESIAN_POINT('',(0.001,-0.035,0.0125));
#489=CARTESIAN_POINT('',(0.001,0.01,0.0125));
#490=CARTESIAN_POINT('',(0.001,0.012,0.0125));
#491=CARTESIAN_POINT('',(0.001,0.012,-0.0105));
#492=CARTESIAN_POINT('',(0.001,0.012,0.008));
#493=CARTESIAN_POINT('',(0.001,0.00225,0.008));
#494=CARTESIAN_POINT('',(0.001,-0.0075,0.008));
#495=CARTESIAN_POINT('',(0.001,-0.0075,1.7347234759768E-18));
#496=CARTESIAN_POINT('',(0.001,-0.0075,-0.008));
#497=CARTESIAN_POINT('',(0.001,0.00225,-0.008));
#498=CARTESIAN_POINT('',(0.001,0.012,-0.008));
#499=CARTESIAN_POINT('',(0.001,0.012,-0.0105));
#500=CARTESIAN_POINT('',(0.003,0.00225,0.008));
#501=CARTESIAN_POINT('',(0.003,0.012,0.008));
#502=CARTESIAN_POINT('',(0.003,0.012,0.008));
#503=CARTESIAN_POINT('',(0.003,0.00225,0.008));
#504=CARTESIAN_POINT('',(0.003,-0.0075,0.008));
#505=CARTESIAN_POINT('',(0.003,-0.0075,0.008));
#506=CARTESIAN_POINT('',(0.003,0.012,-0.0105));
#507=CARTESIAN_POINT('',(0.003,0.012,0.0125));
#508=CARTESIAN_POINT('',(0.003,0.012,0.0125));
#509=CARTESIAN_POINT('',(0.003,0.012,-0.0105));
#510=CARTESIAN_POINT('',(0.003,0.01,0.0125));
#511=CARTESIAN_POINT('',(0.0245,-0.0115,0.0125));
#512=CARTESIAN_POINT('',(-0.009,-0.045,0.0125));
#513=CARTESIAN_POINT('',(-0.017,-0.045,0.0125));
#514=CARTESIAN_POINT('',(-0.017,-0.045,0.0125));
#515=CARTESIAN_POINT('',(-0.017,0.01,0.0125));
#516=CARTESIAN_POINT('',(-0.017,-0.05,0.0125));
#517=CARTESIAN_POINT('',(0.003,-0.05,0.0125));
#518=CARTESIAN_POINT('',(0.003,-0.05,0.0125));
#519=CARTESIAN_POINT('',(0.003,0.01,0.0125));
#520=CARTESIAN_POINT('',(0.003,-0.01,-0.0125));
#521=CARTESIAN_POINT('',(0.003,-0.05,-0.0125));
#522=CARTESIAN_POINT('',(0.003,-0.05,-0.0125));
#523=CARTESIAN_POINT('',(-0.017,-0.05,-0.0125));
#524=CARTESIAN_POINT('',(-0.017,-0.01,-0.0125));
#525=CARTESIAN_POINT('',(-0.017,-0.045,-0.0125));
#526=CARTESIAN_POINT('',(-0.017,-0.045,-0.0125));
#527=CARTESIAN_POINT('',(-0.009,-0.045,-0.0125));
#528=CARTESIAN_POINT('',(0.0145,-0.0215,-0.0125));
#529=CARTESIAN_POINT('',(0.003,0.012,-0.0125));
#530=CARTESIAN_POINT('',(0.003,0.012,-0.0125));
#531=CARTESIAN_POINT('',(0.003,-0.01,-0.0125));
#532=CARTESIAN_POINT('',(0.003,0.012,-0.0105));
#533=CARTESIAN_POINT('',(0.003,0.012,-0.008));
#534=CARTESIAN_POINT('',(0.003,0.012,-0.008));
#535=CARTESIAN_POINT('',(0.003,0.012,-0.0105));
#536=CARTESIAN_POINT('',(0.003,0.00225,-0.008));
#537=CARTESIAN_POINT('',(0.003,-0.0075,-0.008));
#538=CARTESIAN_POINT('',(0.003,-0.0075,-0.008));
#539=CARTESIAN_POINT('',(0.003,0.00225,-0.008));
#540=CARTESIAN_POINT('',(0.003,-0.0075,1.7347234759768E-18));
#541=CARTESIAN_POINT('',(0.003,-0.0075,1.7347234759768E-18));
#542=CARTESIAN_POINT('',(0.003,9.75000000000281E-7,-2.49975313379447E-7));
#543=CARTESIAN_POINT('',(0.003,-0.05,0.0105));
#544=CARTESIAN_POINT('',(-0.004,0.01,0.0105));
#545=CARTESIAN_POINT('',(-0.004,0.01,0.0105));
#546=CARTESIAN_POINT('',(-0.004,0.01,0.009875));
#547=CARTESIAN_POINT('',(-0.004,9.75000000000281E-7,-2.49975313379447E-7));
#548=CARTESIAN_POINT('',(-0.004,-0.0025,0.0105));
#549=CARTESIAN_POINT('',(-0.004,-0.0025,0.0105));
#550=CARTESIAN_POINT('',(-0.004,-0.0025,0.009875));
#551=CARTESIAN_POINT('',(-0.004,9.75000000000281E-7,-2.49975313379447E-7));
#552=CARTESIAN_POINT('',(-0.004,-0.0025,-0.0105));
#553=CARTESIAN_POINT('',(-0.004,-0.0025,-0.0105));
#554=CARTESIAN_POINT('',(-0.004,-0.0025,-0.011125));
#555=CARTESIAN_POINT('',(-0.004,9.75000000000281E-7,-2.49975313379447E-7));
#556=CARTESIAN_POINT('',(-0.004,0.01,-0.0105));
#557=CARTESIAN_POINT('',(-0.004,0.01,-0.0105));
#558=CARTESIAN_POINT('',(-0.004,0.01,-0.011125));
#559=CARTESIAN_POINT('',(-0.004,9.75000000000281E-7,-2.49975313379447E-7));
#560=CARTESIAN_POINT('',(0.003,-0.05,0.0105));
#561=CARTESIAN_POINT('',(-0.017,-0.05,0.0105));
#562=CARTESIAN_POINT('',(-0.017,-0.045,0.));
#563=CARTESIAN_POINT('',(-0.009,-0.045,-0.0125));
#564=CARTESIAN_POINT('',(-0.017,-0.045,0.));
#565=CARTESIAN_POINT('',(-0.017,-0.019,0.));
#566=CARTESIAN_POINT('',(-0.009,-0.045,0.));
#567=MECHANICAL_DESIGN_GEOMETRIC_PRESENTATION_REPRESENTATION('',(#340),
#568);
#568=(
GEOMETRIC_REPRESENTATION_CONTEXT(3)
GLOBAL_UNCERTAINTY_ASSIGNED_CONTEXT((#569))
GLOBAL_UNIT_ASSIGNED_CONTEXT((#572,#571,#570))
REPRESENTATION_CONTEXT('Support cam\X\E9ra','TOP_LEVEL_ASSEMBLY_PART')
);
#569=UNCERTAINTY_MEASURE_WITH_UNIT(LENGTH_MEASURE(1.E-8),#572,
'DISTANCE_ACCURACY_VALUE','Maximum Tolerance applied to model');
#570=(
NAMED_UNIT(*)
SI_UNIT($,.STERADIAN.)
SOLID_ANGLE_UNIT()
);
#571=(
NAMED_UNIT(*)
PLANE_ANGLE_UNIT()
SI_UNIT($,.RADIAN.)
);
#572=(
LENGTH_UNIT()
NAMED_UNIT(*)
SI_UNIT($,.METRE.)
);
#573=PRODUCT_DEFINITION_SHAPE('','',#574);
#574=PRODUCT_DEFINITION('','',#576,#575);
#575=PRODUCT_DEFINITION_CONTEXT('',#582,'design');
#576=PRODUCT_DEFINITION_FORMATION_WITH_SPECIFIED_SOURCE('','',#578,
 .NOT_KNOWN.);
#577=PRODUCT_RELATED_PRODUCT_CATEGORY('','',(#578));
#578=PRODUCT('Support cam\X\E9ra','Support cam\X\E9ra',
'Support cam\X\E9ra',(#580));
#579=PRODUCT_CATEGORY('','');
#580=PRODUCT_CONTEXT('',#582,'mechanical');
#581=APPLICATION_PROTOCOL_DEFINITION('international standard',
'ap242_managed_model_based_3d_engineering',2020,#582);
#582=APPLICATION_CONTEXT('managed model based 3d engineering');
ENDSEC;
END-ISO-10303-21;
