ISO-10303-21;
HEADER;
/* Generated by software containing ST-Developer
 * from STEP Tools, Inc. (www.steptools.com) 
 */
/* OPTION: using custom renumber hook */

FILE_DESCRIPTION(
/* description */ ('STEP AP242 Edition 2',
'CAx-IF Rec.Pracs.---Representation and Presentation of Product Manufa
cturing Information (PMI)---4.0---2014-10-13',
'CAx-IF Rec.Pracs.---3D Tessellated Geometry---0.4---2014-09-14','2;1',
'CAx-IF Rec.Pracs.---User Defined Attributes---1.5---2016-08-15'),
/* implementation_level */ '2;1');

FILE_NAME(
/* name */ 'Assemblage V2 - Jonction gauche',
/* time_stamp */ '2026-09-29T21:10:08Z',
/* author */ (''),
/* organization */ (''),
/* preprocessor_version */ 'ST-DEVELOPER v20',
/* originating_system */ 'ONSHAPE BY PTC INC, 1.221',
/* authorisation */ '  ');

FILE_SCHEMA (('AP242_MANAGED_MODEL_BASED_3D_ENGINEERING_MIM_LF { 1 0 10303 442 3 1 4 }'));
ENDSEC;

DATA;
#10=SHAPE_REPRESENTATION_RELATIONSHIP('','',#677,#11);
#11=ADVANCED_BREP_SHAPE_REPRESENTATION('',(#675),#1099);
#12=ELLIPSE('',#700,0.0176776695296637,0.0125);
#13=ELLIPSE('',#701,0.0176776695296637,0.0125);
#14=ELLIPSE('',#703,0.0176776695296637,0.0125);
#15=ELLIPSE('',#705,0.0176776695296637,0.0125);
#16=ELLIPSE('',#708,0.0176776695296637,0.0125);
#17=ELLIPSE('',#709,0.0176776695296637,0.0125);
#18=ELLIPSE('',#711,0.0176776695296637,0.0125);
#19=ELLIPSE('',#713,0.0176776695296637,0.0125);
#20=ELLIPSE('',#724,0.00424264068711928,0.003);
#21=ELLIPSE('',#725,0.00424264068711928,0.003);
#22=ELLIPSE('',#727,0.00424264068711928,0.003);
#23=ELLIPSE('',#729,0.00424264068711928,0.003);
#24=CYLINDRICAL_SURFACE('',#699,0.0125);
#25=CYLINDRICAL_SURFACE('',#702,0.0125);
#26=CYLINDRICAL_SURFACE('',#704,0.0125);
#27=CYLINDRICAL_SURFACE('',#706,0.0125);
#28=CYLINDRICAL_SURFACE('',#707,0.0125);
#29=CYLINDRICAL_SURFACE('',#710,0.0125);
#30=CYLINDRICAL_SURFACE('',#712,0.0125);
#31=CYLINDRICAL_SURFACE('',#714,0.0125);
#32=CYLINDRICAL_SURFACE('',#723,0.003);
#33=CYLINDRICAL_SURFACE('',#726,0.003);
#34=CYLINDRICAL_SURFACE('',#728,0.003);
#35=CYLINDRICAL_SURFACE('',#730,0.003);
#36=ORIENTED_EDGE('',*,*,#216,.F.);
#37=ORIENTED_EDGE('',*,*,#217,.F.);
#38=ORIENTED_EDGE('',*,*,#218,.T.);
#39=ORIENTED_EDGE('',*,*,#219,.T.);
#40=ORIENTED_EDGE('',*,*,#220,.F.);
#41=ORIENTED_EDGE('',*,*,#221,.F.);
#42=ORIENTED_EDGE('',*,*,#222,.T.);
#43=ORIENTED_EDGE('',*,*,#223,.T.);
#44=ORIENTED_EDGE('',*,*,#224,.T.);
#45=ORIENTED_EDGE('',*,*,#225,.T.);
#46=ORIENTED_EDGE('',*,*,#226,.F.);
#47=ORIENTED_EDGE('',*,*,#227,.F.);
#48=ORIENTED_EDGE('',*,*,#226,.T.);
#49=ORIENTED_EDGE('',*,*,#228,.T.);
#50=ORIENTED_EDGE('',*,*,#229,.F.);
#51=ORIENTED_EDGE('',*,*,#230,.F.);
#52=ORIENTED_EDGE('',*,*,#231,.T.);
#53=ORIENTED_EDGE('',*,*,#232,.F.);
#54=ORIENTED_EDGE('',*,*,#233,.T.);
#55=ORIENTED_EDGE('',*,*,#229,.T.);
#56=ORIENTED_EDGE('',*,*,#234,.T.);
#57=ORIENTED_EDGE('',*,*,#235,.T.);
#58=ORIENTED_EDGE('',*,*,#236,.F.);
#59=ORIENTED_EDGE('',*,*,#237,.T.);
#60=ORIENTED_EDGE('',*,*,#236,.T.);
#61=ORIENTED_EDGE('',*,*,#238,.T.);
#62=ORIENTED_EDGE('',*,*,#239,.F.);
#63=ORIENTED_EDGE('',*,*,#240,.F.);
#64=ORIENTED_EDGE('',*,*,#239,.T.);
#65=ORIENTED_EDGE('',*,*,#241,.T.);
#66=ORIENTED_EDGE('',*,*,#242,.F.);
#67=ORIENTED_EDGE('',*,*,#243,.F.);
#68=ORIENTED_EDGE('',*,*,#242,.T.);
#69=ORIENTED_EDGE('',*,*,#244,.T.);
#70=ORIENTED_EDGE('',*,*,#234,.F.);
#71=ORIENTED_EDGE('',*,*,#245,.T.);
#72=ORIENTED_EDGE('',*,*,#246,.T.);
#73=ORIENTED_EDGE('',*,*,#224,.F.);
#74=ORIENTED_EDGE('',*,*,#247,.T.);
#75=ORIENTED_EDGE('',*,*,#232,.T.);
#76=ORIENTED_EDGE('',*,*,#237,.F.);
#77=ORIENTED_EDGE('',*,*,#240,.T.);
#78=ORIENTED_EDGE('',*,*,#243,.T.);
#79=ORIENTED_EDGE('',*,*,#245,.F.);
#80=ORIENTED_EDGE('',*,*,#227,.T.);
#81=ORIENTED_EDGE('',*,*,#230,.T.);
#82=ORIENTED_EDGE('',*,*,#233,.F.);
#83=ORIENTED_EDGE('',*,*,#247,.F.);
#84=ORIENTED_EDGE('',*,*,#248,.T.);
#85=ORIENTED_EDGE('',*,*,#249,.T.);
#86=ORIENTED_EDGE('',*,*,#219,.F.);
#87=ORIENTED_EDGE('',*,*,#250,.F.);
#88=ORIENTED_EDGE('',*,*,#251,.T.);
#89=ORIENTED_EDGE('',*,*,#223,.F.);
#90=ORIENTED_EDGE('',*,*,#252,.F.);
#91=ORIENTED_EDGE('',*,*,#253,.T.);
#92=ORIENTED_EDGE('',*,*,#254,.T.);
#93=ORIENTED_EDGE('',*,*,#255,.F.);
#94=ORIENTED_EDGE('',*,*,#256,.T.);
#95=ORIENTED_EDGE('',*,*,#257,.T.);
#96=ORIENTED_EDGE('',*,*,#258,.F.);
#97=ORIENTED_EDGE('',*,*,#255,.T.);
#98=ORIENTED_EDGE('',*,*,#258,.T.);
#99=ORIENTED_EDGE('',*,*,#259,.T.);
#100=ORIENTED_EDGE('',*,*,#260,.F.);
#101=ORIENTED_EDGE('',*,*,#252,.T.);
#102=ORIENTED_EDGE('',*,*,#260,.T.);
#103=ORIENTED_EDGE('',*,*,#261,.T.);
#104=ORIENTED_EDGE('',*,*,#262,.F.);
#105=ORIENTED_EDGE('',*,*,#253,.F.);
#106=ORIENTED_EDGE('',*,*,#262,.T.);
#107=ORIENTED_EDGE('',*,*,#263,.T.);
#108=ORIENTED_EDGE('',*,*,#256,.F.);
#109=ORIENTED_EDGE('',*,*,#254,.F.);
#110=ORIENTED_EDGE('',*,*,#264,.T.);
#111=ORIENTED_EDGE('',*,*,#265,.T.);
#112=ORIENTED_EDGE('',*,*,#266,.F.);
#113=ORIENTED_EDGE('',*,*,#267,.T.);
#114=ORIENTED_EDGE('',*,*,#266,.T.);
#115=ORIENTED_EDGE('',*,*,#268,.T.);
#116=ORIENTED_EDGE('',*,*,#269,.F.);
#117=ORIENTED_EDGE('',*,*,#270,.T.);
#118=ORIENTED_EDGE('',*,*,#269,.T.);
#119=ORIENTED_EDGE('',*,*,#271,.T.);
#120=ORIENTED_EDGE('',*,*,#272,.F.);
#121=ORIENTED_EDGE('',*,*,#273,.T.);
#122=ORIENTED_EDGE('',*,*,#272,.T.);
#123=ORIENTED_EDGE('',*,*,#274,.T.);
#124=ORIENTED_EDGE('',*,*,#264,.F.);
#125=ORIENTED_EDGE('',*,*,#275,.T.);
#126=ORIENTED_EDGE('',*,*,#276,.F.);
#127=ORIENTED_EDGE('',*,*,#225,.F.);
#128=ORIENTED_EDGE('',*,*,#277,.F.);
#129=ORIENTED_EDGE('',*,*,#267,.F.);
#130=ORIENTED_EDGE('',*,*,#277,.T.);
#131=ORIENTED_EDGE('',*,*,#246,.F.);
#132=ORIENTED_EDGE('',*,*,#278,.F.);
#133=ORIENTED_EDGE('',*,*,#275,.F.);
#134=ORIENTED_EDGE('',*,*,#276,.T.);
#135=ORIENTED_EDGE('',*,*,#270,.F.);
#136=ORIENTED_EDGE('',*,*,#279,.F.);
#137=ORIENTED_EDGE('',*,*,#228,.F.);
#138=ORIENTED_EDGE('',*,*,#278,.T.);
#139=ORIENTED_EDGE('',*,*,#231,.F.);
#140=ORIENTED_EDGE('',*,*,#279,.T.);
#141=ORIENTED_EDGE('',*,*,#273,.F.);
#142=ORIENTED_EDGE('',*,*,#280,.F.);
#143=ORIENTED_EDGE('',*,*,#268,.F.);
#144=ORIENTED_EDGE('',*,*,#281,.F.);
#145=ORIENTED_EDGE('',*,*,#257,.F.);
#146=ORIENTED_EDGE('',*,*,#281,.T.);
#147=ORIENTED_EDGE('',*,*,#265,.F.);
#148=ORIENTED_EDGE('',*,*,#282,.F.);
#149=ORIENTED_EDGE('',*,*,#259,.F.);
#150=ORIENTED_EDGE('',*,*,#280,.T.);
#151=ORIENTED_EDGE('',*,*,#263,.F.);
#152=ORIENTED_EDGE('',*,*,#283,.F.);
#153=ORIENTED_EDGE('',*,*,#271,.F.);
#154=ORIENTED_EDGE('',*,*,#282,.T.);
#155=ORIENTED_EDGE('',*,*,#274,.F.);
#156=ORIENTED_EDGE('',*,*,#283,.T.);
#157=ORIENTED_EDGE('',*,*,#261,.F.);
#158=ORIENTED_EDGE('',*,*,#284,.T.);
#159=ORIENTED_EDGE('',*,*,#248,.F.);
#160=ORIENTED_EDGE('',*,*,#222,.F.);
#161=ORIENTED_EDGE('',*,*,#285,.F.);
#162=ORIENTED_EDGE('',*,*,#286,.T.);
#163=ORIENTED_EDGE('',*,*,#287,.T.);
#164=ORIENTED_EDGE('',*,*,#288,.F.);
#165=ORIENTED_EDGE('',*,*,#289,.F.);
#166=ORIENTED_EDGE('',*,*,#290,.T.);
#167=ORIENTED_EDGE('',*,*,#291,.F.);
#168=ORIENTED_EDGE('',*,*,#286,.F.);
#169=ORIENTED_EDGE('',*,*,#292,.T.);
#170=ORIENTED_EDGE('',*,*,#293,.T.);
#171=ORIENTED_EDGE('',*,*,#294,.F.);
#172=ORIENTED_EDGE('',*,*,#290,.F.);
#173=ORIENTED_EDGE('',*,*,#295,.T.);
#174=ORIENTED_EDGE('',*,*,#288,.T.);
#175=ORIENTED_EDGE('',*,*,#296,.T.);
#176=ORIENTED_EDGE('',*,*,#293,.F.);
#177=ORIENTED_EDGE('',*,*,#297,.F.);
#178=ORIENTED_EDGE('',*,*,#217,.T.);
#179=ORIENTED_EDGE('',*,*,#298,.F.);
#180=ORIENTED_EDGE('',*,*,#289,.T.);
#181=ORIENTED_EDGE('',*,*,#297,.T.);
#182=ORIENTED_EDGE('',*,*,#295,.F.);
#183=ORIENTED_EDGE('',*,*,#292,.F.);
#184=ORIENTED_EDGE('',*,*,#285,.T.);
#185=ORIENTED_EDGE('',*,*,#221,.T.);
#186=ORIENTED_EDGE('',*,*,#299,.F.);
#187=ORIENTED_EDGE('',*,*,#300,.T.);
#188=ORIENTED_EDGE('',*,*,#301,.T.);
#189=ORIENTED_EDGE('',*,*,#250,.T.);
#190=ORIENTED_EDGE('',*,*,#218,.F.);
#191=ORIENTED_EDGE('',*,*,#300,.F.);
#192=ORIENTED_EDGE('',*,*,#251,.F.);
#193=ORIENTED_EDGE('',*,*,#301,.F.);
#194=ORIENTED_EDGE('',*,*,#299,.T.);
#195=ORIENTED_EDGE('',*,*,#220,.T.);
#196=ORIENTED_EDGE('',*,*,#249,.F.);
#197=ORIENTED_EDGE('',*,*,#284,.F.);
#198=ORIENTED_EDGE('',*,*,#298,.T.);
#199=ORIENTED_EDGE('',*,*,#216,.T.);
#200=ORIENTED_EDGE('',*,*,#302,.F.);
#201=ORIENTED_EDGE('',*,*,#296,.F.);
#202=ORIENTED_EDGE('',*,*,#303,.F.);
#203=ORIENTED_EDGE('',*,*,#244,.F.);
#204=ORIENTED_EDGE('',*,*,#303,.T.);
#205=ORIENTED_EDGE('',*,*,#287,.F.);
#206=ORIENTED_EDGE('',*,*,#304,.F.);
#207=ORIENTED_EDGE('',*,*,#235,.F.);
#208=ORIENTED_EDGE('',*,*,#302,.T.);
#209=ORIENTED_EDGE('',*,*,#241,.F.);
#210=ORIENTED_EDGE('',*,*,#305,.F.);
#211=ORIENTED_EDGE('',*,*,#294,.T.);
#212=ORIENTED_EDGE('',*,*,#304,.T.);
#213=ORIENTED_EDGE('',*,*,#291,.T.);
#214=ORIENTED_EDGE('',*,*,#305,.T.);
#215=ORIENTED_EDGE('',*,*,#238,.F.);
#216=EDGE_CURVE('',#306,#307,#358,.F.);
#217=EDGE_CURVE('',#308,#306,#359,.F.);
#218=EDGE_CURVE('',#308,#309,#360,.T.);
#219=EDGE_CURVE('',#309,#307,#361,.F.);
#220=EDGE_CURVE('',#310,#311,#362,.F.);
#221=EDGE_CURVE('',#312,#310,#363,.T.);
#222=EDGE_CURVE('',#312,#313,#364,.T.);
#223=EDGE_CURVE('',#313,#311,#365,.T.);
#224=EDGE_CURVE('',#314,#315,#366,.T.);
#225=EDGE_CURVE('',#315,#316,#367,.F.);
#226=EDGE_CURVE('',#317,#316,#368,.T.);
#227=EDGE_CURVE('',#314,#317,#369,.T.);
#228=EDGE_CURVE('',#316,#318,#370,.F.);
#229=EDGE_CURVE('',#319,#318,#371,.T.);
#230=EDGE_CURVE('',#317,#319,#372,.T.);
#231=EDGE_CURVE('',#318,#320,#373,.F.);
#232=EDGE_CURVE('',#321,#320,#374,.T.);
#233=EDGE_CURVE('',#321,#319,#375,.T.);
#234=EDGE_CURVE('',#322,#323,#376,.T.);
#235=EDGE_CURVE('',#323,#324,#377,.F.);
#236=EDGE_CURVE('',#325,#324,#378,.T.);
#237=EDGE_CURVE('',#325,#322,#379,.T.);
#238=EDGE_CURVE('',#324,#326,#380,.T.);
#239=EDGE_CURVE('',#327,#326,#381,.T.);
#240=EDGE_CURVE('',#325,#327,#382,.T.);
#241=EDGE_CURVE('',#326,#328,#383,.T.);
#242=EDGE_CURVE('',#329,#328,#384,.T.);
#243=EDGE_CURVE('',#327,#329,#385,.T.);
#244=EDGE_CURVE('',#328,#323,#386,.F.);
#245=EDGE_CURVE('',#322,#329,#387,.T.);
#246=EDGE_CURVE('',#320,#315,#388,.F.);
#247=EDGE_CURVE('',#314,#321,#389,.T.);
#248=EDGE_CURVE('',#313,#330,#390,.T.);
#249=EDGE_CURVE('',#330,#307,#391,.F.);
#250=EDGE_CURVE('',#331,#309,#392,.F.);
#251=EDGE_CURVE('',#331,#311,#393,.F.);
#252=EDGE_CURVE('',#332,#333,#394,.T.);
#253=EDGE_CURVE('',#332,#334,#395,.T.);
#254=EDGE_CURVE('',#334,#335,#396,.T.);
#255=EDGE_CURVE('',#333,#335,#397,.T.);
#256=EDGE_CURVE('',#335,#336,#398,.T.);
#257=EDGE_CURVE('',#336,#337,#399,.F.);
#258=EDGE_CURVE('',#333,#337,#400,.T.);
#259=EDGE_CURVE('',#337,#338,#401,.F.);
#260=EDGE_CURVE('',#332,#338,#402,.T.);
#261=EDGE_CURVE('',#338,#339,#403,.F.);
#262=EDGE_CURVE('',#334,#339,#404,.T.);
#263=EDGE_CURVE('',#339,#336,#405,.F.);
#264=EDGE_CURVE('',#340,#341,#406,.T.);
#265=EDGE_CURVE('',#341,#342,#407,.T.);
#266=EDGE_CURVE('',#343,#342,#408,.T.);
#267=EDGE_CURVE('',#343,#340,#409,.F.);
#268=EDGE_CURVE('',#342,#344,#410,.T.);
#269=EDGE_CURVE('',#345,#344,#411,.T.);
#270=EDGE_CURVE('',#345,#343,#412,.F.);
#271=EDGE_CURVE('',#344,#346,#413,.F.);
#272=EDGE_CURVE('',#347,#346,#414,.T.);
#273=EDGE_CURVE('',#347,#345,#415,.T.);
#274=EDGE_CURVE('',#346,#341,#416,.F.);
#275=EDGE_CURVE('',#340,#347,#417,.T.);
#276=EDGE_CURVE('',#316,#343,#12,.F.);
#277=EDGE_CURVE('',#340,#315,#13,.T.);
#278=EDGE_CURVE('',#347,#320,#14,.T.);
#279=EDGE_CURVE('',#318,#345,#15,.F.);
#280=EDGE_CURVE('',#344,#336,#16,.T.);
#281=EDGE_CURVE('',#337,#342,#17,.F.);
#282=EDGE_CURVE('',#338,#341,#18,.F.);
#283=EDGE_CURVE('',#346,#339,#19,.T.);
#284=EDGE_CURVE('',#348,#330,#418,.F.);
#285=EDGE_CURVE('',#349,#312,#419,.T.);
#286=EDGE_CURVE('',#349,#350,#420,.T.);
#287=EDGE_CURVE('',#350,#351,#421,.T.);
#288=EDGE_CURVE('',#352,#351,#422,.T.);
#289=EDGE_CURVE('',#348,#352,#423,.T.);
#290=EDGE_CURVE('',#353,#354,#424,.T.);
#291=EDGE_CURVE('',#350,#354,#425,.T.);
#292=EDGE_CURVE('',#349,#353,#426,.T.);
#293=EDGE_CURVE('',#355,#356,#427,.T.);
#294=EDGE_CURVE('',#354,#356,#428,.T.);
#295=EDGE_CURVE('',#353,#355,#429,.T.);
#296=EDGE_CURVE('',#351,#356,#430,.T.);
#297=EDGE_CURVE('',#352,#355,#431,.T.);
#298=EDGE_CURVE('',#348,#306,#432,.F.);
#299=EDGE_CURVE('',#357,#310,#433,.F.);
#300=EDGE_CURVE('',#357,#308,#434,.F.);
#301=EDGE_CURVE('',#357,#331,#435,.T.);
#302=EDGE_CURVE('',#356,#328,#20,.T.);
#303=EDGE_CURVE('',#323,#351,#21,.F.);
#304=EDGE_CURVE('',#324,#350,#22,.F.);
#305=EDGE_CURVE('',#354,#326,#23,.T.);
#306=VERTEX_POINT('',#918);
#307=VERTEX_POINT('',#919);
#308=VERTEX_POINT('',#921);
#309=VERTEX_POINT('',#923);
#310=VERTEX_POINT('',#927);
#311=VERTEX_POINT('',#928);
#312=VERTEX_POINT('',#930);
#313=VERTEX_POINT('',#932);
#314=VERTEX_POINT('',#936);
#315=VERTEX_POINT('',#937);
#316=VERTEX_POINT('',#939);
#317=VERTEX_POINT('',#941);
#318=VERTEX_POINT('',#945);
#319=VERTEX_POINT('',#947);
#320=VERTEX_POINT('',#951);
#321=VERTEX_POINT('',#953);
#322=VERTEX_POINT('',#957);
#323=VERTEX_POINT('',#958);
#324=VERTEX_POINT('',#960);
#325=VERTEX_POINT('',#962);
#326=VERTEX_POINT('',#966);
#327=VERTEX_POINT('',#968);
#328=VERTEX_POINT('',#972);
#329=VERTEX_POINT('',#974);
#330=VERTEX_POINT('',#985);
#331=VERTEX_POINT('',#988);
#332=VERTEX_POINT('',#991);
#333=VERTEX_POINT('',#992);
#334=VERTEX_POINT('',#994);
#335=VERTEX_POINT('',#996);
#336=VERTEX_POINT('',#1000);
#337=VERTEX_POINT('',#1002);
#338=VERTEX_POINT('',#1006);
#339=VERTEX_POINT('',#1010);
#340=VERTEX_POINT('',#1016);
#341=VERTEX_POINT('',#1017);
#342=VERTEX_POINT('',#1019);
#343=VERTEX_POINT('',#1021);
#344=VERTEX_POINT('',#1025);
#345=VERTEX_POINT('',#1027);
#346=VERTEX_POINT('',#1031);
#347=VERTEX_POINT('',#1033);
#348=VERTEX_POINT('',#1056);
#349=VERTEX_POINT('',#1058);
#350=VERTEX_POINT('',#1060);
#351=VERTEX_POINT('',#1062);
#352=VERTEX_POINT('',#1064);
#353=VERTEX_POINT('',#1068);
#354=VERTEX_POINT('',#1069);
#355=VERTEX_POINT('',#1074);
#356=VERTEX_POINT('',#1075);
#357=VERTEX_POINT('',#1084);
#358=LINE('',#917,#436);
#359=LINE('',#920,#437);
#360=LINE('',#922,#438);
#361=LINE('',#924,#439);
#362=LINE('',#926,#440);
#363=LINE('',#929,#441);
#364=LINE('',#931,#442);
#365=LINE('',#933,#443);
#366=LINE('',#935,#444);
#367=LINE('',#938,#445);
#368=LINE('',#940,#446);
#369=LINE('',#942,#447);
#370=LINE('',#944,#448);
#371=LINE('',#946,#449);
#372=LINE('',#948,#450);
#373=LINE('',#950,#451);
#374=LINE('',#952,#452);
#375=LINE('',#954,#453);
#376=LINE('',#956,#454);
#377=LINE('',#959,#455);
#378=LINE('',#961,#456);
#379=LINE('',#963,#457);
#380=LINE('',#965,#458);
#381=LINE('',#967,#459);
#382=LINE('',#969,#460);
#383=LINE('',#971,#461);
#384=LINE('',#973,#462);
#385=LINE('',#975,#463);
#386=LINE('',#977,#464);
#387=LINE('',#978,#465);
#388=LINE('',#980,#466);
#389=LINE('',#981,#467);
#390=LINE('',#984,#468);
#391=LINE('',#986,#469);
#392=LINE('',#987,#470);
#393=LINE('',#989,#471);
#394=LINE('',#990,#472);
#395=LINE('',#993,#473);
#396=LINE('',#995,#474);
#397=LINE('',#997,#475);
#398=LINE('',#999,#476);
#399=LINE('',#1001,#477);
#400=LINE('',#1003,#478);
#401=LINE('',#1005,#479);
#402=LINE('',#1007,#480);
#403=LINE('',#1009,#481);
#404=LINE('',#1011,#482);
#405=LINE('',#1013,#483);
#406=LINE('',#1015,#484);
#407=LINE('',#1018,#485);
#408=LINE('',#1020,#486);
#409=LINE('',#1022,#487);
#410=LINE('',#1024,#488);
#411=LINE('',#1026,#489);
#412=LINE('',#1028,#490);
#413=LINE('',#1030,#491);
#414=LINE('',#1032,#492);
#415=LINE('',#1034,#493);
#416=LINE('',#1036,#494);
#417=LINE('',#1037,#495);
#418=LINE('',#1055,#496);
#419=LINE('',#1057,#497);
#420=LINE('',#1059,#498);
#421=LINE('',#1061,#499);
#422=LINE('',#1063,#500);
#423=LINE('',#1065,#501);
#424=LINE('',#1067,#502);
#425=LINE('',#1070,#503);
#426=LINE('',#1071,#504);
#427=LINE('',#1073,#505);
#428=LINE('',#1076,#506);
#429=LINE('',#1077,#507);
#430=LINE('',#1079,#508);
#431=LINE('',#1080,#509);
#432=LINE('',#1082,#510);
#433=LINE('',#1083,#511);
#434=LINE('',#1085,#512);
#435=LINE('',#1087,#513);
#436=VECTOR('',#735,1.);
#437=VECTOR('',#736,1.);
#438=VECTOR('',#737,1.);
#439=VECTOR('',#738,1.);
#440=VECTOR('',#741,1.);
#441=VECTOR('',#742,1.);
#442=VECTOR('',#743,1.);
#443=VECTOR('',#744,1.);
#444=VECTOR('',#747,1.);
#445=VECTOR('',#748,1.);
#446=VECTOR('',#749,1.);
#447=VECTOR('',#750,1.);
#448=VECTOR('',#753,1.);
#449=VECTOR('',#754,1.);
#450=VECTOR('',#755,1.);
#451=VECTOR('',#758,1.);
#452=VECTOR('',#759,1.);
#453=VECTOR('',#760,1.);
#454=VECTOR('',#763,1.);
#455=VECTOR('',#764,1.);
#456=VECTOR('',#765,1.);
#457=VECTOR('',#766,1.);
#458=VECTOR('',#769,1.);
#459=VECTOR('',#770,1.);
#460=VECTOR('',#771,1.);
#461=VECTOR('',#774,1.);
#462=VECTOR('',#775,1.);
#463=VECTOR('',#776,1.);
#464=VECTOR('',#779,1.);
#465=VECTOR('',#780,1.);
#466=VECTOR('',#783,1.);
#467=VECTOR('',#784,1.);
#468=VECTOR('',#789,1.);
#469=VECTOR('',#790,1.);
#470=VECTOR('',#791,1.);
#471=VECTOR('',#792,1.);
#472=VECTOR('',#793,1.);
#473=VECTOR('',#794,1.);
#474=VECTOR('',#795,1.);
#475=VECTOR('',#796,1.);
#476=VECTOR('',#799,1.);
#477=VECTOR('',#800,1.);
#478=VECTOR('',#801,1.);
#479=VECTOR('',#804,1.);
#480=VECTOR('',#805,1.);
#481=VECTOR('',#808,1.);
#482=VECTOR('',#809,1.);
#483=VECTOR('',#812,1.);
#484=VECTOR('',#815,1.);
#485=VECTOR('',#816,1.);
#486=VECTOR('',#817,1.);
#487=VECTOR('',#818,1.);
#488=VECTOR('',#821,1.);
#489=VECTOR('',#822,1.);
#490=VECTOR('',#823,1.);
#491=VECTOR('',#826,1.);
#492=VECTOR('',#827,1.);
#493=VECTOR('',#828,1.);
#494=VECTOR('',#831,1.);
#495=VECTOR('',#832,1.);
#496=VECTOR('',#867,1.);
#497=VECTOR('',#868,1.);
#498=VECTOR('',#869,1.);
#499=VECTOR('',#870,1.);
#500=VECTOR('',#871,1.);
#501=VECTOR('',#872,1.);
#502=VECTOR('',#875,1.);
#503=VECTOR('',#876,1.);
#504=VECTOR('',#877,1.);
#505=VECTOR('',#880,1.);
#506=VECTOR('',#881,1.);
#507=VECTOR('',#882,1.);
#508=VECTOR('',#885,1.);
#509=VECTOR('',#886,1.);
#510=VECTOR('',#889,1.);
#511=VECTOR('',#890,1.);
#512=VECTOR('',#891,1.);
#513=VECTOR('',#894,1.);
#514=EDGE_LOOP('',(#36,#37,#38,#39));
#515=EDGE_LOOP('',(#40,#41,#42,#43));
#516=EDGE_LOOP('',(#44,#45,#46,#47));
#517=EDGE_LOOP('',(#48,#49,#50,#51));
#518=EDGE_LOOP('',(#52,#53,#54,#55));
#519=EDGE_LOOP('',(#56,#57,#58,#59));
#520=EDGE_LOOP('',(#60,#61,#62,#63));
#521=EDGE_LOOP('',(#64,#65,#66,#67));
#522=EDGE_LOOP('',(#68,#69,#70,#71));
#523=EDGE_LOOP('',(#72,#73,#74,#75));
#524=EDGE_LOOP('',(#76,#77,#78,#79));
#525=EDGE_LOOP('',(#80,#81,#82,#83));
#526=EDGE_LOOP('',(#84,#85,#86,#87,#88,#89));
#527=EDGE_LOOP('',(#90,#91,#92,#93));
#528=EDGE_LOOP('',(#94,#95,#96,#97));
#529=EDGE_LOOP('',(#98,#99,#100,#101));
#530=EDGE_LOOP('',(#102,#103,#104,#105));
#531=EDGE_LOOP('',(#106,#107,#108,#109));
#532=EDGE_LOOP('',(#110,#111,#112,#113));
#533=EDGE_LOOP('',(#114,#115,#116,#117));
#534=EDGE_LOOP('',(#118,#119,#120,#121));
#535=EDGE_LOOP('',(#122,#123,#124,#125));
#536=EDGE_LOOP('',(#126,#127,#128,#129));
#537=EDGE_LOOP('',(#130,#131,#132,#133));
#538=EDGE_LOOP('',(#134,#135,#136,#137));
#539=EDGE_LOOP('',(#138,#139,#140,#141));
#540=EDGE_LOOP('',(#142,#143,#144,#145));
#541=EDGE_LOOP('',(#146,#147,#148,#149));
#542=EDGE_LOOP('',(#150,#151,#152,#153));
#543=EDGE_LOOP('',(#154,#155,#156,#157));
#544=EDGE_LOOP('',(#158,#159,#160,#161,#162,#163,#164,#165));
#545=EDGE_LOOP('',(#166,#167,#168,#169));
#546=EDGE_LOOP('',(#170,#171,#172,#173));
#547=EDGE_LOOP('',(#174,#175,#176,#177));
#548=EDGE_LOOP('',(#178,#179,#180,#181,#182,#183,#184,#185,#186,#187));
#549=EDGE_LOOP('',(#188,#189,#190,#191));
#550=EDGE_LOOP('',(#192,#193,#194,#195));
#551=EDGE_LOOP('',(#196,#197,#198,#199));
#552=EDGE_LOOP('',(#200,#201,#202,#203));
#553=EDGE_LOOP('',(#204,#205,#206,#207));
#554=EDGE_LOOP('',(#208,#209,#210,#211));
#555=EDGE_LOOP('',(#212,#213,#214,#215));
#556=FACE_BOUND('',#514,.T.);
#557=FACE_BOUND('',#515,.T.);
#558=FACE_BOUND('',#516,.T.);
#559=FACE_BOUND('',#517,.T.);
#560=FACE_BOUND('',#518,.T.);
#561=FACE_BOUND('',#519,.T.);
#562=FACE_BOUND('',#520,.T.);
#563=FACE_BOUND('',#521,.T.);
#564=FACE_BOUND('',#522,.T.);
#565=FACE_BOUND('',#523,.T.);
#566=FACE_BOUND('',#524,.T.);
#567=FACE_BOUND('',#525,.T.);
#568=FACE_BOUND('',#526,.T.);
#569=FACE_BOUND('',#527,.T.);
#570=FACE_BOUND('',#528,.T.);
#571=FACE_BOUND('',#529,.T.);
#572=FACE_BOUND('',#530,.T.);
#573=FACE_BOUND('',#531,.T.);
#574=FACE_BOUND('',#532,.T.);
#575=FACE_BOUND('',#533,.T.);
#576=FACE_BOUND('',#534,.T.);
#577=FACE_BOUND('',#535,.T.);
#578=FACE_BOUND('',#536,.T.);
#579=FACE_BOUND('',#537,.T.);
#580=FACE_BOUND('',#538,.T.);
#581=FACE_BOUND('',#539,.T.);
#582=FACE_BOUND('',#540,.T.);
#583=FACE_BOUND('',#541,.T.);
#584=FACE_BOUND('',#542,.T.);
#585=FACE_BOUND('',#543,.T.);
#586=FACE_BOUND('',#544,.T.);
#587=FACE_BOUND('',#545,.T.);
#588=FACE_BOUND('',#546,.T.);
#589=FACE_BOUND('',#547,.T.);
#590=FACE_BOUND('',#548,.T.);
#591=FACE_BOUND('',#549,.T.);
#592=FACE_BOUND('',#550,.T.);
#593=FACE_BOUND('',#551,.T.);
#594=FACE_BOUND('',#552,.T.);
#595=FACE_BOUND('',#553,.T.);
#596=FACE_BOUND('',#554,.T.);
#597=FACE_BOUND('',#555,.T.);
#598=PLANE('',#679);
#599=PLANE('',#680);
#600=PLANE('',#681);
#601=PLANE('',#682);
#602=PLANE('',#683);
#603=PLANE('',#684);
#604=PLANE('',#685);
#605=PLANE('',#686);
#606=PLANE('',#687);
#607=PLANE('',#688);
#608=PLANE('',#689);
#609=PLANE('',#690);
#610=PLANE('',#691);
#611=PLANE('',#692);
#612=PLANE('',#693);
#613=PLANE('',#694);
#614=PLANE('',#695);
#615=PLANE('',#696);
#616=PLANE('',#697);
#617=PLANE('',#698);
#618=PLANE('',#715);
#619=PLANE('',#716);
#620=PLANE('',#717);
#621=PLANE('',#718);
#622=PLANE('',#719);
#623=PLANE('',#720);
#624=PLANE('',#721);
#625=PLANE('',#722);
#626=ADVANCED_FACE('',(#556),#598,.F.);
#627=ADVANCED_FACE('',(#557),#599,.F.);
#628=ADVANCED_FACE('',(#558),#600,.F.);
#629=ADVANCED_FACE('',(#559),#601,.F.);
#630=ADVANCED_FACE('',(#560),#602,.T.);
#631=ADVANCED_FACE('',(#561),#603,.T.);
#632=ADVANCED_FACE('',(#562),#604,.F.);
#633=ADVANCED_FACE('',(#563),#605,.F.);
#634=ADVANCED_FACE('',(#564),#606,.T.);
#635=ADVANCED_FACE('',(#565),#607,.T.);
#636=ADVANCED_FACE('',(#566,#567),#608,.T.);
#637=ADVANCED_FACE('',(#568,#569),#609,.F.);
#638=ADVANCED_FACE('',(#570),#610,.T.);
#639=ADVANCED_FACE('',(#571),#611,.T.);
#640=ADVANCED_FACE('',(#572),#612,.F.);
#641=ADVANCED_FACE('',(#573),#613,.F.);
#642=ADVANCED_FACE('',(#574),#614,.F.);
#643=ADVANCED_FACE('',(#575),#615,.F.);
#644=ADVANCED_FACE('',(#576),#616,.T.);
#645=ADVANCED_FACE('',(#577),#617,.T.);
#646=ADVANCED_FACE('',(#578),#24,.T.);
#647=ADVANCED_FACE('',(#579),#25,.T.);
#648=ADVANCED_FACE('',(#580),#26,.T.);
#649=ADVANCED_FACE('',(#581),#27,.T.);
#650=ADVANCED_FACE('',(#582),#28,.T.);
#651=ADVANCED_FACE('',(#583),#29,.T.);
#652=ADVANCED_FACE('',(#584),#30,.T.);
#653=ADVANCED_FACE('',(#585),#31,.T.);
#654=ADVANCED_FACE('',(#586),#618,.F.);
#655=ADVANCED_FACE('',(#587),#619,.T.);
#656=ADVANCED_FACE('',(#588),#620,.T.);
#657=ADVANCED_FACE('',(#589),#621,.F.);
#658=ADVANCED_FACE('',(#590),#622,.F.);
#659=ADVANCED_FACE('',(#591),#623,.F.);
#660=ADVANCED_FACE('',(#592),#624,.T.);
#661=ADVANCED_FACE('',(#593),#625,.T.);
#662=ADVANCED_FACE('',(#594),#32,.F.);
#663=ADVANCED_FACE('',(#595),#33,.F.);
#664=ADVANCED_FACE('',(#596),#34,.F.);
#665=ADVANCED_FACE('',(#597),#35,.F.);
#666=CLOSED_SHELL('',(#626,#627,#628,#629,#630,#631,#632,#633,#634,#635,
#636,#637,#638,#639,#640,#641,#642,#643,#644,#645,#646,#647,#648,#649,#650,
#651,#652,#653,#654,#655,#656,#657,#658,#659,#660,#661,#662,#663,#664,#665));
#667=STYLED_ITEM('',(#668),#675);
#668=PRESENTATION_STYLE_ASSIGNMENT((#669));
#669=SURFACE_STYLE_USAGE(.BOTH.,#670);
#670=SURFACE_SIDE_STYLE('',(#671));
#671=SURFACE_STYLE_FILL_AREA(#672);
#672=FILL_AREA_STYLE('',(#673));
#673=FILL_AREA_STYLE_COLOUR('',#674);
#674=COLOUR_RGB('',0.615686274509804,0.811764705882353,0.929411764705882);
#675=MANIFOLD_SOLID_BREP('Jonction gauche',#666);
#676=SHAPE_DEFINITION_REPRESENTATION(#1104,#677);
#677=SHAPE_REPRESENTATION('Jonction gauche',(#678),#1099);
#678=AXIS2_PLACEMENT_3D('',#915,#731,#732);
#679=AXIS2_PLACEMENT_3D('',#916,#733,#734);
#680=AXIS2_PLACEMENT_3D('',#925,#739,#740);
#681=AXIS2_PLACEMENT_3D('',#934,#745,#746);
#682=AXIS2_PLACEMENT_3D('',#943,#751,#752);
#683=AXIS2_PLACEMENT_3D('',#949,#756,#757);
#684=AXIS2_PLACEMENT_3D('',#955,#761,#762);
#685=AXIS2_PLACEMENT_3D('',#964,#767,#768);
#686=AXIS2_PLACEMENT_3D('',#970,#772,#773);
#687=AXIS2_PLACEMENT_3D('',#976,#777,#778);
#688=AXIS2_PLACEMENT_3D('',#979,#781,#782);
#689=AXIS2_PLACEMENT_3D('',#982,#785,#786);
#690=AXIS2_PLACEMENT_3D('',#983,#787,#788);
#691=AXIS2_PLACEMENT_3D('',#998,#797,#798);
#692=AXIS2_PLACEMENT_3D('',#1004,#802,#803);
#693=AXIS2_PLACEMENT_3D('',#1008,#806,#807);
#694=AXIS2_PLACEMENT_3D('',#1012,#810,#811);
#695=AXIS2_PLACEMENT_3D('',#1014,#813,#814);
#696=AXIS2_PLACEMENT_3D('',#1023,#819,#820);
#697=AXIS2_PLACEMENT_3D('',#1029,#824,#825);
#698=AXIS2_PLACEMENT_3D('',#1035,#829,#830);
#699=AXIS2_PLACEMENT_3D('',#1038,#833,#834);
#700=AXIS2_PLACEMENT_3D('',#1039,#835,#836);
#701=AXIS2_PLACEMENT_3D('',#1040,#837,#838);
#702=AXIS2_PLACEMENT_3D('',#1041,#839,#840);
#703=AXIS2_PLACEMENT_3D('',#1042,#841,#842);
#704=AXIS2_PLACEMENT_3D('',#1043,#843,#844);
#705=AXIS2_PLACEMENT_3D('',#1044,#845,#846);
#706=AXIS2_PLACEMENT_3D('',#1045,#847,#848);
#707=AXIS2_PLACEMENT_3D('',#1046,#849,#850);
#708=AXIS2_PLACEMENT_3D('',#1047,#851,#852);
#709=AXIS2_PLACEMENT_3D('',#1048,#853,#854);
#710=AXIS2_PLACEMENT_3D('',#1049,#855,#856);
#711=AXIS2_PLACEMENT_3D('',#1050,#857,#858);
#712=AXIS2_PLACEMENT_3D('',#1051,#859,#860);
#713=AXIS2_PLACEMENT_3D('',#1052,#861,#862);
#714=AXIS2_PLACEMENT_3D('',#1053,#863,#864);
#715=AXIS2_PLACEMENT_3D('',#1054,#865,#866);
#716=AXIS2_PLACEMENT_3D('',#1066,#873,#874);
#717=AXIS2_PLACEMENT_3D('',#1072,#878,#879);
#718=AXIS2_PLACEMENT_3D('',#1078,#883,#884);
#719=AXIS2_PLACEMENT_3D('',#1081,#887,#888);
#720=AXIS2_PLACEMENT_3D('',#1086,#892,#893);
#721=AXIS2_PLACEMENT_3D('',#1088,#895,#896);
#722=AXIS2_PLACEMENT_3D('',#1089,#897,#898);
#723=AXIS2_PLACEMENT_3D('',#1090,#899,#900);
#724=AXIS2_PLACEMENT_3D('',#1091,#901,#902);
#725=AXIS2_PLACEMENT_3D('',#1092,#903,#904);
#726=AXIS2_PLACEMENT_3D('',#1093,#905,#906);
#727=AXIS2_PLACEMENT_3D('',#1094,#907,#908);
#728=AXIS2_PLACEMENT_3D('',#1095,#909,#910);
#729=AXIS2_PLACEMENT_3D('',#1096,#911,#912);
#730=AXIS2_PLACEMENT_3D('',#1097,#913,#914);
#731=DIRECTION('',(0.,0.,1.));
#732=DIRECTION('',(1.,0.,0.));
#733=DIRECTION('',(0.,0.,-1.));
#734=DIRECTION('',(-1.,0.,0.));
#735=DIRECTION('',(0.,1.,0.));
#736=DIRECTION('',(-1.,0.,0.));
#737=DIRECTION('',(0.,-1.,0.));
#738=DIRECTION('',(-1.,0.,0.));
#739=DIRECTION('',(-1.,0.,0.));
#740=DIRECTION('',(0.,0.,1.));
#741=DIRECTION('',(0.,1.,0.));
#742=DIRECTION('',(0.,0.,-1.));
#743=DIRECTION('',(0.,-1.,0.));
#744=DIRECTION('',(0.,0.,-1.));
#745=DIRECTION('',(0.,0.,1.));
#746=DIRECTION('',(1.,0.,0.));
#747=DIRECTION('',(0.,1.,0.));
#748=DIRECTION('',(-1.,0.,0.));
#749=DIRECTION('',(0.,1.,0.));
#750=DIRECTION('',(1.,0.,0.));
#751=DIRECTION('',(1.,0.,6.93889390390723E-17));
#752=DIRECTION('',(6.93889390390723E-17,0.,-1.));
#753=DIRECTION('',(-7.2280144832367E-17,0.,1.));
#754=DIRECTION('',(0.,1.,0.));
#755=DIRECTION('',(6.93889390390723E-17,0.,-1.));
#756=DIRECTION('',(0.,0.,1.));
#757=DIRECTION('',(1.,0.,0.));
#758=DIRECTION('',(1.,0.,0.));
#759=DIRECTION('',(0.,1.,0.));
#760=DIRECTION('',(1.,0.,0.));
#761=DIRECTION('',(0.,0.,1.));
#762=DIRECTION('',(1.,0.,0.));
#763=DIRECTION('',(0.,1.,0.));
#764=DIRECTION('',(1.,0.,0.));
#765=DIRECTION('',(0.,1.,0.));
#766=DIRECTION('',(1.,0.,0.));
#767=DIRECTION('',(1.,0.,6.30808536718839E-17));
#768=DIRECTION('',(6.30808536718839E-17,0.,-1.));
#769=DIRECTION('',(6.30808536718839E-17,0.,-1.));
#770=DIRECTION('',(0.,1.,0.));
#771=DIRECTION('',(6.30808536718839E-17,0.,-1.));
#772=DIRECTION('',(0.,0.,1.));
#773=DIRECTION('',(1.,0.,0.));
#774=DIRECTION('',(1.,0.,0.));
#775=DIRECTION('',(0.,1.,0.));
#776=DIRECTION('',(1.,0.,0.));
#777=DIRECTION('',(1.,0.,0.));
#778=DIRECTION('',(0.,0.,-1.));
#779=DIRECTION('',(0.,0.,-1.));
#780=DIRECTION('',(0.,0.,-1.));
#781=DIRECTION('',(1.,0.,6.93889390390723E-17));
#782=DIRECTION('',(6.93889390390723E-17,0.,-1.));
#783=DIRECTION('',(0.,0.,-1.));
#784=DIRECTION('',(6.93889390390723E-17,0.,-1.));
#785=DIRECTION('',(0.,-1.,0.));
#786=DIRECTION('',(1.,0.,0.));
#787=DIRECTION('',(0.,-1.,0.));
#788=DIRECTION('',(1.,0.,0.));
#789=DIRECTION('',(1.,0.,0.));
#790=DIRECTION('',(0.,0.,1.));
#791=DIRECTION('',(-6.30808536718839E-17,0.,1.));
#792=DIRECTION('',(-1.,0.,0.));
#793=DIRECTION('',(1.,0.,0.));
#794=DIRECTION('',(6.93889390390723E-17,0.,-1.));
#795=DIRECTION('',(1.,0.,0.));
#796=DIRECTION('',(6.93889390390723E-17,0.,-1.));
#797=DIRECTION('',(1.,0.,6.93889390390723E-17));
#798=DIRECTION('',(6.93889390390723E-17,0.,-1.));
#799=DIRECTION('',(0.,1.,0.));
#800=DIRECTION('',(7.2280144832367E-17,0.,-1.));
#801=DIRECTION('',(0.,1.,0.));
#802=DIRECTION('',(0.,0.,1.));
#803=DIRECTION('',(1.,0.,0.));
#804=DIRECTION('',(1.,0.,0.));
#805=DIRECTION('',(0.,1.,0.));
#806=DIRECTION('',(1.,0.,6.93889390390723E-17));
#807=DIRECTION('',(6.93889390390723E-17,0.,-1.));
#808=DIRECTION('',(0.,0.,1.));
#809=DIRECTION('',(0.,1.,0.));
#810=DIRECTION('',(0.,0.,1.));
#811=DIRECTION('',(1.,0.,0.));
#812=DIRECTION('',(-1.,0.,0.));
#813=DIRECTION('',(0.,0.,1.));
#814=DIRECTION('',(1.,0.,0.));
#815=DIRECTION('',(0.,1.,0.));
#816=DIRECTION('',(1.,0.,0.));
#817=DIRECTION('',(0.,1.,0.));
#818=DIRECTION('',(1.,0.,0.));
#819=DIRECTION('',(1.,0.,7.2280144832367E-17));
#820=DIRECTION('',(7.2280144832367E-17,0.,-1.));
#821=DIRECTION('',(7.2280144832367E-17,0.,-1.));
#822=DIRECTION('',(0.,1.,0.));
#823=DIRECTION('',(7.2280144832367E-17,0.,-1.));
#824=DIRECTION('',(0.,0.,1.));
#825=DIRECTION('',(1.,0.,0.));
#826=DIRECTION('',(1.,0.,0.));
#827=DIRECTION('',(0.,1.,0.));
#828=DIRECTION('',(1.,0.,0.));
#829=DIRECTION('',(1.,0.,0.));
#830=DIRECTION('',(0.,0.,-1.));
#831=DIRECTION('',(0.,0.,-1.));
#832=DIRECTION('',(0.,0.,-1.));
#833=DIRECTION('',(-1.,0.,0.));
#834=DIRECTION('',(0.,0.,1.));
#835=DIRECTION('',(-0.707106781186548,0.,0.707106781186548));
#836=DIRECTION('',(-0.707106781186548,0.,-0.707106781186548));
#837=DIRECTION('',(-0.707106781186548,0.,-0.707106781186548));
#838=DIRECTION('',(-0.707106781186548,0.,0.707106781186548));
#839=DIRECTION('',(0.,0.,-1.));
#840=DIRECTION('',(-1.,0.,0.));
#841=DIRECTION('',(0.707106781186548,0.,-0.707106781186548));
#842=DIRECTION('',(-0.707106781186548,0.,-0.707106781186548));
#843=DIRECTION('',(-7.2280144832367E-17,0.,1.));
#844=DIRECTION('',(1.,0.,7.2280144832367E-17));
#845=DIRECTION('',(0.707106781186548,0.,0.707106781186548));
#846=DIRECTION('',(-0.707106781186548,0.,0.707106781186548));
#847=DIRECTION('',(1.,0.,0.));
#848=DIRECTION('',(0.,0.,-1.));
#849=DIRECTION('',(7.2280144832367E-17,0.,-1.));
#850=DIRECTION('',(-1.,0.,-7.2280144832367E-17));
#851=DIRECTION('',(-0.707106781186548,0.,-0.707106781186548));
#852=DIRECTION('',(0.707106781186548,0.,-0.707106781186548));
#853=DIRECTION('',(0.707106781186548,0.,-0.707106781186548));
#854=DIRECTION('',(0.707106781186548,0.,0.707106781186548));
#855=DIRECTION('',(1.,0.,0.));
#856=DIRECTION('',(0.,0.,-1.));
#857=DIRECTION('',(0.707106781186548,0.,0.707106781186548));
#858=DIRECTION('',(0.707106781186548,0.,-0.707106781186548));
#859=DIRECTION('',(-1.,0.,0.));
#860=DIRECTION('',(0.,0.,1.));
#861=DIRECTION('',(-0.707106781186548,0.,0.707106781186548));
#862=DIRECTION('',(-0.707106781186548,0.,-0.707106781186548));
#863=DIRECTION('',(0.,0.,1.));
#864=DIRECTION('',(1.,0.,0.));
#865=DIRECTION('',(0.,0.,-1.));
#866=DIRECTION('',(-1.,0.,0.));
#867=DIRECTION('',(0.,1.,0.));
#868=DIRECTION('',(1.,0.,0.));
#869=DIRECTION('',(0.,-1.,0.));
#870=DIRECTION('',(1.,0.,0.));
#871=DIRECTION('',(0.,-1.,0.));
#872=DIRECTION('',(1.,0.,0.));
#873=DIRECTION('',(-1.,0.,-5.9818050895752E-17));
#874=DIRECTION('',(-5.9818050895752E-17,0.,1.));
#875=DIRECTION('',(0.,-1.,0.));
#876=DIRECTION('',(5.9818050895752E-17,0.,-1.));
#877=DIRECTION('',(5.9818050895752E-17,0.,-1.));
#878=DIRECTION('',(0.,0.,-1.));
#879=DIRECTION('',(-1.,0.,0.));
#880=DIRECTION('',(0.,-1.,0.));
#881=DIRECTION('',(1.,0.,0.));
#882=DIRECTION('',(1.,0.,0.));
#883=DIRECTION('',(-1.,0.,0.));
#884=DIRECTION('',(0.,0.,1.));
#885=DIRECTION('',(0.,0.,-1.));
#886=DIRECTION('',(0.,0.,-1.));
#887=DIRECTION('',(0.,-1.,0.));
#888=DIRECTION('',(1.,0.,0.));
#889=DIRECTION('',(0.,0.,1.));
#890=DIRECTION('',(-1.,0.,0.));
#891=DIRECTION('',(-6.30808536718839E-17,0.,1.));
#892=DIRECTION('',(-1.,0.,-6.30808536718839E-17));
#893=DIRECTION('',(-6.30808536718839E-17,0.,1.));
#894=DIRECTION('',(0.,-1.,0.));
#895=DIRECTION('',(0.,0.,-1.));
#896=DIRECTION('',(-1.,0.,0.));
#897=DIRECTION('',(-1.,0.,0.));
#898=DIRECTION('',(0.,0.,1.));
#899=DIRECTION('',(0.,0.,1.));
#900=DIRECTION('',(1.,0.,0.));
#901=DIRECTION('',(0.707106781186548,0.,0.707106781186548));
#902=DIRECTION('',(-0.707106781186548,0.,0.707106781186548));
#903=DIRECTION('',(-0.707106781186548,0.,0.707106781186548));
#904=DIRECTION('',(-0.707106781186548,0.,-0.707106781186548));
#905=DIRECTION('',(-1.,0.,0.));
#906=DIRECTION('',(0.,0.,1.));
#907=DIRECTION('',(-0.707106781186548,0.,-0.707106781186548));
#908=DIRECTION('',(-0.707106781186548,0.,0.707106781186548));
#909=DIRECTION('',(1.,0.,0.));
#910=DIRECTION('',(0.,0.,-1.));
#911=DIRECTION('',(0.707106781186548,0.,-0.707106781186548));
#912=DIRECTION('',(0.707106781186548,0.,0.707106781186548));
#913=DIRECTION('',(6.30808536718839E-17,0.,-1.));
#914=DIRECTION('',(-1.,0.,-6.30808536718839E-17));
#915=CARTESIAN_POINT('',(0.,0.,0.));
#916=CARTESIAN_POINT('',(0.00920535686612129,0.0167823299831252,-0.042387500745058));
#917=CARTESIAN_POINT('',(0.0624053568661213,0.0167823299831252,-0.042387500745058));
#918=CARTESIAN_POINT('',(0.0624053568661213,0.0167823299831252,-0.042387500745058));
#919=CARTESIAN_POINT('',(0.0624053568661213,0.,-0.042387500745058));
#920=CARTESIAN_POINT('',(0.00920535686612129,0.0167823299831252,-0.042387500745058));
#921=CARTESIAN_POINT('',(-0.0459946431338787,0.0167823299831252,-0.042387500745058));
#922=CARTESIAN_POINT('',(-0.0459946431338787,0.0167823299831252,-0.042387500745058));
#923=CARTESIAN_POINT('',(-0.0459946431338787,0.,-0.042387500745058));
#924=CARTESIAN_POINT('',(0.00920535686612129,0.,-0.042387500745058));
#925=CARTESIAN_POINT('',(0.0592053568661213,0.0167823299831252,0.0693124992549419));
#926=CARTESIAN_POINT('',(0.0592053568661213,0.0167823299831252,0.068012499254942));
#927=CARTESIAN_POINT('',(0.0592053568661213,0.0167823299831252,0.068012499254942));
#928=CARTESIAN_POINT('',(0.0592053568661213,0.,0.068012499254942));
#929=CARTESIAN_POINT('',(0.0592053568661213,0.0167823299831252,0.0693124992549419));
#930=CARTESIAN_POINT('',(0.0592053568661213,0.0167823299831252,0.0708124992549419));
#931=CARTESIAN_POINT('',(0.0592053568661213,0.0167823299831252,0.0708124992549419));
#932=CARTESIAN_POINT('',(0.0592053568661213,0.,0.0708124992549419));
#933=CARTESIAN_POINT('',(0.0592053568661213,0.,0.0693124992549419));
#934=CARTESIAN_POINT('',(0.00920535686612128,-0.025,0.0628124992549419));
#935=CARTESIAN_POINT('',(-0.0407946431338787,-0.025,0.0628124992549419));
#936=CARTESIAN_POINT('',(-0.0407946431338787,-0.025,0.0628124992549419));
#937=CARTESIAN_POINT('',(-0.0407946431338787,-0.0167823299831252,0.0628124992549419));
#938=CARTESIAN_POINT('',(0.00920535686612129,-0.0167823299831252,0.0628124992549419));
#939=CARTESIAN_POINT('',(0.0592053568661213,-0.0167823299831253,0.0628124992549419));
#940=CARTESIAN_POINT('',(0.0592053568661213,-0.025,0.0628124992549419));
#941=CARTESIAN_POINT('',(0.0592053568661213,-0.025,0.0628124992549419));
#942=CARTESIAN_POINT('',(0.00920535686612128,-0.025,0.0628124992549419));
#943=CARTESIAN_POINT('',(0.0592053568661213,-0.025,0.0128124992549419));
#944=CARTESIAN_POINT('',(0.0592053568661213,-0.0167823299831253,0.0128124992549419));
#945=CARTESIAN_POINT('',(0.0592053568661213,-0.0167823299831252,-0.037187500745058));
#946=CARTESIAN_POINT('',(0.0592053568661213,-0.025,-0.037187500745058));
#947=CARTESIAN_POINT('',(0.0592053568661213,-0.025,-0.037187500745058));
#948=CARTESIAN_POINT('',(0.0592053568661213,-0.025,0.0128124992549419));
#949=CARTESIAN_POINT('',(0.00920535686612129,-0.025,-0.037187500745058));
#950=CARTESIAN_POINT('',(0.00920535686612129,-0.0167823299831252,-0.037187500745058));
#951=CARTESIAN_POINT('',(-0.0407946431338787,-0.0167823299831252,-0.037187500745058));
#952=CARTESIAN_POINT('',(-0.0407946431338787,-0.025,-0.037187500745058));
#953=CARTESIAN_POINT('',(-0.0407946431338787,-0.025,-0.037187500745058));
#954=CARTESIAN_POINT('',(0.00920535686612129,-0.025,-0.037187500745058));
#955=CARTESIAN_POINT('',(0.0617053568661213,-0.025,0.0678124992549419));
#956=CARTESIAN_POINT('',(0.0642053568661213,-0.025,0.0678124992549419));
#957=CARTESIAN_POINT('',(0.0642053568661213,-0.025,0.0678124992549419));
#958=CARTESIAN_POINT('',(0.0642053568661213,-0.013,0.0678124992549419));
#959=CARTESIAN_POINT('',(-0.0457946431338787,-0.013,0.0678124992549419));
#960=CARTESIAN_POINT('',(-0.0457946431338787,-0.013,0.0678124992549419));
#961=CARTESIAN_POINT('',(-0.0457946431338787,-0.025,0.0678124992549419));
#962=CARTESIAN_POINT('',(-0.0457946431338787,-0.025,0.0678124992549419));
#963=CARTESIAN_POINT('',(0.0617053568661213,-0.025,0.0678124992549419));
#964=CARTESIAN_POINT('',(-0.0457946431338787,-0.025,0.0128124992549419));
#965=CARTESIAN_POINT('',(-0.0457946431338787,-0.013,0.0128124992549419));
#966=CARTESIAN_POINT('',(-0.0457946431338787,-0.013,-0.042187500745058));
#967=CARTESIAN_POINT('',(-0.0457946431338787,-0.025,-0.042187500745058));
#968=CARTESIAN_POINT('',(-0.0457946431338787,-0.025,-0.042187500745058));
#969=CARTESIAN_POINT('',(-0.0457946431338787,-0.025,0.0128124992549419));
#970=CARTESIAN_POINT('',(0.00920535686612129,-0.025,-0.042187500745058));
#971=CARTESIAN_POINT('',(0.00920535686612129,-0.013,-0.042187500745058));
#972=CARTESIAN_POINT('',(0.0642053568661213,-0.013,-0.042187500745058));
#973=CARTESIAN_POINT('',(0.0642053568661213,-0.025,-0.042187500745058));
#974=CARTESIAN_POINT('',(0.0642053568661213,-0.025,-0.042187500745058));
#975=CARTESIAN_POINT('',(0.00920535686612129,-0.025,-0.042187500745058));
#976=CARTESIAN_POINT('',(0.0642053568661213,-0.025,0.0128124992549419));
#977=CARTESIAN_POINT('',(0.0642053568661213,-0.013,0.0678124992549419));
#978=CARTESIAN_POINT('',(0.0642053568661213,-0.025,0.0128124992549419));
#979=CARTESIAN_POINT('',(-0.0407946431338787,-0.025,0.0128124992549419));
#980=CARTESIAN_POINT('',(-0.0407946431338787,-0.0167823299831253,0.0128124992549419));
#981=CARTESIAN_POINT('',(-0.0407946431338787,-0.025,0.0128124992549419));
#982=CARTESIAN_POINT('',(0.00920535686612129,-0.025,0.0128124992549419));
#983=CARTESIAN_POINT('',(0.00920535686612129,0.,0.0128124992549419));
#984=CARTESIAN_POINT('',(0.0657053568661213,0.,0.0708124992549419));
#985=CARTESIAN_POINT('',(0.0624053568661213,0.,0.0708124992549419));
#986=CARTESIAN_POINT('',(0.0624053568661213,0.,0.0693124992549419));
#987=CARTESIAN_POINT('',(-0.0459946431338787,0.,0.0128124992549419));
#988=CARTESIAN_POINT('',(-0.0459946431338787,0.,0.068012499254942));
#989=CARTESIAN_POINT('',(0.00670535686612129,0.,0.068012499254942));
#990=CARTESIAN_POINT('',(0.00920535686612128,0.,0.0628124992549419));
#991=CARTESIAN_POINT('',(-0.0407946431338787,-6.93889390390723E-18,0.0628124992549419));
#992=CARTESIAN_POINT('',(0.0592053568661213,-6.93889390390723E-18,0.0628124992549419));
#993=CARTESIAN_POINT('',(-0.0407946431338787,0.,0.0128124992549419));
#994=CARTESIAN_POINT('',(-0.0407946431338787,-6.93889390390723E-18,-0.037187500745058));
#995=CARTESIAN_POINT('',(0.00920535686612129,0.,-0.037187500745058));
#996=CARTESIAN_POINT('',(0.0592053568661213,0.,-0.037187500745058));
#997=CARTESIAN_POINT('',(0.0592053568661213,0.,0.0128124992549419));
#998=CARTESIAN_POINT('',(0.0592053568661213,-0.0225,0.0128124992549419));
#999=CARTESIAN_POINT('',(0.0592053568661213,-0.0225,-0.037187500745058));
#1000=CARTESIAN_POINT('',(0.0592053568661213,0.0167823299831252,-0.037187500745058));
#1001=CARTESIAN_POINT('',(0.0592053568661213,0.0167823299831253,0.0128124992549419));
#1002=CARTESIAN_POINT('',(0.0592053568661213,0.0167823299831252,0.0628124992549419));
#1003=CARTESIAN_POINT('',(0.0592053568661213,-0.0225,0.0628124992549419));
#1004=CARTESIAN_POINT('',(0.00920535686612128,-0.0225,0.0628124992549419));
#1005=CARTESIAN_POINT('',(0.00920535686612129,0.0167823299831252,0.0628124992549419));
#1006=CARTESIAN_POINT('',(-0.0407946431338787,0.0167823299831252,0.0628124992549419));
#1007=CARTESIAN_POINT('',(-0.0407946431338787,-0.0225,0.0628124992549419));
#1008=CARTESIAN_POINT('',(-0.0407946431338787,-0.0225,0.0128124992549419));
#1009=CARTESIAN_POINT('',(-0.0407946431338787,0.0167823299831253,0.0128124992549419));
#1010=CARTESIAN_POINT('',(-0.0407946431338787,0.0167823299831252,-0.037187500745058));
#1011=CARTESIAN_POINT('',(-0.0407946431338787,-0.0225,-0.037187500745058));
#1012=CARTESIAN_POINT('',(0.00920535686612129,-0.0225,-0.037187500745058));
#1013=CARTESIAN_POINT('',(0.00920535686612131,0.0167823299831253,-0.037187500745058));
#1014=CARTESIAN_POINT('',(0.00920535686612129,-0.0225,0.0608124992549419));
#1015=CARTESIAN_POINT('',(-0.0387946431338787,-0.0225,0.0608124992549419));
#1016=CARTESIAN_POINT('',(-0.0387946431338787,-0.01,0.0608124992549419));
#1017=CARTESIAN_POINT('',(-0.0387946431338787,0.01,0.0608124992549419));
#1018=CARTESIAN_POINT('',(0.00920535686612129,0.01,0.0608124992549419));
#1019=CARTESIAN_POINT('',(0.0572053568661213,0.01,0.0608124992549419));
#1020=CARTESIAN_POINT('',(0.0572053568661213,-0.0225,0.0608124992549419));
#1021=CARTESIAN_POINT('',(0.0572053568661213,-0.01,0.0608124992549419));
#1022=CARTESIAN_POINT('',(-0.0387946431338787,-0.01,0.0608124992549419));
#1023=CARTESIAN_POINT('',(0.0572053568661213,-0.0225,0.0128124992549419));
#1024=CARTESIAN_POINT('',(0.0572053568661213,0.01,0.0128124992549419));
#1025=CARTESIAN_POINT('',(0.0572053568661213,0.01,-0.035187500745058));
#1026=CARTESIAN_POINT('',(0.0572053568661213,-0.0225,-0.035187500745058));
#1027=CARTESIAN_POINT('',(0.0572053568661213,-0.01,-0.035187500745058));
#1028=CARTESIAN_POINT('',(0.0572053568661213,-0.01,0.0608124992549419));
#1029=CARTESIAN_POINT('',(0.0092053568661213,-0.0225,-0.035187500745058));
#1030=CARTESIAN_POINT('',(-0.0387946431338787,0.01,-0.035187500745058));
#1031=CARTESIAN_POINT('',(-0.0387946431338787,0.01,-0.035187500745058));
#1032=CARTESIAN_POINT('',(-0.0387946431338787,-0.0225,-0.035187500745058));
#1033=CARTESIAN_POINT('',(-0.0387946431338787,-0.01,-0.035187500745058));
#1034=CARTESIAN_POINT('',(0.0092053568661213,-0.01,-0.035187500745058));
#1035=CARTESIAN_POINT('',(-0.0387946431338787,-0.0225,0.0128124992549419));
#1036=CARTESIAN_POINT('',(-0.0387946431338787,0.01,0.060812499254942));
#1037=CARTESIAN_POINT('',(-0.0387946431338787,-0.01,0.0128124992549419));
#1038=CARTESIAN_POINT('',(0.00920535686612129,-0.01,0.073312499254942));
#1039=CARTESIAN_POINT('',(0.0697053568661213,-0.01,0.073312499254942));
#1040=CARTESIAN_POINT('',(-0.0512946431338787,-0.01,0.073312499254942));
#1041=CARTESIAN_POINT('',(-0.0512946431338787,-0.01,0.0128124992549419));
#1042=CARTESIAN_POINT('',(-0.0512946431338787,-0.01,-0.0476875007450581));
#1043=CARTESIAN_POINT('',(0.0697053568661213,-0.01,0.0128124992549419));
#1044=CARTESIAN_POINT('',(0.0697053568661213,-0.01,-0.0476875007450581));
#1045=CARTESIAN_POINT('',(0.0092053568661213,-0.01,-0.0476875007450581));
#1046=CARTESIAN_POINT('',(0.0697053568661213,0.01,0.0128124992549419));
#1047=CARTESIAN_POINT('',(0.0697053568661213,0.01,-0.0476875007450581));
#1048=CARTESIAN_POINT('',(0.0697053568661213,0.01,0.073312499254942));
#1049=CARTESIAN_POINT('',(0.00920535686612129,0.01,0.073312499254942));
#1050=CARTESIAN_POINT('',(-0.0512946431338787,0.01,0.073312499254942));
#1051=CARTESIAN_POINT('',(0.00920535686612129,0.01,-0.0476875007450581));
#1052=CARTESIAN_POINT('',(-0.0512946431338787,0.01,-0.0476875007450581));
#1053=CARTESIAN_POINT('',(-0.0512946431338787,0.01,0.0128124992549419));
#1054=CARTESIAN_POINT('',(0.00520535686612129,0.0167823299831252,0.0708124992549419));
#1055=CARTESIAN_POINT('',(0.0624053568661213,0.0167823299831252,0.0708124992549419));
#1056=CARTESIAN_POINT('',(0.0624053568661213,0.0167823299831252,0.0708124992549419));
#1057=CARTESIAN_POINT('',(0.00520535686612129,0.0167823299831252,0.0708124992549419));
#1058=CARTESIAN_POINT('',(-0.0487946431338787,0.0167823299831252,0.0708124992549419));
#1059=CARTESIAN_POINT('',(-0.0487946431338787,0.0167823299831252,0.0708124992549419));
#1060=CARTESIAN_POINT('',(-0.0487946431338787,-0.01,0.0708124992549419));
#1061=CARTESIAN_POINT('',(0.0657053568661213,-0.01,0.0708124992549419));
#1062=CARTESIAN_POINT('',(0.0672053568661213,-0.01,0.0708124992549419));
#1063=CARTESIAN_POINT('',(0.0672053568661213,0.0167823299831252,0.0708124992549419));
#1064=CARTESIAN_POINT('',(0.0672053568661213,0.0167823299831252,0.0708124992549419));
#1065=CARTESIAN_POINT('',(0.0657053568661213,0.0167823299831252,0.0708124992549419));
#1066=CARTESIAN_POINT('',(-0.0487946431338787,0.0167823299831252,0.0128124992549419));
#1067=CARTESIAN_POINT('',(-0.0487946431338787,0.0167823299831252,-0.0451875007450581));
#1068=CARTESIAN_POINT('',(-0.0487946431338787,0.0167823299831252,-0.0451875007450581));
#1069=CARTESIAN_POINT('',(-0.0487946431338787,-0.01,-0.0451875007450581));
#1070=CARTESIAN_POINT('',(-0.0487946431338787,-0.01,0.0128124992549419));
#1071=CARTESIAN_POINT('',(-0.0487946431338787,0.0167823299831252,0.0128124992549419));
#1072=CARTESIAN_POINT('',(0.00920535686612129,0.0167823299831252,-0.0451875007450581));
#1073=CARTESIAN_POINT('',(0.0672053568661213,0.0167823299831252,-0.0451875007450581));
#1074=CARTESIAN_POINT('',(0.0672053568661213,0.0167823299831252,-0.0451875007450581));
#1075=CARTESIAN_POINT('',(0.0672053568661213,-0.01,-0.0451875007450581));
#1076=CARTESIAN_POINT('',(0.00920535686612129,-0.01,-0.0451875007450581));
#1077=CARTESIAN_POINT('',(0.00920535686612129,0.0167823299831252,-0.0451875007450581));
#1078=CARTESIAN_POINT('',(0.0672053568661213,0.0167823299831252,0.0128124992549419));
#1079=CARTESIAN_POINT('',(0.0672053568661213,-0.01,0.0128124992549419));
#1080=CARTESIAN_POINT('',(0.0672053568661213,0.0167823299831252,0.0128124992549419));
#1081=CARTESIAN_POINT('',(0.00920535686612129,0.0167823299831252,0.0128124992549419));
#1082=CARTESIAN_POINT('',(0.0624053568661213,0.0167823299831252,0.0693124992549419));
#1083=CARTESIAN_POINT('',(0.00670535686612129,0.0167823299831252,0.068012499254942));
#1084=CARTESIAN_POINT('',(-0.0459946431338787,0.0167823299831252,0.068012499254942));
#1085=CARTESIAN_POINT('',(-0.0459946431338787,0.0167823299831252,0.0128124992549419));
#1086=CARTESIAN_POINT('',(-0.0459946431338787,0.0167823299831252,0.0128124992549419));
#1087=CARTESIAN_POINT('',(-0.0459946431338787,0.0167823299831252,0.068012499254942));
#1088=CARTESIAN_POINT('',(0.00670535686612129,0.0167823299831252,0.068012499254942));
#1089=CARTESIAN_POINT('',(0.0624053568661213,0.0167823299831252,0.0693124992549419));
#1090=CARTESIAN_POINT('',(0.0672053568661213,-0.013,0.0128124992549419));
#1091=CARTESIAN_POINT('',(0.0672053568661213,-0.013,-0.0451875007450581));
#1092=CARTESIAN_POINT('',(0.0672053568661213,-0.013,0.0708124992549419));
#1093=CARTESIAN_POINT('',(0.00920535686612129,-0.013,0.0708124992549419));
#1094=CARTESIAN_POINT('',(-0.0487946431338787,-0.013,0.0708124992549419));
#1095=CARTESIAN_POINT('',(0.00920535686612129,-0.013,-0.0451875007450581));
#1096=CARTESIAN_POINT('',(-0.0487946431338787,-0.013,-0.0451875007450581));
#1097=CARTESIAN_POINT('',(-0.0487946431338787,-0.013,0.0128124992549419));
#1098=MECHANICAL_DESIGN_GEOMETRIC_PRESENTATION_REPRESENTATION('',(#667),
#1099);
#1099=(
GEOMETRIC_REPRESENTATION_CONTEXT(3)
GLOBAL_UNCERTAINTY_ASSIGNED_CONTEXT((#1100))
GLOBAL_UNIT_ASSIGNED_CONTEXT((#1103,#1102,#1101))
REPRESENTATION_CONTEXT('Jonction gauche','TOP_LEVEL_ASSEMBLY_PART')
);
#1100=UNCERTAINTY_MEASURE_WITH_UNIT(LENGTH_MEASURE(1.E-8),#1103,
'DISTANCE_ACCURACY_VALUE','Maximum Tolerance applied to model');
#1101=(
NAMED_UNIT(*)
SI_UNIT($,.STERADIAN.)
SOLID_ANGLE_UNIT()
);
#1102=(
NAMED_UNIT(*)
PLANE_ANGLE_UNIT()
SI_UNIT($,.RADIAN.)
);
#1103=(
LENGTH_UNIT()
NAMED_UNIT(*)
SI_UNIT($,.METRE.)
);
#1104=PRODUCT_DEFINITION_SHAPE('','',#1105);
#1105=PRODUCT_DEFINITION('','',#1107,#1106);
#1106=PRODUCT_DEFINITION_CONTEXT('',#1113,'design');
#1107=PRODUCT_DEFINITION_FORMATION_WITH_SPECIFIED_SOURCE('','',#1109,
 .NOT_KNOWN.);
#1108=PRODUCT_RELATED_PRODUCT_CATEGORY('','',(#1109));
#1109=PRODUCT('Jonction gauche','Jonction gauche','Jonction gauche',(#1111));
#1110=PRODUCT_CATEGORY('','');
#1111=PRODUCT_CONTEXT('',#1113,'mechanical');
#1112=APPLICATION_PROTOCOL_DEFINITION('international standard',
'ap242_managed_model_based_3d_engineering',2020,#1113);
#1113=APPLICATION_CONTEXT('managed model based 3d engineering');
ENDSEC;
END-ISO-10303-21;
