ISO-10303-21;
HEADER;
/* Generated by software containing ST-Developer
 * from STEP Tools, Inc. (www.steptools.com) 
 */
/* OPTION: using custom renumber hook */

FILE_DESCRIPTION(
/* description */ ('STEP AP242 Edition 2',
'CAx-IF Rec.Pracs.---Representation and Presentation of Product Manufa
cturing Information (PMI)---4.0---2014-10-13',
'CAx-IF Rec.Pracs.---3D Tessellated Geometry---0.4---2014-09-14','2;1',
'CAx-IF Rec.Pracs.---User Defined Attributes---1.5---2016-08-15'),
/* implementation_level */ '2;1');

FILE_NAME(
/* name */ 'Assemblage V2 - Support cellule de charge',
/* time_stamp */ '2026-09-29T21:10:09Z',
/* author */ (''),
/* organization */ (''),
/* preprocessor_version */ 'ST-DEVELOPER v20',
/* originating_system */ 'ONSHAPE BY PTC INC, 1.221',
/* authorisation */ '  ');

FILE_SCHEMA (('AP242_MANAGED_MODEL_BASED_3D_ENGINEERING_MIM_LF { 1 0 10303 442 3 1 4 }'));
ENDSEC;

DATA;
#10=SHAPE_REPRESENTATION_RELATIONSHIP('','',#307,#11);
#11=ADVANCED_BREP_SHAPE_REPRESENTATION('',(#305),#531);
#12=B_SPLINE_CURVE_WITH_KNOTS('',3,(#460,#461,#462,#463),.UNSPECIFIED.,
 .F.,.F.,(4,4),(0.,0.0019764041827103),.UNSPECIFIED.);
#13=B_SPLINE_CURVE_WITH_KNOTS('',3,(#465,#466,#467,#468),.UNSPECIFIED.,
 .F.,.F.,(4,4),(0.,0.00197601403588462),.UNSPECIFIED.);
#14=B_SPLINE_CURVE_WITH_KNOTS('',3,(#472,#473,#474,#475),.UNSPECIFIED.,
 .F.,.F.,(4,4),(0.,0.00197640418271029),.UNSPECIFIED.);
#15=B_SPLINE_CURVE_WITH_KNOTS('',3,(#477,#478,#479,#480),.UNSPECIFIED.,
 .F.,.F.,(4,4),(0.,0.00197601403588462),.UNSPECIFIED.);
#16=B_SPLINE_CURVE_WITH_KNOTS('',3,(#482,#483,#484,#485,#486,#487,#488),
 .UNSPECIFIED.,.F.,.F.,(4,1,1,1,4),(0.,0.00191416442990829,0.00382832885981658,
0.00574249328972487,0.00765665771963316),.UNSPECIFIED.);
#17=B_SPLINE_CURVE_WITH_KNOTS('',3,(#490,#491,#492,#493,#494,#495,#496),
 .UNSPECIFIED.,.F.,.F.,(4,1,1,1,4),(0.,0.00191416442990829,0.00382832885981658,
0.00574249328972487,0.00765665771963316),.UNSPECIFIED.);
#18=CYLINDRICAL_SURFACE('',#315,0.00700121933088198);
#19=CYLINDRICAL_SURFACE('',#316,0.00700121933088198);
#20=CYLINDRICAL_SURFACE('',#322,0.00325);
#21=CYLINDRICAL_SURFACE('',#324,0.00325);
#22=CYLINDRICAL_SURFACE('',#333,0.00325);
#23=CYLINDRICAL_SURFACE('',#334,0.00325);
#24=CYLINDRICAL_SURFACE('',#335,0.00325);
#25=CYLINDRICAL_SURFACE('',#336,0.0017);
#26=CYLINDRICAL_SURFACE('',#337,0.00325);
#27=CYLINDRICAL_SURFACE('',#338,0.0017);
#28=CIRCLE('',#310,0.00700121933088198);
#29=CIRCLE('',#311,0.00700121933088198);
#30=CIRCLE('',#313,0.00700121933088198);
#31=CIRCLE('',#314,0.00700121933088198);
#32=CIRCLE('',#320,0.0017);
#33=CIRCLE('',#321,0.0017);
#34=CIRCLE('',#323,0.00325);
#35=CIRCLE('',#325,0.00325);
#36=CIRCLE('',#327,0.0017);
#37=CIRCLE('',#328,0.0017);
#38=CIRCLE('',#329,0.00325);
#39=CIRCLE('',#330,0.00325);
#40=CIRCLE('',#331,0.00325);
#41=CIRCLE('',#332,0.00325);
#42=ORIENTED_EDGE('',*,*,#122,.T.);
#43=ORIENTED_EDGE('',*,*,#123,.T.);
#44=ORIENTED_EDGE('',*,*,#124,.T.);
#45=ORIENTED_EDGE('',*,*,#125,.T.);
#46=ORIENTED_EDGE('',*,*,#126,.F.);
#47=ORIENTED_EDGE('',*,*,#127,.F.);
#48=ORIENTED_EDGE('',*,*,#128,.T.);
#49=ORIENTED_EDGE('',*,*,#129,.T.);
#50=ORIENTED_EDGE('',*,*,#130,.F.);
#51=ORIENTED_EDGE('',*,*,#131,.F.);
#52=ORIENTED_EDGE('',*,*,#132,.F.);
#53=ORIENTED_EDGE('',*,*,#133,.T.);
#54=ORIENTED_EDGE('',*,*,#134,.T.);
#55=ORIENTED_EDGE('',*,*,#135,.T.);
#56=ORIENTED_EDGE('',*,*,#136,.F.);
#57=ORIENTED_EDGE('',*,*,#137,.T.);
#58=ORIENTED_EDGE('',*,*,#138,.T.);
#59=ORIENTED_EDGE('',*,*,#139,.T.);
#60=ORIENTED_EDGE('',*,*,#137,.F.);
#61=ORIENTED_EDGE('',*,*,#140,.F.);
#62=ORIENTED_EDGE('',*,*,#124,.F.);
#63=ORIENTED_EDGE('',*,*,#141,.T.);
#64=ORIENTED_EDGE('',*,*,#142,.T.);
#65=ORIENTED_EDGE('',*,*,#143,.T.);
#66=ORIENTED_EDGE('',*,*,#144,.T.);
#67=ORIENTED_EDGE('',*,*,#133,.F.);
#68=ORIENTED_EDGE('',*,*,#145,.T.);
#69=ORIENTED_EDGE('',*,*,#146,.T.);
#70=ORIENTED_EDGE('',*,*,#128,.F.);
#71=ORIENTED_EDGE('',*,*,#147,.T.);
#72=ORIENTED_EDGE('',*,*,#125,.F.);
#73=ORIENTED_EDGE('',*,*,#140,.T.);
#74=ORIENTED_EDGE('',*,*,#136,.T.);
#75=ORIENTED_EDGE('',*,*,#148,.F.);
#76=ORIENTED_EDGE('',*,*,#149,.T.);
#77=ORIENTED_EDGE('',*,*,#134,.F.);
#78=ORIENTED_EDGE('',*,*,#147,.F.);
#79=ORIENTED_EDGE('',*,*,#127,.T.);
#80=ORIENTED_EDGE('',*,*,#150,.F.);
#81=ORIENTED_EDGE('',*,*,#151,.F.);
#82=ORIENTED_EDGE('',*,*,#148,.T.);
#83=ORIENTED_EDGE('',*,*,#135,.F.);
#84=ORIENTED_EDGE('',*,*,#149,.F.);
#85=ORIENTED_EDGE('',*,*,#126,.T.);
#86=ORIENTED_EDGE('',*,*,#132,.T.);
#87=ORIENTED_EDGE('',*,*,#152,.T.);
#88=ORIENTED_EDGE('',*,*,#153,.T.);
#89=ORIENTED_EDGE('',*,*,#145,.F.);
#90=ORIENTED_EDGE('',*,*,#130,.T.);
#91=ORIENTED_EDGE('',*,*,#139,.F.);
#92=ORIENTED_EDGE('',*,*,#154,.T.);
#93=ORIENTED_EDGE('',*,*,#155,.T.);
#94=ORIENTED_EDGE('',*,*,#156,.T.);
#95=ORIENTED_EDGE('',*,*,#157,.F.);
#96=ORIENTED_EDGE('',*,*,#152,.F.);
#97=ORIENTED_EDGE('',*,*,#131,.T.);
#98=ORIENTED_EDGE('',*,*,#154,.F.);
#99=ORIENTED_EDGE('',*,*,#138,.F.);
#100=ORIENTED_EDGE('',*,*,#158,.F.);
#101=ORIENTED_EDGE('',*,*,#159,.F.);
#102=ORIENTED_EDGE('',*,*,#142,.F.);
#103=ORIENTED_EDGE('',*,*,#160,.F.);
#104=ORIENTED_EDGE('',*,*,#122,.F.);
#105=ORIENTED_EDGE('',*,*,#160,.T.);
#106=ORIENTED_EDGE('',*,*,#141,.F.);
#107=ORIENTED_EDGE('',*,*,#123,.F.);
#108=ORIENTED_EDGE('',*,*,#159,.T.);
#109=ORIENTED_EDGE('',*,*,#161,.F.);
#110=ORIENTED_EDGE('',*,*,#143,.F.);
#111=ORIENTED_EDGE('',*,*,#161,.T.);
#112=ORIENTED_EDGE('',*,*,#158,.T.);
#113=ORIENTED_EDGE('',*,*,#144,.F.);
#114=ORIENTED_EDGE('',*,*,#150,.T.);
#115=ORIENTED_EDGE('',*,*,#156,.F.);
#116=ORIENTED_EDGE('',*,*,#146,.F.);
#117=ORIENTED_EDGE('',*,*,#153,.F.);
#118=ORIENTED_EDGE('',*,*,#157,.T.);
#119=ORIENTED_EDGE('',*,*,#129,.F.);
#120=ORIENTED_EDGE('',*,*,#151,.T.);
#121=ORIENTED_EDGE('',*,*,#155,.F.);
#122=EDGE_CURVE('',#162,#163,#190,.T.);
#123=EDGE_CURVE('',#163,#164,#191,.F.);
#124=EDGE_CURVE('',#164,#165,#28,.T.);
#125=EDGE_CURVE('',#165,#166,#192,.T.);
#126=EDGE_CURVE('',#167,#166,#193,.T.);
#127=EDGE_CURVE('',#168,#167,#194,.T.);
#128=EDGE_CURVE('',#168,#169,#29,.T.);
#129=EDGE_CURVE('',#169,#162,#195,.T.);
#130=EDGE_CURVE('',#170,#171,#196,.F.);
#131=EDGE_CURVE('',#172,#170,#197,.T.);
#132=EDGE_CURVE('',#173,#172,#198,.T.);
#133=EDGE_CURVE('',#173,#174,#30,.F.);
#134=EDGE_CURVE('',#174,#175,#199,.T.);
#135=EDGE_CURVE('',#175,#176,#200,.T.);
#136=EDGE_CURVE('',#177,#176,#201,.T.);
#137=EDGE_CURVE('',#177,#171,#31,.F.);
#138=EDGE_CURVE('',#178,#179,#202,.T.);
#139=EDGE_CURVE('',#179,#171,#12,.T.);
#140=EDGE_CURVE('',#165,#177,#203,.T.);
#141=EDGE_CURVE('',#164,#180,#13,.T.);
#142=EDGE_CURVE('',#180,#181,#204,.T.);
#143=EDGE_CURVE('',#181,#182,#14,.T.);
#144=EDGE_CURVE('',#182,#178,#15,.T.);
#145=EDGE_CURVE('',#173,#183,#16,.T.);
#146=EDGE_CURVE('',#183,#169,#17,.T.);
#147=EDGE_CURVE('',#168,#174,#205,.T.);
#148=EDGE_CURVE('',#166,#176,#206,.T.);
#149=EDGE_CURVE('',#167,#175,#207,.T.);
#150=EDGE_CURVE('',#184,#184,#32,.T.);
#151=EDGE_CURVE('',#185,#185,#33,.T.);
#152=EDGE_CURVE('',#172,#186,#34,.T.);
#153=EDGE_CURVE('',#186,#183,#208,.F.);
#154=EDGE_CURVE('',#179,#170,#35,.T.);
#155=EDGE_CURVE('',#187,#187,#36,.T.);
#156=EDGE_CURVE('',#188,#188,#37,.T.);
#157=EDGE_CURVE('',#186,#162,#38,.T.);
#158=EDGE_CURVE('',#189,#178,#39,.T.);
#159=EDGE_CURVE('',#181,#189,#40,.T.);
#160=EDGE_CURVE('',#163,#180,#41,.T.);
#161=EDGE_CURVE('',#182,#189,#209,.T.);
#162=VERTEX_POINT('',#424);
#163=VERTEX_POINT('',#425);
#164=VERTEX_POINT('',#427);
#165=VERTEX_POINT('',#429);
#166=VERTEX_POINT('',#431);
#167=VERTEX_POINT('',#433);
#168=VERTEX_POINT('',#435);
#169=VERTEX_POINT('',#437);
#170=VERTEX_POINT('',#441);
#171=VERTEX_POINT('',#442);
#172=VERTEX_POINT('',#444);
#173=VERTEX_POINT('',#446);
#174=VERTEX_POINT('',#448);
#175=VERTEX_POINT('',#450);
#176=VERTEX_POINT('',#452);
#177=VERTEX_POINT('',#454);
#178=VERTEX_POINT('',#458);
#179=VERTEX_POINT('',#459);
#180=VERTEX_POINT('',#469);
#181=VERTEX_POINT('',#471);
#182=VERTEX_POINT('',#476);
#183=VERTEX_POINT('',#489);
#184=VERTEX_POINT('',#504);
#185=VERTEX_POINT('',#506);
#186=VERTEX_POINT('',#509);
#187=VERTEX_POINT('',#515);
#188=VERTEX_POINT('',#517);
#189=VERTEX_POINT('',#520);
#190=LINE('',#423,#210);
#191=LINE('',#426,#211);
#192=LINE('',#430,#212);
#193=LINE('',#432,#213);
#194=LINE('',#434,#214);
#195=LINE('',#438,#215);
#196=LINE('',#440,#216);
#197=LINE('',#443,#217);
#198=LINE('',#445,#218);
#199=LINE('',#449,#219);
#200=LINE('',#451,#220);
#201=LINE('',#453,#221);
#202=LINE('',#457,#222);
#203=LINE('',#464,#223);
#204=LINE('',#470,#224);
#205=LINE('',#497,#225);
#206=LINE('',#499,#226);
#207=LINE('',#501,#227);
#208=LINE('',#510,#228);
#209=LINE('',#525,#229);
#210=VECTOR('',#343,1.);
#211=VECTOR('',#344,1.);
#212=VECTOR('',#347,1.);
#213=VECTOR('',#348,1.);
#214=VECTOR('',#349,1.);
#215=VECTOR('',#352,1.);
#216=VECTOR('',#355,1.);
#217=VECTOR('',#356,1.);
#218=VECTOR('',#357,1.);
#219=VECTOR('',#360,1.);
#220=VECTOR('',#361,1.);
#221=VECTOR('',#362,1.);
#222=VECTOR('',#367,1.);
#223=VECTOR('',#368,1.);
#224=VECTOR('',#369,1.);
#225=VECTOR('',#372,1.);
#226=VECTOR('',#375,1.);
#227=VECTOR('',#378,1.);
#228=VECTOR('',#389,1.);
#229=VECTOR('',#412,1.);
#230=EDGE_LOOP('',(#42,#43,#44,#45,#46,#47,#48,#49));
#231=EDGE_LOOP('',(#50,#51,#52,#53,#54,#55,#56,#57));
#232=EDGE_LOOP('',(#58,#59,#60,#61,#62,#63,#64,#65,#66));
#233=EDGE_LOOP('',(#67,#68,#69,#70,#71));
#234=EDGE_LOOP('',(#72,#73,#74,#75));
#235=EDGE_LOOP('',(#76,#77,#78,#79));
#236=EDGE_LOOP('',(#80));
#237=EDGE_LOOP('',(#81));
#238=EDGE_LOOP('',(#82,#83,#84,#85));
#239=EDGE_LOOP('',(#86,#87,#88,#89));
#240=EDGE_LOOP('',(#90,#91,#92));
#241=EDGE_LOOP('',(#93));
#242=EDGE_LOOP('',(#94));
#243=EDGE_LOOP('',(#95,#96,#97,#98,#99,#100,#101,#102,#103,#104));
#244=EDGE_LOOP('',(#105,#106,#107));
#245=EDGE_LOOP('',(#108,#109,#110));
#246=EDGE_LOOP('',(#111,#112,#113));
#247=EDGE_LOOP('',(#114));
#248=EDGE_LOOP('',(#115));
#249=EDGE_LOOP('',(#116,#117,#118,#119));
#250=EDGE_LOOP('',(#120));
#251=EDGE_LOOP('',(#121));
#252=FACE_BOUND('',#230,.T.);
#253=FACE_BOUND('',#231,.T.);
#254=FACE_BOUND('',#232,.T.);
#255=FACE_BOUND('',#233,.T.);
#256=FACE_BOUND('',#234,.T.);
#257=FACE_BOUND('',#235,.T.);
#258=FACE_BOUND('',#236,.T.);
#259=FACE_BOUND('',#237,.T.);
#260=FACE_BOUND('',#238,.T.);
#261=FACE_BOUND('',#239,.T.);
#262=FACE_BOUND('',#240,.T.);
#263=FACE_BOUND('',#241,.T.);
#264=FACE_BOUND('',#242,.T.);
#265=FACE_BOUND('',#243,.T.);
#266=FACE_BOUND('',#244,.T.);
#267=FACE_BOUND('',#245,.T.);
#268=FACE_BOUND('',#246,.T.);
#269=FACE_BOUND('',#247,.T.);
#270=FACE_BOUND('',#248,.T.);
#271=FACE_BOUND('',#249,.T.);
#272=FACE_BOUND('',#250,.T.);
#273=FACE_BOUND('',#251,.T.);
#274=PLANE('',#309);
#275=PLANE('',#312);
#276=PLANE('',#317);
#277=PLANE('',#318);
#278=PLANE('',#319);
#279=PLANE('',#326);
#280=ADVANCED_FACE('',(#252),#274,.T.);
#281=ADVANCED_FACE('',(#253),#275,.F.);
#282=ADVANCED_FACE('',(#254),#18,.T.);
#283=ADVANCED_FACE('',(#255),#19,.T.);
#284=ADVANCED_FACE('',(#256),#276,.T.);
#285=ADVANCED_FACE('',(#257),#277,.F.);
#286=ADVANCED_FACE('',(#258,#259,#260),#278,.F.);
#287=ADVANCED_FACE('',(#261),#20,.F.);
#288=ADVANCED_FACE('',(#262),#21,.F.);
#289=ADVANCED_FACE('',(#263,#264,#265),#279,.T.);
#290=ADVANCED_FACE('',(#266),#22,.F.);
#291=ADVANCED_FACE('',(#267),#23,.F.);
#292=ADVANCED_FACE('',(#268),#24,.F.);
#293=ADVANCED_FACE('',(#269,#270),#25,.F.);
#294=ADVANCED_FACE('',(#271),#26,.F.);
#295=ADVANCED_FACE('',(#272,#273),#27,.F.);
#296=CLOSED_SHELL('',(#280,#281,#282,#283,#284,#285,#286,#287,#288,#289,
#290,#291,#292,#293,#294,#295));
#297=STYLED_ITEM('',(#298),#305);
#298=PRESENTATION_STYLE_ASSIGNMENT((#299));
#299=SURFACE_STYLE_USAGE(.BOTH.,#300);
#300=SURFACE_SIDE_STYLE('',(#301));
#301=SURFACE_STYLE_FILL_AREA(#302);
#302=FILL_AREA_STYLE('',(#303));
#303=FILL_AREA_STYLE_COLOUR('',#304);
#304=COLOUR_RGB('',0.647058823529412,0.647058823529412,0.647058823529412);
#305=MANIFOLD_SOLID_BREP('Support cellule de charge',#296);
#306=SHAPE_DEFINITION_REPRESENTATION(#536,#307);
#307=SHAPE_REPRESENTATION('Support cellule de charge',(#308),#531);
#308=AXIS2_PLACEMENT_3D('',#421,#339,#340);
#309=AXIS2_PLACEMENT_3D('',#422,#341,#342);
#310=AXIS2_PLACEMENT_3D('',#428,#345,#346);
#311=AXIS2_PLACEMENT_3D('',#436,#350,#351);
#312=AXIS2_PLACEMENT_3D('',#439,#353,#354);
#313=AXIS2_PLACEMENT_3D('',#447,#358,#359);
#314=AXIS2_PLACEMENT_3D('',#455,#363,#364);
#315=AXIS2_PLACEMENT_3D('',#456,#365,#366);
#316=AXIS2_PLACEMENT_3D('',#481,#370,#371);
#317=AXIS2_PLACEMENT_3D('',#498,#373,#374);
#318=AXIS2_PLACEMENT_3D('',#500,#376,#377);
#319=AXIS2_PLACEMENT_3D('',#502,#379,#380);
#320=AXIS2_PLACEMENT_3D('',#503,#381,#382);
#321=AXIS2_PLACEMENT_3D('',#505,#383,#384);
#322=AXIS2_PLACEMENT_3D('',#507,#385,#386);
#323=AXIS2_PLACEMENT_3D('',#508,#387,#388);
#324=AXIS2_PLACEMENT_3D('',#511,#390,#391);
#325=AXIS2_PLACEMENT_3D('',#512,#392,#393);
#326=AXIS2_PLACEMENT_3D('',#513,#394,#395);
#327=AXIS2_PLACEMENT_3D('',#514,#396,#397);
#328=AXIS2_PLACEMENT_3D('',#516,#398,#399);
#329=AXIS2_PLACEMENT_3D('',#518,#400,#401);
#330=AXIS2_PLACEMENT_3D('',#519,#402,#403);
#331=AXIS2_PLACEMENT_3D('',#521,#404,#405);
#332=AXIS2_PLACEMENT_3D('',#522,#406,#407);
#333=AXIS2_PLACEMENT_3D('',#523,#408,#409);
#334=AXIS2_PLACEMENT_3D('',#524,#410,#411);
#335=AXIS2_PLACEMENT_3D('',#526,#413,#414);
#336=AXIS2_PLACEMENT_3D('',#527,#415,#416);
#337=AXIS2_PLACEMENT_3D('',#528,#417,#418);
#338=AXIS2_PLACEMENT_3D('',#529,#419,#420);
#339=DIRECTION('',(0.,0.,1.));
#340=DIRECTION('',(1.,0.,0.));
#341=DIRECTION('',(0.,1.,0.));
#342=DIRECTION('',(0.,0.,1.));
#343=DIRECTION('',(1.,0.,0.));
#344=DIRECTION('',(0.,0.,-1.));
#345=DIRECTION('',(0.,1.,0.));
#346=DIRECTION('',(0.,0.,1.));
#347=DIRECTION('',(0.,0.,-1.));
#348=DIRECTION('',(1.,0.,0.));
#349=DIRECTION('',(0.,0.,-1.));
#350=DIRECTION('',(0.,1.,0.));
#351=DIRECTION('',(0.,0.,1.));
#352=DIRECTION('',(0.,0.,-1.));
#353=DIRECTION('',(0.,1.,0.));
#354=DIRECTION('',(0.,0.,1.));
#355=DIRECTION('',(0.,0.,-1.));
#356=DIRECTION('',(1.,0.,0.));
#357=DIRECTION('',(0.,0.,-1.));
#358=DIRECTION('',(0.,1.,0.));
#359=DIRECTION('',(0.,0.,1.));
#360=DIRECTION('',(0.,0.,-1.));
#361=DIRECTION('',(1.,0.,0.));
#362=DIRECTION('',(0.,0.,-1.));
#363=DIRECTION('',(0.,1.,0.));
#364=DIRECTION('',(0.,0.,1.));
#365=DIRECTION('',(0.,-1.,0.));
#366=DIRECTION('',(0.,0.,-1.));
#367=DIRECTION('',(0.,-1.,0.));
#368=DIRECTION('',(0.,-1.,0.));
#369=DIRECTION('',(0.,-1.,0.));
#370=DIRECTION('',(0.,-1.,0.));
#371=DIRECTION('',(0.,0.,-1.));
#372=DIRECTION('',(0.,-1.,0.));
#373=DIRECTION('',(1.,0.,0.));
#374=DIRECTION('',(0.,0.,-1.));
#375=DIRECTION('',(0.,-1.,0.));
#376=DIRECTION('',(1.,0.,0.));
#377=DIRECTION('',(0.,0.,-1.));
#378=DIRECTION('',(0.,-1.,0.));
#379=DIRECTION('',(0.,0.,1.));
#380=DIRECTION('',(1.,0.,0.));
#381=DIRECTION('',(0.,0.,-1.));
#382=DIRECTION('',(-1.,0.,0.));
#383=DIRECTION('',(0.,0.,-1.));
#384=DIRECTION('',(-1.,0.,0.));
#385=DIRECTION('',(0.,0.,-1.));
#386=DIRECTION('',(-1.,0.,0.));
#387=DIRECTION('',(0.,0.,-1.));
#388=DIRECTION('',(-1.,0.,0.));
#389=DIRECTION('',(0.,0.,-1.));
#390=DIRECTION('',(0.,0.,-1.));
#391=DIRECTION('',(-1.,0.,0.));
#392=DIRECTION('',(0.,0.,-1.));
#393=DIRECTION('',(-1.,0.,0.));
#394=DIRECTION('',(0.,0.,1.));
#395=DIRECTION('',(1.,0.,0.));
#396=DIRECTION('',(0.,0.,-1.));
#397=DIRECTION('',(-1.,0.,0.));
#398=DIRECTION('',(0.,0.,-1.));
#399=DIRECTION('',(-1.,0.,0.));
#400=DIRECTION('',(0.,0.,-1.));
#401=DIRECTION('',(-1.,0.,0.));
#402=DIRECTION('',(0.,0.,-1.));
#403=DIRECTION('',(-1.,0.,0.));
#404=DIRECTION('',(0.,0.,-1.));
#405=DIRECTION('',(-1.,0.,0.));
#406=DIRECTION('',(0.,0.,-1.));
#407=DIRECTION('',(-1.,0.,0.));
#408=DIRECTION('',(0.,0.,-1.));
#409=DIRECTION('',(-1.,0.,0.));
#410=DIRECTION('',(0.,0.,-1.));
#411=DIRECTION('',(-1.,0.,0.));
#412=DIRECTION('',(0.,0.,-1.));
#413=DIRECTION('',(0.,0.,-1.));
#414=DIRECTION('',(-1.,0.,0.));
#415=DIRECTION('',(0.,0.,-1.));
#416=DIRECTION('',(-1.,0.,0.));
#417=DIRECTION('',(0.,0.,-1.));
#418=DIRECTION('',(-1.,0.,0.));
#419=DIRECTION('',(0.,0.,-1.));
#420=DIRECTION('',(-1.,0.,0.));
#421=CARTESIAN_POINT('',(0.,0.,0.));
#422=CARTESIAN_POINT('',(0.0035,0.,0.01));
#423=CARTESIAN_POINT('',(0.0035,0.,0.00699981264299584));
#424=CARTESIAN_POINT('',(0.00205,0.,0.00699981264299584));
#425=CARTESIAN_POINT('',(0.00455,0.,0.00699981264299584));
#426=CARTESIAN_POINT('',(0.00455,0.,0.01));
#427=CARTESIAN_POINT('',(0.00455,0.,0.00831888167580217));
#428=CARTESIAN_POINT('',(-1.21933088197742E-6,0.,0.00299878066911802));
#429=CARTESIAN_POINT('',(0.007,0.,0.00299878066911802));
#430=CARTESIAN_POINT('',(0.007,0.,0.01));
#431=CARTESIAN_POINT('',(0.007,0.,0.));
#432=CARTESIAN_POINT('',(0.0035,0.,0.));
#433=CARTESIAN_POINT('',(0.,0.,0.));
#434=CARTESIAN_POINT('',(0.,0.,0.01));
#435=CARTESIAN_POINT('',(0.,0.,0.01));
#436=CARTESIAN_POINT('',(-1.21933088197742E-6,0.,0.00299878066911802));
#437=CARTESIAN_POINT('',(0.00205,0.,0.00969277584208697));
#438=CARTESIAN_POINT('',(0.00205,0.,0.01));
#439=CARTESIAN_POINT('',(0.0035,-0.012,0.01));
#440=CARTESIAN_POINT('',(0.00455,-0.012,0.01));
#441=CARTESIAN_POINT('',(0.00455,-0.012,0.00699981264299584));
#442=CARTESIAN_POINT('',(0.00455,-0.012,0.00831888167580217));
#443=CARTESIAN_POINT('',(0.0035,-0.012,0.00699981264299584));
#444=CARTESIAN_POINT('',(0.00205,-0.012,0.00699981264299584));
#445=CARTESIAN_POINT('',(0.00205,-0.012,0.01));
#446=CARTESIAN_POINT('',(0.00205,-0.012,0.00969277584208697));
#447=CARTESIAN_POINT('',(-1.21933088197742E-6,-0.012,0.00299878066911802));
#448=CARTESIAN_POINT('',(0.,-0.012,0.01));
#449=CARTESIAN_POINT('',(0.,-0.012,0.01));
#450=CARTESIAN_POINT('',(0.,-0.012,0.));
#451=CARTESIAN_POINT('',(0.0035,-0.012,0.));
#452=CARTESIAN_POINT('',(0.007,-0.012,0.));
#453=CARTESIAN_POINT('',(0.007,-0.012,0.01));
#454=CARTESIAN_POINT('',(0.007,-0.012,0.00299878066911802));
#455=CARTESIAN_POINT('',(-1.21933088197742E-6,-0.012,0.00299878066911802));
#456=CARTESIAN_POINT('',(-1.21933088197742E-6,-0.0107463253140449,0.00299878066911802));
#457=CARTESIAN_POINT('',(0.00574411053459336,-0.0107463253140449,0.00699981264299584));
#458=CARTESIAN_POINT('',(0.00574411053459336,-0.00685784601517777,0.00699981264299584));
#459=CARTESIAN_POINT('',(0.00574411053459336,-0.0111421539848222,0.00699981264299584));
#460=CARTESIAN_POINT('',(0.00574411053459336,-0.0111421539848222,0.00699981264299584));
#461=CARTESIAN_POINT('',(0.00542568082410277,-0.0115054693279077,0.00745706560615151));
#462=CARTESIAN_POINT('',(0.00503254909911338,-0.0117989378753694,0.0079060724480779));
#463=CARTESIAN_POINT('',(0.00455,-0.012,0.00831888167580219));
#464=CARTESIAN_POINT('',(0.007,-0.0107463253140449,0.00299878066911802));
#465=CARTESIAN_POINT('',(0.00455,0.,0.00831888167580217));
#466=CARTESIAN_POINT('',(0.00503306272201358,-0.000201276134172324,0.00790563305595558));
#467=CARTESIAN_POINT('',(0.00542549329568683,-0.000494316709799951,0.0074573348898303));
#468=CARTESIAN_POINT('',(0.0057441105345934,-0.000857846015177694,0.0069998126429958));
#469=CARTESIAN_POINT('',(0.00574411053459336,-0.000857846015177773,0.00699981264299584));
#470=CARTESIAN_POINT('',(0.00574411053459336,-0.0107463253140449,0.00699981264299584));
#471=CARTESIAN_POINT('',(0.00574411053459336,-0.00514215398482223,0.00699981264299584));
#472=CARTESIAN_POINT('',(0.00574411053459336,-0.00514215398482223,0.00699981264299584));
#473=CARTESIAN_POINT('',(0.00542568082410277,-0.00550546932790768,0.00745706560615151));
#474=CARTESIAN_POINT('',(0.00503254909911338,-0.00579893787536943,0.0079060724480779));
#475=CARTESIAN_POINT('',(0.00455,-0.006,0.00831888167580219));
#476=CARTESIAN_POINT('',(0.00455,-0.006,0.00831888167580217));
#477=CARTESIAN_POINT('',(0.00455,-0.006,0.00831888167580217));
#478=CARTESIAN_POINT('',(0.00503306272201358,-0.00620127613417232,0.00790563305595558));
#479=CARTESIAN_POINT('',(0.00542549329568683,-0.00649431670979996,0.0074573348898303));
#480=CARTESIAN_POINT('',(0.0057441105345934,-0.0068578460151777,0.0069998126429958));
#481=CARTESIAN_POINT('',(-1.21933088197742E-6,-0.0107463253140449,0.00299878066911802));
#482=CARTESIAN_POINT('',(0.00205,-0.012,0.00969277584208697));
#483=CARTESIAN_POINT('',(0.0014749335059404,-0.0117603889608085,0.00986899161139629));
#484=CARTESIAN_POINT('',(0.000443673404524909,-0.0109258975004823,0.0100133424349294));
#485=CARTESIAN_POINT('',(-0.000146585351266917,-0.00900062342420626,0.00999302744714779));
#486=CARTESIAN_POINT('',(0.000442668344200125,-0.00707526976392947,0.0100134236319403));
#487=CARTESIAN_POINT('',(0.0014748715276005,-0.00623963686349979,0.0098690106032189));
#488=CARTESIAN_POINT('',(0.00205,-0.006,0.00969277584208697));
#489=CARTESIAN_POINT('',(0.00205,-0.006,0.00969277584208697));
#490=CARTESIAN_POINT('',(0.00205,-0.006,0.00969277584208697));
#491=CARTESIAN_POINT('',(0.0014749335059404,-0.0057603889608085,0.00986899161139629));
#492=CARTESIAN_POINT('',(0.000443673404524908,-0.00492589750048232,0.0100133424349294));
#493=CARTESIAN_POINT('',(-0.000146585351266917,-0.00300062342420626,0.0099930274471478));
#494=CARTESIAN_POINT('',(0.000442668344200127,-0.00107526976392947,0.0100134236319403));
#495=CARTESIAN_POINT('',(0.0014748715276005,-0.00023963686349979,0.0098690106032189));
#496=CARTESIAN_POINT('',(0.00205,1.46254928554146E-18,0.00969277584208697));
#497=CARTESIAN_POINT('',(0.,-0.006,0.01));
#498=CARTESIAN_POINT('',(0.007,-0.0107463253140449,0.01));
#499=CARTESIAN_POINT('',(0.007,-0.0107463253140449,0.));
#500=CARTESIAN_POINT('',(0.,-0.006,0.01));
#501=CARTESIAN_POINT('',(0.,-0.006,0.));
#502=CARTESIAN_POINT('',(0.02325,-0.006,0.));
#503=CARTESIAN_POINT('',(0.0033,-0.009,0.));
#504=CARTESIAN_POINT('',(0.0016,-0.009,0.));
#505=CARTESIAN_POINT('',(0.0033,-0.003,0.));
#506=CARTESIAN_POINT('',(0.0016,-0.003,0.));
#507=CARTESIAN_POINT('',(0.0033,-0.009,0.01));
#508=CARTESIAN_POINT('',(0.0033,-0.009,0.00699981264299584));
#509=CARTESIAN_POINT('',(0.00205,-0.006,0.00699981264299584));
#510=CARTESIAN_POINT('',(0.00205,-0.006,0.00849981264299584));
#511=CARTESIAN_POINT('',(0.0033,-0.009,0.01));
#512=CARTESIAN_POINT('',(0.0033,-0.009,0.00699981264299584));
#513=CARTESIAN_POINT('',(0.00655,-0.009,0.00699981264299584));
#514=CARTESIAN_POINT('',(0.0033,-0.003,0.00699981264299584));
#515=CARTESIAN_POINT('',(0.0016,-0.003,0.00699981264299584));
#516=CARTESIAN_POINT('',(0.0033,-0.009,0.00699981264299584));
#517=CARTESIAN_POINT('',(0.0016,-0.009,0.00699981264299584));
#518=CARTESIAN_POINT('',(0.0033,-0.003,0.00699981264299584));
#519=CARTESIAN_POINT('',(0.0033,-0.009,0.00699981264299584));
#520=CARTESIAN_POINT('',(0.00455,-0.006,0.00699981264299584));
#521=CARTESIAN_POINT('',(0.0033,-0.003,0.00699981264299584));
#522=CARTESIAN_POINT('',(0.0033,-0.003,0.00699981264299584));
#523=CARTESIAN_POINT('',(0.0033,-0.003,0.01));
#524=CARTESIAN_POINT('',(0.0033,-0.003,0.01));
#525=CARTESIAN_POINT('',(0.00455,-0.006,0.00849981264299584));
#526=CARTESIAN_POINT('',(0.0033,-0.009,0.01));
#527=CARTESIAN_POINT('',(0.0033,-0.009,0.01));
#528=CARTESIAN_POINT('',(0.0033,-0.003,0.01));
#529=CARTESIAN_POINT('',(0.0033,-0.003,0.01));
#530=MECHANICAL_DESIGN_GEOMETRIC_PRESENTATION_REPRESENTATION('',(#297),
#531);
#531=(
GEOMETRIC_REPRESENTATION_CONTEXT(3)
GLOBAL_UNCERTAINTY_ASSIGNED_CONTEXT((#532))
GLOBAL_UNIT_ASSIGNED_CONTEXT((#535,#534,#533))
REPRESENTATION_CONTEXT('Support cellule de charge',
'TOP_LEVEL_ASSEMBLY_PART')
);
#532=UNCERTAINTY_MEASURE_WITH_UNIT(LENGTH_MEASURE(2.E-5),#535,
'DISTANCE_ACCURACY_VALUE','Maximum Tolerance applied to model');
#533=(
NAMED_UNIT(*)
SI_UNIT($,.STERADIAN.)
SOLID_ANGLE_UNIT()
);
#534=(
NAMED_UNIT(*)
PLANE_ANGLE_UNIT()
SI_UNIT($,.RADIAN.)
);
#535=(
LENGTH_UNIT()
NAMED_UNIT(*)
SI_UNIT($,.METRE.)
);
#536=PRODUCT_DEFINITION_SHAPE('','',#537);
#537=PRODUCT_DEFINITION('','',#539,#538);
#538=PRODUCT_DEFINITION_CONTEXT('',#545,'design');
#539=PRODUCT_DEFINITION_FORMATION_WITH_SPECIFIED_SOURCE('','',#541,
 .NOT_KNOWN.);
#540=PRODUCT_RELATED_PRODUCT_CATEGORY('','',(#541));
#541=PRODUCT('Support cellule de charge','Support cellule de charge',
'Support cellule de charge',(#543));
#542=PRODUCT_CATEGORY('','');
#543=PRODUCT_CONTEXT('',#545,'mechanical');
#544=APPLICATION_PROTOCOL_DEFINITION('international standard',
'ap242_managed_model_based_3d_engineering',2020,#545);
#545=APPLICATION_CONTEXT('managed model based 3d engineering');
ENDSEC;
END-ISO-10303-21;
