ISO-10303-21;
HEADER;
/* Generated by software containing ST-Developer
 * from STEP Tools, Inc. (www.steptools.com) 
 */
/* OPTION: using custom renumber hook */

FILE_DESCRIPTION(
/* description */ ('STEP AP242 Edition 2',
'CAx-IF Rec.Pracs.---Representation and Presentation of Product Manufa
cturing Information (PMI)---4.0---2014-10-13',
'CAx-IF Rec.Pracs.---3D Tessellated Geometry---0.4---2014-09-14','2;1',
'CAx-IF Rec.Pracs.---User Defined Attributes---1.5---2016-08-15'),
/* implementation_level */ '2;1');

FILE_NAME(
/* name */ 'Assemblage V2 - Diffuseur',
/* time_stamp */ '2026-09-29T21:10:08Z',
/* author */ (''),
/* organization */ (''),
/* preprocessor_version */ 'ST-DEVELOPER v20',
/* originating_system */ 'ONSHAPE BY PTC INC, 1.221',
/* authorisation */ '  ');

FILE_SCHEMA (('AP242_MANAGED_MODEL_BASED_3D_ENGINEERING_MIM_LF { 1 0 10303 442 3 1 4 }'));
ENDSEC;

DATA;
#10=SHAPE_REPRESENTATION_RELATIONSHIP('','',#359,#11);
#11=ADVANCED_BREP_SHAPE_REPRESENTATION('',(#357),#763);
#12=CONICAL_SURFACE('',#392,0.005,0.785398163397448);
#13=CYLINDRICAL_SURFACE('',#364,0.005);
#14=CYLINDRICAL_SURFACE('',#380,0.0035);
#15=CYLINDRICAL_SURFACE('',#381,0.0035);
#16=CYLINDRICAL_SURFACE('',#382,0.0035);
#17=CYLINDRICAL_SURFACE('',#383,0.0035);
#18=CYLINDRICAL_SURFACE('',#384,0.0035);
#19=CYLINDRICAL_SURFACE('',#385,0.0035);
#20=CYLINDRICAL_SURFACE('',#386,0.0035);
#21=CYLINDRICAL_SURFACE('',#387,0.0035);
#22=CYLINDRICAL_SURFACE('',#390,0.006);
#23=B_SPLINE_SURFACE_WITH_KNOTS('',3,1,((#493,#494),(#495,#496),(#497,#498),
(#499,#500),(#501,#502),(#503,#504),(#505,#506),(#507,#508),(#509,#510)),
 .SURF_OF_LINEAR_EXTRUSION.,.F.,.F.,.F.,(4,1,1,1,1,1,4),(2,2),(0.,0.239360156036743,
0.359040234055114,0.478720312073485,0.598400390091856,0.718080468110228,
0.95744062414697),(0.,1.),.UNSPECIFIED.);
#24=B_SPLINE_SURFACE_WITH_KNOTS('',3,1,((#521,#522),(#523,#524),(#525,#526),
(#527,#528),(#529,#530),(#531,#532),(#533,#534),(#535,#536),(#537,#538)),
 .SURF_OF_LINEAR_EXTRUSION.,.F.,.F.,.F.,(4,1,1,1,1,1,4),(2,2),(0.,0.239360156124114,
0.359040234186172,0.478720312248229,0.598400390310286,0.718080468372343,
0.957440624496457),(0.,1.),.UNSPECIFIED.);
#25=LINE('',#485,#39);
#26=LINE('',#519,#40);
#27=LINE('',#520,#41);
#28=LINE('',#539,#42);
#29=LINE('',#548,#43);
#30=LINE('',#550,#44);
#31=LINE('',#551,#45);
#32=LINE('',#553,#46);
#33=LINE('',#555,#47);
#34=LINE('',#721,#48);
#35=LINE('',#723,#49);
#36=LINE('',#727,#50);
#37=LINE('',#729,#51);
#38=LINE('',#745,#52);
#39=VECTOR('',#399,1.);
#40=VECTOR('',#400,1.);
#41=VECTOR('',#401,1.);
#42=VECTOR('',#402,1.);
#43=VECTOR('',#403,1.);
#44=VECTOR('',#406,1.);
#45=VECTOR('',#407,1.);
#46=VECTOR('',#408,1.);
#47=VECTOR('',#409,1.);
#48=VECTOR('',#418,1.);
#49=VECTOR('',#419,1.);
#50=VECTOR('',#424,1.);
#51=VECTOR('',#425,1.);
#52=VECTOR('',#442,1.);
#53=B_SPLINE_CURVE_WITH_KNOTS('',3,(#478,#479,#480,#481,#482,#483),
 .UNSPECIFIED.,.F.,.F.,(4,1,1,4),(0.,0.409934720524891,0.696611234409059,
0.99785595249171),.UNSPECIFIED.);
#54=B_SPLINE_CURVE_WITH_KNOTS('',3,(#487,#488,#489,#490,#491,#492),
 .UNSPECIFIED.,.F.,.F.,(4,1,1,4),(0.,0.409934720524891,0.696611234409059,
0.997855989148371),.UNSPECIFIED.);
#55=B_SPLINE_CURVE_WITH_KNOTS('',3,(#511,#512,#513,#514,#515,#516),
 .UNSPECIFIED.,.F.,.F.,(4,1,1,4),(0.,0.409934720524891,0.696611234409059,
0.99785595249171),.UNSPECIFIED.);
#56=B_SPLINE_CURVE_WITH_KNOTS('',3,(#541,#542,#543,#544,#545,#546),
 .UNSPECIFIED.,.F.,.F.,(4,1,1,4),(0.,0.409934720524891,0.696611234409059,
0.997855989148371),.UNSPECIFIED.);
#57=B_SPLINE_CURVE_WITH_KNOTS('',3,(#557,#558,#559,#560,#561,#562,#563,
#564,#565,#566,#567,#568,#569,#570,#571,#572,#573,#574,#575),
 .UNSPECIFIED.,.T.,.F.,(1,1,1,1,1,1,1,1,1,1,1,1,1,1,1,1,1,1,1,1,1,1,1),
(-0.00426040599229215,-0.0028402706615281,-0.00142013533076405,1.72953652565082E-18,
0.00142013533076405,0.0028402706615281,0.00426040599229215,0.0056805413230562,
0.00710067665382025,0.0085208119845843,0.00994094731534835,0.0113610826461124,
0.0127812179768765,0.0142013533076405,0.0156214886384046,0.0170416239691686,
0.0184617592999326,0.0198818946306967,0.0213020299614608,0.0227221652922248,
0.0241423006229889,0.0255624359537529,0.026982571284517),.UNSPECIFIED.);
#58=B_SPLINE_CURVE_WITH_KNOTS('',3,(#577,#578,#579,#580,#581,#582,#583,
#584,#585,#586,#587,#588,#589,#590,#591,#592,#593,#594,#595),
 .UNSPECIFIED.,.T.,.F.,(1,1,1,1,1,1,1,1,1,1,1,1,1,1,1,1,1,1,1,1,1,1,1),
(-0.00426040599229218,-0.00284027066152812,-0.00142013533076406,8.9492224967334E-19,
0.00142013533076406,0.00284027066152812,0.00426040599229218,0.00568054132305624,
0.0071006766538203,0.00852081198458436,0.00994094731534842,0.0113610826461125,
0.0127812179768765,0.0142013533076406,0.0156214886384047,0.0170416239691687,
0.0184617592999328,0.0198818946306968,0.0213020299614609,0.022722165292225,
0.024142300622989,0.0255624359537531,0.0269825712845171),.UNSPECIFIED.);
#59=B_SPLINE_CURVE_WITH_KNOTS('',3,(#597,#598,#599,#600,#601,#602,#603,
#604,#605,#606,#607,#608,#609,#610,#611,#612,#613,#614,#615),
 .UNSPECIFIED.,.T.,.F.,(1,1,1,1,1,1,1,1,1,1,1,1,1,1,1,1,1,1,1,1,1,1,1),
(-0.00426040599229219,-0.00284027066152813,-0.00142013533076406,8.94922249673338E-19,
0.00142013533076406,0.00284027066152813,0.00426040599229219,0.00568054132305625,
0.00710067665382032,0.00852081198458438,0.00994094731534844,0.0113610826461125,
0.0127812179768766,0.0142013533076406,0.0156214886384047,0.0170416239691688,
0.0184617592999328,0.0198818946306969,0.0213020299614609,0.022722165292225,
0.0241423006229891,0.0255624359537531,0.0269825712845172),.UNSPECIFIED.);
#60=B_SPLINE_CURVE_WITH_KNOTS('',3,(#617,#618,#619,#620,#621,#622,#623,
#624,#625,#626,#627,#628,#629,#630,#631,#632,#633,#634,#635),
 .UNSPECIFIED.,.T.,.F.,(1,1,1,1,1,1,1,1,1,1,1,1,1,1,1,1,1,1,1,1,1,1,1),
(-0.00426040599229215,-0.0028402706615281,-0.00142013533076405,8.94922249673326E-19,
0.00142013533076405,0.0028402706615281,0.00426040599229215,0.0056805413230562,
0.00710067665382026,0.00852081198458431,0.00994094731534836,0.0113610826461124,
0.0127812179768765,0.0142013533076405,0.0156214886384046,0.0170416239691686,
0.0184617592999327,0.0198818946306967,0.0213020299614608,0.0227221652922248,
0.0241423006229889,0.0255624359537529,0.026982571284517),.UNSPECIFIED.);
#61=B_SPLINE_CURVE_WITH_KNOTS('',3,(#637,#638,#639,#640,#641,#642,#643,
#644,#645,#646,#647,#648,#649,#650,#651,#652,#653,#654,#655),
 .UNSPECIFIED.,.T.,.F.,(1,1,1,1,1,1,1,1,1,1,1,1,1,1,1,1,1,1,1,1,1,1,1),
(-0.00426040599229215,-0.0028402706615281,-0.00142013533076405,2.91050379650738E-19,
0.00142013533076405,0.0028402706615281,0.00426040599229215,0.0056805413230562,
0.00710067665382025,0.0085208119845843,0.00994094731534835,0.0113610826461124,
0.0127812179768765,0.0142013533076405,0.0156214886384046,0.0170416239691686,
0.0184617592999326,0.0198818946306967,0.0213020299614608,0.0227221652922248,
0.0241423006229889,0.0255624359537529,0.026982571284517),.UNSPECIFIED.);
#62=B_SPLINE_CURVE_WITH_KNOTS('',3,(#657,#658,#659,#660,#661,#662,#663,
#664,#665,#666,#667,#668,#669,#670,#671,#672,#673,#674,#675),
 .UNSPECIFIED.,.T.,.F.,(1,1,1,1,1,1,1,1,1,1,1,1,1,1,1,1,1,1,1,1,1,1,1),
(-0.00426040599229214,-0.0028402706615281,-0.00142013533076405,3.45068707831895E-19,
0.00142013533076405,0.0028402706615281,0.00426040599229214,0.00568054132305619,
0.00710067665382024,0.00852081198458429,0.00994094731534834,0.0113610826461124,
0.0127812179768764,0.0142013533076405,0.0156214886384045,0.0170416239691686,
0.0184617592999326,0.0198818946306967,0.0213020299614607,0.0227221652922248,
0.0241423006229888,0.0255624359537529,0.0269825712845169),.UNSPECIFIED.);
#63=B_SPLINE_CURVE_WITH_KNOTS('',3,(#677,#678,#679,#680,#681,#682,#683,
#684,#685,#686,#687,#688,#689,#690,#691,#692,#693,#694,#695),
 .UNSPECIFIED.,.T.,.F.,(1,1,1,1,1,1,1,1,1,1,1,1,1,1,1,1,1,1,1,1,1,1,1),
(-0.00426040599229215,-0.0028402706615281,-0.00142013533076404,1.92764532433542E-18,
0.00142013533076405,0.0028402706615281,0.00426040599229215,0.0056805413230562,
0.00710067665382025,0.0085208119845843,0.00994094731534835,0.0113610826461124,
0.0127812179768765,0.0142013533076405,0.0156214886384046,0.0170416239691686,
0.0184617592999327,0.0198818946306967,0.0213020299614608,0.0227221652922248,
0.0241423006229889,0.0255624359537529,0.026982571284517),.UNSPECIFIED.);
#64=B_SPLINE_CURVE_WITH_KNOTS('',3,(#697,#698,#699,#700,#701,#702,#703,
#704,#705,#706,#707,#708,#709,#710,#711,#712,#713,#714,#715),
 .UNSPECIFIED.,.T.,.F.,(1,1,1,1,1,1,1,1,1,1,1,1,1,1,1,1,1,1,1,1,1,1,1),
(-0.00426040599229219,-0.00284027066152813,-0.00142013533076406,0.,0.00142013533076406,
0.00284027066152812,0.00426040599229219,0.00568054132305625,0.00710067665382031,
0.00852081198458437,0.00994094731534843,0.0113610826461125,0.0127812179768766,
0.0142013533076406,0.0156214886384047,0.0170416239691687,0.0184617592999328,
0.0198818946306969,0.0213020299614609,0.022722165292225,0.0241423006229891,
0.0255624359537531,0.0269825712845172),.UNSPECIFIED.);
#65=ORIENTED_EDGE('',*,*,#143,.F.);
#66=ORIENTED_EDGE('',*,*,#144,.T.);
#67=ORIENTED_EDGE('',*,*,#145,.T.);
#68=ORIENTED_EDGE('',*,*,#146,.F.);
#69=ORIENTED_EDGE('',*,*,#147,.T.);
#70=ORIENTED_EDGE('',*,*,#148,.T.);
#71=ORIENTED_EDGE('',*,*,#144,.F.);
#72=ORIENTED_EDGE('',*,*,#149,.F.);
#73=ORIENTED_EDGE('',*,*,#150,.F.);
#74=ORIENTED_EDGE('',*,*,#151,.F.);
#75=ORIENTED_EDGE('',*,*,#152,.T.);
#76=ORIENTED_EDGE('',*,*,#146,.T.);
#77=ORIENTED_EDGE('',*,*,#151,.T.);
#78=ORIENTED_EDGE('',*,*,#153,.T.);
#79=ORIENTED_EDGE('',*,*,#147,.F.);
#80=ORIENTED_EDGE('',*,*,#154,.T.);
#81=ORIENTED_EDGE('',*,*,#155,.T.);
#82=ORIENTED_EDGE('',*,*,#156,.F.);
#83=ORIENTED_EDGE('',*,*,#157,.F.);
#84=ORIENTED_EDGE('',*,*,#158,.F.);
#85=ORIENTED_EDGE('',*,*,#159,.F.);
#86=ORIENTED_EDGE('',*,*,#160,.F.);
#87=ORIENTED_EDGE('',*,*,#161,.F.);
#88=ORIENTED_EDGE('',*,*,#162,.F.);
#89=ORIENTED_EDGE('',*,*,#163,.F.);
#90=ORIENTED_EDGE('',*,*,#164,.F.);
#91=ORIENTED_EDGE('',*,*,#165,.T.);
#92=ORIENTED_EDGE('',*,*,#166,.F.);
#93=ORIENTED_EDGE('',*,*,#149,.T.);
#94=ORIENTED_EDGE('',*,*,#167,.T.);
#95=ORIENTED_EDGE('',*,*,#168,.F.);
#96=ORIENTED_EDGE('',*,*,#154,.F.);
#97=ORIENTED_EDGE('',*,*,#169,.T.);
#98=ORIENTED_EDGE('',*,*,#168,.T.);
#99=ORIENTED_EDGE('',*,*,#170,.T.);
#100=ORIENTED_EDGE('',*,*,#171,.F.);
#101=ORIENTED_EDGE('',*,*,#155,.F.);
#102=ORIENTED_EDGE('',*,*,#172,.T.);
#103=ORIENTED_EDGE('',*,*,#173,.T.);
#104=ORIENTED_EDGE('',*,*,#174,.T.);
#105=ORIENTED_EDGE('',*,*,#175,.T.);
#106=ORIENTED_EDGE('',*,*,#176,.T.);
#107=ORIENTED_EDGE('',*,*,#177,.T.);
#108=ORIENTED_EDGE('',*,*,#178,.T.);
#109=ORIENTED_EDGE('',*,*,#171,.T.);
#110=ORIENTED_EDGE('',*,*,#179,.F.);
#111=ORIENTED_EDGE('',*,*,#152,.F.);
#112=ORIENTED_EDGE('',*,*,#156,.T.);
#113=ORIENTED_EDGE('',*,*,#180,.F.);
#114=ORIENTED_EDGE('',*,*,#179,.T.);
#115=ORIENTED_EDGE('',*,*,#170,.F.);
#116=ORIENTED_EDGE('',*,*,#167,.F.);
#117=ORIENTED_EDGE('',*,*,#169,.F.);
#118=ORIENTED_EDGE('',*,*,#164,.T.);
#119=ORIENTED_EDGE('',*,*,#157,.T.);
#120=ORIENTED_EDGE('',*,*,#172,.F.);
#121=ORIENTED_EDGE('',*,*,#158,.T.);
#122=ORIENTED_EDGE('',*,*,#173,.F.);
#123=ORIENTED_EDGE('',*,*,#159,.T.);
#124=ORIENTED_EDGE('',*,*,#174,.F.);
#125=ORIENTED_EDGE('',*,*,#160,.T.);
#126=ORIENTED_EDGE('',*,*,#175,.F.);
#127=ORIENTED_EDGE('',*,*,#161,.T.);
#128=ORIENTED_EDGE('',*,*,#176,.F.);
#129=ORIENTED_EDGE('',*,*,#162,.T.);
#130=ORIENTED_EDGE('',*,*,#177,.F.);
#131=ORIENTED_EDGE('',*,*,#163,.T.);
#132=ORIENTED_EDGE('',*,*,#178,.F.);
#133=ORIENTED_EDGE('',*,*,#165,.F.);
#134=ORIENTED_EDGE('',*,*,#153,.F.);
#135=ORIENTED_EDGE('',*,*,#150,.T.);
#136=ORIENTED_EDGE('',*,*,#145,.F.);
#137=ORIENTED_EDGE('',*,*,#148,.F.);
#138=ORIENTED_EDGE('',*,*,#181,.T.);
#139=ORIENTED_EDGE('',*,*,#143,.T.);
#140=ORIENTED_EDGE('',*,*,#180,.T.);
#141=ORIENTED_EDGE('',*,*,#181,.F.);
#142=ORIENTED_EDGE('',*,*,#166,.T.);
#143=EDGE_CURVE('',#182,#183,#212,.T.);
#144=EDGE_CURVE('',#182,#184,#53,.T.);
#145=EDGE_CURVE('',#184,#185,#25,.T.);
#146=EDGE_CURVE('',#183,#185,#54,.T.);
#147=EDGE_CURVE('',#186,#187,#55,.T.);
#148=EDGE_CURVE('',#187,#184,#26,.T.);
#149=EDGE_CURVE('',#186,#182,#27,.T.);
#150=EDGE_CURVE('',#188,#185,#28,.T.);
#151=EDGE_CURVE('',#189,#188,#56,.T.);
#152=EDGE_CURVE('',#189,#183,#29,.T.);
#153=EDGE_CURVE('',#188,#187,#30,.T.);
#154=EDGE_CURVE('',#186,#190,#31,.T.);
#155=EDGE_CURVE('',#190,#191,#32,.T.);
#156=EDGE_CURVE('',#189,#191,#33,.T.);
#157=EDGE_CURVE('',#192,#192,#57,.T.);
#158=EDGE_CURVE('',#193,#193,#58,.T.);
#159=EDGE_CURVE('',#194,#194,#59,.T.);
#160=EDGE_CURVE('',#195,#195,#60,.T.);
#161=EDGE_CURVE('',#196,#196,#61,.T.);
#162=EDGE_CURVE('',#197,#197,#62,.T.);
#163=EDGE_CURVE('',#198,#198,#63,.T.);
#164=EDGE_CURVE('',#199,#199,#64,.T.);
#165=EDGE_CURVE('',#199,#199,#213,.T.);
#166=EDGE_CURVE('',#200,#200,#214,.T.);
#167=EDGE_CURVE('',#182,#201,#34,.T.);
#168=EDGE_CURVE('',#190,#201,#35,.T.);
#169=EDGE_CURVE('',#202,#202,#215,.T.);
#170=EDGE_CURVE('',#201,#203,#36,.T.);
#171=EDGE_CURVE('',#191,#203,#37,.T.);
#172=EDGE_CURVE('',#204,#204,#216,.T.);
#173=EDGE_CURVE('',#205,#205,#217,.T.);
#174=EDGE_CURVE('',#206,#206,#218,.T.);
#175=EDGE_CURVE('',#207,#207,#219,.T.);
#176=EDGE_CURVE('',#208,#208,#220,.T.);
#177=EDGE_CURVE('',#209,#209,#221,.T.);
#178=EDGE_CURVE('',#210,#210,#222,.T.);
#179=EDGE_CURVE('',#183,#203,#38,.T.);
#180=EDGE_CURVE('',#183,#182,#223,.T.);
#181=EDGE_CURVE('',#211,#211,#224,.F.);
#182=VERTEX_POINT('',#476);
#183=VERTEX_POINT('',#477);
#184=VERTEX_POINT('',#484);
#185=VERTEX_POINT('',#486);
#186=VERTEX_POINT('',#517);
#187=VERTEX_POINT('',#518);
#188=VERTEX_POINT('',#540);
#189=VERTEX_POINT('',#547);
#190=VERTEX_POINT('',#552);
#191=VERTEX_POINT('',#554);
#192=VERTEX_POINT('',#576);
#193=VERTEX_POINT('',#596);
#194=VERTEX_POINT('',#616);
#195=VERTEX_POINT('',#636);
#196=VERTEX_POINT('',#656);
#197=VERTEX_POINT('',#676);
#198=VERTEX_POINT('',#696);
#199=VERTEX_POINT('',#716);
#200=VERTEX_POINT('',#719);
#201=VERTEX_POINT('',#722);
#202=VERTEX_POINT('',#726);
#203=VERTEX_POINT('',#728);
#204=VERTEX_POINT('',#731);
#205=VERTEX_POINT('',#733);
#206=VERTEX_POINT('',#735);
#207=VERTEX_POINT('',#737);
#208=VERTEX_POINT('',#739);
#209=VERTEX_POINT('',#741);
#210=VERTEX_POINT('',#743);
#211=VERTEX_POINT('',#760);
#212=CIRCLE('',#362,0.006);
#213=CIRCLE('',#365,0.005);
#214=CIRCLE('',#366,0.005);
#215=CIRCLE('',#369,0.0035);
#216=CIRCLE('',#370,0.0035);
#217=CIRCLE('',#371,0.0035);
#218=CIRCLE('',#372,0.0035);
#219=CIRCLE('',#373,0.0035);
#220=CIRCLE('',#374,0.0035);
#221=CIRCLE('',#375,0.0035);
#222=CIRCLE('',#376,0.0035);
#223=CIRCLE('',#379,0.006);
#224=CIRCLE('',#391,0.006);
#225=EDGE_LOOP('',(#65,#66,#67,#68));
#226=EDGE_LOOP('',(#69,#70,#71,#72));
#227=EDGE_LOOP('',(#73,#74,#75,#76));
#228=EDGE_LOOP('',(#77,#78,#79,#80,#81,#82));
#229=EDGE_LOOP('',(#83));
#230=EDGE_LOOP('',(#84));
#231=EDGE_LOOP('',(#85));
#232=EDGE_LOOP('',(#86));
#233=EDGE_LOOP('',(#87));
#234=EDGE_LOOP('',(#88));
#235=EDGE_LOOP('',(#89));
#236=EDGE_LOOP('',(#90,#91));
#237=EDGE_LOOP('',(#92));
#238=EDGE_LOOP('',(#93,#94,#95,#96));
#239=EDGE_LOOP('',(#97));
#240=EDGE_LOOP('',(#98,#99,#100,#101));
#241=EDGE_LOOP('',(#102));
#242=EDGE_LOOP('',(#103));
#243=EDGE_LOOP('',(#104));
#244=EDGE_LOOP('',(#105));
#245=EDGE_LOOP('',(#106));
#246=EDGE_LOOP('',(#107));
#247=EDGE_LOOP('',(#108));
#248=EDGE_LOOP('',(#109,#110,#111,#112));
#249=EDGE_LOOP('',(#113,#114,#115,#116));
#250=EDGE_LOOP('',(#117));
#251=EDGE_LOOP('',(#118));
#252=EDGE_LOOP('',(#119));
#253=EDGE_LOOP('',(#120));
#254=EDGE_LOOP('',(#121));
#255=EDGE_LOOP('',(#122));
#256=EDGE_LOOP('',(#123));
#257=EDGE_LOOP('',(#124));
#258=EDGE_LOOP('',(#125));
#259=EDGE_LOOP('',(#126));
#260=EDGE_LOOP('',(#127));
#261=EDGE_LOOP('',(#128));
#262=EDGE_LOOP('',(#129));
#263=EDGE_LOOP('',(#130));
#264=EDGE_LOOP('',(#131));
#265=EDGE_LOOP('',(#132));
#266=EDGE_LOOP('',(#133));
#267=EDGE_LOOP('',(#134,#135,#136,#137));
#268=EDGE_LOOP('',(#138));
#269=EDGE_LOOP('',(#139,#140));
#270=EDGE_LOOP('',(#141));
#271=EDGE_LOOP('',(#142));
#272=FACE_BOUND('',#225,.T.);
#273=FACE_BOUND('',#226,.T.);
#274=FACE_BOUND('',#227,.T.);
#275=FACE_BOUND('',#228,.T.);
#276=FACE_BOUND('',#229,.T.);
#277=FACE_BOUND('',#230,.T.);
#278=FACE_BOUND('',#231,.T.);
#279=FACE_BOUND('',#232,.T.);
#280=FACE_BOUND('',#233,.T.);
#281=FACE_BOUND('',#234,.T.);
#282=FACE_BOUND('',#235,.T.);
#283=FACE_BOUND('',#236,.T.);
#284=FACE_BOUND('',#237,.T.);
#285=FACE_BOUND('',#238,.T.);
#286=FACE_BOUND('',#239,.T.);
#287=FACE_BOUND('',#240,.T.);
#288=FACE_BOUND('',#241,.T.);
#289=FACE_BOUND('',#242,.T.);
#290=FACE_BOUND('',#243,.T.);
#291=FACE_BOUND('',#244,.T.);
#292=FACE_BOUND('',#245,.T.);
#293=FACE_BOUND('',#246,.T.);
#294=FACE_BOUND('',#247,.T.);
#295=FACE_BOUND('',#248,.T.);
#296=FACE_BOUND('',#249,.T.);
#297=FACE_BOUND('',#250,.T.);
#298=FACE_BOUND('',#251,.T.);
#299=FACE_BOUND('',#252,.T.);
#300=FACE_BOUND('',#253,.T.);
#301=FACE_BOUND('',#254,.T.);
#302=FACE_BOUND('',#255,.T.);
#303=FACE_BOUND('',#256,.T.);
#304=FACE_BOUND('',#257,.T.);
#305=FACE_BOUND('',#258,.T.);
#306=FACE_BOUND('',#259,.T.);
#307=FACE_BOUND('',#260,.T.);
#308=FACE_BOUND('',#261,.T.);
#309=FACE_BOUND('',#262,.T.);
#310=FACE_BOUND('',#263,.T.);
#311=FACE_BOUND('',#264,.T.);
#312=FACE_BOUND('',#265,.T.);
#313=FACE_BOUND('',#266,.T.);
#314=FACE_BOUND('',#267,.T.);
#315=FACE_BOUND('',#268,.T.);
#316=FACE_BOUND('',#269,.T.);
#317=FACE_BOUND('',#270,.T.);
#318=FACE_BOUND('',#271,.T.);
#319=PLANE('',#361);
#320=PLANE('',#363);
#321=PLANE('',#367);
#322=PLANE('',#368);
#323=PLANE('',#377);
#324=PLANE('',#378);
#325=PLANE('',#388);
#326=PLANE('',#389);
#327=ADVANCED_FACE('',(#272),#319,.F.);
#328=ADVANCED_FACE('',(#273),#23,.T.);
#329=ADVANCED_FACE('',(#274),#24,.F.);
#330=ADVANCED_FACE('',(#275),#320,.T.);
#331=ADVANCED_FACE('',(#276,#277,#278,#279,#280,#281,#282,#283,#284),#13,
 .F.);
#332=ADVANCED_FACE('',(#285),#321,.F.);
#333=ADVANCED_FACE('',(#286,#287,#288,#289,#290,#291,#292,#293,#294),#322,
 .F.);
#334=ADVANCED_FACE('',(#295),#323,.T.);
#335=ADVANCED_FACE('',(#296),#324,.F.);
#336=ADVANCED_FACE('',(#297,#298),#14,.F.);
#337=ADVANCED_FACE('',(#299,#300),#15,.F.);
#338=ADVANCED_FACE('',(#301,#302),#16,.F.);
#339=ADVANCED_FACE('',(#303,#304),#17,.F.);
#340=ADVANCED_FACE('',(#305,#306),#18,.F.);
#341=ADVANCED_FACE('',(#307,#308),#19,.F.);
#342=ADVANCED_FACE('',(#309,#310),#20,.F.);
#343=ADVANCED_FACE('',(#311,#312),#21,.F.);
#344=ADVANCED_FACE('',(#313),#325,.F.);
#345=ADVANCED_FACE('',(#314),#326,.T.);
#346=ADVANCED_FACE('',(#315,#316),#22,.T.);
#347=ADVANCED_FACE('',(#317,#318),#12,.T.);
#348=CLOSED_SHELL('',(#327,#328,#329,#330,#331,#332,#333,#334,#335,#336,
#337,#338,#339,#340,#341,#342,#343,#344,#345,#346,#347));
#349=STYLED_ITEM('',(#350),#357);
#350=PRESENTATION_STYLE_ASSIGNMENT((#351));
#351=SURFACE_STYLE_USAGE(.BOTH.,#352);
#352=SURFACE_SIDE_STYLE('',(#353));
#353=SURFACE_STYLE_FILL_AREA(#354);
#354=FILL_AREA_STYLE('',(#355));
#355=FILL_AREA_STYLE_COLOUR('',#356);
#356=COLOUR_RGB('',0.615686274509804,0.811764705882353,0.929411764705882);
#357=MANIFOLD_SOLID_BREP('Diffuseur',#348);
#358=SHAPE_DEFINITION_REPRESENTATION(#768,#359);
#359=SHAPE_REPRESENTATION('Diffuseur',(#360),#763);
#360=AXIS2_PLACEMENT_3D('',#473,#393,#394);
#361=AXIS2_PLACEMENT_3D('',#474,#395,#396);
#362=AXIS2_PLACEMENT_3D('',#475,#397,#398);
#363=AXIS2_PLACEMENT_3D('',#549,#404,#405);
#364=AXIS2_PLACEMENT_3D('',#556,#410,#411);
#365=AXIS2_PLACEMENT_3D('',#717,#412,#413);
#366=AXIS2_PLACEMENT_3D('',#718,#414,#415);
#367=AXIS2_PLACEMENT_3D('',#720,#416,#417);
#368=AXIS2_PLACEMENT_3D('',#724,#420,#421);
#369=AXIS2_PLACEMENT_3D('',#725,#422,#423);
#370=AXIS2_PLACEMENT_3D('',#730,#426,#427);
#371=AXIS2_PLACEMENT_3D('',#732,#428,#429);
#372=AXIS2_PLACEMENT_3D('',#734,#430,#431);
#373=AXIS2_PLACEMENT_3D('',#736,#432,#433);
#374=AXIS2_PLACEMENT_3D('',#738,#434,#435);
#375=AXIS2_PLACEMENT_3D('',#740,#436,#437);
#376=AXIS2_PLACEMENT_3D('',#742,#438,#439);
#377=AXIS2_PLACEMENT_3D('',#744,#440,#441);
#378=AXIS2_PLACEMENT_3D('',#746,#443,#444);
#379=AXIS2_PLACEMENT_3D('',#747,#445,#446);
#380=AXIS2_PLACEMENT_3D('',#748,#447,#448);
#381=AXIS2_PLACEMENT_3D('',#749,#449,#450);
#382=AXIS2_PLACEMENT_3D('',#750,#451,#452);
#383=AXIS2_PLACEMENT_3D('',#751,#453,#454);
#384=AXIS2_PLACEMENT_3D('',#752,#455,#456);
#385=AXIS2_PLACEMENT_3D('',#753,#457,#458);
#386=AXIS2_PLACEMENT_3D('',#754,#459,#460);
#387=AXIS2_PLACEMENT_3D('',#755,#461,#462);
#388=AXIS2_PLACEMENT_3D('',#756,#463,#464);
#389=AXIS2_PLACEMENT_3D('',#757,#465,#466);
#390=AXIS2_PLACEMENT_3D('',#758,#467,#468);
#391=AXIS2_PLACEMENT_3D('',#759,#469,#470);
#392=AXIS2_PLACEMENT_3D('',#761,#471,#472);
#393=DIRECTION('',(0.,0.,1.));
#394=DIRECTION('',(1.,0.,0.));
#395=DIRECTION('',(0.,0.,1.));
#396=DIRECTION('',(1.,0.,0.));
#397=DIRECTION('',(0.,0.,-1.));
#398=DIRECTION('',(-1.,0.,0.));
#399=DIRECTION('',(0.,-1.,0.));
#400=DIRECTION('',(0.,0.,-1.));
#401=DIRECTION('',(0.,0.,-1.));
#402=DIRECTION('',(0.,0.,-1.));
#403=DIRECTION('',(0.,0.,-1.));
#404=DIRECTION('',(0.,0.,1.));
#405=DIRECTION('',(1.,0.,0.));
#406=DIRECTION('',(0.,1.,0.));
#407=DIRECTION('',(-1.,-7.80625564189563E-16,0.));
#408=DIRECTION('',(2.89120579329468E-16,-1.,0.));
#409=DIRECTION('',(-1.,-8.67361737988404E-17,0.));
#410=DIRECTION('',(0.,0.,-1.));
#411=DIRECTION('',(-1.,0.,0.));
#412=DIRECTION('',(0.,0.,1.));
#413=DIRECTION('',(1.,0.,0.));
#414=DIRECTION('',(0.,0.,1.));
#415=DIRECTION('',(1.,0.,0.));
#416=DIRECTION('',(7.80625564189563E-16,-1.,0.));
#417=DIRECTION('',(1.,7.80625564189563E-16,0.));
#418=DIRECTION('',(-1.,-7.80625564189563E-16,0.));
#419=DIRECTION('',(0.,0.,-1.));
#420=DIRECTION('',(1.,2.89120579329468E-16,0.));
#421=DIRECTION('',(-2.89120579329468E-16,1.,0.));
#422=DIRECTION('',(1.,2.89120579329468E-16,0.));
#423=DIRECTION('',(-2.89120579329468E-16,1.,0.));
#424=DIRECTION('',(2.89120579329468E-16,-1.,0.));
#425=DIRECTION('',(0.,0.,-1.));
#426=DIRECTION('',(1.,2.89120579329468E-16,0.));
#427=DIRECTION('',(-2.89120579329468E-16,1.,0.));
#428=DIRECTION('',(1.,2.89120579329468E-16,0.));
#429=DIRECTION('',(-2.89120579329468E-16,1.,0.));
#430=DIRECTION('',(1.,2.89120579329468E-16,0.));
#431=DIRECTION('',(-2.89120579329468E-16,1.,0.));
#432=DIRECTION('',(1.,2.89120579329468E-16,0.));
#433=DIRECTION('',(-2.89120579329468E-16,1.,0.));
#434=DIRECTION('',(1.,2.89120579329468E-16,0.));
#435=DIRECTION('',(-2.89120579329468E-16,1.,0.));
#436=DIRECTION('',(1.,2.89120579329468E-16,0.));
#437=DIRECTION('',(-2.89120579329468E-16,1.,0.));
#438=DIRECTION('',(1.,2.89120579329468E-16,0.));
#439=DIRECTION('',(-2.89120579329468E-16,1.,0.));
#440=DIRECTION('',(8.67361737988404E-17,-1.,0.));
#441=DIRECTION('',(1.,8.67361737988404E-17,0.));
#442=DIRECTION('',(-1.,-8.67361737988404E-17,0.));
#443=DIRECTION('',(0.,0.,1.));
#444=DIRECTION('',(1.,0.,0.));
#445=DIRECTION('',(0.,0.,-1.));
#446=DIRECTION('',(-1.,0.,0.));
#447=DIRECTION('',(1.,0.,0.));
#448=DIRECTION('',(0.,0.,-1.));
#449=DIRECTION('',(1.,0.,0.));
#450=DIRECTION('',(0.,0.,-1.));
#451=DIRECTION('',(1.,0.,0.));
#452=DIRECTION('',(0.,0.,-1.));
#453=DIRECTION('',(1.,0.,0.));
#454=DIRECTION('',(0.,0.,-1.));
#455=DIRECTION('',(1.,0.,0.));
#456=DIRECTION('',(0.,0.,-1.));
#457=DIRECTION('',(1.,0.,0.));
#458=DIRECTION('',(0.,0.,-1.));
#459=DIRECTION('',(1.,0.,0.));
#460=DIRECTION('',(0.,0.,-1.));
#461=DIRECTION('',(1.,0.,0.));
#462=DIRECTION('',(0.,0.,-1.));
#463=DIRECTION('',(0.,0.,1.));
#464=DIRECTION('',(1.,0.,0.));
#465=DIRECTION('',(1.,0.,0.));
#466=DIRECTION('',(0.,0.,-1.));
#467=DIRECTION('',(0.,0.,1.));
#468=DIRECTION('',(1.,0.,0.));
#469=DIRECTION('',(0.,0.,-1.));
#470=DIRECTION('',(-1.,0.,0.));
#471=DIRECTION('',(0.,0.,1.));
#472=DIRECTION('',(1.,0.,0.));
#473=CARTESIAN_POINT('',(0.,0.,0.));
#474=CARTESIAN_POINT('',(0.,1.7347234759768E-18,0.));
#475=CARTESIAN_POINT('',(0.,-3.67394039744206E-19,0.));
#476=CARTESIAN_POINT('',(-4.68375338513738E-18,0.006,0.));
#477=CARTESIAN_POINT('',(2.16840434497101E-18,-0.006,0.));
#478=CARTESIAN_POINT('',(-1.50553605247105E-18,0.006,0.));
#479=CARTESIAN_POINT('',(0.003067837261809,0.00623714644406937,0.));
#480=CARTESIAN_POINT('',(0.00722325743106125,0.00346643540610076,0.));
#481=CARTESIAN_POINT('',(0.0103808982496845,0.00112491801082166,0.));
#482=CARTESIAN_POINT('',(0.0125195681316146,4.06698487947767E-6,0.));
#483=CARTESIAN_POINT('',(0.0144220552298156,-2.12495931156049E-12,0.));
#484=CARTESIAN_POINT('',(0.0136981217824143,3.12157952212986E-5,0.));
#485=CARTESIAN_POINT('',(0.0136981217824143,3.60959938154604E-12,0.));
#486=CARTESIAN_POINT('',(0.0136981217824143,-3.12157952212981E-5,0.));
#487=CARTESIAN_POINT('',(2.16840434497101E-18,-0.006,0.));
#488=CARTESIAN_POINT('',(0.003067837261809,-0.00623714644406936,0.));
#489=CARTESIAN_POINT('',(0.00722325743106124,-0.00346643540610076,0.));
#490=CARTESIAN_POINT('',(0.0103808983656818,-0.00112491792480502,0.));
#491=CARTESIAN_POINT('',(0.0125195683983051,-4.06684511022033E-6,0.));
#492=CARTESIAN_POINT('',(0.0144220559243223,3.60959933745731E-12,0.));
#493=CARTESIAN_POINT('',(-1.50553605247105E-18,0.006,0.082));
#494=CARTESIAN_POINT('',(-1.50553605247105E-18,0.006,0.));
#495=CARTESIAN_POINT('',(0.00179130473442624,0.00613846938796334,0.082));
#496=CARTESIAN_POINT('',(0.00179130473442624,0.00613846938796334,0.));
#497=CARTESIAN_POINT('',(0.00415839331178071,0.00539425898727061,0.082));
#498=CARTESIAN_POINT('',(0.00415839331178071,0.00539425898727061,1.38777878078145E-17));
#499=CARTESIAN_POINT('',(0.00665215417607153,0.00382928497094542,0.082));
#500=CARTESIAN_POINT('',(0.00665215417607153,0.00382928497094542,-1.38777878078145E-17));
#501=CARTESIAN_POINT('',(0.00816512596179914,0.00274519587494835,0.0820000000000001));
#502=CARTESIAN_POINT('',(0.00816512596179914,0.00274519587494835,5.55111512312578E-17));
#503=CARTESIAN_POINT('',(0.00942013343433865,0.00185977631045304,0.082));
#504=CARTESIAN_POINT('',(0.00942013343433865,0.00185977631045304,-2.77555756156289E-17));
#505=CARTESIAN_POINT('',(0.010996144386576,0.000806507750846686,0.082));
#506=CARTESIAN_POINT('',(0.010996144386576,0.000806507750846686,1.38777878078145E-17));
#507=CARTESIAN_POINT('',(0.0123479495266362,0.000148840204631443,0.082));
#508=CARTESIAN_POINT('',(0.0123479495266362,0.000148840204631443,0.));
#509=CARTESIAN_POINT('',(0.0136981217753331,3.12157953190606E-5,0.082));
#510=CARTESIAN_POINT('',(0.0136981217753331,3.12157953190606E-5,0.));
#511=CARTESIAN_POINT('',(-1.50553605247105E-18,0.006,0.082));
#512=CARTESIAN_POINT('',(0.003067837261809,0.00623714644406937,0.082));
#513=CARTESIAN_POINT('',(0.00722325743106125,0.00346643540610076,0.082));
#514=CARTESIAN_POINT('',(0.0103808982496845,0.00112491801082166,0.082));
#515=CARTESIAN_POINT('',(0.0125195681316146,4.06698487947767E-6,0.082));
#516=CARTESIAN_POINT('',(0.0144220552298156,-2.12495931156049E-12,0.082));
#517=CARTESIAN_POINT('',(-1.50553605247105E-18,0.006,0.082));
#518=CARTESIAN_POINT('',(0.0136981217764553,3.12157952212986E-5,0.082));
#519=CARTESIAN_POINT('',(0.0136981217824143,3.12157947021608E-5,0.082));
#520=CARTESIAN_POINT('',(-1.50553605247105E-18,0.006,0.082));
#521=CARTESIAN_POINT('',(2.16840434497101E-18,-0.006,0.082));
#522=CARTESIAN_POINT('',(2.16840434497101E-18,-0.006,0.));
#523=CARTESIAN_POINT('',(0.00179130473508011,-0.00613846938801388,0.082));
#524=CARTESIAN_POINT('',(0.00179130473508011,-0.00613846938801388,-1.38777878078145E-17));
#525=CARTESIAN_POINT('',(0.00415839331318015,-0.0053942589867043,0.082));
#526=CARTESIAN_POINT('',(0.00415839331318015,-0.0053942589867043,2.77555756156289E-17));
#527=CARTESIAN_POINT('',(0.00665215417797674,-0.00382928496962235,0.082));
#528=CARTESIAN_POINT('',(0.00665215417797674,-0.00382928496962235,-2.77555756156289E-17));
#529=CARTESIAN_POINT('',(0.00816512596379711,-0.0027451958735156,0.082));
#530=CARTESIAN_POINT('',(0.00816512596379711,-0.0027451958735156,2.77555756156289E-17));
#531=CARTESIAN_POINT('',(0.00942013343653102,-0.00185977630894564,0.082));
#532=CARTESIAN_POINT('',(0.00942013343653102,-0.00185977630894564,2.77555756156289E-17));
#533=CARTESIAN_POINT('',(0.0109961443893095,-0.000806507749070848,0.082));
#534=CARTESIAN_POINT('',(0.0109961443893095,-0.000806507749070848,-4.16333634234434E-17));
#535=CARTESIAN_POINT('',(0.0123479495307518,-0.000148840203232071,0.082));
#536=CARTESIAN_POINT('',(0.0123479495307518,-0.000148840203232071,1.38777878078145E-17));
#537=CARTESIAN_POINT('',(0.0136981217812473,-3.12157948038308E-5,0.082));
#538=CARTESIAN_POINT('',(0.0136981217812473,-3.12157948038308E-5,0.));
#539=CARTESIAN_POINT('',(0.0136981217824143,-3.12157947021572E-5,0.082));
#540=CARTESIAN_POINT('',(0.0136981217824143,-3.12157952212981E-5,0.082));
#541=CARTESIAN_POINT('',(2.16840434497101E-18,-0.006,0.082));
#542=CARTESIAN_POINT('',(0.003067837261809,-0.00623714644406936,0.082));
#543=CARTESIAN_POINT('',(0.00722325743106124,-0.00346643540610076,0.082));
#544=CARTESIAN_POINT('',(0.0103808983656818,-0.00112491792480502,0.082));
#545=CARTESIAN_POINT('',(0.0125195683983051,-4.06684511022033E-6,0.082));
#546=CARTESIAN_POINT('',(0.0144220559243223,3.60959933745731E-12,0.082));
#547=CARTESIAN_POINT('',(2.16840434497101E-18,-0.006,0.082));
#548=CARTESIAN_POINT('',(2.16840434497101E-18,-0.006,0.082));
#549=CARTESIAN_POINT('',(0.,1.7347234759768E-18,0.082));
#550=CARTESIAN_POINT('',(0.0136981217824143,1.7347234759768E-18,0.082));
#551=CARTESIAN_POINT('',(-0.005,0.006,0.082));
#552=CARTESIAN_POINT('',(-0.01,0.006,0.082));
#553=CARTESIAN_POINT('',(-0.01,-4.33680868994202E-18,0.082));
#554=CARTESIAN_POINT('',(-0.01,-0.006,0.082));
#555=CARTESIAN_POINT('',(-0.005,-0.006,0.082));
#556=CARTESIAN_POINT('',(0.,3.06161699786838E-19,0.082));
#557=CARTESIAN_POINT('',(-0.00485499175526975,0.0014266482068324,0.0702973680704221));
#558=CARTESIAN_POINT('',(-0.00507230589330849,-6.22153109279306E-7,0.0706009834133292));
#559=CARTESIAN_POINT('',(-0.00485578467149632,-0.00142415959439528,0.0702986982762612));
#560=CARTESIAN_POINT('',(-0.00435010542629906,-0.00254496276614187,0.0695191336580974));
#561=CARTESIAN_POINT('',(-0.00378312015155565,-0.003294092373144,0.0684249875641912));
#562=CARTESIAN_POINT('',(-0.00346562787378807,-0.00360169748587065,0.0670040858808883));
#563=CARTESIAN_POINT('',(-0.00377867139925347,-0.00329909956419438,0.0655862552347867));
#564=CARTESIAN_POINT('',(-0.00434754197269753,-0.00254908608732363,0.0644847095402215));
#565=CARTESIAN_POINT('',(-0.00485306690855376,-0.00143306565014138,0.0637053567733879));
#566=CARTESIAN_POINT('',(-0.00507228667842212,-7.81434544480816E-6,0.0633990512083744));
#567=CARTESIAN_POINT('',(-0.00485775251057594,0.00141924499112319,0.0636984867748311));
#568=CARTESIAN_POINT('',(-0.00435000988272002,0.00254586317259639,0.0644805094613646));
#569=CARTESIAN_POINT('',(-0.0037808340759767,0.00329662948170741,0.0655804872358054));
#570=CARTESIAN_POINT('',(-0.00346561036220132,0.0036016374288307,0.0670002415796144));
#571=CARTESIAN_POINT('',(-0.00378100983630699,0.00329682072598558,0.0684203445940023));
#572=CARTESIAN_POINT('',(-0.00435148857823782,0.00254250936494719,0.0695217833528883));
#573=CARTESIAN_POINT('',(-0.00485499175526975,0.0014266482068324,0.0702973680704221));
#574=CARTESIAN_POINT('',(-0.00507230589330849,-6.22153109279306E-7,0.0706009834133292));
#575=CARTESIAN_POINT('',(-0.00485578467149632,-0.00142415959439528,0.0702986982762612));
#576=CARTESIAN_POINT('',(-0.005,-1.48036673654881E-18,0.0705));
#577=CARTESIAN_POINT('',(-0.00485499175526976,0.00142664820683237,0.0602973680704221));
#578=CARTESIAN_POINT('',(-0.00507230589330848,-6.22153109269439E-7,0.0606009834133292));
#579=CARTESIAN_POINT('',(-0.00485578467149632,-0.00142415959439529,0.0602986982762612));
#580=CARTESIAN_POINT('',(-0.00435010542629906,-0.00254496276614188,0.0595191336580974));
#581=CARTESIAN_POINT('',(-0.00378312015155564,-0.00329409237314402,0.0584249875641913));
#582=CARTESIAN_POINT('',(-0.00346562787378807,-0.00360169748587065,0.0570040858808883));
#583=CARTESIAN_POINT('',(-0.00377867139925347,-0.00329909956419438,0.0555862552347868));
#584=CARTESIAN_POINT('',(-0.00434754197269754,-0.00254908608732362,0.0544847095402215));
#585=CARTESIAN_POINT('',(-0.00485306690855376,-0.00143306565014137,0.0537053567733879));
#586=CARTESIAN_POINT('',(-0.00507228667842212,-7.81434544480654E-6,0.0533990512083744));
#587=CARTESIAN_POINT('',(-0.00485775251057593,0.0014192449911232,0.0536984867748311));
#588=CARTESIAN_POINT('',(-0.00435000988272002,0.00254586317259638,0.0544805094613646));
#589=CARTESIAN_POINT('',(-0.0037808340759767,0.00329662948170741,0.0555804872358054));
#590=CARTESIAN_POINT('',(-0.00346561036220132,0.00360163742883071,0.0570002415796145));
#591=CARTESIAN_POINT('',(-0.003781009836307,0.00329682072598557,0.0584203445940023));
#592=CARTESIAN_POINT('',(-0.00435148857823782,0.0025425093649472,0.0595217833528883));
#593=CARTESIAN_POINT('',(-0.00485499175526976,0.00142664820683237,0.0602973680704221));
#594=CARTESIAN_POINT('',(-0.00507230589330848,-6.22153109269439E-7,0.0606009834133292));
#595=CARTESIAN_POINT('',(-0.00485578467149632,-0.00142415959439529,0.0602986982762612));
#596=CARTESIAN_POINT('',(-0.005,1.23057354286674E-18,0.0605));
#597=CARTESIAN_POINT('',(-0.00485499175526976,0.00142664820683237,0.0502973680704221));
#598=CARTESIAN_POINT('',(-0.00507230589330848,-6.22153109269006E-7,0.0506009834133292));
#599=CARTESIAN_POINT('',(-0.00485578467149632,-0.00142415959439529,0.0502986982762612));
#600=CARTESIAN_POINT('',(-0.00435010542629906,-0.00254496276614188,0.0495191336580974));
#601=CARTESIAN_POINT('',(-0.00378312015155564,-0.00329409237314401,0.0484249875641912));
#602=CARTESIAN_POINT('',(-0.00346562787378807,-0.00360169748587064,0.0470040858808882));
#603=CARTESIAN_POINT('',(-0.00377867139925347,-0.00329909956419438,0.0455862552347868));
#604=CARTESIAN_POINT('',(-0.00434754197269754,-0.00254908608732361,0.0444847095402215));
#605=CARTESIAN_POINT('',(-0.00485306690855376,-0.00143306565014137,0.0437053567733879));
#606=CARTESIAN_POINT('',(-0.00507228667842212,-7.81434544479504E-6,0.0433990512083744));
#607=CARTESIAN_POINT('',(-0.00485775251057594,0.0014192449911232,0.0436984867748311));
#608=CARTESIAN_POINT('',(-0.00435000988272002,0.00254586317259639,0.0444805094613646));
#609=CARTESIAN_POINT('',(-0.0037808340759767,0.00329662948170741,0.0455804872358054));
#610=CARTESIAN_POINT('',(-0.00346561036220132,0.00360163742883071,0.0470002415796144));
#611=CARTESIAN_POINT('',(-0.003781009836307,0.00329682072598557,0.0484203445940023));
#612=CARTESIAN_POINT('',(-0.00435148857823782,0.0025425093649472,0.0495217833528883));
#613=CARTESIAN_POINT('',(-0.00485499175526976,0.00142664820683237,0.0502973680704221));
#614=CARTESIAN_POINT('',(-0.00507230589330848,-6.22153109269006E-7,0.0506009834133292));
#615=CARTESIAN_POINT('',(-0.00485578467149632,-0.00142415959439529,0.0502986982762612));
#616=CARTESIAN_POINT('',(-0.005,1.23057354286674E-18,0.0505));
#617=CARTESIAN_POINT('',(-0.00485499175526975,0.00142664820683241,0.0402973680704221));
#618=CARTESIAN_POINT('',(-0.00507230589330848,-6.22153109279658E-7,0.0406009834133292));
#619=CARTESIAN_POINT('',(-0.00485578467149631,-0.00142415959439529,0.0402986982762612));
#620=CARTESIAN_POINT('',(-0.00435010542629906,-0.00254496276614187,0.0395191336580974));
#621=CARTESIAN_POINT('',(-0.00378312015155564,-0.00329409237314401,0.0384249875641913));
#622=CARTESIAN_POINT('',(-0.00346562787378807,-0.00360169748587064,0.0370040858808883));
#623=CARTESIAN_POINT('',(-0.00377867139925347,-0.00329909956419438,0.0355862552347868));
#624=CARTESIAN_POINT('',(-0.00434754197269754,-0.00254908608732361,0.0344847095402215));
#625=CARTESIAN_POINT('',(-0.00485306690855376,-0.00143306565014137,0.0337053567733879));
#626=CARTESIAN_POINT('',(-0.00507228667842212,-7.81434544479099E-6,0.0333990512083744));
#627=CARTESIAN_POINT('',(-0.00485775251057593,0.0014192449911232,0.0336984867748311));
#628=CARTESIAN_POINT('',(-0.00435000988272001,0.0025458631725964,0.0344805094613646));
#629=CARTESIAN_POINT('',(-0.0037808340759767,0.00329662948170741,0.0355804872358054));
#630=CARTESIAN_POINT('',(-0.00346561036220132,0.0036016374288307,0.0370002415796144));
#631=CARTESIAN_POINT('',(-0.00378100983630699,0.00329682072598558,0.0384203445940023));
#632=CARTESIAN_POINT('',(-0.00435148857823782,0.00254250936494719,0.0395217833528883));
#633=CARTESIAN_POINT('',(-0.00485499175526975,0.00142664820683241,0.0402973680704221));
#634=CARTESIAN_POINT('',(-0.00507230589330848,-6.22153109279658E-7,0.0406009834133292));
#635=CARTESIAN_POINT('',(-0.00485578467149631,-0.00142415959439529,0.0402986982762612));
#636=CARTESIAN_POINT('',(-0.005,1.23057354286674E-18,0.0405));
#637=CARTESIAN_POINT('',(-0.00485499175526975,0.0014266482068324,0.0302973680704221));
#638=CARTESIAN_POINT('',(-0.00507230589330848,-6.22153109275863E-7,0.0306009834133292));
#639=CARTESIAN_POINT('',(-0.00485578467149631,-0.00142415959439529,0.0302986982762612));
#640=CARTESIAN_POINT('',(-0.00435010542629906,-0.00254496276614187,0.0295191336580974));
#641=CARTESIAN_POINT('',(-0.00378312015155564,-0.00329409237314401,0.0284249875641913));
#642=CARTESIAN_POINT('',(-0.00346562787378807,-0.00360169748587064,0.0270040858808882));
#643=CARTESIAN_POINT('',(-0.00377867139925347,-0.00329909956419438,0.0255862552347868));
#644=CARTESIAN_POINT('',(-0.00434754197269755,-0.00254908608732361,0.0244847095402215));
#645=CARTESIAN_POINT('',(-0.00485306690855376,-0.00143306565014136,0.0237053567733879));
#646=CARTESIAN_POINT('',(-0.00507228667842212,-7.81434544478768E-6,0.0233990512083744));
#647=CARTESIAN_POINT('',(-0.00485775251057593,0.0014192449911232,0.0236984867748311));
#648=CARTESIAN_POINT('',(-0.00435000988272002,0.0025458631725964,0.0244805094613646));
#649=CARTESIAN_POINT('',(-0.0037808340759767,0.00329662948170741,0.0255804872358054));
#650=CARTESIAN_POINT('',(-0.00346561036220132,0.0036016374288307,0.0270002415796144));
#651=CARTESIAN_POINT('',(-0.003781009836307,0.00329682072598557,0.0284203445940023));
#652=CARTESIAN_POINT('',(-0.00435148857823782,0.00254250936494718,0.0295217833528883));
#653=CARTESIAN_POINT('',(-0.00485499175526975,0.0014266482068324,0.0302973680704221));
#654=CARTESIAN_POINT('',(-0.00507230589330848,-6.22153109275863E-7,0.0306009834133292));
#655=CARTESIAN_POINT('',(-0.00485578467149631,-0.00142415959439529,0.0302986982762612));
#656=CARTESIAN_POINT('',(-0.005,5.52059048348184E-21,0.0305));
#657=CARTESIAN_POINT('',(-0.00485499175526975,0.0014266482068324,0.0202973680704221));
#658=CARTESIAN_POINT('',(-0.00507230589330848,-6.22153109276703E-7,0.0206009834133292));
#659=CARTESIAN_POINT('',(-0.00485578467149631,-0.00142415959439529,0.0202986982762612));
#660=CARTESIAN_POINT('',(-0.00435010542629906,-0.00254496276614187,0.0195191336580974));
#661=CARTESIAN_POINT('',(-0.00378312015155564,-0.00329409237314401,0.0184249875641913));
#662=CARTESIAN_POINT('',(-0.00346562787378807,-0.00360169748587065,0.0170040858808883));
#663=CARTESIAN_POINT('',(-0.00377867139925347,-0.00329909956419438,0.0155862552347868));
#664=CARTESIAN_POINT('',(-0.00434754197269754,-0.00254908608732362,0.0144847095402215));
#665=CARTESIAN_POINT('',(-0.00485306690855376,-0.00143306565014136,0.0137053567733879));
#666=CARTESIAN_POINT('',(-0.00507228667842212,-7.81434544479979E-6,0.0133990512083744));
#667=CARTESIAN_POINT('',(-0.00485775251057593,0.00141924499112321,0.0136984867748311));
#668=CARTESIAN_POINT('',(-0.00435000988272001,0.0025458631725964,0.0144805094613646));
#669=CARTESIAN_POINT('',(-0.0037808340759767,0.00329662948170741,0.0155804872358054));
#670=CARTESIAN_POINT('',(-0.00346561036220132,0.0036016374288307,0.0170002415796144));
#671=CARTESIAN_POINT('',(-0.003781009836307,0.00329682072598557,0.0184203445940023));
#672=CARTESIAN_POINT('',(-0.00435148857823782,0.00254250936494718,0.0195217833528883));
#673=CARTESIAN_POINT('',(-0.00485499175526975,0.0014266482068324,0.0202973680704221));
#674=CARTESIAN_POINT('',(-0.00507230589330848,-6.22153109276703E-7,0.0206009834133292));
#675=CARTESIAN_POINT('',(-0.00485578467149631,-0.00142415959439529,0.0202986982762612));
#676=CARTESIAN_POINT('',(-0.005,-5.02777566156835E-20,0.0205));
#677=CARTESIAN_POINT('',(-0.00485499175526975,0.0014266482068324,0.0102973680704221));
#678=CARTESIAN_POINT('',(-0.00507230589330848,-6.22153109279631E-7,0.0106009834133292));
#679=CARTESIAN_POINT('',(-0.00485578467149631,-0.00142415959439529,0.0102986982762612));
#680=CARTESIAN_POINT('',(-0.00435010542629906,-0.00254496276614187,0.00951913365809738));
#681=CARTESIAN_POINT('',(-0.00378312015155564,-0.00329409237314401,0.00842498756419126));
#682=CARTESIAN_POINT('',(-0.00346562787378807,-0.00360169748587064,0.00700408588088825));
#683=CARTESIAN_POINT('',(-0.00377867139925347,-0.00329909956419438,0.00558625523478676));
#684=CARTESIAN_POINT('',(-0.00434754197269754,-0.00254908608732361,0.00448470954022149));
#685=CARTESIAN_POINT('',(-0.00485306690855376,-0.00143306565014137,0.00370535677338789));
#686=CARTESIAN_POINT('',(-0.00507228667842212,-7.81434544478737E-6,0.00339905120837444));
#687=CARTESIAN_POINT('',(-0.00485775251057593,0.00141924499112321,0.00369848677483109));
#688=CARTESIAN_POINT('',(-0.00435000988272002,0.0025458631725964,0.00448050946136457));
#689=CARTESIAN_POINT('',(-0.0037808340759767,0.00329662948170741,0.0055804872358054));
#690=CARTESIAN_POINT('',(-0.00346561036220132,0.0036016374288307,0.00700024157961446));
#691=CARTESIAN_POINT('',(-0.003781009836307,0.00329682072598557,0.00842034459400227));
#692=CARTESIAN_POINT('',(-0.00435148857823782,0.00254250936494718,0.00952178335288826));
#693=CARTESIAN_POINT('',(-0.00485499175526975,0.0014266482068324,0.0102973680704221));
#694=CARTESIAN_POINT('',(-0.00507230589330848,-6.22153109279631E-7,0.0106009834133292));
#695=CARTESIAN_POINT('',(-0.00485578467149631,-0.00142415959439529,0.0102986982762612));
#696=CARTESIAN_POINT('',(-0.005,2.29732704149525E-18,0.0105));
#697=CARTESIAN_POINT('',(-0.00485499175526976,0.00142664820683238,0.0802973680704221));
#698=CARTESIAN_POINT('',(-0.00507230589330848,-6.22153109273776E-7,0.0806009834133292));
#699=CARTESIAN_POINT('',(-0.00485578467149632,-0.00142415959439528,0.0802986982762612));
#700=CARTESIAN_POINT('',(-0.00435010542629906,-0.00254496276614188,0.0795191336580974));
#701=CARTESIAN_POINT('',(-0.00378312015155563,-0.00329409237314402,0.0784249875641912));
#702=CARTESIAN_POINT('',(-0.00346562787378807,-0.00360169748587064,0.0770040858808882));
#703=CARTESIAN_POINT('',(-0.00377867139925348,-0.00329909956419437,0.0755862552347867));
#704=CARTESIAN_POINT('',(-0.00434754197269754,-0.00254908608732362,0.0744847095402215));
#705=CARTESIAN_POINT('',(-0.00485306690855376,-0.00143306565014136,0.0737053567733879));
#706=CARTESIAN_POINT('',(-0.00507228667842212,-7.8143454447892E-6,0.0733990512083744));
#707=CARTESIAN_POINT('',(-0.00485775251057593,0.0014192449911232,0.0736984867748311));
#708=CARTESIAN_POINT('',(-0.00435000988272002,0.0025458631725964,0.0744805094613646));
#709=CARTESIAN_POINT('',(-0.0037808340759767,0.00329662948170741,0.0755804872358054));
#710=CARTESIAN_POINT('',(-0.00346561036220132,0.00360163742883071,0.0770002415796145));
#711=CARTESIAN_POINT('',(-0.003781009836307,0.00329682072598557,0.0784203445940023));
#712=CARTESIAN_POINT('',(-0.00435148857823783,0.00254250936494718,0.0795217833528883));
#713=CARTESIAN_POINT('',(-0.00485499175526976,0.00142664820683238,0.0802973680704221));
#714=CARTESIAN_POINT('',(-0.00507230589330848,-6.22153109273776E-7,0.0806009834133292));
#715=CARTESIAN_POINT('',(-0.00485578467149632,-0.00142415959439528,0.0802986982762612));
#716=CARTESIAN_POINT('',(-0.005,3.06161699786838E-19,0.0805));
#717=CARTESIAN_POINT('',(0.,3.06161699786838E-19,0.0805));
#718=CARTESIAN_POINT('',(0.,3.06161699786838E-19,-0.015));
#719=CARTESIAN_POINT('',(0.005,3.06161699786838E-19,-0.015));
#720=CARTESIAN_POINT('',(-0.005,0.006,0.082));
#721=CARTESIAN_POINT('',(-0.005,0.006,0.));
#722=CARTESIAN_POINT('',(-0.01,0.006,0.));
#723=CARTESIAN_POINT('',(-0.01,0.006,0.082));
#724=CARTESIAN_POINT('',(-0.01,-4.33680868994202E-18,0.082));
#725=CARTESIAN_POINT('',(-0.01,4.33680868994202E-19,0.077));
#726=CARTESIAN_POINT('',(-0.01,0.0035,0.077));
#727=CARTESIAN_POINT('',(-0.01,-4.33680868994202E-18,0.));
#728=CARTESIAN_POINT('',(-0.01,-0.006,0.));
#729=CARTESIAN_POINT('',(-0.01,-0.006,0.082));
#730=CARTESIAN_POINT('',(-0.01,4.33680868994202E-19,0.067));
#731=CARTESIAN_POINT('',(-0.01,0.0035,0.067));
#732=CARTESIAN_POINT('',(-0.01,4.33680868994202E-19,0.057));
#733=CARTESIAN_POINT('',(-0.01,0.0035,0.057));
#734=CARTESIAN_POINT('',(-0.01,4.33680868994202E-19,0.047));
#735=CARTESIAN_POINT('',(-0.01,0.0035,0.047));
#736=CARTESIAN_POINT('',(-0.01,4.33680868994202E-19,0.037));
#737=CARTESIAN_POINT('',(-0.01,0.0035,0.037));
#738=CARTESIAN_POINT('',(-0.01,4.33680868994202E-19,0.027));
#739=CARTESIAN_POINT('',(-0.01,0.0035,0.027));
#740=CARTESIAN_POINT('',(-0.01,4.33680868994202E-19,0.017));
#741=CARTESIAN_POINT('',(-0.01,0.0035,0.017));
#742=CARTESIAN_POINT('',(-0.01,4.33680868994202E-19,0.007));
#743=CARTESIAN_POINT('',(-0.01,0.0035,0.007));
#744=CARTESIAN_POINT('',(-0.005,-0.006,0.082));
#745=CARTESIAN_POINT('',(-0.005,-0.006,0.));
#746=CARTESIAN_POINT('',(0.,1.7347234759768E-18,0.));
#747=CARTESIAN_POINT('',(0.,-3.67394039744206E-19,0.));
#748=CARTESIAN_POINT('',(-0.025,4.33680868994202E-19,0.077));
#749=CARTESIAN_POINT('',(-0.025,4.33680868994202E-19,0.067));
#750=CARTESIAN_POINT('',(-0.025,4.33680868994202E-19,0.057));
#751=CARTESIAN_POINT('',(-0.025,4.33680868994202E-19,0.047));
#752=CARTESIAN_POINT('',(-0.025,4.33680868994202E-19,0.037));
#753=CARTESIAN_POINT('',(-0.025,4.33680868994202E-19,0.027));
#754=CARTESIAN_POINT('',(-0.025,4.33680868994202E-19,0.017));
#755=CARTESIAN_POINT('',(-0.025,4.33680868994202E-19,0.007));
#756=CARTESIAN_POINT('',(0.00221102796216116,1.7347234759768E-18,0.0805));
#757=CARTESIAN_POINT('',(0.0136981217824143,3.60959938154604E-12,0.1));
#758=CARTESIAN_POINT('',(0.,-3.67394039744206E-19,-0.015));
#759=CARTESIAN_POINT('',(0.,-3.67394039744206E-19,-0.014));
#760=CARTESIAN_POINT('',(-0.006,-3.67394039744206E-19,-0.014));
#761=CARTESIAN_POINT('',(0.,-3.67394039744206E-19,-0.015));
#762=MECHANICAL_DESIGN_GEOMETRIC_PRESENTATION_REPRESENTATION('',(#349),
#763);
#763=(
GEOMETRIC_REPRESENTATION_CONTEXT(3)
GLOBAL_UNCERTAINTY_ASSIGNED_CONTEXT((#764))
GLOBAL_UNIT_ASSIGNED_CONTEXT((#767,#766,#765))
REPRESENTATION_CONTEXT('Diffuseur','TOP_LEVEL_ASSEMBLY_PART')
);
#764=UNCERTAINTY_MEASURE_WITH_UNIT(LENGTH_MEASURE(2.E-5),#767,
'DISTANCE_ACCURACY_VALUE','Maximum Tolerance applied to model');
#765=(
NAMED_UNIT(*)
SI_UNIT($,.STERADIAN.)
SOLID_ANGLE_UNIT()
);
#766=(
NAMED_UNIT(*)
PLANE_ANGLE_UNIT()
SI_UNIT($,.RADIAN.)
);
#767=(
LENGTH_UNIT()
NAMED_UNIT(*)
SI_UNIT($,.METRE.)
);
#768=PRODUCT_DEFINITION_SHAPE('','',#769);
#769=PRODUCT_DEFINITION('','',#771,#770);
#770=PRODUCT_DEFINITION_CONTEXT('',#777,'design');
#771=PRODUCT_DEFINITION_FORMATION_WITH_SPECIFIED_SOURCE('','',#773,
 .NOT_KNOWN.);
#772=PRODUCT_RELATED_PRODUCT_CATEGORY('','',(#773));
#773=PRODUCT('Diffuseur','Diffuseur','Diffuseur',(#775));
#774=PRODUCT_CATEGORY('','');
#775=PRODUCT_CONTEXT('',#777,'mechanical');
#776=APPLICATION_PROTOCOL_DEFINITION('international standard',
'ap242_managed_model_based_3d_engineering',2020,#777);
#777=APPLICATION_CONTEXT('managed model based 3d engineering');
ENDSEC;
END-ISO-10303-21;
