ISO-10303-21;
HEADER;
/* Generated by software containing ST-Developer
 * from STEP Tools, Inc. (www.steptools.com) 
 */
/* OPTION: using custom renumber hook */

FILE_DESCRIPTION(
/* description */ ('STEP AP242 Edition 2',
'CAx-IF Rec.Pracs.---Representation and Presentation of Product Manufa
cturing Information (PMI)---4.0---2014-10-13',
'CAx-IF Rec.Pracs.---3D Tessellated Geometry---0.4---2014-09-14','2;1',
'CAx-IF Rec.Pracs.---User Defined Attributes---1.5---2016-08-15'),
/* implementation_level */ '2;1');

FILE_NAME(
/* name */ 'Assemblage V2 - Collier de serrage',
/* time_stamp */ '2026-09-29T21:10:08Z',
/* author */ (''),
/* organization */ (''),
/* preprocessor_version */ 'ST-DEVELOPER v20',
/* originating_system */ 'ONSHAPE BY PTC INC, 1.221',
/* authorisation */ '  ');

FILE_SCHEMA (('AP242_MANAGED_MODEL_BASED_3D_ENGINEERING_MIM_LF { 1 0 10303 442 3 1 4 }'));
ENDSEC;

DATA;
#10=SHAPE_REPRESENTATION_RELATIONSHIP('','',#447,#11);
#11=ADVANCED_BREP_SHAPE_REPRESENTATION('',(#445),#709);
#12=CYLINDRICAL_SURFACE('',#475,0.00325);
#13=CYLINDRICAL_SURFACE('',#476,0.00325);
#14=CYLINDRICAL_SURFACE('',#477,0.00325);
#15=CYLINDRICAL_SURFACE('',#478,0.00325);
#16=CIRCLE('',#451,0.00325);
#17=CIRCLE('',#452,0.00325);
#18=CIRCLE('',#455,0.00325);
#19=CIRCLE('',#456,0.00325);
#20=CIRCLE('',#463,0.00325);
#21=CIRCLE('',#464,0.00325);
#22=CIRCLE('',#467,0.00325);
#23=CIRCLE('',#468,0.00325);
#24=ORIENTED_EDGE('',*,*,#136,.F.);
#25=ORIENTED_EDGE('',*,*,#137,.F.);
#26=ORIENTED_EDGE('',*,*,#138,.T.);
#27=ORIENTED_EDGE('',*,*,#139,.T.);
#28=ORIENTED_EDGE('',*,*,#140,.T.);
#29=ORIENTED_EDGE('',*,*,#141,.T.);
#30=ORIENTED_EDGE('',*,*,#142,.T.);
#31=ORIENTED_EDGE('',*,*,#143,.F.);
#32=ORIENTED_EDGE('',*,*,#144,.F.);
#33=ORIENTED_EDGE('',*,*,#137,.T.);
#34=ORIENTED_EDGE('',*,*,#145,.T.);
#35=ORIENTED_EDGE('',*,*,#146,.F.);
#36=ORIENTED_EDGE('',*,*,#147,.F.);
#37=ORIENTED_EDGE('',*,*,#143,.T.);
#38=ORIENTED_EDGE('',*,*,#148,.F.);
#39=ORIENTED_EDGE('',*,*,#149,.F.);
#40=ORIENTED_EDGE('',*,*,#150,.T.);
#41=ORIENTED_EDGE('',*,*,#151,.F.);
#42=ORIENTED_EDGE('',*,*,#152,.F.);
#43=ORIENTED_EDGE('',*,*,#146,.T.);
#44=ORIENTED_EDGE('',*,*,#153,.T.);
#45=ORIENTED_EDGE('',*,*,#154,.F.);
#46=ORIENTED_EDGE('',*,*,#155,.F.);
#47=ORIENTED_EDGE('',*,*,#151,.T.);
#48=ORIENTED_EDGE('',*,*,#156,.T.);
#49=ORIENTED_EDGE('',*,*,#157,.F.);
#50=ORIENTED_EDGE('',*,*,#158,.F.);
#51=ORIENTED_EDGE('',*,*,#154,.T.);
#52=ORIENTED_EDGE('',*,*,#159,.F.);
#53=ORIENTED_EDGE('',*,*,#160,.F.);
#54=ORIENTED_EDGE('',*,*,#161,.T.);
#55=ORIENTED_EDGE('',*,*,#157,.T.);
#56=ORIENTED_EDGE('',*,*,#162,.F.);
#57=ORIENTED_EDGE('',*,*,#163,.F.);
#58=ORIENTED_EDGE('',*,*,#164,.T.);
#59=ORIENTED_EDGE('',*,*,#160,.T.);
#60=ORIENTED_EDGE('',*,*,#165,.T.);
#61=ORIENTED_EDGE('',*,*,#166,.F.);
#62=ORIENTED_EDGE('',*,*,#167,.F.);
#63=ORIENTED_EDGE('',*,*,#163,.T.);
#64=ORIENTED_EDGE('',*,*,#168,.F.);
#65=ORIENTED_EDGE('',*,*,#169,.F.);
#66=ORIENTED_EDGE('',*,*,#170,.F.);
#67=ORIENTED_EDGE('',*,*,#171,.F.);
#68=ORIENTED_EDGE('',*,*,#172,.T.);
#69=ORIENTED_EDGE('',*,*,#166,.T.);
#70=ORIENTED_EDGE('',*,*,#173,.F.);
#71=ORIENTED_EDGE('',*,*,#174,.F.);
#72=ORIENTED_EDGE('',*,*,#175,.T.);
#73=ORIENTED_EDGE('',*,*,#171,.T.);
#74=ORIENTED_EDGE('',*,*,#176,.F.);
#75=ORIENTED_EDGE('',*,*,#177,.F.);
#76=ORIENTED_EDGE('',*,*,#178,.F.);
#77=ORIENTED_EDGE('',*,*,#179,.F.);
#78=ORIENTED_EDGE('',*,*,#180,.T.);
#79=ORIENTED_EDGE('',*,*,#174,.T.);
#80=ORIENTED_EDGE('',*,*,#181,.F.);
#81=ORIENTED_EDGE('',*,*,#182,.F.);
#82=ORIENTED_EDGE('',*,*,#183,.T.);
#83=ORIENTED_EDGE('',*,*,#179,.T.);
#84=ORIENTED_EDGE('',*,*,#184,.T.);
#85=ORIENTED_EDGE('',*,*,#185,.F.);
#86=ORIENTED_EDGE('',*,*,#186,.F.);
#87=ORIENTED_EDGE('',*,*,#182,.T.);
#88=ORIENTED_EDGE('',*,*,#187,.T.);
#89=ORIENTED_EDGE('',*,*,#188,.F.);
#90=ORIENTED_EDGE('',*,*,#189,.F.);
#91=ORIENTED_EDGE('',*,*,#185,.T.);
#92=ORIENTED_EDGE('',*,*,#190,.F.);
#93=ORIENTED_EDGE('',*,*,#139,.F.);
#94=ORIENTED_EDGE('',*,*,#191,.T.);
#95=ORIENTED_EDGE('',*,*,#188,.T.);
#96=ORIENTED_EDGE('',*,*,#138,.F.);
#97=ORIENTED_EDGE('',*,*,#144,.T.);
#98=ORIENTED_EDGE('',*,*,#147,.T.);
#99=ORIENTED_EDGE('',*,*,#152,.T.);
#100=ORIENTED_EDGE('',*,*,#155,.T.);
#101=ORIENTED_EDGE('',*,*,#158,.T.);
#102=ORIENTED_EDGE('',*,*,#161,.F.);
#103=ORIENTED_EDGE('',*,*,#164,.F.);
#104=ORIENTED_EDGE('',*,*,#167,.T.);
#105=ORIENTED_EDGE('',*,*,#172,.F.);
#106=ORIENTED_EDGE('',*,*,#175,.F.);
#107=ORIENTED_EDGE('',*,*,#180,.F.);
#108=ORIENTED_EDGE('',*,*,#183,.F.);
#109=ORIENTED_EDGE('',*,*,#186,.T.);
#110=ORIENTED_EDGE('',*,*,#189,.T.);
#111=ORIENTED_EDGE('',*,*,#191,.F.);
#112=ORIENTED_EDGE('',*,*,#136,.T.);
#113=ORIENTED_EDGE('',*,*,#190,.T.);
#114=ORIENTED_EDGE('',*,*,#187,.F.);
#115=ORIENTED_EDGE('',*,*,#184,.F.);
#116=ORIENTED_EDGE('',*,*,#181,.T.);
#117=ORIENTED_EDGE('',*,*,#178,.T.);
#118=ORIENTED_EDGE('',*,*,#173,.T.);
#119=ORIENTED_EDGE('',*,*,#170,.T.);
#120=ORIENTED_EDGE('',*,*,#165,.F.);
#121=ORIENTED_EDGE('',*,*,#162,.T.);
#122=ORIENTED_EDGE('',*,*,#159,.T.);
#123=ORIENTED_EDGE('',*,*,#156,.F.);
#124=ORIENTED_EDGE('',*,*,#153,.F.);
#125=ORIENTED_EDGE('',*,*,#150,.F.);
#126=ORIENTED_EDGE('',*,*,#145,.F.);
#127=ORIENTED_EDGE('',*,*,#142,.F.);
#128=ORIENTED_EDGE('',*,*,#169,.T.);
#129=ORIENTED_EDGE('',*,*,#177,.T.);
#130=ORIENTED_EDGE('',*,*,#168,.T.);
#131=ORIENTED_EDGE('',*,*,#176,.T.);
#132=ORIENTED_EDGE('',*,*,#149,.T.);
#133=ORIENTED_EDGE('',*,*,#141,.F.);
#134=ORIENTED_EDGE('',*,*,#148,.T.);
#135=ORIENTED_EDGE('',*,*,#140,.F.);
#136=EDGE_CURVE('',#192,#193,#232,.T.);
#137=EDGE_CURVE('',#194,#192,#233,.T.);
#138=EDGE_CURVE('',#194,#195,#234,.T.);
#139=EDGE_CURVE('',#195,#193,#235,.T.);
#140=EDGE_CURVE('',#196,#196,#16,.T.);
#141=EDGE_CURVE('',#197,#197,#17,.T.);
#142=EDGE_CURVE('',#192,#198,#236,.T.);
#143=EDGE_CURVE('',#199,#198,#237,.T.);
#144=EDGE_CURVE('',#194,#199,#238,.T.);
#145=EDGE_CURVE('',#198,#200,#239,.T.);
#146=EDGE_CURVE('',#201,#200,#240,.T.);
#147=EDGE_CURVE('',#199,#201,#241,.T.);
#148=EDGE_CURVE('',#202,#202,#18,.T.);
#149=EDGE_CURVE('',#203,#203,#19,.T.);
#150=EDGE_CURVE('',#200,#204,#242,.T.);
#151=EDGE_CURVE('',#205,#204,#243,.T.);
#152=EDGE_CURVE('',#201,#205,#244,.T.);
#153=EDGE_CURVE('',#204,#206,#245,.T.);
#154=EDGE_CURVE('',#207,#206,#246,.T.);
#155=EDGE_CURVE('',#205,#207,#247,.T.);
#156=EDGE_CURVE('',#206,#208,#248,.T.);
#157=EDGE_CURVE('',#209,#208,#249,.T.);
#158=EDGE_CURVE('',#207,#209,#250,.T.);
#159=EDGE_CURVE('',#210,#208,#251,.T.);
#160=EDGE_CURVE('',#211,#210,#252,.T.);
#161=EDGE_CURVE('',#211,#209,#253,.T.);
#162=EDGE_CURVE('',#212,#210,#254,.T.);
#163=EDGE_CURVE('',#213,#212,#255,.T.);
#164=EDGE_CURVE('',#213,#211,#256,.T.);
#165=EDGE_CURVE('',#212,#214,#257,.T.);
#166=EDGE_CURVE('',#215,#214,#258,.T.);
#167=EDGE_CURVE('',#213,#215,#259,.T.);
#168=EDGE_CURVE('',#216,#216,#20,.T.);
#169=EDGE_CURVE('',#217,#217,#21,.T.);
#170=EDGE_CURVE('',#218,#214,#260,.T.);
#171=EDGE_CURVE('',#219,#218,#261,.T.);
#172=EDGE_CURVE('',#219,#215,#262,.T.);
#173=EDGE_CURVE('',#220,#218,#263,.T.);
#174=EDGE_CURVE('',#221,#220,#264,.T.);
#175=EDGE_CURVE('',#221,#219,#265,.T.);
#176=EDGE_CURVE('',#222,#222,#22,.T.);
#177=EDGE_CURVE('',#223,#223,#23,.T.);
#178=EDGE_CURVE('',#224,#220,#266,.T.);
#179=EDGE_CURVE('',#225,#224,#267,.T.);
#180=EDGE_CURVE('',#225,#221,#268,.T.);
#181=EDGE_CURVE('',#226,#224,#269,.T.);
#182=EDGE_CURVE('',#227,#226,#270,.T.);
#183=EDGE_CURVE('',#227,#225,#271,.T.);
#184=EDGE_CURVE('',#226,#228,#272,.T.);
#185=EDGE_CURVE('',#229,#228,#273,.T.);
#186=EDGE_CURVE('',#227,#229,#274,.T.);
#187=EDGE_CURVE('',#228,#230,#275,.T.);
#188=EDGE_CURVE('',#231,#230,#276,.T.);
#189=EDGE_CURVE('',#229,#231,#277,.T.);
#190=EDGE_CURVE('',#193,#230,#278,.T.);
#191=EDGE_CURVE('',#195,#231,#279,.T.);
#192=VERTEX_POINT('',#592);
#193=VERTEX_POINT('',#593);
#194=VERTEX_POINT('',#595);
#195=VERTEX_POINT('',#597);
#196=VERTEX_POINT('',#601);
#197=VERTEX_POINT('',#603);
#198=VERTEX_POINT('',#605);
#199=VERTEX_POINT('',#607);
#200=VERTEX_POINT('',#611);
#201=VERTEX_POINT('',#613);
#202=VERTEX_POINT('',#617);
#203=VERTEX_POINT('',#619);
#204=VERTEX_POINT('',#621);
#205=VERTEX_POINT('',#623);
#206=VERTEX_POINT('',#627);
#207=VERTEX_POINT('',#629);
#208=VERTEX_POINT('',#633);
#209=VERTEX_POINT('',#635);
#210=VERTEX_POINT('',#639);
#211=VERTEX_POINT('',#641);
#212=VERTEX_POINT('',#645);
#213=VERTEX_POINT('',#647);
#214=VERTEX_POINT('',#651);
#215=VERTEX_POINT('',#653);
#216=VERTEX_POINT('',#657);
#217=VERTEX_POINT('',#659);
#218=VERTEX_POINT('',#661);
#219=VERTEX_POINT('',#663);
#220=VERTEX_POINT('',#667);
#221=VERTEX_POINT('',#669);
#222=VERTEX_POINT('',#673);
#223=VERTEX_POINT('',#675);
#224=VERTEX_POINT('',#677);
#225=VERTEX_POINT('',#679);
#226=VERTEX_POINT('',#683);
#227=VERTEX_POINT('',#685);
#228=VERTEX_POINT('',#689);
#229=VERTEX_POINT('',#691);
#230=VERTEX_POINT('',#695);
#231=VERTEX_POINT('',#697);
#232=LINE('',#591,#280);
#233=LINE('',#594,#281);
#234=LINE('',#596,#282);
#235=LINE('',#598,#283);
#236=LINE('',#604,#284);
#237=LINE('',#606,#285);
#238=LINE('',#608,#286);
#239=LINE('',#610,#287);
#240=LINE('',#612,#288);
#241=LINE('',#614,#289);
#242=LINE('',#620,#290);
#243=LINE('',#622,#291);
#244=LINE('',#624,#292);
#245=LINE('',#626,#293);
#246=LINE('',#628,#294);
#247=LINE('',#630,#295);
#248=LINE('',#632,#296);
#249=LINE('',#634,#297);
#250=LINE('',#636,#298);
#251=LINE('',#638,#299);
#252=LINE('',#640,#300);
#253=LINE('',#642,#301);
#254=LINE('',#644,#302);
#255=LINE('',#646,#303);
#256=LINE('',#648,#304);
#257=LINE('',#650,#305);
#258=LINE('',#652,#306);
#259=LINE('',#654,#307);
#260=LINE('',#660,#308);
#261=LINE('',#662,#309);
#262=LINE('',#664,#310);
#263=LINE('',#666,#311);
#264=LINE('',#668,#312);
#265=LINE('',#670,#313);
#266=LINE('',#676,#314);
#267=LINE('',#678,#315);
#268=LINE('',#680,#316);
#269=LINE('',#682,#317);
#270=LINE('',#684,#318);
#271=LINE('',#686,#319);
#272=LINE('',#688,#320);
#273=LINE('',#690,#321);
#274=LINE('',#692,#322);
#275=LINE('',#694,#323);
#276=LINE('',#696,#324);
#277=LINE('',#698,#325);
#278=LINE('',#700,#326);
#279=LINE('',#701,#327);
#280=VECTOR('',#483,1.);
#281=VECTOR('',#484,1.);
#282=VECTOR('',#485,1.);
#283=VECTOR('',#486,1.);
#284=VECTOR('',#493,1.);
#285=VECTOR('',#494,1.);
#286=VECTOR('',#495,1.);
#287=VECTOR('',#498,1.);
#288=VECTOR('',#499,1.);
#289=VECTOR('',#500,1.);
#290=VECTOR('',#507,1.);
#291=VECTOR('',#508,1.);
#292=VECTOR('',#509,1.);
#293=VECTOR('',#512,1.);
#294=VECTOR('',#513,1.);
#295=VECTOR('',#514,1.);
#296=VECTOR('',#517,1.);
#297=VECTOR('',#518,1.);
#298=VECTOR('',#519,1.);
#299=VECTOR('',#522,1.);
#300=VECTOR('',#523,1.);
#301=VECTOR('',#524,1.);
#302=VECTOR('',#527,1.);
#303=VECTOR('',#528,1.);
#304=VECTOR('',#529,1.);
#305=VECTOR('',#532,1.);
#306=VECTOR('',#533,1.);
#307=VECTOR('',#534,1.);
#308=VECTOR('',#541,1.);
#309=VECTOR('',#542,1.);
#310=VECTOR('',#543,1.);
#311=VECTOR('',#546,1.);
#312=VECTOR('',#547,1.);
#313=VECTOR('',#548,1.);
#314=VECTOR('',#555,1.);
#315=VECTOR('',#556,1.);
#316=VECTOR('',#557,1.);
#317=VECTOR('',#560,1.);
#318=VECTOR('',#561,1.);
#319=VECTOR('',#562,1.);
#320=VECTOR('',#565,1.);
#321=VECTOR('',#566,1.);
#322=VECTOR('',#567,1.);
#323=VECTOR('',#570,1.);
#324=VECTOR('',#571,1.);
#325=VECTOR('',#572,1.);
#326=VECTOR('',#575,1.);
#327=VECTOR('',#576,1.);
#328=EDGE_LOOP('',(#24,#25,#26,#27));
#329=EDGE_LOOP('',(#28));
#330=EDGE_LOOP('',(#29));
#331=EDGE_LOOP('',(#30,#31,#32,#33));
#332=EDGE_LOOP('',(#34,#35,#36,#37));
#333=EDGE_LOOP('',(#38));
#334=EDGE_LOOP('',(#39));
#335=EDGE_LOOP('',(#40,#41,#42,#43));
#336=EDGE_LOOP('',(#44,#45,#46,#47));
#337=EDGE_LOOP('',(#48,#49,#50,#51));
#338=EDGE_LOOP('',(#52,#53,#54,#55));
#339=EDGE_LOOP('',(#56,#57,#58,#59));
#340=EDGE_LOOP('',(#60,#61,#62,#63));
#341=EDGE_LOOP('',(#64));
#342=EDGE_LOOP('',(#65));
#343=EDGE_LOOP('',(#66,#67,#68,#69));
#344=EDGE_LOOP('',(#70,#71,#72,#73));
#345=EDGE_LOOP('',(#74));
#346=EDGE_LOOP('',(#75));
#347=EDGE_LOOP('',(#76,#77,#78,#79));
#348=EDGE_LOOP('',(#80,#81,#82,#83));
#349=EDGE_LOOP('',(#84,#85,#86,#87));
#350=EDGE_LOOP('',(#88,#89,#90,#91));
#351=EDGE_LOOP('',(#92,#93,#94,#95));
#352=EDGE_LOOP('',(#96,#97,#98,#99,#100,#101,#102,#103,#104,#105,#106,#107,
#108,#109,#110,#111));
#353=EDGE_LOOP('',(#112,#113,#114,#115,#116,#117,#118,#119,#120,#121,#122,
#123,#124,#125,#126,#127));
#354=EDGE_LOOP('',(#128));
#355=EDGE_LOOP('',(#129));
#356=EDGE_LOOP('',(#130));
#357=EDGE_LOOP('',(#131));
#358=EDGE_LOOP('',(#132));
#359=EDGE_LOOP('',(#133));
#360=EDGE_LOOP('',(#134));
#361=EDGE_LOOP('',(#135));
#362=FACE_BOUND('',#328,.T.);
#363=FACE_BOUND('',#329,.T.);
#364=FACE_BOUND('',#330,.T.);
#365=FACE_BOUND('',#331,.T.);
#366=FACE_BOUND('',#332,.T.);
#367=FACE_BOUND('',#333,.T.);
#368=FACE_BOUND('',#334,.T.);
#369=FACE_BOUND('',#335,.T.);
#370=FACE_BOUND('',#336,.T.);
#371=FACE_BOUND('',#337,.T.);
#372=FACE_BOUND('',#338,.T.);
#373=FACE_BOUND('',#339,.T.);
#374=FACE_BOUND('',#340,.T.);
#375=FACE_BOUND('',#341,.T.);
#376=FACE_BOUND('',#342,.T.);
#377=FACE_BOUND('',#343,.T.);
#378=FACE_BOUND('',#344,.T.);
#379=FACE_BOUND('',#345,.T.);
#380=FACE_BOUND('',#346,.T.);
#381=FACE_BOUND('',#347,.T.);
#382=FACE_BOUND('',#348,.T.);
#383=FACE_BOUND('',#349,.T.);
#384=FACE_BOUND('',#350,.T.);
#385=FACE_BOUND('',#351,.T.);
#386=FACE_BOUND('',#352,.T.);
#387=FACE_BOUND('',#353,.T.);
#388=FACE_BOUND('',#354,.T.);
#389=FACE_BOUND('',#355,.T.);
#390=FACE_BOUND('',#356,.T.);
#391=FACE_BOUND('',#357,.T.);
#392=FACE_BOUND('',#358,.T.);
#393=FACE_BOUND('',#359,.T.);
#394=FACE_BOUND('',#360,.T.);
#395=FACE_BOUND('',#361,.T.);
#396=PLANE('',#449);
#397=PLANE('',#450);
#398=PLANE('',#453);
#399=PLANE('',#454);
#400=PLANE('',#457);
#401=PLANE('',#458);
#402=PLANE('',#459);
#403=PLANE('',#460);
#404=PLANE('',#461);
#405=PLANE('',#462);
#406=PLANE('',#465);
#407=PLANE('',#466);
#408=PLANE('',#469);
#409=PLANE('',#470);
#410=PLANE('',#471);
#411=PLANE('',#472);
#412=PLANE('',#473);
#413=PLANE('',#474);
#414=ADVANCED_FACE('',(#362),#396,.T.);
#415=ADVANCED_FACE('',(#363,#364,#365),#397,.F.);
#416=ADVANCED_FACE('',(#366),#398,.F.);
#417=ADVANCED_FACE('',(#367,#368,#369),#399,.F.);
#418=ADVANCED_FACE('',(#370),#400,.F.);
#419=ADVANCED_FACE('',(#371),#401,.F.);
#420=ADVANCED_FACE('',(#372),#402,.T.);
#421=ADVANCED_FACE('',(#373),#403,.T.);
#422=ADVANCED_FACE('',(#374),#404,.F.);
#423=ADVANCED_FACE('',(#375,#376,#377),#405,.T.);
#424=ADVANCED_FACE('',(#378),#406,.T.);
#425=ADVANCED_FACE('',(#379,#380,#381),#407,.T.);
#426=ADVANCED_FACE('',(#382),#408,.T.);
#427=ADVANCED_FACE('',(#383),#409,.F.);
#428=ADVANCED_FACE('',(#384),#410,.F.);
#429=ADVANCED_FACE('',(#385),#411,.T.);
#430=ADVANCED_FACE('',(#386),#412,.T.);
#431=ADVANCED_FACE('',(#387),#413,.F.);
#432=ADVANCED_FACE('',(#388,#389),#12,.F.);
#433=ADVANCED_FACE('',(#390,#391),#13,.F.);
#434=ADVANCED_FACE('',(#392,#393),#14,.F.);
#435=ADVANCED_FACE('',(#394,#395),#15,.F.);
#436=CLOSED_SHELL('',(#414,#415,#416,#417,#418,#419,#420,#421,#422,#423,
#424,#425,#426,#427,#428,#429,#430,#431,#432,#433,#434,#435));
#437=STYLED_ITEM('',(#438),#445);
#438=PRESENTATION_STYLE_ASSIGNMENT((#439));
#439=SURFACE_STYLE_USAGE(.BOTH.,#440);
#440=SURFACE_SIDE_STYLE('',(#441));
#441=SURFACE_STYLE_FILL_AREA(#442);
#442=FILL_AREA_STYLE('',(#443));
#443=FILL_AREA_STYLE_COLOUR('',#444);
#444=COLOUR_RGB('',0.615686274509804,0.811764705882353,0.929411764705882);
#445=MANIFOLD_SOLID_BREP('Collier de serrage',#436);
#446=SHAPE_DEFINITION_REPRESENTATION(#714,#447);
#447=SHAPE_REPRESENTATION('Collier de serrage',(#448),#709);
#448=AXIS2_PLACEMENT_3D('',#589,#479,#480);
#449=AXIS2_PLACEMENT_3D('',#590,#481,#482);
#450=AXIS2_PLACEMENT_3D('',#599,#487,#488);
#451=AXIS2_PLACEMENT_3D('',#600,#489,#490);
#452=AXIS2_PLACEMENT_3D('',#602,#491,#492);
#453=AXIS2_PLACEMENT_3D('',#609,#496,#497);
#454=AXIS2_PLACEMENT_3D('',#615,#501,#502);
#455=AXIS2_PLACEMENT_3D('',#616,#503,#504);
#456=AXIS2_PLACEMENT_3D('',#618,#505,#506);
#457=AXIS2_PLACEMENT_3D('',#625,#510,#511);
#458=AXIS2_PLACEMENT_3D('',#631,#515,#516);
#459=AXIS2_PLACEMENT_3D('',#637,#520,#521);
#460=AXIS2_PLACEMENT_3D('',#643,#525,#526);
#461=AXIS2_PLACEMENT_3D('',#649,#530,#531);
#462=AXIS2_PLACEMENT_3D('',#655,#535,#536);
#463=AXIS2_PLACEMENT_3D('',#656,#537,#538);
#464=AXIS2_PLACEMENT_3D('',#658,#539,#540);
#465=AXIS2_PLACEMENT_3D('',#665,#544,#545);
#466=AXIS2_PLACEMENT_3D('',#671,#549,#550);
#467=AXIS2_PLACEMENT_3D('',#672,#551,#552);
#468=AXIS2_PLACEMENT_3D('',#674,#553,#554);
#469=AXIS2_PLACEMENT_3D('',#681,#558,#559);
#470=AXIS2_PLACEMENT_3D('',#687,#563,#564);
#471=AXIS2_PLACEMENT_3D('',#693,#568,#569);
#472=AXIS2_PLACEMENT_3D('',#699,#573,#574);
#473=AXIS2_PLACEMENT_3D('',#702,#577,#578);
#474=AXIS2_PLACEMENT_3D('',#703,#579,#580);
#475=AXIS2_PLACEMENT_3D('',#704,#581,#582);
#476=AXIS2_PLACEMENT_3D('',#705,#583,#584);
#477=AXIS2_PLACEMENT_3D('',#706,#585,#586);
#478=AXIS2_PLACEMENT_3D('',#707,#587,#588);
#479=DIRECTION('',(0.,0.,1.));
#480=DIRECTION('',(1.,0.,0.));
#481=DIRECTION('',(-1.,0.,1.38087440873776E-16));
#482=DIRECTION('',(1.38087440873776E-16,0.,1.));
#483=DIRECTION('',(1.38087440873776E-16,0.,1.));
#484=DIRECTION('',(0.,1.,0.));
#485=DIRECTION('',(1.38087440873776E-16,0.,1.));
#486=DIRECTION('',(0.,1.,0.));
#487=DIRECTION('',(-1.44560289664734E-16,0.,1.));
#488=DIRECTION('',(1.,0.,1.44560289664734E-16));
#489=DIRECTION('',(-1.44560289664734E-16,0.,1.));
#490=DIRECTION('',(1.,0.,1.44560289664734E-16));
#491=DIRECTION('',(-1.44560289664734E-16,0.,1.));
#492=DIRECTION('',(1.,0.,1.44560289664734E-16));
#493=DIRECTION('',(1.,0.,1.44560289664734E-16));
#494=DIRECTION('',(0.,1.,0.));
#495=DIRECTION('',(1.,0.,1.44560289664734E-16));
#496=DIRECTION('',(-1.,0.,0.));
#497=DIRECTION('',(0.,0.,1.));
#498=DIRECTION('',(0.,0.,1.));
#499=DIRECTION('',(0.,1.,0.));
#500=DIRECTION('',(0.,0.,1.));
#501=DIRECTION('',(1.73472347597681E-16,0.,-1.));
#502=DIRECTION('',(-1.,0.,-1.73472347597681E-16));
#503=DIRECTION('',(-1.73472347597681E-16,0.,1.));
#504=DIRECTION('',(1.,0.,1.73472347597681E-16));
#505=DIRECTION('',(-1.73472347597681E-16,0.,1.));
#506=DIRECTION('',(1.,0.,1.73472347597681E-16));
#507=DIRECTION('',(-1.,0.,-1.73472347597681E-16));
#508=DIRECTION('',(0.,1.,0.));
#509=DIRECTION('',(-1.,0.,-1.73472347597681E-16));
#510=DIRECTION('',(-1.,0.,1.38087440873776E-16));
#511=DIRECTION('',(1.38087440873776E-16,0.,1.));
#512=DIRECTION('',(1.38087440873776E-16,0.,1.));
#513=DIRECTION('',(0.,1.,0.));
#514=DIRECTION('',(1.38087440873776E-16,0.,1.));
#515=DIRECTION('',(1.21203386967812E-16,0.,-1.));
#516=DIRECTION('',(-1.,0.,-1.21203386967812E-16));
#517=DIRECTION('',(-1.,0.,-1.21203386967812E-16));
#518=DIRECTION('',(0.,1.,0.));
#519=DIRECTION('',(-1.,0.,-1.21203386967812E-16));
#520=DIRECTION('',(-1.,0.,6.06016934839059E-17));
#521=DIRECTION('',(6.06016934839059E-17,0.,1.));
#522=DIRECTION('',(6.06016934839059E-17,0.,1.));
#523=DIRECTION('',(0.,1.,0.));
#524=DIRECTION('',(6.06016934839059E-17,0.,1.));
#525=DIRECTION('',(1.21203386967812E-16,0.,-1.));
#526=DIRECTION('',(-1.,0.,-1.21203386967812E-16));
#527=DIRECTION('',(-1.,0.,-1.21203386967812E-16));
#528=DIRECTION('',(0.,1.,0.));
#529=DIRECTION('',(-1.,0.,-1.21203386967812E-16));
#530=DIRECTION('',(-1.,0.,0.));
#531=DIRECTION('',(0.,0.,1.));
#532=DIRECTION('',(0.,0.,1.));
#533=DIRECTION('',(0.,1.,0.));
#534=DIRECTION('',(0.,0.,1.));
#535=DIRECTION('',(8.67361737988404E-17,0.,-1.));
#536=DIRECTION('',(-1.,0.,-8.67361737988404E-17));
#537=DIRECTION('',(8.67361737988404E-17,0.,-1.));
#538=DIRECTION('',(-1.,0.,-8.67361737988404E-17));
#539=DIRECTION('',(8.67361737988404E-17,0.,-1.));
#540=DIRECTION('',(-1.,0.,-8.67361737988404E-17));
#541=DIRECTION('',(-1.,0.,-8.67361737988404E-17));
#542=DIRECTION('',(0.,1.,0.));
#543=DIRECTION('',(-1.,0.,-8.67361737988404E-17));
#544=DIRECTION('',(1.,0.,0.));
#545=DIRECTION('',(0.,0.,-1.));
#546=DIRECTION('',(0.,0.,-1.));
#547=DIRECTION('',(0.,1.,0.));
#548=DIRECTION('',(0.,0.,-1.));
#549=DIRECTION('',(0.,0.,1.));
#550=DIRECTION('',(1.,0.,0.));
#551=DIRECTION('',(0.,0.,1.));
#552=DIRECTION('',(1.,0.,0.));
#553=DIRECTION('',(0.,0.,1.));
#554=DIRECTION('',(1.,0.,0.));
#555=DIRECTION('',(1.,0.,0.));
#556=DIRECTION('',(0.,1.,0.));
#557=DIRECTION('',(1.,0.,0.));
#558=DIRECTION('',(-1.,0.,0.));
#559=DIRECTION('',(0.,0.,1.));
#560=DIRECTION('',(0.,0.,1.));
#561=DIRECTION('',(0.,1.,0.));
#562=DIRECTION('',(0.,0.,1.));
#563=DIRECTION('',(1.25590839889724E-16,0.,-1.));
#564=DIRECTION('',(-1.,0.,-1.25590839889724E-16));
#565=DIRECTION('',(-1.,0.,-1.25590839889724E-16));
#566=DIRECTION('',(0.,1.,0.));
#567=DIRECTION('',(-1.,0.,-1.25590839889724E-16));
#568=DIRECTION('',(-1.,0.,6.27954199448618E-17));
#569=DIRECTION('',(6.27954199448618E-17,0.,1.));
#570=DIRECTION('',(6.27954199448618E-17,0.,1.));
#571=DIRECTION('',(0.,1.,0.));
#572=DIRECTION('',(6.27954199448618E-17,0.,1.));
#573=DIRECTION('',(1.25590839889724E-16,0.,-1.));
#574=DIRECTION('',(-1.,0.,-1.25590839889724E-16));
#575=DIRECTION('',(-1.,0.,-1.25590839889724E-16));
#576=DIRECTION('',(-1.,0.,-1.25590839889724E-16));
#577=DIRECTION('',(0.,-1.,0.));
#578=DIRECTION('',(1.,0.,0.));
#579=DIRECTION('',(0.,-1.,0.));
#580=DIRECTION('',(1.,0.,0.));
#581=DIRECTION('',(-1.73472347597681E-16,0.,1.));
#582=DIRECTION('',(1.,0.,1.73472347597681E-16));
#583=DIRECTION('',(-1.73472347597681E-16,0.,1.));
#584=DIRECTION('',(1.,0.,1.73472347597681E-16));
#585=DIRECTION('',(-1.73472347597681E-16,0.,1.));
#586=DIRECTION('',(1.,0.,1.73472347597681E-16));
#587=DIRECTION('',(-1.73472347597681E-16,0.,1.));
#588=DIRECTION('',(1.,0.,1.73472347597681E-16));
#589=CARTESIAN_POINT('',(0.,0.,0.));
#590=CARTESIAN_POINT('',(0.05525,-0.04,0.030125));
#591=CARTESIAN_POINT('',(0.05525,0.,0.030125));
#592=CARTESIAN_POINT('',(0.05525,0.,0.005));
#593=CARTESIAN_POINT('',(0.05525,0.,0.05525));
#594=CARTESIAN_POINT('',(0.05525,-0.04,0.005));
#595=CARTESIAN_POINT('',(0.05525,-0.04,0.005));
#596=CARTESIAN_POINT('',(0.05525,-0.04,0.030125));
#597=CARTESIAN_POINT('',(0.05525,-0.04,0.05525));
#598=CARTESIAN_POINT('',(0.05525,-0.04,0.05525));
#599=CARTESIAN_POINT('',(0.06125,-0.04,0.005));
#600=CARTESIAN_POINT('',(0.06225,-0.005,0.005));
#601=CARTESIAN_POINT('',(0.0655,-0.005,0.005));
#602=CARTESIAN_POINT('',(0.06225,-0.035,0.005));
#603=CARTESIAN_POINT('',(0.0655,-0.035,0.005));
#604=CARTESIAN_POINT('',(0.06125,0.,0.005));
#605=CARTESIAN_POINT('',(0.06725,0.,0.005));
#606=CARTESIAN_POINT('',(0.06725,-0.04,0.005));
#607=CARTESIAN_POINT('',(0.06725,-0.04,0.005));
#608=CARTESIAN_POINT('',(0.06125,-0.04,0.005));
#609=CARTESIAN_POINT('',(0.06725,-0.04,0.006));
#610=CARTESIAN_POINT('',(0.06725,0.,0.006));
#611=CARTESIAN_POINT('',(0.06725,0.,0.007));
#612=CARTESIAN_POINT('',(0.06725,-0.04,0.007));
#613=CARTESIAN_POINT('',(0.06725,-0.04,0.007));
#614=CARTESIAN_POINT('',(0.06725,-0.04,0.006));
#615=CARTESIAN_POINT('',(0.06225,-0.04,0.007));
#616=CARTESIAN_POINT('',(0.06225,-0.005,0.007));
#617=CARTESIAN_POINT('',(0.0655,-0.005,0.007));
#618=CARTESIAN_POINT('',(0.06225,-0.035,0.007));
#619=CARTESIAN_POINT('',(0.0655,-0.035,0.007));
#620=CARTESIAN_POINT('',(0.06225,0.,0.007));
#621=CARTESIAN_POINT('',(0.05725,0.,0.007));
#622=CARTESIAN_POINT('',(0.05725,-0.04,0.007));
#623=CARTESIAN_POINT('',(0.05725,-0.04,0.007));
#624=CARTESIAN_POINT('',(0.06225,-0.04,0.007));
#625=CARTESIAN_POINT('',(0.05725,-0.04,0.032125));
#626=CARTESIAN_POINT('',(0.05725,0.,0.032125));
#627=CARTESIAN_POINT('',(0.05725,0.,0.05725));
#628=CARTESIAN_POINT('',(0.05725,-0.04,0.05725));
#629=CARTESIAN_POINT('',(0.05725,-0.04,0.05725));
#630=CARTESIAN_POINT('',(0.05725,-0.04,0.032125));
#631=CARTESIAN_POINT('',(6.93889390390723E-18,-0.04,0.05725));
#632=CARTESIAN_POINT('',(6.93889390390723E-18,0.,0.05725));
#633=CARTESIAN_POINT('',(-0.05725,0.,0.05725));
#634=CARTESIAN_POINT('',(-0.05725,-0.04,0.05725));
#635=CARTESIAN_POINT('',(-0.05725,-0.04,0.05725));
#636=CARTESIAN_POINT('',(6.93889390390723E-18,-0.04,0.05725));
#637=CARTESIAN_POINT('',(-0.05725,-0.04,-6.93889390390723E-18));
#638=CARTESIAN_POINT('',(-0.05725,0.,-6.93889390390723E-18));
#639=CARTESIAN_POINT('',(-0.05725,0.,-0.05725));
#640=CARTESIAN_POINT('',(-0.05725,-0.04,-0.05725));
#641=CARTESIAN_POINT('',(-0.05725,-0.04,-0.05725));
#642=CARTESIAN_POINT('',(-0.05725,-0.04,-6.93889390390723E-18));
#643=CARTESIAN_POINT('',(0.,-0.04,-0.05725));
#644=CARTESIAN_POINT('',(0.,0.,-0.05725));
#645=CARTESIAN_POINT('',(0.05725,0.,-0.05725));
#646=CARTESIAN_POINT('',(0.05725,-0.04,-0.05725));
#647=CARTESIAN_POINT('',(0.05725,-0.04,-0.05725));
#648=CARTESIAN_POINT('',(0.,-0.04,-0.05725));
#649=CARTESIAN_POINT('',(0.05725,-0.04,-0.032125));
#650=CARTESIAN_POINT('',(0.05725,0.,-0.032125));
#651=CARTESIAN_POINT('',(0.05725,0.,-0.007));
#652=CARTESIAN_POINT('',(0.05725,-0.04,-0.007));
#653=CARTESIAN_POINT('',(0.05725,-0.04,-0.007));
#654=CARTESIAN_POINT('',(0.05725,-0.04,-0.032125));
#655=CARTESIAN_POINT('',(0.06225,-0.04,-0.007));
#656=CARTESIAN_POINT('',(0.06225,-0.005,-0.007));
#657=CARTESIAN_POINT('',(0.059,-0.005,-0.007));
#658=CARTESIAN_POINT('',(0.06225,-0.035,-0.007));
#659=CARTESIAN_POINT('',(0.059,-0.035,-0.007));
#660=CARTESIAN_POINT('',(0.06225,0.,-0.007));
#661=CARTESIAN_POINT('',(0.06725,0.,-0.007));
#662=CARTESIAN_POINT('',(0.06725,-0.04,-0.007));
#663=CARTESIAN_POINT('',(0.06725,-0.04,-0.007));
#664=CARTESIAN_POINT('',(0.06225,-0.04,-0.007));
#665=CARTESIAN_POINT('',(0.06725,-0.04,-0.006));
#666=CARTESIAN_POINT('',(0.06725,0.,-0.006));
#667=CARTESIAN_POINT('',(0.06725,0.,-0.005));
#668=CARTESIAN_POINT('',(0.06725,-0.04,-0.005));
#669=CARTESIAN_POINT('',(0.06725,-0.04,-0.005));
#670=CARTESIAN_POINT('',(0.06725,-0.04,-0.006));
#671=CARTESIAN_POINT('',(0.06125,-0.04,-0.005));
#672=CARTESIAN_POINT('',(0.06225,-0.005,-0.005));
#673=CARTESIAN_POINT('',(0.0655,-0.005,-0.005));
#674=CARTESIAN_POINT('',(0.06225,-0.035,-0.005));
#675=CARTESIAN_POINT('',(0.0655,-0.035,-0.005));
#676=CARTESIAN_POINT('',(0.06125,0.,-0.005));
#677=CARTESIAN_POINT('',(0.05525,0.,-0.005));
#678=CARTESIAN_POINT('',(0.05525,-0.04,-0.005));
#679=CARTESIAN_POINT('',(0.05525,-0.04,-0.005));
#680=CARTESIAN_POINT('',(0.06125,-0.04,-0.005));
#681=CARTESIAN_POINT('',(0.05525,-0.04,-0.030125));
#682=CARTESIAN_POINT('',(0.05525,0.,-0.030125));
#683=CARTESIAN_POINT('',(0.05525,0.,-0.05525));
#684=CARTESIAN_POINT('',(0.05525,-0.04,-0.05525));
#685=CARTESIAN_POINT('',(0.05525,-0.04,-0.05525));
#686=CARTESIAN_POINT('',(0.05525,-0.04,-0.030125));
#687=CARTESIAN_POINT('',(0.,-0.04,-0.05525));
#688=CARTESIAN_POINT('',(0.,0.,-0.05525));
#689=CARTESIAN_POINT('',(-0.05525,0.,-0.05525));
#690=CARTESIAN_POINT('',(-0.05525,-0.04,-0.05525));
#691=CARTESIAN_POINT('',(-0.05525,-0.04,-0.05525));
#692=CARTESIAN_POINT('',(0.,-0.04,-0.05525));
#693=CARTESIAN_POINT('',(-0.05525,-0.04,-6.93889390390723E-18));
#694=CARTESIAN_POINT('',(-0.05525,0.,-6.93889390390723E-18));
#695=CARTESIAN_POINT('',(-0.05525,0.,0.05525));
#696=CARTESIAN_POINT('',(-0.05525,-0.04,0.05525));
#697=CARTESIAN_POINT('',(-0.05525,-0.04,0.05525));
#698=CARTESIAN_POINT('',(-0.05525,-0.04,-6.93889390390723E-18));
#699=CARTESIAN_POINT('',(6.93889390390723E-18,-0.04,0.05525));
#700=CARTESIAN_POINT('',(6.93889390390723E-18,0.,0.05525));
#701=CARTESIAN_POINT('',(6.93889390390723E-18,-0.04,0.05525));
#702=CARTESIAN_POINT('',(0.005,-0.04,6.93889390390723E-18));
#703=CARTESIAN_POINT('',(0.005,0.,6.93889390390723E-18));
#704=CARTESIAN_POINT('',(0.06225,-0.035,-0.018));
#705=CARTESIAN_POINT('',(0.06225,-0.005,-0.018));
#706=CARTESIAN_POINT('',(0.06225,-0.035,-0.018));
#707=CARTESIAN_POINT('',(0.06225,-0.005,-0.018));
#708=MECHANICAL_DESIGN_GEOMETRIC_PRESENTATION_REPRESENTATION('',(#437),
#709);
#709=(
GEOMETRIC_REPRESENTATION_CONTEXT(3)
GLOBAL_UNCERTAINTY_ASSIGNED_CONTEXT((#710))
GLOBAL_UNIT_ASSIGNED_CONTEXT((#713,#712,#711))
REPRESENTATION_CONTEXT('Collier de serrage','TOP_LEVEL_ASSEMBLY_PART')
);
#710=UNCERTAINTY_MEASURE_WITH_UNIT(LENGTH_MEASURE(1.E-8),#713,
'DISTANCE_ACCURACY_VALUE','Maximum Tolerance applied to model');
#711=(
NAMED_UNIT(*)
SI_UNIT($,.STERADIAN.)
SOLID_ANGLE_UNIT()
);
#712=(
NAMED_UNIT(*)
PLANE_ANGLE_UNIT()
SI_UNIT($,.RADIAN.)
);
#713=(
LENGTH_UNIT()
NAMED_UNIT(*)
SI_UNIT($,.METRE.)
);
#714=PRODUCT_DEFINITION_SHAPE('','',#715);
#715=PRODUCT_DEFINITION('','',#717,#716);
#716=PRODUCT_DEFINITION_CONTEXT('',#723,'design');
#717=PRODUCT_DEFINITION_FORMATION_WITH_SPECIFIED_SOURCE('','',#719,
 .NOT_KNOWN.);
#718=PRODUCT_RELATED_PRODUCT_CATEGORY('','',(#719));
#719=PRODUCT('Collier de serrage','Collier de serrage',
'Collier de serrage',(#721));
#720=PRODUCT_CATEGORY('','');
#721=PRODUCT_CONTEXT('',#723,'mechanical');
#722=APPLICATION_PROTOCOL_DEFINITION('international standard',
'ap242_managed_model_based_3d_engineering',2020,#723);
#723=APPLICATION_CONTEXT('managed model based 3d engineering');
ENDSEC;
END-ISO-10303-21;
