ISO-10303-21;
HEADER;
/* Generated by software containing ST-Developer
 * from STEP Tools, Inc. (www.steptools.com) 
 */
/* OPTION: using custom renumber hook */

FILE_DESCRIPTION(
/* description */ ('STEP AP242 Edition 2',
'CAx-IF Rec.Pracs.---Representation and Presentation of Product Manufa
cturing Information (PMI)---4.0---2014-10-13',
'CAx-IF Rec.Pracs.---3D Tessellated Geometry---0.4---2014-09-14','2;1',
'CAx-IF Rec.Pracs.---User Defined Attributes---1.5---2016-08-15'),
/* implementation_level */ '2;1');

FILE_NAME(
/* name */ '3dc88369-2e81-4759-8d3f-cd5b71d8547e',
/* time_stamp */ '2026-09-29T21:10:08Z',
/* author */ (''),
/* organization */ (''),
/* preprocessor_version */ 'ST-DEVELOPER v20',
/* originating_system */ 'ONSHAPE BY PTC INC, 1.221',
/* authorisation */ '  ');

FILE_SCHEMA (('AP242_MANAGED_MODEL_BASED_3D_ENGINEERING_MIM_LF { 1 0 10303 442 3 1 4 }'));
ENDSEC;

DATA;
#10=SHAPE_REPRESENTATION_RELATIONSHIP('','',#465,#11);
#11=ADVANCED_BREP_SHAPE_REPRESENTATION('',(#463),#1368);
#12=B_SPLINE_CURVE_WITH_KNOTS('',3,(#664,#665,#666,#667,#668,#669,#670,
#671,#672,#673,#674,#675,#676,#677,#678,#679,#680,#681),.UNSPECIFIED.,.F.,
 .F.,(4,1,1,1,1,1,1,1,1,1,1,1,1,1,1,4),(0.346148940018059,0.370157353817951,
0.382161560717897,0.394165767617842,0.406169974517788,0.418174181417734,
0.43017838831768,0.442182595217625,0.454186802117571,0.466191009017517,
0.478195215917463,0.490199422817408,0.502203629717354,0.5142078366173,0.526212043517246,
0.538216250417191),.UNSPECIFIED.);
#13=B_SPLINE_CURVE_WITH_KNOTS('',3,(#686,#687,#688,#689,#690,#691,#692,
#693,#694,#695,#696,#697,#698,#699,#700,#701,#702,#703),.UNSPECIFIED.,.F.,
 .F.,(4,1,1,1,1,1,1,1,1,1,1,1,1,1,1,4),(0.354169664055136,0.3661164215535,
0.378063179051864,0.390009936550228,0.401956694048592,0.413903451546957,
0.425850209045321,0.437796966543685,0.449743724042049,0.461690481540413,
0.473637239038778,0.485583996537142,0.497530754035506,0.50947751153387,
0.521424269032234,0.545317784028963),.UNSPECIFIED.);
#14=B_SPLINE_CURVE_WITH_KNOTS('',3,(#776,#777,#778,#779,#780,#781,#782,
#783,#784,#785,#786,#787,#788,#789,#790,#791,#792,#793),.UNSPECIFIED.,.F.,
 .F.,(4,1,1,1,1,1,1,1,1,1,1,1,1,1,1,4),(0.354169664055135,0.3661164215535,
0.378063179051864,0.390009936550228,0.401956694048592,0.413903451546956,
0.425850209045321,0.437796966543685,0.449743724042049,0.461690481540413,
0.473637239038778,0.485583996537142,0.497530754035506,0.50947751153387,
0.521424269032234,0.545317784028963),.UNSPECIFIED.);
#15=B_SPLINE_CURVE_WITH_KNOTS('',3,(#866,#867,#868,#869,#870,#871,#872,
#873,#874,#875,#876,#877,#878,#879,#880,#881,#882,#883),.UNSPECIFIED.,.F.,
 .F.,(4,1,1,1,1,1,1,1,1,1,1,1,1,1,1,4),(0.354169664055137,0.366116421553501,
0.378063179051865,0.390009936550229,0.401956694048593,0.413903451546958,
0.425850209045322,0.437796966543686,0.44974372404205,0.461690481540414,
0.473637239038778,0.485583996537143,0.497530754035507,0.509477511533871,
0.521424269032235,0.545317784028964),.UNSPECIFIED.);
#16=B_SPLINE_CURVE_WITH_KNOTS('',3,(#1049,#1050,#1051,#1052,#1053,#1054,
#1055,#1056,#1057,#1058,#1059,#1060,#1061,#1062,#1063,#1064),
 .UNSPECIFIED.,.F.,.F.,(4,1,1,1,1,1,1,1,1,1,1,1,1,4),(0.199835985057528,
0.223763209287081,0.235726821401858,0.247690433516634,0.259654045631411,
0.271617657746187,0.283581269860964,0.29554488197574,0.319472106205293,
0.33143571832007,0.343399330434846,0.355362942549623,0.3673265546644,0.391253778893953),
 .UNSPECIFIED.);
#17=B_SPLINE_CURVE_WITH_KNOTS('',3,(#1069,#1070,#1071,#1072,#1073,#1074,
#1075,#1076,#1077,#1078,#1079,#1080,#1081,#1082,#1083,#1084,#1085),
 .UNSPECIFIED.,.F.,.F.,(4,1,1,1,1,1,1,1,1,1,1,1,1,1,4),(0.236396453162195,
0.260512991149298,0.27257126014285,0.284629529136402,0.296687798129954,
0.308746067123506,0.320804336117058,0.33286260511061,0.356979143097713,
0.369037412091265,0.381095681084817,0.393153950078369,0.405212219071921,
0.417270488065473,0.429328757059025),.UNSPECIFIED.);
#18=B_SPLINE_CURVE_WITH_KNOTS('',3,(#1162,#1163,#1164,#1165,#1166,#1167,
#1168,#1169,#1170,#1171,#1172,#1173,#1174,#1175,#1176,#1177),
 .UNSPECIFIED.,.F.,.F.,(4,1,1,1,1,1,1,1,1,1,1,1,1,4),(0.199835985057528,
0.223763209287081,0.235726821401858,0.247690433516634,0.259654045631411,
0.271617657746188,0.283581269860964,0.295544881975741,0.319472106205294,
0.33143571832007,0.343399330434847,0.355362942549623,0.3673265546644,0.391253778893953),
 .UNSPECIFIED.);
#19=B_SPLINE_CURVE_WITH_KNOTS('',3,(#1254,#1255,#1256,#1257,#1258,#1259,
#1260,#1261,#1262,#1263,#1264,#1265,#1266,#1267,#1268,#1269),
 .UNSPECIFIED.,.F.,.F.,(4,1,1,1,1,1,1,1,1,1,1,1,1,4),(0.199835985057537,
0.223763209287089,0.235726821401865,0.247690433516641,0.259654045631416,
0.271617657746192,0.283581269860968,0.295544881975744,0.319472106205296,
0.331435718320072,0.343399330434848,0.355362942549624,0.3673265546644,0.391253778893952),
 .UNSPECIFIED.);
#20=B_SPLINE_SURFACE_WITH_KNOTS('',3,3,((#596,#597,#598,#599,#600,#601,
#602,#603,#604,#605,#606,#607,#608,#609,#610,#611,#612),(#613,#614,#615,
#616,#617,#618,#619,#620,#621,#622,#623,#624,#625,#626,#627,#628,#629),
(#630,#631,#632,#633,#634,#635,#636,#637,#638,#639,#640,#641,#642,#643,
#644,#645,#646),(#647,#648,#649,#650,#651,#652,#653,#654,#655,#656,#657,
#658,#659,#660,#661,#662,#663)),.UNSPECIFIED.,.F.,.F.,.F.,(4,4),(4,1,1,
1,1,1,1,1,1,1,1,1,1,1,4),(0.27233860795038,0.72766139204962),(0.00149202204192689,
0.126340234995493,0.188764341472276,0.251188447949059,0.313612554425842,
0.376036660902625,0.438460767379408,0.500884873856191,0.563308980332974,
0.625733086809757,0.68815719328654,0.750581299763323,0.813005406240106,
0.875429512716889,1.00027772567046),.UNSPECIFIED.);
#21=B_SPLINE_SURFACE_WITH_KNOTS('',3,3,((#706,#707,#708,#709,#710,#711,
#712,#713,#714,#715,#716,#717,#718,#719,#720,#721,#722),(#723,#724,#725,
#726,#727,#728,#729,#730,#731,#732,#733,#734,#735,#736,#737,#738,#739),
(#740,#741,#742,#743,#744,#745,#746,#747,#748,#749,#750,#751,#752,#753,
#754,#755,#756),(#757,#758,#759,#760,#761,#762,#763,#764,#765,#766,#767,
#768,#769,#770,#771,#772,#773)),.UNSPECIFIED.,.F.,.F.,.F.,(4,4),(4,1,1,
1,1,1,1,1,1,1,1,1,1,1,4),(0.27233860795038,0.72766139204962),(0.00149202204192672,
0.126340234995493,0.188764341472276,0.251188447949059,0.313612554425842,
0.376036660902625,0.438460767379408,0.500884873856192,0.563308980332975,
0.625733086809758,0.688157193286541,0.750581299763324,0.813005406240107,
0.87542951271689,1.00027772567046),.UNSPECIFIED.);
#22=B_SPLINE_SURFACE_WITH_KNOTS('',3,3,((#796,#797,#798,#799,#800,#801,
#802,#803,#804,#805,#806,#807,#808,#809,#810,#811,#812),(#813,#814,#815,
#816,#817,#818,#819,#820,#821,#822,#823,#824,#825,#826,#827,#828,#829),
(#830,#831,#832,#833,#834,#835,#836,#837,#838,#839,#840,#841,#842,#843,
#844,#845,#846),(#847,#848,#849,#850,#851,#852,#853,#854,#855,#856,#857,
#858,#859,#860,#861,#862,#863)),.UNSPECIFIED.,.F.,.F.,.F.,(4,4),(4,1,1,
1,1,1,1,1,1,1,1,1,1,1,4),(0.272338607950384,0.72766139204962),(0.00149202204192679,
0.126340234995493,0.188764341472276,0.251188447949059,0.313612554425842,
0.376036660902626,0.438460767379409,0.500884873856192,0.563308980332975,
0.625733086809758,0.688157193286541,0.750581299763324,0.813005406240107,
0.87542951271689,1.00027772567046),.UNSPECIFIED.);
#23=B_SPLINE_SURFACE_WITH_KNOTS('',3,3,((#886,#887,#888,#889,#890,#891,
#892,#893,#894,#895,#896,#897,#898,#899,#900,#901,#902),(#903,#904,#905,
#906,#907,#908,#909,#910,#911,#912,#913,#914,#915,#916,#917,#918,#919),
(#920,#921,#922,#923,#924,#925,#926,#927,#928,#929,#930,#931,#932,#933,
#934,#935,#936),(#937,#938,#939,#940,#941,#942,#943,#944,#945,#946,#947,
#948,#949,#950,#951,#952,#953)),.UNSPECIFIED.,.F.,.F.,.F.,(4,4),(4,1,1,
1,1,1,1,1,1,1,1,1,1,1,4),(0.27233860795038,0.72766139204962),(0.0014920220419268,
0.126340234995493,0.188764341472276,0.251188447949059,0.313612554425842,
0.376036660902625,0.438460767379408,0.500884873856191,0.563308980332974,
0.625733086809757,0.68815719328654,0.750581299763323,0.813005406240106,
0.875429512716889,1.00027772567045),.UNSPECIFIED.);
#24=B_SPLINE_SURFACE_WITH_KNOTS('',3,3,((#981,#982,#983,#984,#985,#986,
#987,#988,#989,#990,#991,#992,#993,#994,#995,#996,#997),(#998,#999,#1000,
#1001,#1002,#1003,#1004,#1005,#1006,#1007,#1008,#1009,#1010,#1011,#1012,
#1013,#1014),(#1015,#1016,#1017,#1018,#1019,#1020,#1021,#1022,#1023,#1024,
#1025,#1026,#1027,#1028,#1029,#1030,#1031),(#1032,#1033,#1034,#1035,#1036,
#1037,#1038,#1039,#1040,#1041,#1042,#1043,#1044,#1045,#1046,#1047,#1048)),
 .UNSPECIFIED.,.F.,.F.,.F.,(4,4),(4,1,1,1,1,1,1,1,1,1,1,1,1,1,4),(0.25965,
0.74035),(-0.000743705881753339,0.124314541341071,0.186843664952483,0.249372788563895,
0.311901912175307,0.374431035786719,0.436960159398131,0.499489283009543,
0.562018406620955,0.624547530232367,0.687076653843779,0.749605777455191,
0.812134901066603,0.874664024678015,0.999722271900839),.UNSPECIFIED.);
#25=B_SPLINE_SURFACE_WITH_KNOTS('',3,3,((#1094,#1095,#1096,#1097,#1098,
#1099,#1100,#1101,#1102,#1103,#1104,#1105,#1106,#1107,#1108,#1109,#1110),
(#1111,#1112,#1113,#1114,#1115,#1116,#1117,#1118,#1119,#1120,#1121,#1122,
#1123,#1124,#1125,#1126,#1127),(#1128,#1129,#1130,#1131,#1132,#1133,#1134,
#1135,#1136,#1137,#1138,#1139,#1140,#1141,#1142,#1143,#1144),(#1145,#1146,
#1147,#1148,#1149,#1150,#1151,#1152,#1153,#1154,#1155,#1156,#1157,#1158,
#1159,#1160,#1161)),.UNSPECIFIED.,.F.,.F.,.F.,(4,4),(4,1,1,1,1,1,1,1,1,
1,1,1,1,1,4),(0.25965,0.74035),(-0.000743705881753475,0.124314541341066,
0.186843664952475,0.249372788563885,0.311901912175295,0.374431035786704,
0.436960159398114,0.499489283009523,0.562018406620933,0.624547530232343,
0.687076653843752,0.749605777455162,0.812134901066571,0.874664024677981,
0.9997222719008),.UNSPECIFIED.);
#26=B_SPLINE_SURFACE_WITH_KNOTS('',3,3,((#1186,#1187,#1188,#1189,#1190,
#1191,#1192,#1193,#1194,#1195,#1196,#1197,#1198,#1199,#1200,#1201,#1202),
(#1203,#1204,#1205,#1206,#1207,#1208,#1209,#1210,#1211,#1212,#1213,#1214,
#1215,#1216,#1217,#1218,#1219),(#1220,#1221,#1222,#1223,#1224,#1225,#1226,
#1227,#1228,#1229,#1230,#1231,#1232,#1233,#1234,#1235,#1236),(#1237,#1238,
#1239,#1240,#1241,#1242,#1243,#1244,#1245,#1246,#1247,#1248,#1249,#1250,
#1251,#1252,#1253)),.UNSPECIFIED.,.F.,.F.,.F.,(4,4),(4,1,1,1,1,1,1,1,1,
1,1,1,1,1,4),(0.25965,0.740349999999998),(-0.000743705881753513,0.124314541341066,
0.186843664952475,0.249372788563885,0.311901912175295,0.374431035786704,
0.436960159398114,0.499489283009523,0.562018406620933,0.624547530232342,
0.687076653843752,0.749605777455162,0.812134901066571,0.874664024677981,
0.9997222719008),.UNSPECIFIED.);
#27=B_SPLINE_SURFACE_WITH_KNOTS('',3,3,((#1278,#1279,#1280,#1281,#1282,
#1283,#1284,#1285,#1286,#1287,#1288,#1289,#1290,#1291,#1292,#1293,#1294),
(#1295,#1296,#1297,#1298,#1299,#1300,#1301,#1302,#1303,#1304,#1305,#1306,
#1307,#1308,#1309,#1310,#1311),(#1312,#1313,#1314,#1315,#1316,#1317,#1318,
#1319,#1320,#1321,#1322,#1323,#1324,#1325,#1326,#1327,#1328),(#1329,#1330,
#1331,#1332,#1333,#1334,#1335,#1336,#1337,#1338,#1339,#1340,#1341,#1342,
#1343,#1344,#1345)),.UNSPECIFIED.,.F.,.F.,.F.,(4,4),(4,1,1,1,1,1,1,1,1,
1,1,1,1,1,4),(0.25965,0.74035),(-0.000743705881753883,0.12431454134107,
0.186843664952482,0.249372788563894,0.311901912175306,0.374431035786718,
0.436960159398131,0.499489283009543,0.562018406620955,0.624547530232367,
0.687076653843779,0.749605777455191,0.812134901066603,0.874664024678015,
0.999722271900839),.UNSPECIFIED.);
#28=ORIENTED_EDGE('',*,*,#148,.T.);
#29=ORIENTED_EDGE('',*,*,#149,.T.);
#30=ORIENTED_EDGE('',*,*,#150,.T.);
#31=ORIENTED_EDGE('',*,*,#151,.T.);
#32=ORIENTED_EDGE('',*,*,#152,.T.);
#33=ORIENTED_EDGE('',*,*,#153,.T.);
#34=ORIENTED_EDGE('',*,*,#154,.T.);
#35=ORIENTED_EDGE('',*,*,#155,.T.);
#36=ORIENTED_EDGE('',*,*,#156,.F.);
#37=ORIENTED_EDGE('',*,*,#157,.T.);
#38=ORIENTED_EDGE('',*,*,#158,.F.);
#39=ORIENTED_EDGE('',*,*,#159,.F.);
#40=ORIENTED_EDGE('',*,*,#158,.T.);
#41=ORIENTED_EDGE('',*,*,#160,.T.);
#42=ORIENTED_EDGE('',*,*,#161,.F.);
#43=ORIENTED_EDGE('',*,*,#162,.F.);
#44=ORIENTED_EDGE('',*,*,#161,.T.);
#45=ORIENTED_EDGE('',*,*,#163,.T.);
#46=ORIENTED_EDGE('',*,*,#164,.F.);
#47=ORIENTED_EDGE('',*,*,#165,.F.);
#48=ORIENTED_EDGE('',*,*,#164,.T.);
#49=ORIENTED_EDGE('',*,*,#166,.T.);
#50=ORIENTED_EDGE('',*,*,#156,.T.);
#51=ORIENTED_EDGE('',*,*,#167,.F.);
#52=ORIENTED_EDGE('',*,*,#168,.F.);
#53=ORIENTED_EDGE('',*,*,#169,.F.);
#54=ORIENTED_EDGE('',*,*,#170,.F.);
#55=ORIENTED_EDGE('',*,*,#171,.F.);
#56=ORIENTED_EDGE('',*,*,#172,.T.);
#57=ORIENTED_EDGE('',*,*,#173,.T.);
#58=ORIENTED_EDGE('',*,*,#174,.T.);
#59=ORIENTED_EDGE('',*,*,#175,.T.);
#60=ORIENTED_EDGE('',*,*,#169,.T.);
#61=ORIENTED_EDGE('',*,*,#176,.F.);
#62=ORIENTED_EDGE('',*,*,#159,.T.);
#63=ORIENTED_EDGE('',*,*,#177,.T.);
#64=ORIENTED_EDGE('',*,*,#170,.T.);
#65=ORIENTED_EDGE('',*,*,#177,.F.);
#66=ORIENTED_EDGE('',*,*,#162,.T.);
#67=ORIENTED_EDGE('',*,*,#178,.T.);
#68=ORIENTED_EDGE('',*,*,#171,.T.);
#69=ORIENTED_EDGE('',*,*,#178,.F.);
#70=ORIENTED_EDGE('',*,*,#165,.T.);
#71=ORIENTED_EDGE('',*,*,#179,.T.);
#72=ORIENTED_EDGE('',*,*,#168,.T.);
#73=ORIENTED_EDGE('',*,*,#179,.F.);
#74=ORIENTED_EDGE('',*,*,#167,.T.);
#75=ORIENTED_EDGE('',*,*,#176,.T.);
#76=ORIENTED_EDGE('',*,*,#180,.T.);
#77=ORIENTED_EDGE('',*,*,#181,.F.);
#78=ORIENTED_EDGE('',*,*,#182,.T.);
#79=ORIENTED_EDGE('',*,*,#183,.T.);
#80=ORIENTED_EDGE('',*,*,#175,.F.);
#81=ORIENTED_EDGE('',*,*,#184,.F.);
#82=ORIENTED_EDGE('',*,*,#183,.F.);
#83=ORIENTED_EDGE('',*,*,#185,.T.);
#84=ORIENTED_EDGE('',*,*,#151,.F.);
#85=ORIENTED_EDGE('',*,*,#186,.F.);
#86=ORIENTED_EDGE('',*,*,#181,.T.);
#87=ORIENTED_EDGE('',*,*,#187,.T.);
#88=ORIENTED_EDGE('',*,*,#188,.T.);
#89=ORIENTED_EDGE('',*,*,#189,.F.);
#90=ORIENTED_EDGE('',*,*,#180,.F.);
#91=ORIENTED_EDGE('',*,*,#190,.T.);
#92=ORIENTED_EDGE('',*,*,#174,.F.);
#93=ORIENTED_EDGE('',*,*,#191,.F.);
#94=ORIENTED_EDGE('',*,*,#190,.F.);
#95=ORIENTED_EDGE('',*,*,#184,.T.);
#96=ORIENTED_EDGE('',*,*,#148,.F.);
#97=ORIENTED_EDGE('',*,*,#187,.F.);
#98=ORIENTED_EDGE('',*,*,#189,.T.);
#99=ORIENTED_EDGE('',*,*,#192,.T.);
#100=ORIENTED_EDGE('',*,*,#193,.T.);
#101=ORIENTED_EDGE('',*,*,#194,.F.);
#102=ORIENTED_EDGE('',*,*,#188,.F.);
#103=ORIENTED_EDGE('',*,*,#195,.T.);
#104=ORIENTED_EDGE('',*,*,#173,.F.);
#105=ORIENTED_EDGE('',*,*,#196,.F.);
#106=ORIENTED_EDGE('',*,*,#195,.F.);
#107=ORIENTED_EDGE('',*,*,#191,.T.);
#108=ORIENTED_EDGE('',*,*,#149,.F.);
#109=ORIENTED_EDGE('',*,*,#192,.F.);
#110=ORIENTED_EDGE('',*,*,#194,.T.);
#111=ORIENTED_EDGE('',*,*,#197,.T.);
#112=ORIENTED_EDGE('',*,*,#182,.F.);
#113=ORIENTED_EDGE('',*,*,#198,.F.);
#114=ORIENTED_EDGE('',*,*,#193,.F.);
#115=ORIENTED_EDGE('',*,*,#199,.T.);
#116=ORIENTED_EDGE('',*,*,#172,.F.);
#117=ORIENTED_EDGE('',*,*,#185,.F.);
#118=ORIENTED_EDGE('',*,*,#199,.F.);
#119=ORIENTED_EDGE('',*,*,#196,.T.);
#120=ORIENTED_EDGE('',*,*,#150,.F.);
#121=ORIENTED_EDGE('',*,*,#197,.F.);
#122=ORIENTED_EDGE('',*,*,#198,.T.);
#123=ORIENTED_EDGE('',*,*,#186,.T.);
#124=ORIENTED_EDGE('',*,*,#200,.T.);
#125=ORIENTED_EDGE('',*,*,#201,.F.);
#126=ORIENTED_EDGE('',*,*,#202,.F.);
#127=ORIENTED_EDGE('',*,*,#153,.F.);
#128=ORIENTED_EDGE('',*,*,#203,.T.);
#129=ORIENTED_EDGE('',*,*,#204,.F.);
#130=ORIENTED_EDGE('',*,*,#200,.F.);
#131=ORIENTED_EDGE('',*,*,#152,.F.);
#132=ORIENTED_EDGE('',*,*,#205,.T.);
#133=ORIENTED_EDGE('',*,*,#206,.F.);
#134=ORIENTED_EDGE('',*,*,#203,.F.);
#135=ORIENTED_EDGE('',*,*,#155,.F.);
#136=ORIENTED_EDGE('',*,*,#202,.T.);
#137=ORIENTED_EDGE('',*,*,#207,.F.);
#138=ORIENTED_EDGE('',*,*,#205,.F.);
#139=ORIENTED_EDGE('',*,*,#154,.F.);
#140=ORIENTED_EDGE('',*,*,#166,.F.);
#141=ORIENTED_EDGE('',*,*,#163,.F.);
#142=ORIENTED_EDGE('',*,*,#160,.F.);
#143=ORIENTED_EDGE('',*,*,#157,.F.);
#144=ORIENTED_EDGE('',*,*,#201,.T.);
#145=ORIENTED_EDGE('',*,*,#204,.T.);
#146=ORIENTED_EDGE('',*,*,#206,.T.);
#147=ORIENTED_EDGE('',*,*,#207,.T.);
#148=EDGE_CURVE('',#208,#209,#244,.F.);
#149=EDGE_CURVE('',#209,#210,#245,.F.);
#150=EDGE_CURVE('',#210,#211,#246,.F.);
#151=EDGE_CURVE('',#211,#208,#247,.F.);
#152=EDGE_CURVE('',#212,#213,#248,.F.);
#153=EDGE_CURVE('',#213,#214,#249,.F.);
#154=EDGE_CURVE('',#214,#215,#250,.F.);
#155=EDGE_CURVE('',#215,#212,#251,.F.);
#156=EDGE_CURVE('',#216,#217,#12,.T.);
#157=EDGE_CURVE('',#216,#218,#252,.T.);
#158=EDGE_CURVE('',#219,#218,#13,.T.);
#159=EDGE_CURVE('',#217,#219,#253,.T.);
#160=EDGE_CURVE('',#218,#220,#254,.T.);
#161=EDGE_CURVE('',#221,#220,#14,.T.);
#162=EDGE_CURVE('',#219,#221,#255,.T.);
#163=EDGE_CURVE('',#220,#222,#256,.T.);
#164=EDGE_CURVE('',#223,#222,#15,.T.);
#165=EDGE_CURVE('',#221,#223,#257,.T.);
#166=EDGE_CURVE('',#222,#216,#258,.T.);
#167=EDGE_CURVE('',#223,#217,#259,.T.);
#168=EDGE_CURVE('',#224,#225,#260,.T.);
#169=EDGE_CURVE('',#226,#224,#261,.T.);
#170=EDGE_CURVE('',#227,#226,#262,.T.);
#171=EDGE_CURVE('',#225,#227,#263,.T.);
#172=EDGE_CURVE('',#228,#229,#264,.T.);
#173=EDGE_CURVE('',#229,#230,#265,.T.);
#174=EDGE_CURVE('',#230,#231,#266,.T.);
#175=EDGE_CURVE('',#231,#228,#267,.T.);
#176=EDGE_CURVE('',#217,#224,#268,.T.);
#177=EDGE_CURVE('',#219,#226,#269,.T.);
#178=EDGE_CURVE('',#221,#227,#270,.T.);
#179=EDGE_CURVE('',#223,#225,#271,.T.);
#180=EDGE_CURVE('',#232,#233,#16,.F.);
#181=EDGE_CURVE('',#234,#233,#272,.T.);
#182=EDGE_CURVE('',#234,#235,#17,.T.);
#183=EDGE_CURVE('',#235,#232,#273,.T.);
#184=EDGE_CURVE('',#232,#231,#274,.T.);
#185=EDGE_CURVE('',#235,#228,#275,.T.);
#186=EDGE_CURVE('',#234,#211,#276,.T.);
#187=EDGE_CURVE('',#233,#208,#277,.T.);
#188=EDGE_CURVE('',#236,#237,#18,.F.);
#189=EDGE_CURVE('',#233,#237,#278,.T.);
#190=EDGE_CURVE('',#232,#236,#279,.T.);
#191=EDGE_CURVE('',#236,#230,#280,.T.);
#192=EDGE_CURVE('',#237,#209,#281,.T.);
#193=EDGE_CURVE('',#238,#239,#19,.F.);
#194=EDGE_CURVE('',#237,#239,#282,.T.);
#195=EDGE_CURVE('',#236,#238,#283,.T.);
#196=EDGE_CURVE('',#238,#229,#284,.T.);
#197=EDGE_CURVE('',#239,#210,#285,.T.);
#198=EDGE_CURVE('',#239,#234,#286,.T.);
#199=EDGE_CURVE('',#238,#235,#287,.T.);
#200=EDGE_CURVE('',#213,#240,#288,.T.);
#201=EDGE_CURVE('',#241,#240,#289,.T.);
#202=EDGE_CURVE('',#214,#241,#290,.T.);
#203=EDGE_CURVE('',#212,#242,#291,.T.);
#204=EDGE_CURVE('',#240,#242,#292,.T.);
#205=EDGE_CURVE('',#215,#243,#293,.T.);
#206=EDGE_CURVE('',#242,#243,#294,.T.);
#207=EDGE_CURVE('',#243,#241,#295,.T.);
#208=VERTEX_POINT('',#581);
#209=VERTEX_POINT('',#582);
#210=VERTEX_POINT('',#584);
#211=VERTEX_POINT('',#586);
#212=VERTEX_POINT('',#589);
#213=VERTEX_POINT('',#590);
#214=VERTEX_POINT('',#592);
#215=VERTEX_POINT('',#594);
#216=VERTEX_POINT('',#682);
#217=VERTEX_POINT('',#683);
#218=VERTEX_POINT('',#685);
#219=VERTEX_POINT('',#704);
#220=VERTEX_POINT('',#775);
#221=VERTEX_POINT('',#794);
#222=VERTEX_POINT('',#865);
#223=VERTEX_POINT('',#884);
#224=VERTEX_POINT('',#958);
#225=VERTEX_POINT('',#959);
#226=VERTEX_POINT('',#961);
#227=VERTEX_POINT('',#963);
#228=VERTEX_POINT('',#966);
#229=VERTEX_POINT('',#967);
#230=VERTEX_POINT('',#969);
#231=VERTEX_POINT('',#971);
#232=VERTEX_POINT('',#1065);
#233=VERTEX_POINT('',#1066);
#234=VERTEX_POINT('',#1068);
#235=VERTEX_POINT('',#1086);
#236=VERTEX_POINT('',#1178);
#237=VERTEX_POINT('',#1179);
#238=VERTEX_POINT('',#1270);
#239=VERTEX_POINT('',#1271);
#240=VERTEX_POINT('',#1352);
#241=VERTEX_POINT('',#1354);
#242=VERTEX_POINT('',#1358);
#243=VERTEX_POINT('',#1362);
#244=LINE('',#580,#296);
#245=LINE('',#583,#297);
#246=LINE('',#585,#298);
#247=LINE('',#587,#299);
#248=LINE('',#588,#300);
#249=LINE('',#591,#301);
#250=LINE('',#593,#302);
#251=LINE('',#595,#303);
#252=LINE('',#684,#304);
#253=LINE('',#705,#305);
#254=LINE('',#774,#306);
#255=LINE('',#795,#307);
#256=LINE('',#864,#308);
#257=LINE('',#885,#309);
#258=LINE('',#954,#310);
#259=LINE('',#955,#311);
#260=LINE('',#957,#312);
#261=LINE('',#960,#313);
#262=LINE('',#962,#314);
#263=LINE('',#964,#315);
#264=LINE('',#965,#316);
#265=LINE('',#968,#317);
#266=LINE('',#970,#318);
#267=LINE('',#972,#319);
#268=LINE('',#974,#320);
#269=LINE('',#975,#321);
#270=LINE('',#977,#322);
#271=LINE('',#979,#323);
#272=LINE('',#1067,#324);
#273=LINE('',#1087,#325);
#274=LINE('',#1089,#326);
#275=LINE('',#1090,#327);
#276=LINE('',#1092,#328);
#277=LINE('',#1093,#329);
#278=LINE('',#1180,#330);
#279=LINE('',#1181,#331);
#280=LINE('',#1183,#332);
#281=LINE('',#1185,#333);
#282=LINE('',#1272,#334);
#283=LINE('',#1273,#335);
#284=LINE('',#1275,#336);
#285=LINE('',#1277,#337);
#286=LINE('',#1346,#338);
#287=LINE('',#1347,#339);
#288=LINE('',#1351,#340);
#289=LINE('',#1353,#341);
#290=LINE('',#1355,#342);
#291=LINE('',#1357,#343);
#292=LINE('',#1359,#344);
#293=LINE('',#1361,#345);
#294=LINE('',#1363,#346);
#295=LINE('',#1365,#347);
#296=VECTOR('',#490,1.);
#297=VECTOR('',#491,1.);
#298=VECTOR('',#492,1.);
#299=VECTOR('',#493,1.);
#300=VECTOR('',#494,1.);
#301=VECTOR('',#495,1.);
#302=VECTOR('',#496,1.);
#303=VECTOR('',#497,1.);
#304=VECTOR('',#498,1.);
#305=VECTOR('',#499,1.);
#306=VECTOR('',#500,1.);
#307=VECTOR('',#501,1.);
#308=VECTOR('',#502,1.);
#309=VECTOR('',#503,1.);
#310=VECTOR('',#504,1.);
#311=VECTOR('',#505,1.);
#312=VECTOR('',#508,1.);
#313=VECTOR('',#509,1.);
#314=VECTOR('',#510,1.);
#315=VECTOR('',#511,1.);
#316=VECTOR('',#512,1.);
#317=VECTOR('',#513,1.);
#318=VECTOR('',#514,1.);
#319=VECTOR('',#515,1.);
#320=VECTOR('',#518,1.);
#321=VECTOR('',#519,1.);
#322=VECTOR('',#522,1.);
#323=VECTOR('',#525,1.);
#324=VECTOR('',#528,1.);
#325=VECTOR('',#529,1.);
#326=VECTOR('',#532,1.);
#327=VECTOR('',#533,1.);
#328=VECTOR('',#536,1.);
#329=VECTOR('',#537,1.);
#330=VECTOR('',#538,1.);
#331=VECTOR('',#539,1.);
#332=VECTOR('',#542,1.);
#333=VECTOR('',#545,1.);
#334=VECTOR('',#546,1.);
#335=VECTOR('',#547,1.);
#336=VECTOR('',#550,1.);
#337=VECTOR('',#553,1.);
#338=VECTOR('',#554,1.);
#339=VECTOR('',#555,1.);
#340=VECTOR('',#562,1.);
#341=VECTOR('',#563,1.);
#342=VECTOR('',#564,1.);
#343=VECTOR('',#567,1.);
#344=VECTOR('',#568,1.);
#345=VECTOR('',#571,1.);
#346=VECTOR('',#572,1.);
#347=VECTOR('',#575,1.);
#348=EDGE_LOOP('',(#28,#29,#30,#31));
#349=EDGE_LOOP('',(#32,#33,#34,#35));
#350=EDGE_LOOP('',(#36,#37,#38,#39));
#351=EDGE_LOOP('',(#40,#41,#42,#43));
#352=EDGE_LOOP('',(#44,#45,#46,#47));
#353=EDGE_LOOP('',(#48,#49,#50,#51));
#354=EDGE_LOOP('',(#52,#53,#54,#55));
#355=EDGE_LOOP('',(#56,#57,#58,#59));
#356=EDGE_LOOP('',(#60,#61,#62,#63));
#357=EDGE_LOOP('',(#64,#65,#66,#67));
#358=EDGE_LOOP('',(#68,#69,#70,#71));
#359=EDGE_LOOP('',(#72,#73,#74,#75));
#360=EDGE_LOOP('',(#76,#77,#78,#79));
#361=EDGE_LOOP('',(#80,#81,#82,#83));
#362=EDGE_LOOP('',(#84,#85,#86,#87));
#363=EDGE_LOOP('',(#88,#89,#90,#91));
#364=EDGE_LOOP('',(#92,#93,#94,#95));
#365=EDGE_LOOP('',(#96,#97,#98,#99));
#366=EDGE_LOOP('',(#100,#101,#102,#103));
#367=EDGE_LOOP('',(#104,#105,#106,#107));
#368=EDGE_LOOP('',(#108,#109,#110,#111));
#369=EDGE_LOOP('',(#112,#113,#114,#115));
#370=EDGE_LOOP('',(#116,#117,#118,#119));
#371=EDGE_LOOP('',(#120,#121,#122,#123));
#372=EDGE_LOOP('',(#124,#125,#126,#127));
#373=EDGE_LOOP('',(#128,#129,#130,#131));
#374=EDGE_LOOP('',(#132,#133,#134,#135));
#375=EDGE_LOOP('',(#136,#137,#138,#139));
#376=EDGE_LOOP('',(#140,#141,#142,#143));
#377=EDGE_LOOP('',(#144,#145,#146,#147));
#378=FACE_BOUND('',#348,.T.);
#379=FACE_BOUND('',#349,.T.);
#380=FACE_BOUND('',#350,.T.);
#381=FACE_BOUND('',#351,.T.);
#382=FACE_BOUND('',#352,.T.);
#383=FACE_BOUND('',#353,.T.);
#384=FACE_BOUND('',#354,.T.);
#385=FACE_BOUND('',#355,.T.);
#386=FACE_BOUND('',#356,.T.);
#387=FACE_BOUND('',#357,.T.);
#388=FACE_BOUND('',#358,.T.);
#389=FACE_BOUND('',#359,.T.);
#390=FACE_BOUND('',#360,.T.);
#391=FACE_BOUND('',#361,.T.);
#392=FACE_BOUND('',#362,.T.);
#393=FACE_BOUND('',#363,.T.);
#394=FACE_BOUND('',#364,.T.);
#395=FACE_BOUND('',#365,.T.);
#396=FACE_BOUND('',#366,.T.);
#397=FACE_BOUND('',#367,.T.);
#398=FACE_BOUND('',#368,.T.);
#399=FACE_BOUND('',#369,.T.);
#400=FACE_BOUND('',#370,.T.);
#401=FACE_BOUND('',#371,.T.);
#402=FACE_BOUND('',#372,.T.);
#403=FACE_BOUND('',#373,.T.);
#404=FACE_BOUND('',#374,.T.);
#405=FACE_BOUND('',#375,.T.);
#406=FACE_BOUND('',#376,.T.);
#407=FACE_BOUND('',#377,.T.);
#408=PLANE('',#467);
#409=PLANE('',#468);
#410=PLANE('',#469);
#411=PLANE('',#470);
#412=PLANE('',#471);
#413=PLANE('',#472);
#414=PLANE('',#473);
#415=PLANE('',#474);
#416=PLANE('',#475);
#417=PLANE('',#476);
#418=PLANE('',#477);
#419=PLANE('',#478);
#420=PLANE('',#479);
#421=PLANE('',#480);
#422=PLANE('',#481);
#423=PLANE('',#482);
#424=PLANE('',#483);
#425=PLANE('',#484);
#426=PLANE('',#485);
#427=ADVANCED_FACE('',(#378,#379),#408,.F.);
#428=ADVANCED_FACE('',(#380),#20,.T.);
#429=ADVANCED_FACE('',(#381),#21,.T.);
#430=ADVANCED_FACE('',(#382),#22,.T.);
#431=ADVANCED_FACE('',(#383),#23,.T.);
#432=ADVANCED_FACE('',(#384,#385),#409,.F.);
#433=ADVANCED_FACE('',(#386),#410,.F.);
#434=ADVANCED_FACE('',(#387),#411,.F.);
#435=ADVANCED_FACE('',(#388),#412,.F.);
#436=ADVANCED_FACE('',(#389),#413,.F.);
#437=ADVANCED_FACE('',(#390),#24,.F.);
#438=ADVANCED_FACE('',(#391),#414,.T.);
#439=ADVANCED_FACE('',(#392),#415,.T.);
#440=ADVANCED_FACE('',(#393),#25,.F.);
#441=ADVANCED_FACE('',(#394),#416,.T.);
#442=ADVANCED_FACE('',(#395),#417,.T.);
#443=ADVANCED_FACE('',(#396),#26,.F.);
#444=ADVANCED_FACE('',(#397),#418,.T.);
#445=ADVANCED_FACE('',(#398),#419,.T.);
#446=ADVANCED_FACE('',(#399),#27,.F.);
#447=ADVANCED_FACE('',(#400),#420,.T.);
#448=ADVANCED_FACE('',(#401),#421,.T.);
#449=ADVANCED_FACE('',(#402),#422,.T.);
#450=ADVANCED_FACE('',(#403),#423,.T.);
#451=ADVANCED_FACE('',(#404),#424,.T.);
#452=ADVANCED_FACE('',(#405),#425,.T.);
#453=ADVANCED_FACE('',(#406,#407),#426,.T.);
#454=CLOSED_SHELL('',(#427,#428,#429,#430,#431,#432,#433,#434,#435,#436,
#437,#438,#439,#440,#441,#442,#443,#444,#445,#446,#447,#448,#449,#450,#451,
#452,#453));
#455=STYLED_ITEM('',(#456),#463);
#456=PRESENTATION_STYLE_ASSIGNMENT((#457));
#457=SURFACE_STYLE_USAGE(.BOTH.,#458);
#458=SURFACE_SIDE_STYLE('',(#459));
#459=SURFACE_STYLE_FILL_AREA(#460);
#460=FILL_AREA_STYLE('',(#461));
#461=FILL_AREA_STYLE_COLOUR('',#462);
#462=COLOUR_RGB('',0.647058823529412,0.647058823529412,0.647058823529412);
#463=MANIFOLD_SOLID_BREP('C\X\F4ne de concentration',#454);
#464=SHAPE_DEFINITION_REPRESENTATION(#1373,#465);
#465=SHAPE_REPRESENTATION('C\X\F4ne de concentration',(#466),#1368);
#466=AXIS2_PLACEMENT_3D('',#578,#486,#487);
#467=AXIS2_PLACEMENT_3D('',#579,#488,#489);
#468=AXIS2_PLACEMENT_3D('',#956,#506,#507);
#469=AXIS2_PLACEMENT_3D('',#973,#516,#517);
#470=AXIS2_PLACEMENT_3D('',#976,#520,#521);
#471=AXIS2_PLACEMENT_3D('',#978,#523,#524);
#472=AXIS2_PLACEMENT_3D('',#980,#526,#527);
#473=AXIS2_PLACEMENT_3D('',#1088,#530,#531);
#474=AXIS2_PLACEMENT_3D('',#1091,#534,#535);
#475=AXIS2_PLACEMENT_3D('',#1182,#540,#541);
#476=AXIS2_PLACEMENT_3D('',#1184,#543,#544);
#477=AXIS2_PLACEMENT_3D('',#1274,#548,#549);
#478=AXIS2_PLACEMENT_3D('',#1276,#551,#552);
#479=AXIS2_PLACEMENT_3D('',#1348,#556,#557);
#480=AXIS2_PLACEMENT_3D('',#1349,#558,#559);
#481=AXIS2_PLACEMENT_3D('',#1350,#560,#561);
#482=AXIS2_PLACEMENT_3D('',#1356,#565,#566);
#483=AXIS2_PLACEMENT_3D('',#1360,#569,#570);
#484=AXIS2_PLACEMENT_3D('',#1364,#573,#574);
#485=AXIS2_PLACEMENT_3D('',#1366,#576,#577);
#486=DIRECTION('',(0.,0.,1.));
#487=DIRECTION('',(1.,0.,0.));
#488=DIRECTION('',(0.,1.,0.));
#489=DIRECTION('',(-6.12323399573677E-17,0.,-1.));
#490=DIRECTION('',(6.12323399573677E-17,0.,1.));
#491=DIRECTION('',(-1.,0.,1.22464679914735E-16));
#492=DIRECTION('',(-1.83697019872103E-16,0.,-1.));
#493=DIRECTION('',(1.,0.,0.));
#494=DIRECTION('',(-1.,0.,0.));
#495=DIRECTION('',(1.53770502025645E-16,0.,1.));
#496=DIRECTION('',(1.,0.,-1.53770502025645E-16));
#497=DIRECTION('',(0.,0.,-1.));
#498=DIRECTION('',(-1.,0.,0.));
#499=DIRECTION('',(-1.,0.,0.));
#500=DIRECTION('',(-6.93889390390723E-17,0.,-1.));
#501=DIRECTION('',(-6.93889390390723E-17,0.,-1.));
#502=DIRECTION('',(1.,0.,-1.38777878078145E-16));
#503=DIRECTION('',(1.,0.,-1.38777878078145E-16));
#504=DIRECTION('',(2.08166817117217E-16,0.,1.));
#505=DIRECTION('',(2.08166817117217E-16,0.,1.));
#506=DIRECTION('',(0.,-1.,0.));
#507=DIRECTION('',(-1.83697019872103E-16,0.,-1.));
#508=DIRECTION('',(-1.83697019872103E-16,0.,-1.));
#509=DIRECTION('',(1.,0.,0.));
#510=DIRECTION('',(6.12323399573677E-17,0.,1.));
#511=DIRECTION('',(-1.,0.,1.22464679914735E-16));
#512=DIRECTION('',(-1.83697019872103E-16,0.,-1.));
#513=DIRECTION('',(-1.,0.,1.22464679914735E-16));
#514=DIRECTION('',(6.12323399573677E-17,0.,1.));
#515=DIRECTION('',(1.,0.,0.));
#516=DIRECTION('',(0.,0.,1.));
#517=DIRECTION('',(1.,0.,0.));
#518=DIRECTION('',(0.,1.,0.));
#519=DIRECTION('',(0.,1.,0.));
#520=DIRECTION('',(-1.,0.,6.12323399573677E-17));
#521=DIRECTION('',(6.12323399573677E-17,0.,1.));
#522=DIRECTION('',(0.,1.,0.));
#523=DIRECTION('',(-1.22464679914735E-16,0.,-1.));
#524=DIRECTION('',(-1.,0.,1.22464679914735E-16));
#525=DIRECTION('',(0.,1.,0.));
#526=DIRECTION('',(1.,0.,-1.83697019872103E-16));
#527=DIRECTION('',(-1.83697019872103E-16,0.,-1.));
#528=DIRECTION('',(-1.,0.,0.));
#529=DIRECTION('',(-1.,0.,0.));
#530=DIRECTION('',(0.,0.,1.));
#531=DIRECTION('',(1.,0.,0.));
#532=DIRECTION('',(0.,1.,0.));
#533=DIRECTION('',(0.,1.,0.));
#534=DIRECTION('',(0.,0.,1.));
#535=DIRECTION('',(1.,0.,0.));
#536=DIRECTION('',(0.,-1.,0.));
#537=DIRECTION('',(0.,-1.,0.));
#538=DIRECTION('',(-6.93889390390723E-17,0.,-1.));
#539=DIRECTION('',(-6.93889390390723E-17,0.,-1.));
#540=DIRECTION('',(-1.,0.,6.12323399573677E-17));
#541=DIRECTION('',(6.12323399573677E-17,0.,1.));
#542=DIRECTION('',(0.,1.,0.));
#543=DIRECTION('',(-1.,0.,6.12323399573677E-17));
#544=DIRECTION('',(6.12323399573677E-17,0.,1.));
#545=DIRECTION('',(0.,-1.,0.));
#546=DIRECTION('',(1.,0.,-1.38777878078145E-16));
#547=DIRECTION('',(1.,0.,-1.38777878078145E-16));
#548=DIRECTION('',(-1.22464679914735E-16,0.,-1.));
#549=DIRECTION('',(-1.,0.,1.22464679914735E-16));
#550=DIRECTION('',(0.,1.,0.));
#551=DIRECTION('',(-1.22464679914735E-16,0.,-1.));
#552=DIRECTION('',(-1.,0.,1.22464679914735E-16));
#553=DIRECTION('',(0.,-1.,0.));
#554=DIRECTION('',(2.08166817117217E-16,0.,1.));
#555=DIRECTION('',(2.08166817117217E-16,0.,1.));
#556=DIRECTION('',(1.,0.,-1.83697019872103E-16));
#557=DIRECTION('',(-1.83697019872103E-16,0.,-1.));
#558=DIRECTION('',(1.,0.,-1.83697019872103E-16));
#559=DIRECTION('',(-1.83697019872103E-16,0.,-1.));
#560=DIRECTION('',(-1.,0.,1.53770502025645E-16));
#561=DIRECTION('',(1.53770502025645E-16,0.,1.));
#562=DIRECTION('',(0.,1.,0.));
#563=DIRECTION('',(1.53770502025645E-16,0.,1.));
#564=DIRECTION('',(0.,1.,0.));
#565=DIRECTION('',(0.,0.,-1.));
#566=DIRECTION('',(-1.,0.,0.));
#567=DIRECTION('',(0.,1.,0.));
#568=DIRECTION('',(-1.,0.,0.));
#569=DIRECTION('',(1.,0.,0.));
#570=DIRECTION('',(0.,0.,-1.));
#571=DIRECTION('',(0.,1.,0.));
#572=DIRECTION('',(0.,0.,-1.));
#573=DIRECTION('',(1.53770502025645E-16,0.,1.));
#574=DIRECTION('',(1.,0.,-1.53770502025645E-16));
#575=DIRECTION('',(1.,0.,-1.53770502025645E-16));
#576=DIRECTION('',(0.,-1.,0.));
#577=DIRECTION('',(1.,0.,0.));
#578=CARTESIAN_POINT('',(0.,0.,0.));
#579=CARTESIAN_POINT('',(-0.0925,-0.23,5.66399144605651E-18));
#580=CARTESIAN_POINT('',(-0.095,-0.23,5.81707229594993E-18));
#581=CARTESIAN_POINT('',(-0.095,-0.23,0.095));
#582=CARTESIAN_POINT('',(-0.095,-0.23,-0.095));
#583=CARTESIAN_POINT('',(-1.16341445918999E-17,-0.23,-0.095));
#584=CARTESIAN_POINT('',(0.095,-0.23,-0.095));
#585=CARTESIAN_POINT('',(0.095,-0.23,-1.74512168878498E-17));
#586=CARTESIAN_POINT('',(0.095,-0.23,0.095));
#587=CARTESIAN_POINT('',(0.,-0.23,0.095));
#588=CARTESIAN_POINT('',(-0.0925,-0.23,0.09025));
#589=CARTESIAN_POINT('',(-0.09025,-0.23,0.09025));
#590=CARTESIAN_POINT('',(0.09025,-0.23,0.09025));
#591=CARTESIAN_POINT('',(0.09025,-0.23,-2.24375677991301E-17));
#592=CARTESIAN_POINT('',(0.09025,-0.23,-0.09025));
#593=CARTESIAN_POINT('',(-0.0925,-0.23,-0.09025));
#594=CARTESIAN_POINT('',(-0.09025,-0.23,-0.09025));
#595=CARTESIAN_POINT('',(-0.09025,-0.23,5.66399144605651E-18));
#596=CARTESIAN_POINT('',(0.091064556819848,-0.18,0.0899847399405612));
#597=CARTESIAN_POINT('',(0.091064556819848,-0.172331946247403,0.0891344186429562));
#598=CARTESIAN_POINT('',(0.0910645568198481,-0.16087171915088,0.0878659700911179));
#599=CARTESIAN_POINT('',(0.091064556819848,-0.145814427608991,0.0853282735927632));
#600=CARTESIAN_POINT('',(0.091064556819848,-0.134624861760731,0.0828475947622206));
#601=CARTESIAN_POINT('',(0.091064556819848,-0.123586065802929,0.0798031206005154));
#602=CARTESIAN_POINT('',(0.0910645568198479,-0.112758807255764,0.0761383697411971));
#603=CARTESIAN_POINT('',(0.091064556819848,-0.101999282999205,0.0720349702672774));
#604=CARTESIAN_POINT('',(0.091064556819848,-0.0911949604784411,0.0678233375592853));
#605=CARTESIAN_POINT('',(0.091064556819848,-0.0802565038985415,0.0638179312365949));
#606=CARTESIAN_POINT('',(0.091064556819848,-0.0691789634388012,0.0601613850553486));
#607=CARTESIAN_POINT('',(0.091064556819848,-0.0579124870184965,0.0569897240947348));
#608=CARTESIAN_POINT('',(0.091064556819848,-0.046474765337761,0.0544178961836837));
#609=CARTESIAN_POINT('',(0.091064556819848,-0.0349122303889386,0.0524655337502466));
#610=CARTESIAN_POINT('',(0.091064556819848,-0.0193866508026676,0.0507875363398989));
#611=CARTESIAN_POINT('',(0.091064556819848,-0.00776778565923071,0.05032222887339));
#612=CARTESIAN_POINT('',(0.091064556819848,-5.15243319276817E-5,0.05));
#613=CARTESIAN_POINT('',(0.0303548522732827,-0.18,0.0899847399405612));
#614=CARTESIAN_POINT('',(0.0303548522732827,-0.172331946247403,0.0891344186429562));
#615=CARTESIAN_POINT('',(0.0303548522732827,-0.16087171915088,0.0878659700911177));
#616=CARTESIAN_POINT('',(0.0303548522732827,-0.145814427608991,0.0853282735927632));
#617=CARTESIAN_POINT('',(0.0303548522732827,-0.13462486176073,0.0828475947622206));
#618=CARTESIAN_POINT('',(0.0303548522732827,-0.123586065802929,0.0798031206005154));
#619=CARTESIAN_POINT('',(0.0303548522732827,-0.112758807255764,0.0761383697411971));
#620=CARTESIAN_POINT('',(0.0303548522732827,-0.101999282999205,0.0720349702672774));
#621=CARTESIAN_POINT('',(0.0303548522732827,-0.091194960478441,0.0678233375592852));
#622=CARTESIAN_POINT('',(0.0303548522732827,-0.0802565038985414,0.0638179312365949));
#623=CARTESIAN_POINT('',(0.0303548522732827,-0.0691789634388012,0.0601613850553485));
#624=CARTESIAN_POINT('',(0.0303548522732827,-0.0579124870184965,0.0569897240947348));
#625=CARTESIAN_POINT('',(0.0303548522732827,-0.046474765337761,0.0544178961836837));
#626=CARTESIAN_POINT('',(0.0303548522732827,-0.0349122303889386,0.0524655337502466));
#627=CARTESIAN_POINT('',(0.0303548522732827,-0.0193866508026676,0.0507875363398988));
#628=CARTESIAN_POINT('',(0.0303548522732827,-0.00776778565923074,0.05032222887339));
#629=CARTESIAN_POINT('',(0.0303548522732827,-5.15243319275572E-5,0.05));
#630=CARTESIAN_POINT('',(-0.0303548522732826,-0.18,0.0899847399405613));
#631=CARTESIAN_POINT('',(-0.0303548522732827,-0.172331946247403,0.0891344186429562));
#632=CARTESIAN_POINT('',(-0.0303548522732826,-0.16087171915088,0.0878659700911179));
#633=CARTESIAN_POINT('',(-0.0303548522732826,-0.145814427608991,0.0853282735927632));
#634=CARTESIAN_POINT('',(-0.0303548522732826,-0.134624861760731,0.0828475947622206));
#635=CARTESIAN_POINT('',(-0.0303548522732826,-0.123586065802929,0.0798031206005155));
#636=CARTESIAN_POINT('',(-0.0303548522732826,-0.112758807255764,0.0761383697411972));
#637=CARTESIAN_POINT('',(-0.0303548522732826,-0.101999282999205,0.0720349702672775));
#638=CARTESIAN_POINT('',(-0.0303548522732826,-0.0911949604784411,0.0678233375592854));
#639=CARTESIAN_POINT('',(-0.0303548522732826,-0.0802565038985416,0.0638179312365949));
#640=CARTESIAN_POINT('',(-0.0303548522732826,-0.0691789634388012,0.0601613850553486));
#641=CARTESIAN_POINT('',(-0.0303548522732826,-0.0579124870184966,0.0569897240947348));
#642=CARTESIAN_POINT('',(-0.0303548522732826,-0.046474765337761,0.0544178961836838));
#643=CARTESIAN_POINT('',(-0.0303548522732826,-0.0349122303889386,0.0524655337502466));
#644=CARTESIAN_POINT('',(-0.0303548522732826,-0.0193866508026677,0.0507875363398989));
#645=CARTESIAN_POINT('',(-0.0303548522732826,-0.00776778565923073,0.05032222887339));
#646=CARTESIAN_POINT('',(-0.0303548522732826,-5.15243319276008E-5,0.05));
#647=CARTESIAN_POINT('',(-0.0910645568198479,-0.18,0.0899847399405612));
#648=CARTESIAN_POINT('',(-0.0910645568198479,-0.172331946247403,0.0891344186429562));
#649=CARTESIAN_POINT('',(-0.091064556819848,-0.16087171915088,0.0878659700911179));
#650=CARTESIAN_POINT('',(-0.0910645568198479,-0.145814427608991,0.0853282735927632));
#651=CARTESIAN_POINT('',(-0.0910645568198479,-0.134624861760731,0.0828475947622206));
#652=CARTESIAN_POINT('',(-0.0910645568198479,-0.123586065802929,0.0798031206005154));
#653=CARTESIAN_POINT('',(-0.0910645568198479,-0.112758807255764,0.0761383697411971));
#654=CARTESIAN_POINT('',(-0.0910645568198479,-0.101999282999205,0.0720349702672774));
#655=CARTESIAN_POINT('',(-0.0910645568198479,-0.0911949604784411,0.0678233375592853));
#656=CARTESIAN_POINT('',(-0.0910645568198479,-0.0802565038985415,0.0638179312365949));
#657=CARTESIAN_POINT('',(-0.091064556819848,-0.0691789634388012,0.0601613850553486));
#658=CARTESIAN_POINT('',(-0.0910645568198479,-0.0579124870184965,0.0569897240947348));
#659=CARTESIAN_POINT('',(-0.0910645568198479,-0.046474765337761,0.0544178961836837));
#660=CARTESIAN_POINT('',(-0.0910645568198479,-0.0349122303889386,0.0524655337502466));
#661=CARTESIAN_POINT('',(-0.0910645568198479,-0.0193866508026677,0.0507875363398989));
#662=CARTESIAN_POINT('',(-0.0910645568198479,-0.00776778565923071,0.05032222887339));
#663=CARTESIAN_POINT('',(-0.091064556819848,-5.15243319276444E-5,0.05));
#664=CARTESIAN_POINT('',(0.0899847399405612,-0.18,0.0899847399405612));
#665=CARTESIAN_POINT('',(0.0891097833687089,-0.17209343534487,0.0891097833687089));
#666=CARTESIAN_POINT('',(0.0877992500449717,-0.160242642968021,0.0877992500449718));
#667=CARTESIAN_POINT('',(0.0851023438113529,-0.144641375799772,0.0851023438113529));
#668=CARTESIAN_POINT('',(0.0825131891484285,-0.133289134372887,0.0825131891484285));
#669=CARTESIAN_POINT('',(0.0793922294493709,-0.122264422132548,0.0793922294493709));
#670=CARTESIAN_POINT('',(0.0757038154068617,-0.111589111881843,0.0757038154068618));
#671=CARTESIAN_POINT('',(0.0716883966219262,-0.101115284443413,0.0716883966219262));
#672=CARTESIAN_POINT('',(0.0676262406980844,-0.0906698279402625,0.0676262406980843));
#673=CARTESIAN_POINT('',(0.0637677026779567,-0.0801005720655446,0.0637677026779568));
#674=CARTESIAN_POINT('',(0.0602161460056631,-0.0693405781865953,0.0602161460056631));
#675=CARTESIAN_POINT('',(0.0570982080907928,-0.0583278939414891,0.0570982080907929));
#676=CARTESIAN_POINT('',(0.0545111316761388,-0.0469452605116263,0.0545111316761388));
#677=CARTESIAN_POINT('',(0.0525314955491824,-0.0353831189578585,0.0525314955491824));
#678=CARTESIAN_POINT('',(0.05124013270912,-0.0236981915186072,0.05124013270912));
#679=CARTESIAN_POINT('',(0.0504892016325878,-0.0119005921951943,0.0504892016325877));
#680=CARTESIAN_POINT('',(0.0501628775517994,-0.00400131760587935,0.0501628775517997));
#681=CARTESIAN_POINT('',(0.0500000000000006,-5.15243319415315E-5,0.0500000000000006));
#682=CARTESIAN_POINT('',(0.0899847399405613,-0.18,0.0899847399405612));
#683=CARTESIAN_POINT('',(0.0500000000000006,-5.15243319416076E-5,0.0500000000000006));
#684=CARTESIAN_POINT('',(0.,-0.18,0.0899847399405612));
#685=CARTESIAN_POINT('',(-0.0899847399405612,-0.18,0.0899847399405612));
#686=CARTESIAN_POINT('',(-0.05,-5.15243319276443E-5,0.05));
#687=CARTESIAN_POINT('',(-0.0501639375349869,-0.00402702228044406,0.0501639375349868));
#688=CARTESIAN_POINT('',(-0.0504920388338744,-0.0119731458813914,0.0504920388338744));
#689=CARTESIAN_POINT('',(-0.0512543942871475,-0.0238955056524204,0.0512543942871475));
#690=CARTESIAN_POINT('',(-0.0525704993827907,-0.0356591692385842,0.0525704993827907));
#691=CARTESIAN_POINT('',(-0.0545548991982618,-0.047151699404481,0.0545548991982618));
#692=CARTESIAN_POINT('',(-0.0571216686094143,-0.0584175416207526,0.0571216686094144));
#693=CARTESIAN_POINT('',(-0.0602592070292768,-0.0694842532740611,0.0602592070292768));
#694=CARTESIAN_POINT('',(-0.0638361061955017,-0.0802972872516046,0.0638361061955017));
#695=CARTESIAN_POINT('',(-0.0677070265480039,-0.0908823159783483,0.0677070265480039));
#696=CARTESIAN_POINT('',(-0.0717729345686246,-0.101331281099579,0.0717729345686246));
#697=CARTESIAN_POINT('',(-0.0757882376618925,-0.111816670677969,0.0757882376618926));
#698=CARTESIAN_POINT('',(-0.0794655236159154,-0.122498856417864,0.0794655236159153));
#699=CARTESIAN_POINT('',(-0.0825699312796572,-0.133513498789486,0.0825699312796572));
#700=CARTESIAN_POINT('',(-0.0851425521157013,-0.144846618984995,0.0851425521157012));
#701=CARTESIAN_POINT('',(-0.0878119716410717,-0.160360785685283,0.0878119716410717));
#702=CARTESIAN_POINT('',(-0.0891149117246635,-0.172139777848297,0.0891149117246635));
#703=CARTESIAN_POINT('',(-0.0899847399405612,-0.18,0.0899847399405612));
#704=CARTESIAN_POINT('',(-0.05,-5.15243319276538E-5,0.05));
#705=CARTESIAN_POINT('',(0.,-5.15243319275513E-5,0.05));
#706=CARTESIAN_POINT('',(-0.0899847399405612,-0.18,0.0910645568198479));
#707=CARTESIAN_POINT('',(-0.0891344186429562,-0.172331946247403,0.091064556819848));
#708=CARTESIAN_POINT('',(-0.0878659700911179,-0.16087171915088,0.091064556819848));
#709=CARTESIAN_POINT('',(-0.0853282735927632,-0.145814427608991,0.0910645568198479));
#710=CARTESIAN_POINT('',(-0.0828475947622206,-0.134624861760731,0.0910645568198479));
#711=CARTESIAN_POINT('',(-0.0798031206005154,-0.123586065802929,0.0910645568198479));
#712=CARTESIAN_POINT('',(-0.0761383697411971,-0.112758807255764,0.0910645568198479));
#713=CARTESIAN_POINT('',(-0.0720349702672773,-0.101999282999205,0.0910645568198479));
#714=CARTESIAN_POINT('',(-0.0678233375592853,-0.091194960478441,0.0910645568198479));
#715=CARTESIAN_POINT('',(-0.0638179312365948,-0.0802565038985414,0.0910645568198479));
#716=CARTESIAN_POINT('',(-0.0601613850553485,-0.0691789634388011,0.091064556819848));
#717=CARTESIAN_POINT('',(-0.0569897240947348,-0.0579124870184963,0.0910645568198479));
#718=CARTESIAN_POINT('',(-0.0544178961836837,-0.0464747653377609,0.0910645568198479));
#719=CARTESIAN_POINT('',(-0.0524655337502466,-0.0349122303889384,0.0910645568198479));
#720=CARTESIAN_POINT('',(-0.0507875363398989,-0.0193866508026676,0.0910645568198479));
#721=CARTESIAN_POINT('',(-0.0503222288733899,-0.00776778565923039,0.0910645568198479));
#722=CARTESIAN_POINT('',(-0.05,-5.15243319274454E-5,0.0910645568198479));
#723=CARTESIAN_POINT('',(-0.0899847399405612,-0.18,0.0303548522732826));
#724=CARTESIAN_POINT('',(-0.089134418642956,-0.172331946247402,0.0303548522732826));
#725=CARTESIAN_POINT('',(-0.087865970091118,-0.16087171915088,0.0303548522732827));
#726=CARTESIAN_POINT('',(-0.0853282735927632,-0.145814427608991,0.0303548522732827));
#727=CARTESIAN_POINT('',(-0.0828475947622206,-0.134624861760731,0.0303548522732826));
#728=CARTESIAN_POINT('',(-0.0798031206005154,-0.123586065802929,0.0303548522732826));
#729=CARTESIAN_POINT('',(-0.0761383697411971,-0.112758807255764,0.0303548522732826));
#730=CARTESIAN_POINT('',(-0.0720349702672773,-0.101999282999205,0.0303548522732826));
#731=CARTESIAN_POINT('',(-0.0678233375592852,-0.091194960478441,0.0303548522732827));
#732=CARTESIAN_POINT('',(-0.0638179312365948,-0.0802565038985414,0.0303548522732826));
#733=CARTESIAN_POINT('',(-0.0601613850553485,-0.0691789634388011,0.0303548522732826));
#734=CARTESIAN_POINT('',(-0.0569897240947348,-0.0579124870184964,0.0303548522732826));
#735=CARTESIAN_POINT('',(-0.0544178961836837,-0.0464747653377609,0.0303548522732826));
#736=CARTESIAN_POINT('',(-0.0524655337502466,-0.0349122303889384,0.0303548522732826));
#737=CARTESIAN_POINT('',(-0.0507875363398989,-0.0193866508026676,0.0303548522732826));
#738=CARTESIAN_POINT('',(-0.0503222288733899,-0.00776778565923036,0.0303548522732826));
#739=CARTESIAN_POINT('',(-0.05,-5.15243319274624E-5,0.0303548522732826));
#740=CARTESIAN_POINT('',(-0.0899847399405612,-0.18,-0.0303548522732827));
#741=CARTESIAN_POINT('',(-0.0891344186429563,-0.172331946247403,-0.0303548522732827));
#742=CARTESIAN_POINT('',(-0.0878659700911178,-0.16087171915088,-0.0303548522732827));
#743=CARTESIAN_POINT('',(-0.0853282735927633,-0.145814427608991,-0.0303548522732827));
#744=CARTESIAN_POINT('',(-0.0828475947622206,-0.134624861760731,-0.0303548522732826));
#745=CARTESIAN_POINT('',(-0.0798031206005154,-0.123586065802929,-0.0303548522732826));
#746=CARTESIAN_POINT('',(-0.0761383697411972,-0.112758807255764,-0.0303548522732826));
#747=CARTESIAN_POINT('',(-0.0720349702672774,-0.101999282999205,-0.0303548522732827));
#748=CARTESIAN_POINT('',(-0.0678233375592853,-0.091194960478441,-0.0303548522732827));
#749=CARTESIAN_POINT('',(-0.0638179312365949,-0.0802565038985414,-0.0303548522732827));
#750=CARTESIAN_POINT('',(-0.0601613850553486,-0.0691789634388012,-0.0303548522732826));
#751=CARTESIAN_POINT('',(-0.0569897240947347,-0.0579124870184963,-0.0303548522732827));
#752=CARTESIAN_POINT('',(-0.0544178961836837,-0.046474765337761,-0.0303548522732826));
#753=CARTESIAN_POINT('',(-0.0524655337502466,-0.0349122303889384,-0.0303548522732826));
#754=CARTESIAN_POINT('',(-0.0507875363398988,-0.0193866508026676,-0.0303548522732827));
#755=CARTESIAN_POINT('',(-0.0503222288733899,-0.00776778565923045,-0.0303548522732826));
#756=CARTESIAN_POINT('',(-0.05,-5.15243319272791E-5,-0.0303548522732826));
#757=CARTESIAN_POINT('',(-0.0899847399405612,-0.18,-0.0910645568198479));
#758=CARTESIAN_POINT('',(-0.0891344186429563,-0.172331946247403,-0.091064556819848));
#759=CARTESIAN_POINT('',(-0.0878659700911179,-0.16087171915088,-0.091064556819848));
#760=CARTESIAN_POINT('',(-0.0853282735927632,-0.145814427608991,-0.0910645568198479));
#761=CARTESIAN_POINT('',(-0.0828475947622206,-0.134624861760731,-0.0910645568198479));
#762=CARTESIAN_POINT('',(-0.0798031206005154,-0.123586065802929,-0.0910645568198479));
#763=CARTESIAN_POINT('',(-0.0761383697411971,-0.112758807255764,-0.0910645568198479));
#764=CARTESIAN_POINT('',(-0.0720349702672774,-0.101999282999205,-0.0910645568198479));
#765=CARTESIAN_POINT('',(-0.0678233375592853,-0.091194960478441,-0.0910645568198479));
#766=CARTESIAN_POINT('',(-0.0638179312365949,-0.0802565038985414,-0.0910645568198479));
#767=CARTESIAN_POINT('',(-0.0601613850553485,-0.0691789634388011,-0.091064556819848));
#768=CARTESIAN_POINT('',(-0.0569897240947348,-0.0579124870184963,-0.0910645568198479));
#769=CARTESIAN_POINT('',(-0.0544178961836837,-0.0464747653377609,-0.0910645568198479));
#770=CARTESIAN_POINT('',(-0.0524655337502466,-0.0349122303889384,-0.0910645568198479));
#771=CARTESIAN_POINT('',(-0.0507875363398989,-0.0193866508026676,-0.0910645568198479));
#772=CARTESIAN_POINT('',(-0.0503222288733899,-0.00776778565923043,-0.0910645568198479));
#773=CARTESIAN_POINT('',(-0.05,-5.1524331927296E-5,-0.0910645568198479));
#774=CARTESIAN_POINT('',(-0.0899847399405612,-0.18,-5.17259478037092E-19));
#775=CARTESIAN_POINT('',(-0.0899847399405595,-0.18,-0.0899847399405612));
#776=CARTESIAN_POINT('',(-0.05,-5.15243319274207E-5,-0.05));
#777=CARTESIAN_POINT('',(-0.0501639375349867,-0.00402702228044386,-0.0501639375349868));
#778=CARTESIAN_POINT('',(-0.0504920388338744,-0.011973145881391,-0.0504920388338744));
#779=CARTESIAN_POINT('',(-0.0512543942871475,-0.0238955056524202,-0.0512543942871475));
#780=CARTESIAN_POINT('',(-0.0525704993827907,-0.0356591692385839,-0.0525704993827907));
#781=CARTESIAN_POINT('',(-0.0545548991982617,-0.0471516994044806,-0.0545548991982617));
#782=CARTESIAN_POINT('',(-0.0571216686094143,-0.0584175416207523,-0.0571216686094143));
#783=CARTESIAN_POINT('',(-0.0602592070292767,-0.0694842532740607,-0.0602592070292767));
#784=CARTESIAN_POINT('',(-0.0638361061955017,-0.0802972872516044,-0.0638361061955016));
#785=CARTESIAN_POINT('',(-0.0677070265480039,-0.0908823159783481,-0.0677070265480039));
#786=CARTESIAN_POINT('',(-0.0717729345686245,-0.101331281099579,-0.0717729345686243));
#787=CARTESIAN_POINT('',(-0.0757882376618925,-0.111816670677968,-0.0757882376618924));
#788=CARTESIAN_POINT('',(-0.0794655236159153,-0.122498856417863,-0.0794655236159152));
#789=CARTESIAN_POINT('',(-0.0825699312796571,-0.133513498789485,-0.0825699312796571));
#790=CARTESIAN_POINT('',(-0.0851425521157012,-0.144846618984994,-0.0851425521157012));
#791=CARTESIAN_POINT('',(-0.0878119716410717,-0.160360785685283,-0.0878119716410716));
#792=CARTESIAN_POINT('',(-0.0891149117246635,-0.172139777848297,-0.0891149117246635));
#793=CARTESIAN_POINT('',(-0.0899847399405612,-0.18,-0.0899847399405613));
#794=CARTESIAN_POINT('',(-0.05,-5.15243319273858E-5,-0.05));
#795=CARTESIAN_POINT('',(-0.05,-5.15243319275513E-5,-2.59987562343634E-19));
#796=CARTESIAN_POINT('',(-0.0910645568198462,-0.18,-0.0899847399405612));
#797=CARTESIAN_POINT('',(-0.0910645568198462,-0.172331946247402,-0.0891344186429561));
#798=CARTESIAN_POINT('',(-0.0910645568198463,-0.16087171915088,-0.0878659700911178));
#799=CARTESIAN_POINT('',(-0.0910645568198463,-0.145814427608991,-0.0853282735927632));
#800=CARTESIAN_POINT('',(-0.0910645568198463,-0.134624861760731,-0.0828475947622205));
#801=CARTESIAN_POINT('',(-0.0910645568198463,-0.123586065802929,-0.0798031206005154));
#802=CARTESIAN_POINT('',(-0.0910645568198463,-0.112758807255764,-0.076138369741197));
#803=CARTESIAN_POINT('',(-0.0910645568198463,-0.101999282999205,-0.0720349702672773));
#804=CARTESIAN_POINT('',(-0.0910645568198463,-0.091194960478441,-0.0678233375592851));
#805=CARTESIAN_POINT('',(-0.0910645568198462,-0.0802565038985414,-0.0638179312365949));
#806=CARTESIAN_POINT('',(-0.0910645568198463,-0.0691789634388011,-0.0601613850553485));
#807=CARTESIAN_POINT('',(-0.0910645568198462,-0.0579124870184963,-0.0569897240947348));
#808=CARTESIAN_POINT('',(-0.0910645568198463,-0.0464747653377609,-0.0544178961836837));
#809=CARTESIAN_POINT('',(-0.0910645568198462,-0.0349122303889383,-0.0524655337502466));
#810=CARTESIAN_POINT('',(-0.0910645568198463,-0.0193866508026676,-0.0507875363398989));
#811=CARTESIAN_POINT('',(-0.0910645568198462,-0.00776778565923037,-0.05032222887339));
#812=CARTESIAN_POINT('',(-0.0910645568198462,-5.1524331927343E-5,-0.05));
#813=CARTESIAN_POINT('',(-0.0303548522732816,-0.18,-0.0899847399405613));
#814=CARTESIAN_POINT('',(-0.0303548522732814,-0.172331946247402,-0.089134418642956));
#815=CARTESIAN_POINT('',(-0.0303548522732816,-0.16087171915088,-0.0878659700911179));
#816=CARTESIAN_POINT('',(-0.0303548522732815,-0.145814427608991,-0.0853282735927632));
#817=CARTESIAN_POINT('',(-0.0303548522732815,-0.134624861760731,-0.0828475947622206));
#818=CARTESIAN_POINT('',(-0.0303548522732815,-0.123586065802929,-0.0798031206005153));
#819=CARTESIAN_POINT('',(-0.0303548522732815,-0.112758807255764,-0.0761383697411971));
#820=CARTESIAN_POINT('',(-0.0303548522732815,-0.101999282999205,-0.0720349702672774));
#821=CARTESIAN_POINT('',(-0.0303548522732816,-0.091194960478441,-0.0678233375592852));
#822=CARTESIAN_POINT('',(-0.0303548522732816,-0.0802565038985414,-0.0638179312365949));
#823=CARTESIAN_POINT('',(-0.0303548522732815,-0.0691789634388011,-0.0601613850553486));
#824=CARTESIAN_POINT('',(-0.0303548522732816,-0.0579124870184963,-0.0569897240947347));
#825=CARTESIAN_POINT('',(-0.0303548522732815,-0.0464747653377609,-0.0544178961836838));
#826=CARTESIAN_POINT('',(-0.0303548522732816,-0.0349122303889383,-0.0524655337502465));
#827=CARTESIAN_POINT('',(-0.0303548522732815,-0.0193866508026676,-0.0507875363398989));
#828=CARTESIAN_POINT('',(-0.0303548522732815,-0.00776778565923035,-0.0503222288733899));
#829=CARTESIAN_POINT('',(-0.0303548522732815,-5.15243319274133E-5,-0.05));
#830=CARTESIAN_POINT('',(0.0303548522732832,-0.18,-0.0899847399405612));
#831=CARTESIAN_POINT('',(0.030354852273283,-0.172331946247402,-0.0891344186429561));
#832=CARTESIAN_POINT('',(0.0303548522732832,-0.16087171915088,-0.0878659700911178));
#833=CARTESIAN_POINT('',(0.0303548522732832,-0.145814427608991,-0.0853282735927633));
#834=CARTESIAN_POINT('',(0.0303548522732831,-0.134624861760731,-0.0828475947622205));
#835=CARTESIAN_POINT('',(0.0303548522732831,-0.123586065802929,-0.0798031206005155));
#836=CARTESIAN_POINT('',(0.0303548522732832,-0.112758807255764,-0.0761383697411971));
#837=CARTESIAN_POINT('',(0.0303548522732831,-0.101999282999205,-0.0720349702672773));
#838=CARTESIAN_POINT('',(0.0303548522732832,-0.0911949604784409,-0.0678233375592852));
#839=CARTESIAN_POINT('',(0.0303548522732832,-0.0802565038985414,-0.0638179312365949));
#840=CARTESIAN_POINT('',(0.0303548522732832,-0.0691789634388011,-0.0601613850553485));
#841=CARTESIAN_POINT('',(0.0303548522732832,-0.0579124870184963,-0.0569897240947348));
#842=CARTESIAN_POINT('',(0.0303548522732832,-0.0464747653377609,-0.0544178961836837));
#843=CARTESIAN_POINT('',(0.0303548522732832,-0.0349122303889383,-0.0524655337502466));
#844=CARTESIAN_POINT('',(0.0303548522732832,-0.0193866508026676,-0.0507875363398989));
#845=CARTESIAN_POINT('',(0.0303548522732832,-0.00776778565923042,-0.0503222288733899));
#846=CARTESIAN_POINT('',(0.0303548522732832,-5.15243319272106E-5,-0.05));
#847=CARTESIAN_POINT('',(0.0910645568198479,-0.18,-0.0899847399405612));
#848=CARTESIAN_POINT('',(0.0910645568198478,-0.172331946247402,-0.0891344186429561));
#849=CARTESIAN_POINT('',(0.0910645568198479,-0.16087171915088,-0.0878659700911179));
#850=CARTESIAN_POINT('',(0.0910645568198479,-0.145814427608991,-0.0853282735927632));
#851=CARTESIAN_POINT('',(0.0910645568198478,-0.134624861760731,-0.0828475947622206));
#852=CARTESIAN_POINT('',(0.0910645568198479,-0.123586065802929,-0.0798031206005154));
#853=CARTESIAN_POINT('',(0.0910645568198478,-0.112758807255764,-0.0761383697411971));
#854=CARTESIAN_POINT('',(0.0910645568198479,-0.101999282999205,-0.0720349702672774));
#855=CARTESIAN_POINT('',(0.0910645568198479,-0.0911949604784409,-0.0678233375592852));
#856=CARTESIAN_POINT('',(0.0910645568198479,-0.0802565038985414,-0.0638179312365949));
#857=CARTESIAN_POINT('',(0.0910645568198479,-0.0691789634388011,-0.0601613850553485));
#858=CARTESIAN_POINT('',(0.0910645568198479,-0.0579124870184963,-0.0569897240947348));
#859=CARTESIAN_POINT('',(0.0910645568198479,-0.0464747653377609,-0.0544178961836837));
#860=CARTESIAN_POINT('',(0.0910645568198479,-0.0349122303889383,-0.0524655337502466));
#861=CARTESIAN_POINT('',(0.0910645568198479,-0.0193866508026676,-0.0507875363398989));
#862=CARTESIAN_POINT('',(0.0910645568198479,-0.0077677856592304,-0.05032222887339));
#863=CARTESIAN_POINT('',(0.0910645568198479,-5.15243319272286E-5,-0.05));
#864=CARTESIAN_POINT('',(-1.33605283297774E-17,-0.18,-0.0899847399405612));
#865=CARTESIAN_POINT('',(0.0899847399405612,-0.18,-0.0899847399405613));
#866=CARTESIAN_POINT('',(0.05,-5.15243319276371E-5,-0.05));
#867=CARTESIAN_POINT('',(0.0501639375349867,-0.00402702228044409,-0.0501639375349867));
#868=CARTESIAN_POINT('',(0.0504920388338744,-0.0119731458813913,-0.0504920388338744));
#869=CARTESIAN_POINT('',(0.0512543942871475,-0.0238955056524204,-0.0512543942871475));
#870=CARTESIAN_POINT('',(0.0525704993827907,-0.0356591692385842,-0.0525704993827907));
#871=CARTESIAN_POINT('',(0.0545548991982618,-0.047151699404481,-0.0545548991982618));
#872=CARTESIAN_POINT('',(0.0571216686094143,-0.0584175416207526,-0.0571216686094144));
#873=CARTESIAN_POINT('',(0.0602592070292768,-0.069484253274061,-0.0602592070292768));
#874=CARTESIAN_POINT('',(0.0638361061955017,-0.0802972872516046,-0.0638361061955017));
#875=CARTESIAN_POINT('',(0.067707026548004,-0.0908823159783483,-0.0677070265480039));
#876=CARTESIAN_POINT('',(0.0717729345686245,-0.101331281099579,-0.0717729345686246));
#877=CARTESIAN_POINT('',(0.0757882376618925,-0.111816670677969,-0.0757882376618925));
#878=CARTESIAN_POINT('',(0.0794655236159153,-0.122498856417864,-0.0794655236159154));
#879=CARTESIAN_POINT('',(0.0825699312796571,-0.133513498789486,-0.0825699312796572));
#880=CARTESIAN_POINT('',(0.0851425521157012,-0.144846618984995,-0.0851425521157013));
#881=CARTESIAN_POINT('',(0.0878119716410716,-0.160360785685283,-0.0878119716410716));
#882=CARTESIAN_POINT('',(0.0891149117246635,-0.172139777848297,-0.0891149117246635));
#883=CARTESIAN_POINT('',(0.0899847399405612,-0.18,-0.0899847399405612));
#884=CARTESIAN_POINT('',(0.05,-5.15243319276336E-5,-0.05));
#885=CARTESIAN_POINT('',(2.59987562343634E-19,-5.15243319275513E-5,-0.05));
#886=CARTESIAN_POINT('',(0.0899847399405612,-0.18,-0.0910645568198481));
#887=CARTESIAN_POINT('',(0.0891344186429561,-0.172331946247403,-0.091064556819848));
#888=CARTESIAN_POINT('',(0.0878659700911179,-0.16087171915088,-0.0910645568198482));
#889=CARTESIAN_POINT('',(0.0853282735927632,-0.145814427608991,-0.0910645568198481));
#890=CARTESIAN_POINT('',(0.0828475947622206,-0.134624861760731,-0.0910645568198481));
#891=CARTESIAN_POINT('',(0.0798031206005154,-0.123586065802929,-0.0910645568198481));
#892=CARTESIAN_POINT('',(0.0761383697411971,-0.112758807255764,-0.0910645568198481));
#893=CARTESIAN_POINT('',(0.0720349702672774,-0.101999282999205,-0.0910645568198481));
#894=CARTESIAN_POINT('',(0.0678233375592852,-0.0911949604784411,-0.0910645568198482));
#895=CARTESIAN_POINT('',(0.0638179312365949,-0.0802565038985416,-0.0910645568198481));
#896=CARTESIAN_POINT('',(0.0601613850553486,-0.0691789634388013,-0.0910645568198481));
#897=CARTESIAN_POINT('',(0.0569897240947348,-0.0579124870184966,-0.091064556819848));
#898=CARTESIAN_POINT('',(0.0544178961836838,-0.0464747653377612,-0.0910645568198481));
#899=CARTESIAN_POINT('',(0.0524655337502467,-0.0349122303889387,-0.0910645568198481));
#900=CARTESIAN_POINT('',(0.0507875363398988,-0.0193866508026679,-0.0910645568198481));
#901=CARTESIAN_POINT('',(0.05032222887339,-0.00776778565923072,-0.0910645568198482));
#902=CARTESIAN_POINT('',(0.05,-5.15243319276792E-5,-0.0910645568198481));
#903=CARTESIAN_POINT('',(0.0899847399405612,-0.18,-0.0303548522732827));
#904=CARTESIAN_POINT('',(0.0891344186429559,-0.172331946247403,-0.0303548522732826));
#905=CARTESIAN_POINT('',(0.0878659700911178,-0.16087171915088,-0.0303548522732827));
#906=CARTESIAN_POINT('',(0.0853282735927631,-0.145814427608991,-0.0303548522732826));
#907=CARTESIAN_POINT('',(0.0828475947622205,-0.134624861760731,-0.0303548522732827));
#908=CARTESIAN_POINT('',(0.0798031206005154,-0.123586065802929,-0.0303548522732827));
#909=CARTESIAN_POINT('',(0.0761383697411972,-0.112758807255764,-0.0303548522732826));
#910=CARTESIAN_POINT('',(0.0720349702672773,-0.101999282999205,-0.0303548522732826));
#911=CARTESIAN_POINT('',(0.0678233375592852,-0.0911949604784411,-0.0303548522732826));
#912=CARTESIAN_POINT('',(0.0638179312365949,-0.0802565038985415,-0.0303548522732826));
#913=CARTESIAN_POINT('',(0.0601613850553486,-0.0691789634388014,-0.0303548522732827));
#914=CARTESIAN_POINT('',(0.0569897240947349,-0.0579124870184966,-0.0303548522732827));
#915=CARTESIAN_POINT('',(0.0544178961836837,-0.0464747653377612,-0.0303548522732826));
#916=CARTESIAN_POINT('',(0.0524655337502466,-0.0349122303889387,-0.0303548522732827));
#917=CARTESIAN_POINT('',(0.0507875363398989,-0.0193866508026678,-0.0303548522732827));
#918=CARTESIAN_POINT('',(0.05032222887339,-0.0077677856592308,-0.0303548522732827));
#919=CARTESIAN_POINT('',(0.05,-5.15243319274903E-5,-0.0303548522732827));
#920=CARTESIAN_POINT('',(0.0899847399405612,-0.18,0.0303548522732826));
#921=CARTESIAN_POINT('',(0.0891344186429562,-0.172331946247402,0.0303548522732825));
#922=CARTESIAN_POINT('',(0.0878659700911179,-0.16087171915088,0.0303548522732826));
#923=CARTESIAN_POINT('',(0.0853282735927633,-0.145814427608991,0.0303548522732826));
#924=CARTESIAN_POINT('',(0.0828475947622206,-0.134624861760731,0.0303548522732826));
#925=CARTESIAN_POINT('',(0.0798031206005154,-0.123586065802929,0.0303548522732826));
#926=CARTESIAN_POINT('',(0.0761383697411971,-0.112758807255764,0.0303548522732826));
#927=CARTESIAN_POINT('',(0.0720349702672775,-0.101999282999205,0.0303548522732826));
#928=CARTESIAN_POINT('',(0.0678233375592853,-0.0911949604784411,0.0303548522732826));
#929=CARTESIAN_POINT('',(0.063817931236595,-0.0802565038985416,0.0303548522732826));
#930=CARTESIAN_POINT('',(0.0601613850553486,-0.0691789634388013,0.0303548522732826));
#931=CARTESIAN_POINT('',(0.0569897240947348,-0.0579124870184966,0.0303548522732826));
#932=CARTESIAN_POINT('',(0.0544178961836838,-0.0464747653377611,0.0303548522732826));
#933=CARTESIAN_POINT('',(0.0524655337502467,-0.0349122303889386,0.0303548522732826));
#934=CARTESIAN_POINT('',(0.0507875363398988,-0.0193866508026679,0.0303548522732826));
#935=CARTESIAN_POINT('',(0.05032222887339,-0.00776778565923074,0.0303548522732826));
#936=CARTESIAN_POINT('',(0.05,-5.15243319275811E-5,0.0303548522732826));
#937=CARTESIAN_POINT('',(0.0899847399405612,-0.18,0.0910645568198479));
#938=CARTESIAN_POINT('',(0.0891344186429561,-0.172331946247402,0.0910645568198478));
#939=CARTESIAN_POINT('',(0.0878659700911179,-0.16087171915088,0.091064556819848));
#940=CARTESIAN_POINT('',(0.0853282735927633,-0.145814427608991,0.0910645568198479));
#941=CARTESIAN_POINT('',(0.0828475947622206,-0.134624861760731,0.0910645568198479));
#942=CARTESIAN_POINT('',(0.0798031206005155,-0.123586065802929,0.0910645568198479));
#943=CARTESIAN_POINT('',(0.0761383697411972,-0.112758807255764,0.0910645568198478));
#944=CARTESIAN_POINT('',(0.0720349702672774,-0.101999282999205,0.0910645568198479));
#945=CARTESIAN_POINT('',(0.0678233375592852,-0.0911949604784411,0.091064556819848));
#946=CARTESIAN_POINT('',(0.0638179312365949,-0.0802565038985416,0.091064556819848));
#947=CARTESIAN_POINT('',(0.0601613850553486,-0.0691789634388013,0.091064556819848));
#948=CARTESIAN_POINT('',(0.0569897240947348,-0.0579124870184966,0.091064556819848));
#949=CARTESIAN_POINT('',(0.0544178961836838,-0.0464747653377612,0.0910645568198479));
#950=CARTESIAN_POINT('',(0.0524655337502467,-0.0349122303889387,0.091064556819848));
#951=CARTESIAN_POINT('',(0.0507875363398989,-0.0193866508026679,0.0910645568198478));
#952=CARTESIAN_POINT('',(0.05032222887339,-0.0077677856592308,0.091064556819848));
#953=CARTESIAN_POINT('',(0.05,-5.1524331927448E-5,0.0910645568198479));
#954=CARTESIAN_POINT('',(0.0899847399405612,-0.18,2.8272835093666E-17));
#955=CARTESIAN_POINT('',(0.05,-5.15243319275513E-5,-1.36191010810742E-17));
#956=CARTESIAN_POINT('',(0.0525,0.02,-9.6440935432854E-18));
#957=CARTESIAN_POINT('',(0.05,0.02,-9.18485099360515E-18));
#958=CARTESIAN_POINT('',(0.05,0.02,0.05));
#959=CARTESIAN_POINT('',(0.05,0.02,-0.05));
#960=CARTESIAN_POINT('',(0.,0.02,0.05));
#961=CARTESIAN_POINT('',(-0.05,0.02,0.05));
#962=CARTESIAN_POINT('',(-0.05,0.02,3.06161699786838E-18));
#963=CARTESIAN_POINT('',(-0.05,0.02,-0.05));
#964=CARTESIAN_POINT('',(-6.12323399573677E-18,0.02,-0.05));
#965=CARTESIAN_POINT('',(0.055,0.02,-1.01033360929657E-17));
#966=CARTESIAN_POINT('',(0.055,0.02,0.055));
#967=CARTESIAN_POINT('',(0.055,0.02,-0.055));
#968=CARTESIAN_POINT('',(-6.73555739531044E-18,0.02,-0.055));
#969=CARTESIAN_POINT('',(-0.055,0.02,-0.055));
#970=CARTESIAN_POINT('',(-0.055,0.02,3.36777869765522E-18));
#971=CARTESIAN_POINT('',(-0.055,0.02,0.055));
#972=CARTESIAN_POINT('',(0.,0.02,0.055));
#973=CARTESIAN_POINT('',(0.,0.,0.05));
#974=CARTESIAN_POINT('',(0.05,0.,0.05));
#975=CARTESIAN_POINT('',(-0.05,0.,0.05));
#976=CARTESIAN_POINT('',(-0.05,0.,3.06161699786838E-18));
#977=CARTESIAN_POINT('',(-0.05,0.,-0.05));
#978=CARTESIAN_POINT('',(-6.12323399573677E-18,0.,-0.05));
#979=CARTESIAN_POINT('',(0.05,0.,-0.05));
#980=CARTESIAN_POINT('',(0.05,0.,-9.18485099360515E-18));
#981=CARTESIAN_POINT('',(0.09614,-0.179862099920814,0.095));
#982=CARTESIAN_POINT('',(0.09614,-0.172178203773367,0.0941472253138867));
#983=CARTESIAN_POINT('',(0.0961400000000001,-0.160613532031303,0.0928779411570035));
#984=CARTESIAN_POINT('',(0.09614,-0.145211316355736,0.0903071048212664));
#985=CARTESIAN_POINT('',(0.09614,-0.1337507295823,0.0877846366753384));
#986=CARTESIAN_POINT('',(0.09614,-0.122430119431956,0.084681249765559));
#987=CARTESIAN_POINT('',(0.09614,-0.111318513482587,0.0809374277743236));
#988=CARTESIAN_POINT('',(0.09614,-0.100437768360958,0.0767928531199198));
#989=CARTESIAN_POINT('',(0.0961400000000001,-0.0896516429198639,0.0725864423042097));
#990=CARTESIAN_POINT('',(0.09614,-0.0788305609526329,0.068616935044954));
#991=CARTESIAN_POINT('',(0.0961400000000001,-0.067913490334772,0.0650049965442106));
#992=CARTESIAN_POINT('',(0.09614,-0.0568769920378989,0.0618875290889889));
#993=CARTESIAN_POINT('',(0.09614,-0.0456831429146595,0.0593602293891935));
#994=CARTESIAN_POINT('',(0.09614,-0.0343800719524557,0.0574424039543745));
#995=CARTESIAN_POINT('',(0.09614,-0.0192146346864023,0.0557907564868598));
#996=CARTESIAN_POINT('',(0.09614,-0.00767365685880769,0.0553212949149193));
#997=CARTESIAN_POINT('',(0.09614,5.15244220331664E-5,0.055));
#998=CARTESIAN_POINT('',(0.0320466666666666,-0.179862099920814,0.095));
#999=CARTESIAN_POINT('',(0.0320466666666667,-0.172178203773367,0.0941472253138867));
#1000=CARTESIAN_POINT('',(0.0320466666666666,-0.160613532031303,0.0928779411570036));
#1001=CARTESIAN_POINT('',(0.0320466666666666,-0.145211316355736,0.0903071048212663));
#1002=CARTESIAN_POINT('',(0.0320466666666666,-0.133750729582301,0.0877846366753383));
#1003=CARTESIAN_POINT('',(0.0320466666666666,-0.122430119431956,0.0846812497655591));
#1004=CARTESIAN_POINT('',(0.0320466666666666,-0.111318513482587,0.0809374277743236));
#1005=CARTESIAN_POINT('',(0.0320466666666666,-0.100437768360958,0.0767928531199199));
#1006=CARTESIAN_POINT('',(0.0320466666666667,-0.0896516429198639,0.0725864423042097));
#1007=CARTESIAN_POINT('',(0.0320466666666666,-0.0788305609526329,0.068616935044954));
#1008=CARTESIAN_POINT('',(0.0320466666666666,-0.067913490334772,0.0650049965442106));
#1009=CARTESIAN_POINT('',(0.0320466666666667,-0.0568769920378989,0.0618875290889889));
#1010=CARTESIAN_POINT('',(0.0320466666666667,-0.0456831429146595,0.0593602293891935));
#1011=CARTESIAN_POINT('',(0.0320466666666666,-0.0343800719524557,0.0574424039543745));
#1012=CARTESIAN_POINT('',(0.0320466666666667,-0.0192146346864024,0.0557907564868599));
#1013=CARTESIAN_POINT('',(0.0320466666666666,-0.00767365685880769,0.0553212949149193));
#1014=CARTESIAN_POINT('',(0.0320466666666667,5.15244220331696E-5,0.055));
#1015=CARTESIAN_POINT('',(-0.0320466666666667,-0.179862099920813,0.095));
#1016=CARTESIAN_POINT('',(-0.0320466666666667,-0.172178203773367,0.0941472253138866));
#1017=CARTESIAN_POINT('',(-0.0320466666666666,-0.160613532031303,0.0928779411570034));
#1018=CARTESIAN_POINT('',(-0.0320466666666667,-0.145211316355736,0.0903071048212663));
#1019=CARTESIAN_POINT('',(-0.0320466666666666,-0.1337507295823,0.0877846366753383));
#1020=CARTESIAN_POINT('',(-0.0320466666666666,-0.122430119431955,0.0846812497655589));
#1021=CARTESIAN_POINT('',(-0.0320466666666666,-0.111318513482587,0.0809374277743236));
#1022=CARTESIAN_POINT('',(-0.0320466666666666,-0.100437768360958,0.0767928531199197));
#1023=CARTESIAN_POINT('',(-0.0320466666666668,-0.0896516429198638,0.0725864423042097));
#1024=CARTESIAN_POINT('',(-0.0320466666666667,-0.0788305609526328,0.0686169350449539));
#1025=CARTESIAN_POINT('',(-0.0320466666666667,-0.0679134903347719,0.0650049965442105));
#1026=CARTESIAN_POINT('',(-0.0320466666666667,-0.0568769920378989,0.0618875290889889));
#1027=CARTESIAN_POINT('',(-0.0320466666666667,-0.0456831429146595,0.0593602293891934));
#1028=CARTESIAN_POINT('',(-0.0320466666666667,-0.0343800719524557,0.0574424039543745));
#1029=CARTESIAN_POINT('',(-0.0320466666666667,-0.0192146346864023,0.0557907564868598));
#1030=CARTESIAN_POINT('',(-0.0320466666666667,-0.00767365685880769,0.0553212949149193));
#1031=CARTESIAN_POINT('',(-0.0320466666666667,5.15244220331676E-5,0.055));
#1032=CARTESIAN_POINT('',(-0.09614,-0.179862099920814,0.0950000000000001));
#1033=CARTESIAN_POINT('',(-0.09614,-0.172178203773367,0.0941472253138867));
#1034=CARTESIAN_POINT('',(-0.0961400000000001,-0.160613532031303,0.0928779411570036));
#1035=CARTESIAN_POINT('',(-0.09614,-0.145211316355736,0.0903071048212664));
#1036=CARTESIAN_POINT('',(-0.09614,-0.133750729582301,0.0877846366753384));
#1037=CARTESIAN_POINT('',(-0.09614,-0.122430119431956,0.084681249765559));
#1038=CARTESIAN_POINT('',(-0.09614,-0.111318513482587,0.0809374277743237));
#1039=CARTESIAN_POINT('',(-0.09614,-0.100437768360958,0.0767928531199199));
#1040=CARTESIAN_POINT('',(-0.0961400000000001,-0.0896516429198639,0.0725864423042097));
#1041=CARTESIAN_POINT('',(-0.09614,-0.0788305609526329,0.068616935044954));
#1042=CARTESIAN_POINT('',(-0.09614,-0.067913490334772,0.0650049965442106));
#1043=CARTESIAN_POINT('',(-0.0961400000000001,-0.0568769920378989,0.061887529088989));
#1044=CARTESIAN_POINT('',(-0.09614,-0.0456831429146595,0.0593602293891935));
#1045=CARTESIAN_POINT('',(-0.09614,-0.0343800719524557,0.0574424039543746));
#1046=CARTESIAN_POINT('',(-0.0961400000000001,-0.0192146346864024,0.0557907564868598));
#1047=CARTESIAN_POINT('',(-0.09614,-0.00767365685880769,0.0553212949149193));
#1048=CARTESIAN_POINT('',(-0.09614,5.15244220331682E-5,0.055));
#1049=CARTESIAN_POINT('',(-0.095,-0.179862099920814,0.095));
#1050=CARTESIAN_POINT('',(-0.0941280428317434,-0.171982262839359,0.0941280428317435));
#1051=CARTESIAN_POINT('',(-0.0928186107375273,-0.160135153546957,0.0928186107375273));
#1052=CARTESIAN_POINT('',(-0.090218057299812,-0.144763379482238,0.0902180572998119));
#1053=CARTESIAN_POINT('',(-0.0877193912366003,-0.133505750208756,0.0877193912366003));
#1054=CARTESIAN_POINT('',(-0.0846968496584412,-0.122507317907779,0.0846968496584412));
#1055=CARTESIAN_POINT('',(-0.081103658540125,-0.11179182962578,0.0811036585401251));
#1056=CARTESIAN_POINT('',(-0.0771166460169029,-0.101269319125376,0.0771166460169029));
#1057=CARTESIAN_POINT('',(-0.0716682872335262,-0.0873144755109274,0.0716682872335262));
#1058=CARTESIAN_POINT('',(-0.0665584658433131,-0.0731468091169325,0.0665584658433131));
#1059=CARTESIAN_POINT('',(-0.0622697258852642,-0.0583684282029233,0.0622697258852641));
#1060=CARTESIAN_POINT('',(-0.0596246068270584,-0.0470142070608933,0.0596246068270584));
#1061=CARTESIAN_POINT('',(-0.0575973346873667,-0.0355046883032119,0.0575973346873666));
#1062=CARTESIAN_POINT('',(-0.055816824462677,-0.0198766072963872,0.055816824462677));
#1063=CARTESIAN_POINT('',(-0.0553282136749774,-0.00790764087989468,0.0553282136749774));
#1064=CARTESIAN_POINT('',(-0.0550000000000003,5.15244220256495E-5,0.0550000000000003));
#1065=CARTESIAN_POINT('',(-0.055,5.15244220257049E-5,0.055));
#1066=CARTESIAN_POINT('',(-0.095,-0.179862099920813,0.095));
#1067=CARTESIAN_POINT('',(1.38777878078145E-17,-0.179862099920813,0.095));
#1068=CARTESIAN_POINT('',(0.095,-0.179862099920813,0.095));
#1069=CARTESIAN_POINT('',(0.095,-0.179862099920813,0.095));
#1070=CARTESIAN_POINT('',(0.0941211438497986,-0.171919917054806,0.0941211438497986));
#1071=CARTESIAN_POINT('',(0.0928003919041677,-0.159973422009446,0.0928003919041678));
#1072=CARTESIAN_POINT('',(0.0901699471942661,-0.144512659704851,0.0901699471942661));
#1073=CARTESIAN_POINT('',(0.0876471804620509,-0.133212675005309,0.0876471804620509));
#1074=CARTESIAN_POINT('',(0.0846016377045982,-0.122193717444119,0.0846016377045983));
#1075=CARTESIAN_POINT('',(0.080989846726349,-0.111479298302148,0.080989846726349));
#1076=CARTESIAN_POINT('',(0.0769992105726169,-0.100968067415782,0.076999210572617));
#1077=CARTESIAN_POINT('',(0.0715559983763064,-0.0870212630371328,0.0715559983763064));
#1078=CARTESIAN_POINT('',(0.0664692971373316,-0.0728694317067431,0.0664692971373316));
#1079=CARTESIAN_POINT('',(0.0622316415615497,-0.0582164392983396,0.0622316415615497));
#1080=CARTESIAN_POINT('',(0.0595962551878241,-0.0468820469521114,0.0595962551878241));
#1081=CARTESIAN_POINT('',(0.0575626239575482,-0.0352716050338389,0.0575626239575482));
#1082=CARTESIAN_POINT('',(0.0562457697650265,-0.0235828248341017,0.0562457697650265));
#1083=CARTESIAN_POINT('',(0.0554894098191346,-0.011786836778863,0.0554894098191346));
#1084=CARTESIAN_POINT('',(0.0551627374540684,-0.00389485074906394,0.0551627374540684));
#1085=CARTESIAN_POINT('',(0.055,5.15244220332912E-5,0.055));
#1086=CARTESIAN_POINT('',(0.055,5.15244220331643E-5,0.055));
#1087=CARTESIAN_POINT('',(0.,5.15244220331936E-5,0.055));
#1088=CARTESIAN_POINT('',(0.,0.,0.055));
#1089=CARTESIAN_POINT('',(-0.055,0.,0.055));
#1090=CARTESIAN_POINT('',(0.055,0.,0.055));
#1091=CARTESIAN_POINT('',(0.,-0.18,0.095));
#1092=CARTESIAN_POINT('',(0.095,-0.18,0.095));
#1093=CARTESIAN_POINT('',(-0.095,-0.18,0.095));
#1094=CARTESIAN_POINT('',(-0.095,-0.179862099920813,0.09614));
#1095=CARTESIAN_POINT('',(-0.0941472253138866,-0.172178203773367,0.09614));
#1096=CARTESIAN_POINT('',(-0.0928779411570035,-0.160613532031304,0.0961400000000001));
#1097=CARTESIAN_POINT('',(-0.0903071048212666,-0.145211316355737,0.0961400000000001));
#1098=CARTESIAN_POINT('',(-0.0877846366753387,-0.133750729582302,0.09614));
#1099=CARTESIAN_POINT('',(-0.0846812497655596,-0.122430119431958,0.09614));
#1100=CARTESIAN_POINT('',(-0.0809374277743246,-0.111318513482589,0.09614));
#1101=CARTESIAN_POINT('',(-0.076792853119921,-0.100437768360961,0.09614));
#1102=CARTESIAN_POINT('',(-0.0725864423042109,-0.0896516429198671,0.0961400000000001));
#1103=CARTESIAN_POINT('',(-0.0686169350449553,-0.0788305609526367,0.09614));
#1104=CARTESIAN_POINT('',(-0.0650049965442119,-0.0679134903347762,0.0961400000000001));
#1105=CARTESIAN_POINT('',(-0.0618875290889902,-0.0568769920379037,0.0961400000000001));
#1106=CARTESIAN_POINT('',(-0.0593602293891945,-0.0456831429146647,0.09614));
#1107=CARTESIAN_POINT('',(-0.0574424039543754,-0.0343800719524615,0.0961400000000001));
#1108=CARTESIAN_POINT('',(-0.0557907564868602,-0.0192146346864087,0.09614));
#1109=CARTESIAN_POINT('',(-0.0553212949149196,-0.00767365685881462,0.0961400000000001));
#1110=CARTESIAN_POINT('',(-0.0550000000000003,5.15244220259657E-5,0.09614));
#1111=CARTESIAN_POINT('',(-0.0950000000000001,-0.179862099920814,0.0320466666666668));
#1112=CARTESIAN_POINT('',(-0.0941472253138867,-0.172178203773367,0.0320466666666668));
#1113=CARTESIAN_POINT('',(-0.0928779411570036,-0.160613532031304,0.0320466666666667));
#1114=CARTESIAN_POINT('',(-0.0903071048212667,-0.145211316355738,0.0320466666666667));
#1115=CARTESIAN_POINT('',(-0.0877846366753388,-0.133750729582302,0.0320466666666667));
#1116=CARTESIAN_POINT('',(-0.0846812497655597,-0.122430119431958,0.0320466666666667));
#1117=CARTESIAN_POINT('',(-0.0809374277743246,-0.111318513482589,0.0320466666666667));
#1118=CARTESIAN_POINT('',(-0.076792853119921,-0.100437768360961,0.0320466666666668));
#1119=CARTESIAN_POINT('',(-0.072586442304211,-0.0896516429198673,0.0320466666666668));
#1120=CARTESIAN_POINT('',(-0.0686169350449553,-0.0788305609526367,0.0320466666666668));
#1121=CARTESIAN_POINT('',(-0.0650049965442119,-0.0679134903347763,0.0320466666666668));
#1122=CARTESIAN_POINT('',(-0.0618875290889902,-0.0568769920379037,0.0320466666666668));
#1123=CARTESIAN_POINT('',(-0.0593602293891945,-0.0456831429146647,0.0320466666666668));
#1124=CARTESIAN_POINT('',(-0.0574424039543754,-0.0343800719524615,0.0320466666666667));
#1125=CARTESIAN_POINT('',(-0.0557907564868603,-0.0192146346864087,0.0320466666666668));
#1126=CARTESIAN_POINT('',(-0.0553212949149195,-0.00767365685881463,0.0320466666666668));
#1127=CARTESIAN_POINT('',(-0.0550000000000003,5.15244220259657E-5,0.0320466666666668));
#1128=CARTESIAN_POINT('',(-0.0949999999999999,-0.179862099920813,-0.0320466666666667));
#1129=CARTESIAN_POINT('',(-0.0941472253138866,-0.172178203773367,-0.0320466666666667));
#1130=CARTESIAN_POINT('',(-0.0928779411570035,-0.160613532031304,-0.0320466666666667));
#1131=CARTESIAN_POINT('',(-0.0903071048212665,-0.145211316355737,-0.0320466666666666));
#1132=CARTESIAN_POINT('',(-0.0877846366753388,-0.133750729582302,-0.0320466666666666));
#1133=CARTESIAN_POINT('',(-0.0846812497655595,-0.122430119431958,-0.0320466666666666));
#1134=CARTESIAN_POINT('',(-0.0809374277743246,-0.111318513482589,-0.0320466666666666));
#1135=CARTESIAN_POINT('',(-0.076792853119921,-0.100437768360961,-0.0320466666666666));
#1136=CARTESIAN_POINT('',(-0.072586442304211,-0.089651642919867,-0.0320466666666667));
#1137=CARTESIAN_POINT('',(-0.0686169350449552,-0.0788305609526367,-0.0320466666666666));
#1138=CARTESIAN_POINT('',(-0.0650049965442119,-0.0679134903347761,-0.0320466666666667));
#1139=CARTESIAN_POINT('',(-0.06188752908899,-0.0568769920379036,-0.0320466666666667));
#1140=CARTESIAN_POINT('',(-0.0593602293891944,-0.0456831429146647,-0.0320466666666667));
#1141=CARTESIAN_POINT('',(-0.0574424039543753,-0.0343800719524615,-0.0320466666666667));
#1142=CARTESIAN_POINT('',(-0.0557907564868601,-0.0192146346864086,-0.0320466666666667));
#1143=CARTESIAN_POINT('',(-0.0553212949149196,-0.00767365685881462,-0.0320466666666667));
#1144=CARTESIAN_POINT('',(-0.0550000000000003,5.15244220259657E-5,-0.0320466666666667));
#1145=CARTESIAN_POINT('',(-0.0950000000000001,-0.179862099920814,-0.09614));
#1146=CARTESIAN_POINT('',(-0.0941472253138867,-0.172178203773367,-0.09614));
#1147=CARTESIAN_POINT('',(-0.0928779411570036,-0.160613532031304,-0.0961400000000001));
#1148=CARTESIAN_POINT('',(-0.0903071048212667,-0.145211316355738,-0.09614));
#1149=CARTESIAN_POINT('',(-0.0877846366753388,-0.133750729582302,-0.09614));
#1150=CARTESIAN_POINT('',(-0.0846812497655597,-0.122430119431958,-0.09614));
#1151=CARTESIAN_POINT('',(-0.0809374277743246,-0.111318513482589,-0.09614));
#1152=CARTESIAN_POINT('',(-0.076792853119921,-0.100437768360961,-0.09614));
#1153=CARTESIAN_POINT('',(-0.072586442304211,-0.0896516429198672,-0.09614));
#1154=CARTESIAN_POINT('',(-0.0686169350449553,-0.0788305609526367,-0.0961400000000001));
#1155=CARTESIAN_POINT('',(-0.0650049965442119,-0.0679134903347762,-0.09614));
#1156=CARTESIAN_POINT('',(-0.0618875290889902,-0.0568769920379037,-0.09614));
#1157=CARTESIAN_POINT('',(-0.0593602293891945,-0.0456831429146648,-0.09614));
#1158=CARTESIAN_POINT('',(-0.0574424039543754,-0.0343800719524615,-0.09614));
#1159=CARTESIAN_POINT('',(-0.0557907564868602,-0.0192146346864087,-0.09614));
#1160=CARTESIAN_POINT('',(-0.0553212949149196,-0.00767365685881462,-0.09614));
#1161=CARTESIAN_POINT('',(-0.0550000000000003,5.15244220259658E-5,-0.09614));
#1162=CARTESIAN_POINT('',(-0.095,-0.179862099920814,-0.095));
#1163=CARTESIAN_POINT('',(-0.0941280428317436,-0.171982262839359,-0.0941280428317434));
#1164=CARTESIAN_POINT('',(-0.0928186107375273,-0.160135153546957,-0.0928186107375272));
#1165=CARTESIAN_POINT('',(-0.090218057299812,-0.144763379482238,-0.0902180572998119));
#1166=CARTESIAN_POINT('',(-0.0877193912366003,-0.133505750208756,-0.0877193912366002));
#1167=CARTESIAN_POINT('',(-0.0846968496584412,-0.122507317907779,-0.0846968496584412));
#1168=CARTESIAN_POINT('',(-0.0811036585401251,-0.11179182962578,-0.0811036585401249));
#1169=CARTESIAN_POINT('',(-0.0771166460169028,-0.101269319125376,-0.0771166460169028));
#1170=CARTESIAN_POINT('',(-0.0716682872335261,-0.0873144755109272,-0.0716682872335261));
#1171=CARTESIAN_POINT('',(-0.0665584658433131,-0.0731468091169324,-0.066558465843313));
#1172=CARTESIAN_POINT('',(-0.0622697258852641,-0.0583684282029233,-0.0622697258852641));
#1173=CARTESIAN_POINT('',(-0.0596246068270583,-0.0470142070608932,-0.0596246068270583));
#1174=CARTESIAN_POINT('',(-0.0575973346873667,-0.0355046883032117,-0.0575973346873666));
#1175=CARTESIAN_POINT('',(-0.0558168244626769,-0.0198766072963871,-0.055816824462677));
#1176=CARTESIAN_POINT('',(-0.0553282136749774,-0.00790764087989446,-0.0553282136749774));
#1177=CARTESIAN_POINT('',(-0.0550000000000003,5.1524422025864E-5,-0.0550000000000003));
#1178=CARTESIAN_POINT('',(-0.055,5.15244220259407E-5,-0.055));
#1179=CARTESIAN_POINT('',(-0.095,-0.179862099920813,-0.095));
#1180=CARTESIAN_POINT('',(-0.095,-0.179862099920813,1.38777878078145E-17));
#1181=CARTESIAN_POINT('',(-0.055,5.15244220331936E-5,2.59987560026118E-19));
#1182=CARTESIAN_POINT('',(-0.055,0.,3.36777869765522E-18));
#1183=CARTESIAN_POINT('',(-0.055,0.,-0.055));
#1184=CARTESIAN_POINT('',(-0.095,-0.18,5.81707229594993E-18));
#1185=CARTESIAN_POINT('',(-0.095,-0.18,-0.095));
#1186=CARTESIAN_POINT('',(-0.09614,-0.179862099920814,-0.095));
#1187=CARTESIAN_POINT('',(-0.09614,-0.172178203773367,-0.0941472253138866));
#1188=CARTESIAN_POINT('',(-0.0961400000000001,-0.160613532031304,-0.0928779411570035));
#1189=CARTESIAN_POINT('',(-0.09614,-0.145211316355737,-0.0903071048212666));
#1190=CARTESIAN_POINT('',(-0.09614,-0.133750729582302,-0.0877846366753387));
#1191=CARTESIAN_POINT('',(-0.09614,-0.122430119431958,-0.0846812497655595));
#1192=CARTESIAN_POINT('',(-0.0961399999999999,-0.111318513482589,-0.0809374277743245));
#1193=CARTESIAN_POINT('',(-0.09614,-0.100437768360961,-0.0767928531199209));
#1194=CARTESIAN_POINT('',(-0.09614,-0.0896516429198672,-0.0725864423042109));
#1195=CARTESIAN_POINT('',(-0.09614,-0.0788305609526367,-0.0686169350449553));
#1196=CARTESIAN_POINT('',(-0.09614,-0.0679134903347762,-0.0650049965442119));
#1197=CARTESIAN_POINT('',(-0.09614,-0.0568769920379037,-0.0618875290889902));
#1198=CARTESIAN_POINT('',(-0.09614,-0.0456831429146647,-0.0593602293891945));
#1199=CARTESIAN_POINT('',(-0.09614,-0.0343800719524615,-0.0574424039543754));
#1200=CARTESIAN_POINT('',(-0.09614,-0.0192146346864087,-0.0557907564868602));
#1201=CARTESIAN_POINT('',(-0.09614,-0.00767365685881467,-0.0553212949149196));
#1202=CARTESIAN_POINT('',(-0.09614,5.15244220259486E-5,-0.0550000000000003));
#1203=CARTESIAN_POINT('',(-0.032046666666667,-0.179862099920814,-0.095));
#1204=CARTESIAN_POINT('',(-0.032046666666667,-0.172178203773367,-0.0941472253138867));
#1205=CARTESIAN_POINT('',(-0.032046666666667,-0.160613532031304,-0.0928779411570035));
#1206=CARTESIAN_POINT('',(-0.0320466666666669,-0.145211316355737,-0.0903071048212666));
#1207=CARTESIAN_POINT('',(-0.032046666666667,-0.133750729582302,-0.0877846366753386));
#1208=CARTESIAN_POINT('',(-0.0320466666666669,-0.122430119431958,-0.0846812497655595));
#1209=CARTESIAN_POINT('',(-0.0320466666666669,-0.111318513482589,-0.0809374277743245));
#1210=CARTESIAN_POINT('',(-0.0320466666666669,-0.100437768360961,-0.0767928531199209));
#1211=CARTESIAN_POINT('',(-0.032046666666667,-0.0896516429198671,-0.0725864423042109));
#1212=CARTESIAN_POINT('',(-0.0320466666666669,-0.0788305609526368,-0.0686169350449553));
#1213=CARTESIAN_POINT('',(-0.032046666666667,-0.0679134903347762,-0.0650049965442118));
#1214=CARTESIAN_POINT('',(-0.0320466666666669,-0.0568769920379037,-0.0618875290889902));
#1215=CARTESIAN_POINT('',(-0.032046666666667,-0.0456831429146647,-0.0593602293891945));
#1216=CARTESIAN_POINT('',(-0.032046666666667,-0.0343800719524615,-0.0574424039543753));
#1217=CARTESIAN_POINT('',(-0.032046666666667,-0.0192146346864087,-0.0557907564868602));
#1218=CARTESIAN_POINT('',(-0.032046666666667,-0.00767365685881465,-0.0553212949149196));
#1219=CARTESIAN_POINT('',(-0.032046666666667,5.15244220259482E-5,-0.0550000000000003));
#1220=CARTESIAN_POINT('',(0.032046666666666,-0.179862099920813,-0.095));
#1221=CARTESIAN_POINT('',(0.032046666666666,-0.172178203773367,-0.0941472253138866));
#1222=CARTESIAN_POINT('',(0.032046666666666,-0.160613532031304,-0.0928779411570036));
#1223=CARTESIAN_POINT('',(0.0320466666666659,-0.145211316355737,-0.0903071048212665));
#1224=CARTESIAN_POINT('',(0.032046666666666,-0.133750729582302,-0.0877846366753388));
#1225=CARTESIAN_POINT('',(0.0320466666666659,-0.122430119431958,-0.0846812497655597));
#1226=CARTESIAN_POINT('',(0.032046666666666,-0.111318513482589,-0.0809374277743246));
#1227=CARTESIAN_POINT('',(0.0320466666666659,-0.100437768360961,-0.076792853119921));
#1228=CARTESIAN_POINT('',(0.032046666666666,-0.0896516429198673,-0.0725864423042109));
#1229=CARTESIAN_POINT('',(0.0320466666666659,-0.0788305609526367,-0.0686169350449553));
#1230=CARTESIAN_POINT('',(0.0320466666666661,-0.0679134903347763,-0.0650049965442119));
#1231=CARTESIAN_POINT('',(0.032046666666666,-0.0568769920379037,-0.0618875290889901));
#1232=CARTESIAN_POINT('',(0.032046666666666,-0.0456831429146647,-0.0593602293891945));
#1233=CARTESIAN_POINT('',(0.032046666666666,-0.0343800719524615,-0.0574424039543754));
#1234=CARTESIAN_POINT('',(0.032046666666666,-0.0192146346864087,-0.0557907564868602));
#1235=CARTESIAN_POINT('',(0.032046666666666,-0.00767365685881467,-0.0553212949149196));
#1236=CARTESIAN_POINT('',(0.032046666666666,5.1524422025948E-5,-0.0550000000000003));
#1237=CARTESIAN_POINT('',(0.096139999999999,-0.179862099920813,-0.095));
#1238=CARTESIAN_POINT('',(0.0961399999999991,-0.172178203773367,-0.0941472253138867));
#1239=CARTESIAN_POINT('',(0.096139999999999,-0.160613532031304,-0.0928779411570035));
#1240=CARTESIAN_POINT('',(0.096139999999999,-0.145211316355737,-0.0903071048212666));
#1241=CARTESIAN_POINT('',(0.096139999999999,-0.133750729582302,-0.0877846366753388));
#1242=CARTESIAN_POINT('',(0.0961399999999989,-0.122430119431958,-0.0846812497655596));
#1243=CARTESIAN_POINT('',(0.096139999999999,-0.111318513482589,-0.0809374277743246));
#1244=CARTESIAN_POINT('',(0.0961399999999991,-0.100437768360961,-0.0767928531199209));
#1245=CARTESIAN_POINT('',(0.096139999999999,-0.0896516429198672,-0.0725864423042109));
#1246=CARTESIAN_POINT('',(0.0961399999999991,-0.0788305609526367,-0.0686169350449553));
#1247=CARTESIAN_POINT('',(0.096139999999999,-0.0679134903347762,-0.0650049965442119));
#1248=CARTESIAN_POINT('',(0.096139999999999,-0.0568769920379037,-0.0618875290889902));
#1249=CARTESIAN_POINT('',(0.096139999999999,-0.0456831429146647,-0.0593602293891945));
#1250=CARTESIAN_POINT('',(0.096139999999999,-0.0343800719524615,-0.0574424039543753));
#1251=CARTESIAN_POINT('',(0.096139999999999,-0.0192146346864087,-0.0557907564868602));
#1252=CARTESIAN_POINT('',(0.096139999999999,-0.00767365685881467,-0.0553212949149196));
#1253=CARTESIAN_POINT('',(0.096139999999999,5.15244220259553E-5,-0.0550000000000003));
#1254=CARTESIAN_POINT('',(0.094999999999999,-0.179862099920805,-0.094999999999999));
#1255=CARTESIAN_POINT('',(0.0941280428317425,-0.171982262839351,-0.094128042831742));
#1256=CARTESIAN_POINT('',(0.0928186107375262,-0.160135153546949,-0.0928186107375264));
#1257=CARTESIAN_POINT('',(0.0902180572998106,-0.144763379482232,-0.0902180572998106));
#1258=CARTESIAN_POINT('',(0.0877193912365986,-0.13350575020875,-0.0877193912365988));
#1259=CARTESIAN_POINT('',(0.0846968496584395,-0.122507317907774,-0.0846968496584395));
#1260=CARTESIAN_POINT('',(0.0811036585401234,-0.111791829625775,-0.0811036585401234));
#1261=CARTESIAN_POINT('',(0.0771166460169011,-0.101269319125372,-0.0771166460169011));
#1262=CARTESIAN_POINT('',(0.0716682872335248,-0.087314475510924,-0.0716682872335249));
#1263=CARTESIAN_POINT('',(0.0665584658433123,-0.0731468091169302,-0.0665584658433123));
#1264=CARTESIAN_POINT('',(0.0622697258852635,-0.0583684282029209,-0.0622697258852635));
#1265=CARTESIAN_POINT('',(0.0596246068270582,-0.0470142070608923,-0.0596246068270582));
#1266=CARTESIAN_POINT('',(0.0575973346873665,-0.0355046883032105,-0.0575973346873665));
#1267=CARTESIAN_POINT('',(0.0558168244626771,-0.0198766072963875,-0.055816824462677));
#1268=CARTESIAN_POINT('',(0.0553282136749774,-0.00790764087989496,-0.0553282136749774));
#1269=CARTESIAN_POINT('',(0.0550000000000003,5.1524422024964E-5,-0.0550000000000004));
#1270=CARTESIAN_POINT('',(0.055,5.15244220247927E-5,-0.055));
#1271=CARTESIAN_POINT('',(0.094999999999999,-0.179862099920804,-0.095));
#1272=CARTESIAN_POINT('',(-1.43950475849247E-17,-0.179862099920813,-0.095));
#1273=CARTESIAN_POINT('',(-2.59987570764714E-19,5.15244220331936E-5,-0.055));
#1274=CARTESIAN_POINT('',(-6.73555739531044E-18,0.,-0.055));
#1275=CARTESIAN_POINT('',(0.055,0.,-0.055));
#1276=CARTESIAN_POINT('',(-1.16341445918999E-17,-0.18,-0.095));
#1277=CARTESIAN_POINT('',(0.095,-0.18,-0.095));
#1278=CARTESIAN_POINT('',(0.095,-0.179862099920814,-0.09614));
#1279=CARTESIAN_POINT('',(0.0941472253138865,-0.172178203773367,-0.09614));
#1280=CARTESIAN_POINT('',(0.0928779411570034,-0.160613532031303,-0.0961400000000001));
#1281=CARTESIAN_POINT('',(0.0903071048212664,-0.145211316355736,-0.0961400000000001));
#1282=CARTESIAN_POINT('',(0.0877846366753383,-0.133750729582301,-0.09614));
#1283=CARTESIAN_POINT('',(0.0846812497655589,-0.122430119431956,-0.09614));
#1284=CARTESIAN_POINT('',(0.0809374277743236,-0.111318513482587,-0.09614));
#1285=CARTESIAN_POINT('',(0.0767928531199198,-0.100437768360958,-0.09614));
#1286=CARTESIAN_POINT('',(0.0725864423042096,-0.0896516429198638,-0.09614));
#1287=CARTESIAN_POINT('',(0.0686169350449539,-0.078830560952633,-0.0961400000000001));
#1288=CARTESIAN_POINT('',(0.0650049965442106,-0.067913490334772,-0.09614));
#1289=CARTESIAN_POINT('',(0.0618875290889889,-0.056876992037899,-0.09614));
#1290=CARTESIAN_POINT('',(0.0593602293891934,-0.0456831429146595,-0.09614));
#1291=CARTESIAN_POINT('',(0.0574424039543745,-0.0343800719524558,-0.0961400000000001));
#1292=CARTESIAN_POINT('',(0.0557907564868598,-0.0192146346864023,-0.09614));
#1293=CARTESIAN_POINT('',(0.0553212949149193,-0.00767365685880782,-0.0961400000000001));
#1294=CARTESIAN_POINT('',(0.055,5.15244220331665E-5,-0.09614));
#1295=CARTESIAN_POINT('',(0.095,-0.179862099920814,-0.0320466666666666));
#1296=CARTESIAN_POINT('',(0.0941472253138867,-0.172178203773367,-0.0320466666666667));
#1297=CARTESIAN_POINT('',(0.0928779411570033,-0.160613532031303,-0.0320466666666666));
#1298=CARTESIAN_POINT('',(0.0903071048212664,-0.145211316355736,-0.0320466666666667));
#1299=CARTESIAN_POINT('',(0.0877846366753383,-0.133750729582301,-0.0320466666666666));
#1300=CARTESIAN_POINT('',(0.0846812497655589,-0.122430119431956,-0.0320466666666666));
#1301=CARTESIAN_POINT('',(0.0809374277743236,-0.111318513482587,-0.0320466666666666));
#1302=CARTESIAN_POINT('',(0.0767928531199198,-0.100437768360958,-0.0320466666666666));
#1303=CARTESIAN_POINT('',(0.0725864423042097,-0.0896516429198638,-0.0320466666666667));
#1304=CARTESIAN_POINT('',(0.0686169350449539,-0.078830560952633,-0.0320466666666666));
#1305=CARTESIAN_POINT('',(0.0650049965442106,-0.067913490334772,-0.0320466666666667));
#1306=CARTESIAN_POINT('',(0.061887529088989,-0.056876992037899,-0.0320466666666666));
#1307=CARTESIAN_POINT('',(0.0593602293891935,-0.0456831429146595,-0.0320466666666667));
#1308=CARTESIAN_POINT('',(0.0574424039543745,-0.0343800719524558,-0.0320466666666666));
#1309=CARTESIAN_POINT('',(0.0557907564868599,-0.0192146346864023,-0.0320466666666667));
#1310=CARTESIAN_POINT('',(0.0553212949149192,-0.00767365685880783,-0.0320466666666666));
#1311=CARTESIAN_POINT('',(0.055,5.15244220331704E-5,-0.0320466666666667));
#1312=CARTESIAN_POINT('',(0.095,-0.179862099920813,0.0320466666666667));
#1313=CARTESIAN_POINT('',(0.0941472253138864,-0.172178203773367,0.0320466666666667));
#1314=CARTESIAN_POINT('',(0.0928779411570035,-0.160613532031303,0.0320466666666665));
#1315=CARTESIAN_POINT('',(0.0903071048212664,-0.145211316355736,0.0320466666666667));
#1316=CARTESIAN_POINT('',(0.0877846366753383,-0.133750729582301,0.0320466666666666));
#1317=CARTESIAN_POINT('',(0.084681249765559,-0.122430119431956,0.0320466666666666));
#1318=CARTESIAN_POINT('',(0.0809374277743236,-0.111318513482587,0.0320466666666666));
#1319=CARTESIAN_POINT('',(0.0767928531199198,-0.100437768360958,0.0320466666666667));
#1320=CARTESIAN_POINT('',(0.0725864423042096,-0.0896516429198638,0.0320466666666667));
#1321=CARTESIAN_POINT('',(0.068616935044954,-0.078830560952633,0.0320466666666667));
#1322=CARTESIAN_POINT('',(0.0650049965442105,-0.067913490334772,0.0320466666666667));
#1323=CARTESIAN_POINT('',(0.0618875290889889,-0.056876992037899,0.0320466666666666));
#1324=CARTESIAN_POINT('',(0.0593602293891934,-0.0456831429146595,0.0320466666666667));
#1325=CARTESIAN_POINT('',(0.0574424039543745,-0.0343800719524558,0.0320466666666667));
#1326=CARTESIAN_POINT('',(0.0557907564868598,-0.0192146346864023,0.0320466666666666));
#1327=CARTESIAN_POINT('',(0.0553212949149193,-0.00767365685880782,0.0320466666666666));
#1328=CARTESIAN_POINT('',(0.055,5.15244220331717E-5,0.0320466666666667));
#1329=CARTESIAN_POINT('',(0.0950000000000001,-0.179862099920814,0.09614));
#1330=CARTESIAN_POINT('',(0.0941472253138866,-0.172178203773367,0.09614));
#1331=CARTESIAN_POINT('',(0.0928779411570035,-0.160613532031303,0.0961400000000001));
#1332=CARTESIAN_POINT('',(0.0903071048212664,-0.145211316355736,0.09614));
#1333=CARTESIAN_POINT('',(0.0877846366753384,-0.133750729582301,0.09614));
#1334=CARTESIAN_POINT('',(0.084681249765559,-0.122430119431956,0.09614));
#1335=CARTESIAN_POINT('',(0.0809374277743237,-0.111318513482587,0.09614));
#1336=CARTESIAN_POINT('',(0.0767928531199199,-0.100437768360958,0.09614));
#1337=CARTESIAN_POINT('',(0.0725864423042097,-0.0896516429198639,0.0961400000000001));
#1338=CARTESIAN_POINT('',(0.068616935044954,-0.078830560952633,0.09614));
#1339=CARTESIAN_POINT('',(0.0650049965442106,-0.067913490334772,0.09614));
#1340=CARTESIAN_POINT('',(0.061887529088989,-0.056876992037899,0.0961400000000001));
#1341=CARTESIAN_POINT('',(0.0593602293891935,-0.0456831429146595,0.09614));
#1342=CARTESIAN_POINT('',(0.0574424039543746,-0.0343800719524558,0.09614));
#1343=CARTESIAN_POINT('',(0.0557907564868598,-0.0192146346864023,0.09614));
#1344=CARTESIAN_POINT('',(0.0553212949149193,-0.00767365685880782,0.0961400000000001));
#1345=CARTESIAN_POINT('',(0.055,5.15244220331783E-5,0.09614));
#1346=CARTESIAN_POINT('',(0.095,-0.179862099920813,-1.43950475849247E-17));
#1347=CARTESIAN_POINT('',(0.055,5.15244220331936E-5,-1.41377753678406E-17));
#1348=CARTESIAN_POINT('',(0.055,0.,-1.01033360929657E-17));
#1349=CARTESIAN_POINT('',(0.095,-0.18,-1.74512168878498E-17));
#1350=CARTESIAN_POINT('',(0.09025,-0.249,0.));
#1351=CARTESIAN_POINT('',(0.09025,-0.249,0.09025));
#1352=CARTESIAN_POINT('',(0.09025,-0.18,0.09025));
#1353=CARTESIAN_POINT('',(0.09025,-0.18,0.));
#1354=CARTESIAN_POINT('',(0.09025,-0.18,-0.09025));
#1355=CARTESIAN_POINT('',(0.09025,-0.249,-0.09025));
#1356=CARTESIAN_POINT('',(0.,-0.249,0.09025));
#1357=CARTESIAN_POINT('',(-0.09025,-0.249,0.09025));
#1358=CARTESIAN_POINT('',(-0.09025,-0.18,0.09025));
#1359=CARTESIAN_POINT('',(0.,-0.18,0.09025));
#1360=CARTESIAN_POINT('',(-0.09025,-0.249,1.38777878078145E-17));
#1361=CARTESIAN_POINT('',(-0.09025,-0.249,-0.09025));
#1362=CARTESIAN_POINT('',(-0.09025,-0.18,-0.09025));
#1363=CARTESIAN_POINT('',(-0.09025,-0.18,1.38777878078145E-17));
#1364=CARTESIAN_POINT('',(-1.38777878078145E-17,-0.249,-0.09025));
#1365=CARTESIAN_POINT('',(-1.38777878078145E-17,-0.18,-0.09025));
#1366=CARTESIAN_POINT('',(0.,-0.18,0.));
#1367=MECHANICAL_DESIGN_GEOMETRIC_PRESENTATION_REPRESENTATION('',(#455),
#1368);
#1368=(
GEOMETRIC_REPRESENTATION_CONTEXT(3)
GLOBAL_UNCERTAINTY_ASSIGNED_CONTEXT((#1369))
GLOBAL_UNIT_ASSIGNED_CONTEXT((#1372,#1371,#1370))
REPRESENTATION_CONTEXT('C\X\F4ne de concentration',
'TOP_LEVEL_ASSEMBLY_PART')
);
#1369=UNCERTAINTY_MEASURE_WITH_UNIT(LENGTH_MEASURE(2.E-5),#1372,
'DISTANCE_ACCURACY_VALUE','Maximum Tolerance applied to model');
#1370=(
NAMED_UNIT(*)
SI_UNIT($,.STERADIAN.)
SOLID_ANGLE_UNIT()
);
#1371=(
NAMED_UNIT(*)
PLANE_ANGLE_UNIT()
SI_UNIT($,.RADIAN.)
);
#1372=(
LENGTH_UNIT()
NAMED_UNIT(*)
SI_UNIT($,.METRE.)
);
#1373=PRODUCT_DEFINITION_SHAPE('','',#1374);
#1374=PRODUCT_DEFINITION('','',#1376,#1375);
#1375=PRODUCT_DEFINITION_CONTEXT('',#1382,'design');
#1376=PRODUCT_DEFINITION_FORMATION_WITH_SPECIFIED_SOURCE('','',#1378,
 .NOT_KNOWN.);
#1377=PRODUCT_RELATED_PRODUCT_CATEGORY('','',(#1378));
#1378=PRODUCT('C\X\F4ne de concentration','C\X\F4ne de concentration',
'C\X\F4ne de concentration',(#1380));
#1379=PRODUCT_CATEGORY('','');
#1380=PRODUCT_CONTEXT('',#1382,'mechanical');
#1381=APPLICATION_PROTOCOL_DEFINITION('international standard',
'ap242_managed_model_based_3d_engineering',2020,#1382);
#1382=APPLICATION_CONTEXT('managed model based 3d engineering');
ENDSEC;
END-ISO-10303-21;
