ISO-10303-21;
HEADER;
/* Generated by software containing ST-Developer
 * from STEP Tools, Inc. (www.steptools.com) 
 */
/* OPTION: using custom renumber hook */

FILE_DESCRIPTION(
/* description */ ('STEP AP242 Edition 2',
'CAx-IF Rec.Pracs.---Representation and Presentation of Product Manufa
cturing Information (PMI)---4.0---2014-10-13',
'CAx-IF Rec.Pracs.---3D Tessellated Geometry---0.4---2014-09-14','2;1',
'CAx-IF Rec.Pracs.---User Defined Attributes---1.5---2016-08-15'),
/* implementation_level */ '2;1');

FILE_NAME(
/* name */ 'Assemblage V2 - Cellule de charge',
/* time_stamp */ '2026-09-29T21:10:08Z',
/* author */ (''),
/* organization */ (''),
/* preprocessor_version */ 'ST-DEVELOPER v20',
/* originating_system */ 'ONSHAPE BY PTC INC, 1.221',
/* authorisation */ '  ');

FILE_SCHEMA (('AP242_MANAGED_MODEL_BASED_3D_ENGINEERING_MIM_LF { 1 0 10303 442 3 1 4 }'));
ENDSEC;

DATA;
#10=SHAPE_REPRESENTATION_RELATIONSHIP('','',#363,#11);
#11=ADVANCED_BREP_SHAPE_REPRESENTATION('',(#361),#577);
#12=CYLINDRICAL_SURFACE('',#387,0.00125);
#13=CYLINDRICAL_SURFACE('',#388,0.00125);
#14=CYLINDRICAL_SURFACE('',#389,0.00125);
#15=CYLINDRICAL_SURFACE('',#390,0.00125);
#16=CIRCLE('',#378,0.00125);
#17=CIRCLE('',#379,0.00125);
#18=CIRCLE('',#380,0.00125);
#19=CIRCLE('',#381,0.00125);
#20=CIRCLE('',#383,0.00125);
#21=CIRCLE('',#384,0.00125);
#22=CIRCLE('',#385,0.00125);
#23=CIRCLE('',#386,0.00125);
#24=ORIENTED_EDGE('',*,*,#112,.T.);
#25=ORIENTED_EDGE('',*,*,#113,.F.);
#26=ORIENTED_EDGE('',*,*,#114,.F.);
#27=ORIENTED_EDGE('',*,*,#115,.T.);
#28=ORIENTED_EDGE('',*,*,#116,.F.);
#29=ORIENTED_EDGE('',*,*,#115,.F.);
#30=ORIENTED_EDGE('',*,*,#117,.T.);
#31=ORIENTED_EDGE('',*,*,#118,.T.);
#32=ORIENTED_EDGE('',*,*,#119,.F.);
#33=ORIENTED_EDGE('',*,*,#118,.F.);
#34=ORIENTED_EDGE('',*,*,#120,.T.);
#35=ORIENTED_EDGE('',*,*,#121,.T.);
#36=ORIENTED_EDGE('',*,*,#122,.T.);
#37=ORIENTED_EDGE('',*,*,#121,.F.);
#38=ORIENTED_EDGE('',*,*,#123,.F.);
#39=ORIENTED_EDGE('',*,*,#124,.T.);
#40=ORIENTED_EDGE('',*,*,#125,.T.);
#41=ORIENTED_EDGE('',*,*,#124,.F.);
#42=ORIENTED_EDGE('',*,*,#126,.F.);
#43=ORIENTED_EDGE('',*,*,#127,.T.);
#44=ORIENTED_EDGE('',*,*,#128,.F.);
#45=ORIENTED_EDGE('',*,*,#127,.F.);
#46=ORIENTED_EDGE('',*,*,#129,.T.);
#47=ORIENTED_EDGE('',*,*,#130,.T.);
#48=ORIENTED_EDGE('',*,*,#131,.F.);
#49=ORIENTED_EDGE('',*,*,#130,.F.);
#50=ORIENTED_EDGE('',*,*,#132,.T.);
#51=ORIENTED_EDGE('',*,*,#133,.T.);
#52=ORIENTED_EDGE('',*,*,#134,.T.);
#53=ORIENTED_EDGE('',*,*,#133,.F.);
#54=ORIENTED_EDGE('',*,*,#135,.F.);
#55=ORIENTED_EDGE('',*,*,#136,.T.);
#56=ORIENTED_EDGE('',*,*,#137,.T.);
#57=ORIENTED_EDGE('',*,*,#136,.F.);
#58=ORIENTED_EDGE('',*,*,#138,.F.);
#59=ORIENTED_EDGE('',*,*,#139,.T.);
#60=ORIENTED_EDGE('',*,*,#140,.T.);
#61=ORIENTED_EDGE('',*,*,#139,.F.);
#62=ORIENTED_EDGE('',*,*,#141,.F.);
#63=ORIENTED_EDGE('',*,*,#142,.T.);
#64=ORIENTED_EDGE('',*,*,#143,.F.);
#65=ORIENTED_EDGE('',*,*,#142,.F.);
#66=ORIENTED_EDGE('',*,*,#144,.T.);
#67=ORIENTED_EDGE('',*,*,#145,.T.);
#68=ORIENTED_EDGE('',*,*,#146,.F.);
#69=ORIENTED_EDGE('',*,*,#145,.F.);
#70=ORIENTED_EDGE('',*,*,#147,.T.);
#71=ORIENTED_EDGE('',*,*,#113,.T.);
#72=ORIENTED_EDGE('',*,*,#148,.F.);
#73=ORIENTED_EDGE('',*,*,#149,.F.);
#74=ORIENTED_EDGE('',*,*,#150,.F.);
#75=ORIENTED_EDGE('',*,*,#151,.F.);
#76=ORIENTED_EDGE('',*,*,#114,.T.);
#77=ORIENTED_EDGE('',*,*,#147,.F.);
#78=ORIENTED_EDGE('',*,*,#144,.F.);
#79=ORIENTED_EDGE('',*,*,#141,.T.);
#80=ORIENTED_EDGE('',*,*,#138,.T.);
#81=ORIENTED_EDGE('',*,*,#135,.T.);
#82=ORIENTED_EDGE('',*,*,#132,.F.);
#83=ORIENTED_EDGE('',*,*,#129,.F.);
#84=ORIENTED_EDGE('',*,*,#126,.T.);
#85=ORIENTED_EDGE('',*,*,#123,.T.);
#86=ORIENTED_EDGE('',*,*,#120,.F.);
#87=ORIENTED_EDGE('',*,*,#117,.F.);
#88=ORIENTED_EDGE('',*,*,#152,.T.);
#89=ORIENTED_EDGE('',*,*,#153,.T.);
#90=ORIENTED_EDGE('',*,*,#154,.T.);
#91=ORIENTED_EDGE('',*,*,#155,.T.);
#92=ORIENTED_EDGE('',*,*,#112,.F.);
#93=ORIENTED_EDGE('',*,*,#116,.T.);
#94=ORIENTED_EDGE('',*,*,#119,.T.);
#95=ORIENTED_EDGE('',*,*,#122,.F.);
#96=ORIENTED_EDGE('',*,*,#125,.F.);
#97=ORIENTED_EDGE('',*,*,#128,.T.);
#98=ORIENTED_EDGE('',*,*,#131,.T.);
#99=ORIENTED_EDGE('',*,*,#134,.F.);
#100=ORIENTED_EDGE('',*,*,#137,.F.);
#101=ORIENTED_EDGE('',*,*,#140,.F.);
#102=ORIENTED_EDGE('',*,*,#143,.T.);
#103=ORIENTED_EDGE('',*,*,#146,.T.);
#104=ORIENTED_EDGE('',*,*,#151,.T.);
#105=ORIENTED_EDGE('',*,*,#155,.F.);
#106=ORIENTED_EDGE('',*,*,#150,.T.);
#107=ORIENTED_EDGE('',*,*,#154,.F.);
#108=ORIENTED_EDGE('',*,*,#149,.T.);
#109=ORIENTED_EDGE('',*,*,#153,.F.);
#110=ORIENTED_EDGE('',*,*,#148,.T.);
#111=ORIENTED_EDGE('',*,*,#152,.F.);
#112=EDGE_CURVE('',#156,#157,#188,.T.);
#113=EDGE_CURVE('',#158,#157,#189,.T.);
#114=EDGE_CURVE('',#159,#158,#190,.T.);
#115=EDGE_CURVE('',#159,#156,#191,.T.);
#116=EDGE_CURVE('',#156,#160,#192,.T.);
#117=EDGE_CURVE('',#159,#161,#193,.T.);
#118=EDGE_CURVE('',#161,#160,#194,.T.);
#119=EDGE_CURVE('',#160,#162,#195,.T.);
#120=EDGE_CURVE('',#161,#163,#196,.T.);
#121=EDGE_CURVE('',#163,#162,#197,.T.);
#122=EDGE_CURVE('',#164,#162,#198,.T.);
#123=EDGE_CURVE('',#165,#163,#199,.T.);
#124=EDGE_CURVE('',#165,#164,#200,.T.);
#125=EDGE_CURVE('',#166,#164,#201,.T.);
#126=EDGE_CURVE('',#167,#165,#202,.T.);
#127=EDGE_CURVE('',#167,#166,#203,.T.);
#128=EDGE_CURVE('',#166,#168,#204,.T.);
#129=EDGE_CURVE('',#167,#169,#205,.T.);
#130=EDGE_CURVE('',#169,#168,#206,.T.);
#131=EDGE_CURVE('',#168,#170,#207,.T.);
#132=EDGE_CURVE('',#169,#171,#208,.T.);
#133=EDGE_CURVE('',#171,#170,#209,.T.);
#134=EDGE_CURVE('',#172,#170,#210,.T.);
#135=EDGE_CURVE('',#173,#171,#211,.T.);
#136=EDGE_CURVE('',#173,#172,#212,.T.);
#137=EDGE_CURVE('',#174,#172,#213,.T.);
#138=EDGE_CURVE('',#175,#173,#214,.T.);
#139=EDGE_CURVE('',#175,#174,#215,.T.);
#140=EDGE_CURVE('',#176,#174,#216,.T.);
#141=EDGE_CURVE('',#177,#175,#217,.T.);
#142=EDGE_CURVE('',#177,#176,#218,.T.);
#143=EDGE_CURVE('',#176,#178,#219,.T.);
#144=EDGE_CURVE('',#177,#179,#220,.T.);
#145=EDGE_CURVE('',#179,#178,#221,.T.);
#146=EDGE_CURVE('',#178,#157,#222,.T.);
#147=EDGE_CURVE('',#179,#158,#223,.T.);
#148=EDGE_CURVE('',#180,#180,#16,.T.);
#149=EDGE_CURVE('',#181,#181,#17,.T.);
#150=EDGE_CURVE('',#182,#182,#18,.T.);
#151=EDGE_CURVE('',#183,#183,#19,.T.);
#152=EDGE_CURVE('',#184,#184,#20,.T.);
#153=EDGE_CURVE('',#185,#185,#21,.T.);
#154=EDGE_CURVE('',#186,#186,#22,.T.);
#155=EDGE_CURVE('',#187,#187,#23,.T.);
#156=VERTEX_POINT('',#484);
#157=VERTEX_POINT('',#485);
#158=VERTEX_POINT('',#487);
#159=VERTEX_POINT('',#489);
#160=VERTEX_POINT('',#493);
#161=VERTEX_POINT('',#495);
#162=VERTEX_POINT('',#499);
#163=VERTEX_POINT('',#501);
#164=VERTEX_POINT('',#505);
#165=VERTEX_POINT('',#507);
#166=VERTEX_POINT('',#511);
#167=VERTEX_POINT('',#513);
#168=VERTEX_POINT('',#517);
#169=VERTEX_POINT('',#519);
#170=VERTEX_POINT('',#523);
#171=VERTEX_POINT('',#525);
#172=VERTEX_POINT('',#529);
#173=VERTEX_POINT('',#531);
#174=VERTEX_POINT('',#535);
#175=VERTEX_POINT('',#537);
#176=VERTEX_POINT('',#541);
#177=VERTEX_POINT('',#543);
#178=VERTEX_POINT('',#547);
#179=VERTEX_POINT('',#549);
#180=VERTEX_POINT('',#556);
#181=VERTEX_POINT('',#558);
#182=VERTEX_POINT('',#560);
#183=VERTEX_POINT('',#562);
#184=VERTEX_POINT('',#565);
#185=VERTEX_POINT('',#567);
#186=VERTEX_POINT('',#569);
#187=VERTEX_POINT('',#571);
#188=LINE('',#483,#224);
#189=LINE('',#486,#225);
#190=LINE('',#488,#226);
#191=LINE('',#490,#227);
#192=LINE('',#492,#228);
#193=LINE('',#494,#229);
#194=LINE('',#496,#230);
#195=LINE('',#498,#231);
#196=LINE('',#500,#232);
#197=LINE('',#502,#233);
#198=LINE('',#504,#234);
#199=LINE('',#506,#235);
#200=LINE('',#508,#236);
#201=LINE('',#510,#237);
#202=LINE('',#512,#238);
#203=LINE('',#514,#239);
#204=LINE('',#516,#240);
#205=LINE('',#518,#241);
#206=LINE('',#520,#242);
#207=LINE('',#522,#243);
#208=LINE('',#524,#244);
#209=LINE('',#526,#245);
#210=LINE('',#528,#246);
#211=LINE('',#530,#247);
#212=LINE('',#532,#248);
#213=LINE('',#534,#249);
#214=LINE('',#536,#250);
#215=LINE('',#538,#251);
#216=LINE('',#540,#252);
#217=LINE('',#542,#253);
#218=LINE('',#544,#254);
#219=LINE('',#546,#255);
#220=LINE('',#548,#256);
#221=LINE('',#550,#257);
#222=LINE('',#552,#258);
#223=LINE('',#553,#259);
#224=VECTOR('',#395,1.);
#225=VECTOR('',#396,1.);
#226=VECTOR('',#397,1.);
#227=VECTOR('',#398,1.);
#228=VECTOR('',#401,1.);
#229=VECTOR('',#402,1.);
#230=VECTOR('',#403,1.);
#231=VECTOR('',#406,1.);
#232=VECTOR('',#407,1.);
#233=VECTOR('',#408,1.);
#234=VECTOR('',#411,1.);
#235=VECTOR('',#412,1.);
#236=VECTOR('',#413,1.);
#237=VECTOR('',#416,1.);
#238=VECTOR('',#417,1.);
#239=VECTOR('',#418,1.);
#240=VECTOR('',#421,1.);
#241=VECTOR('',#422,1.);
#242=VECTOR('',#423,1.);
#243=VECTOR('',#426,1.);
#244=VECTOR('',#427,1.);
#245=VECTOR('',#428,1.);
#246=VECTOR('',#431,1.);
#247=VECTOR('',#432,1.);
#248=VECTOR('',#433,1.);
#249=VECTOR('',#436,1.);
#250=VECTOR('',#437,1.);
#251=VECTOR('',#438,1.);
#252=VECTOR('',#441,1.);
#253=VECTOR('',#442,1.);
#254=VECTOR('',#443,1.);
#255=VECTOR('',#446,1.);
#256=VECTOR('',#447,1.);
#257=VECTOR('',#448,1.);
#258=VECTOR('',#451,1.);
#259=VECTOR('',#452,1.);
#260=EDGE_LOOP('',(#24,#25,#26,#27));
#261=EDGE_LOOP('',(#28,#29,#30,#31));
#262=EDGE_LOOP('',(#32,#33,#34,#35));
#263=EDGE_LOOP('',(#36,#37,#38,#39));
#264=EDGE_LOOP('',(#40,#41,#42,#43));
#265=EDGE_LOOP('',(#44,#45,#46,#47));
#266=EDGE_LOOP('',(#48,#49,#50,#51));
#267=EDGE_LOOP('',(#52,#53,#54,#55));
#268=EDGE_LOOP('',(#56,#57,#58,#59));
#269=EDGE_LOOP('',(#60,#61,#62,#63));
#270=EDGE_LOOP('',(#64,#65,#66,#67));
#271=EDGE_LOOP('',(#68,#69,#70,#71));
#272=EDGE_LOOP('',(#72));
#273=EDGE_LOOP('',(#73));
#274=EDGE_LOOP('',(#74));
#275=EDGE_LOOP('',(#75));
#276=EDGE_LOOP('',(#76,#77,#78,#79,#80,#81,#82,#83,#84,#85,#86,#87));
#277=EDGE_LOOP('',(#88));
#278=EDGE_LOOP('',(#89));
#279=EDGE_LOOP('',(#90));
#280=EDGE_LOOP('',(#91));
#281=EDGE_LOOP('',(#92,#93,#94,#95,#96,#97,#98,#99,#100,#101,#102,#103));
#282=EDGE_LOOP('',(#104));
#283=EDGE_LOOP('',(#105));
#284=EDGE_LOOP('',(#106));
#285=EDGE_LOOP('',(#107));
#286=EDGE_LOOP('',(#108));
#287=EDGE_LOOP('',(#109));
#288=EDGE_LOOP('',(#110));
#289=EDGE_LOOP('',(#111));
#290=FACE_BOUND('',#260,.T.);
#291=FACE_BOUND('',#261,.T.);
#292=FACE_BOUND('',#262,.T.);
#293=FACE_BOUND('',#263,.T.);
#294=FACE_BOUND('',#264,.T.);
#295=FACE_BOUND('',#265,.T.);
#296=FACE_BOUND('',#266,.T.);
#297=FACE_BOUND('',#267,.T.);
#298=FACE_BOUND('',#268,.T.);
#299=FACE_BOUND('',#269,.T.);
#300=FACE_BOUND('',#270,.T.);
#301=FACE_BOUND('',#271,.T.);
#302=FACE_BOUND('',#272,.T.);
#303=FACE_BOUND('',#273,.T.);
#304=FACE_BOUND('',#274,.T.);
#305=FACE_BOUND('',#275,.T.);
#306=FACE_BOUND('',#276,.T.);
#307=FACE_BOUND('',#277,.T.);
#308=FACE_BOUND('',#278,.T.);
#309=FACE_BOUND('',#279,.T.);
#310=FACE_BOUND('',#280,.T.);
#311=FACE_BOUND('',#281,.T.);
#312=FACE_BOUND('',#282,.T.);
#313=FACE_BOUND('',#283,.T.);
#314=FACE_BOUND('',#284,.T.);
#315=FACE_BOUND('',#285,.T.);
#316=FACE_BOUND('',#286,.T.);
#317=FACE_BOUND('',#287,.T.);
#318=FACE_BOUND('',#288,.T.);
#319=FACE_BOUND('',#289,.T.);
#320=PLANE('',#365);
#321=PLANE('',#366);
#322=PLANE('',#367);
#323=PLANE('',#368);
#324=PLANE('',#369);
#325=PLANE('',#370);
#326=PLANE('',#371);
#327=PLANE('',#372);
#328=PLANE('',#373);
#329=PLANE('',#374);
#330=PLANE('',#375);
#331=PLANE('',#376);
#332=PLANE('',#377);
#333=PLANE('',#382);
#334=ADVANCED_FACE('',(#290),#320,.F.);
#335=ADVANCED_FACE('',(#291),#321,.T.);
#336=ADVANCED_FACE('',(#292),#322,.T.);
#337=ADVANCED_FACE('',(#293),#323,.F.);
#338=ADVANCED_FACE('',(#294),#324,.F.);
#339=ADVANCED_FACE('',(#295),#325,.T.);
#340=ADVANCED_FACE('',(#296),#326,.T.);
#341=ADVANCED_FACE('',(#297),#327,.F.);
#342=ADVANCED_FACE('',(#298),#328,.F.);
#343=ADVANCED_FACE('',(#299),#329,.F.);
#344=ADVANCED_FACE('',(#300),#330,.T.);
#345=ADVANCED_FACE('',(#301),#331,.T.);
#346=ADVANCED_FACE('',(#302,#303,#304,#305,#306),#332,.F.);
#347=ADVANCED_FACE('',(#307,#308,#309,#310,#311),#333,.T.);
#348=ADVANCED_FACE('',(#312,#313),#12,.F.);
#349=ADVANCED_FACE('',(#314,#315),#13,.F.);
#350=ADVANCED_FACE('',(#316,#317),#14,.F.);
#351=ADVANCED_FACE('',(#318,#319),#15,.F.);
#352=CLOSED_SHELL('',(#334,#335,#336,#337,#338,#339,#340,#341,#342,#343,
#344,#345,#346,#347,#348,#349,#350,#351));
#353=STYLED_ITEM('',(#354),#361);
#354=PRESENTATION_STYLE_ASSIGNMENT((#355));
#355=SURFACE_STYLE_USAGE(.BOTH.,#356);
#356=SURFACE_SIDE_STYLE('',(#357));
#357=SURFACE_STYLE_FILL_AREA(#358);
#358=FILL_AREA_STYLE('',(#359));
#359=FILL_AREA_STYLE_COLOUR('',#360);
#360=COLOUR_RGB('',0.615686274509804,0.811764705882353,0.929411764705882);
#361=MANIFOLD_SOLID_BREP('Cellule de charge',#352);
#362=SHAPE_DEFINITION_REPRESENTATION(#582,#363);
#363=SHAPE_REPRESENTATION('Cellule de charge',(#364),#577);
#364=AXIS2_PLACEMENT_3D('',#481,#391,#392);
#365=AXIS2_PLACEMENT_3D('',#482,#393,#394);
#366=AXIS2_PLACEMENT_3D('',#491,#399,#400);
#367=AXIS2_PLACEMENT_3D('',#497,#404,#405);
#368=AXIS2_PLACEMENT_3D('',#503,#409,#410);
#369=AXIS2_PLACEMENT_3D('',#509,#414,#415);
#370=AXIS2_PLACEMENT_3D('',#515,#419,#420);
#371=AXIS2_PLACEMENT_3D('',#521,#424,#425);
#372=AXIS2_PLACEMENT_3D('',#527,#429,#430);
#373=AXIS2_PLACEMENT_3D('',#533,#434,#435);
#374=AXIS2_PLACEMENT_3D('',#539,#439,#440);
#375=AXIS2_PLACEMENT_3D('',#545,#444,#445);
#376=AXIS2_PLACEMENT_3D('',#551,#449,#450);
#377=AXIS2_PLACEMENT_3D('',#554,#453,#454);
#378=AXIS2_PLACEMENT_3D('',#555,#455,#456);
#379=AXIS2_PLACEMENT_3D('',#557,#457,#458);
#380=AXIS2_PLACEMENT_3D('',#559,#459,#460);
#381=AXIS2_PLACEMENT_3D('',#561,#461,#462);
#382=AXIS2_PLACEMENT_3D('',#563,#463,#464);
#383=AXIS2_PLACEMENT_3D('',#564,#465,#466);
#384=AXIS2_PLACEMENT_3D('',#566,#467,#468);
#385=AXIS2_PLACEMENT_3D('',#568,#469,#470);
#386=AXIS2_PLACEMENT_3D('',#570,#471,#472);
#387=AXIS2_PLACEMENT_3D('',#572,#473,#474);
#388=AXIS2_PLACEMENT_3D('',#573,#475,#476);
#389=AXIS2_PLACEMENT_3D('',#574,#477,#478);
#390=AXIS2_PLACEMENT_3D('',#575,#479,#480);
#391=DIRECTION('',(0.,0.,1.));
#392=DIRECTION('',(1.,0.,0.));
#393=DIRECTION('',(-1.,0.,0.));
#394=DIRECTION('',(0.,0.,1.));
#395=DIRECTION('',(0.,-1.,0.));
#396=DIRECTION('',(0.,0.,1.));
#397=DIRECTION('',(0.,-1.,0.));
#398=DIRECTION('',(0.,0.,1.));
#399=DIRECTION('',(0.,-1.,0.));
#400=DIRECTION('',(0.,0.,-1.));
#401=DIRECTION('',(1.,0.,0.));
#402=DIRECTION('',(1.,0.,0.));
#403=DIRECTION('',(0.,0.,1.));
#404=DIRECTION('',(-1.,0.,0.));
#405=DIRECTION('',(0.,0.,1.));
#406=DIRECTION('',(0.,-1.,0.));
#407=DIRECTION('',(0.,-1.,0.));
#408=DIRECTION('',(0.,0.,1.));
#409=DIRECTION('',(0.,1.,0.));
#410=DIRECTION('',(0.,0.,1.));
#411=DIRECTION('',(-1.,0.,0.));
#412=DIRECTION('',(-1.,0.,0.));
#413=DIRECTION('',(0.,0.,1.));
#414=DIRECTION('',(-1.,0.,0.));
#415=DIRECTION('',(0.,0.,1.));
#416=DIRECTION('',(0.,-1.,0.));
#417=DIRECTION('',(0.,-1.,0.));
#418=DIRECTION('',(0.,0.,1.));
#419=DIRECTION('',(0.,1.,0.));
#420=DIRECTION('',(0.,0.,1.));
#421=DIRECTION('',(-1.,0.,0.));
#422=DIRECTION('',(-1.,0.,0.));
#423=DIRECTION('',(0.,0.,1.));
#424=DIRECTION('',(-1.,0.,0.));
#425=DIRECTION('',(0.,0.,1.));
#426=DIRECTION('',(0.,-1.,0.));
#427=DIRECTION('',(0.,-1.,0.));
#428=DIRECTION('',(0.,0.,1.));
#429=DIRECTION('',(0.,-1.,0.));
#430=DIRECTION('',(0.,0.,-1.));
#431=DIRECTION('',(1.,0.,0.));
#432=DIRECTION('',(1.,0.,0.));
#433=DIRECTION('',(0.,0.,1.));
#434=DIRECTION('',(-1.,0.,0.));
#435=DIRECTION('',(0.,0.,1.));
#436=DIRECTION('',(0.,-1.,0.));
#437=DIRECTION('',(0.,-1.,0.));
#438=DIRECTION('',(0.,0.,1.));
#439=DIRECTION('',(0.,-1.,0.));
#440=DIRECTION('',(0.,0.,-1.));
#441=DIRECTION('',(1.,0.,0.));
#442=DIRECTION('',(1.,0.,0.));
#443=DIRECTION('',(0.,0.,1.));
#444=DIRECTION('',(-1.,0.,0.));
#445=DIRECTION('',(0.,0.,1.));
#446=DIRECTION('',(0.,-1.,0.));
#447=DIRECTION('',(0.,-1.,0.));
#448=DIRECTION('',(0.,0.,1.));
#449=DIRECTION('',(0.,-1.,0.));
#450=DIRECTION('',(0.,0.,-1.));
#451=DIRECTION('',(1.,0.,0.));
#452=DIRECTION('',(1.,0.,0.));
#453=DIRECTION('',(0.,0.,1.));
#454=DIRECTION('',(1.,0.,0.));
#455=DIRECTION('',(0.,0.,-1.));
#456=DIRECTION('',(-1.,0.,0.));
#457=DIRECTION('',(0.,0.,-1.));
#458=DIRECTION('',(-1.,0.,0.));
#459=DIRECTION('',(0.,0.,-1.));
#460=DIRECTION('',(-1.,0.,0.));
#461=DIRECTION('',(0.,0.,-1.));
#462=DIRECTION('',(-1.,0.,0.));
#463=DIRECTION('',(0.,0.,1.));
#464=DIRECTION('',(1.,0.,0.));
#465=DIRECTION('',(0.,0.,-1.));
#466=DIRECTION('',(-1.,0.,0.));
#467=DIRECTION('',(0.,0.,-1.));
#468=DIRECTION('',(-1.,0.,0.));
#469=DIRECTION('',(0.,0.,-1.));
#470=DIRECTION('',(-1.,0.,0.));
#471=DIRECTION('',(0.,0.,-1.));
#472=DIRECTION('',(-1.,0.,0.));
#473=DIRECTION('',(0.,0.,-1.));
#474=DIRECTION('',(-1.,0.,0.));
#475=DIRECTION('',(0.,0.,-1.));
#476=DIRECTION('',(-1.,0.,0.));
#477=DIRECTION('',(0.,0.,-1.));
#478=DIRECTION('',(-1.,0.,0.));
#479=DIRECTION('',(0.,0.,-1.));
#480=DIRECTION('',(-1.,0.,0.));
#481=CARTESIAN_POINT('',(0.,0.,0.));
#482=CARTESIAN_POINT('',(0.007,-0.0107463253140449,-0.006));
#483=CARTESIAN_POINT('',(0.007,-0.0107463253140449,0.));
#484=CARTESIAN_POINT('',(0.007,-0.0094926506280899,0.));
#485=CARTESIAN_POINT('',(0.007,-0.012,0.));
#486=CARTESIAN_POINT('',(0.007,-0.012,-0.006));
#487=CARTESIAN_POINT('',(0.007,-0.012,-0.006));
#488=CARTESIAN_POINT('',(0.007,-0.0107463253140449,-0.006));
#489=CARTESIAN_POINT('',(0.007,-0.0094926506280899,-0.006));
#490=CARTESIAN_POINT('',(0.007,-0.0094926506280899,-0.006));
#491=CARTESIAN_POINT('',(0.015125,-0.0094926506280899,-0.006));
#492=CARTESIAN_POINT('',(0.015125,-0.0094926506280899,0.));
#493=CARTESIAN_POINT('',(0.0395,-0.0094926506280899,0.));
#494=CARTESIAN_POINT('',(0.015125,-0.0094926506280899,-0.006));
#495=CARTESIAN_POINT('',(0.0395,-0.0094926506280899,-0.006));
#496=CARTESIAN_POINT('',(0.0395,-0.0094926506280899,-0.006));
#497=CARTESIAN_POINT('',(0.0395,-0.0107463253140449,-0.006));
#498=CARTESIAN_POINT('',(0.0395,-0.0107463253140449,0.));
#499=CARTESIAN_POINT('',(0.0395,-0.012,0.));
#500=CARTESIAN_POINT('',(0.0395,-0.0107463253140449,-0.006));
#501=CARTESIAN_POINT('',(0.0395,-0.012,-0.006));
#502=CARTESIAN_POINT('',(0.0395,-0.012,-0.006));
#503=CARTESIAN_POINT('',(0.043,-0.012,-0.006));
#504=CARTESIAN_POINT('',(0.043,-0.012,0.));
#505=CARTESIAN_POINT('',(0.0465,-0.012,0.));
#506=CARTESIAN_POINT('',(0.043,-0.012,-0.006));
#507=CARTESIAN_POINT('',(0.0465,-0.012,-0.006));
#508=CARTESIAN_POINT('',(0.0465,-0.012,-0.006));
#509=CARTESIAN_POINT('',(0.0465,-0.006,-0.006));
#510=CARTESIAN_POINT('',(0.0465,-0.006,0.));
#511=CARTESIAN_POINT('',(0.0465,0.,0.));
#512=CARTESIAN_POINT('',(0.0465,-0.006,-0.006));
#513=CARTESIAN_POINT('',(0.0465,0.,-0.006));
#514=CARTESIAN_POINT('',(0.0465,0.,-0.006));
#515=CARTESIAN_POINT('',(0.043,0.,-0.006));
#516=CARTESIAN_POINT('',(0.043,0.,0.));
#517=CARTESIAN_POINT('',(0.0395,0.,0.));
#518=CARTESIAN_POINT('',(0.043,0.,-0.006));
#519=CARTESIAN_POINT('',(0.0395,0.,-0.006));
#520=CARTESIAN_POINT('',(0.0395,0.,-0.006));
#521=CARTESIAN_POINT('',(0.0395,-0.00125367468595505,-0.006));
#522=CARTESIAN_POINT('',(0.0395,-0.00125367468595505,0.));
#523=CARTESIAN_POINT('',(0.0395,-0.0025073493719101,0.));
#524=CARTESIAN_POINT('',(0.0395,-0.00125367468595505,-0.006));
#525=CARTESIAN_POINT('',(0.0395,-0.0025073493719101,-0.006));
#526=CARTESIAN_POINT('',(0.0395,-0.0025073493719101,-0.006));
#527=CARTESIAN_POINT('',(0.015125,-0.0025073493719101,-0.006));
#528=CARTESIAN_POINT('',(0.015125,-0.0025073493719101,0.));
#529=CARTESIAN_POINT('',(0.007,-0.0025073493719101,0.));
#530=CARTESIAN_POINT('',(0.015125,-0.0025073493719101,-0.006));
#531=CARTESIAN_POINT('',(0.007,-0.0025073493719101,-0.006));
#532=CARTESIAN_POINT('',(0.007,-0.0025073493719101,-0.006));
#533=CARTESIAN_POINT('',(0.007,-0.00125367468595505,-0.006));
#534=CARTESIAN_POINT('',(0.007,-0.00125367468595505,0.));
#535=CARTESIAN_POINT('',(0.007,0.,0.));
#536=CARTESIAN_POINT('',(0.007,-0.00125367468595505,-0.006));
#537=CARTESIAN_POINT('',(0.007,0.,-0.006));
#538=CARTESIAN_POINT('',(0.007,0.,-0.006));
#539=CARTESIAN_POINT('',(0.0035,0.,-0.006));
#540=CARTESIAN_POINT('',(0.0035,0.,0.));
#541=CARTESIAN_POINT('',(0.,0.,0.));
#542=CARTESIAN_POINT('',(0.0035,0.,-0.006));
#543=CARTESIAN_POINT('',(0.,0.,-0.006));
#544=CARTESIAN_POINT('',(0.,0.,-0.006));
#545=CARTESIAN_POINT('',(0.,-0.006,-0.006));
#546=CARTESIAN_POINT('',(0.,-0.006,0.));
#547=CARTESIAN_POINT('',(0.,-0.012,0.));
#548=CARTESIAN_POINT('',(0.,-0.006,-0.006));
#549=CARTESIAN_POINT('',(0.,-0.012,-0.006));
#550=CARTESIAN_POINT('',(0.,-0.012,-0.006));
#551=CARTESIAN_POINT('',(0.0035,-0.012,-0.006));
#552=CARTESIAN_POINT('',(0.0035,-0.012,0.));
#553=CARTESIAN_POINT('',(0.0035,-0.012,-0.006));
#554=CARTESIAN_POINT('',(0.02325,-0.006,-0.006));
#555=CARTESIAN_POINT('',(0.0033,-0.009,-0.006));
#556=CARTESIAN_POINT('',(0.00205,-0.009,-0.006));
#557=CARTESIAN_POINT('',(0.0432,-0.003,-0.006));
#558=CARTESIAN_POINT('',(0.04195,-0.003,-0.006));
#559=CARTESIAN_POINT('',(0.0432,-0.009,-0.006));
#560=CARTESIAN_POINT('',(0.04195,-0.009,-0.006));
#561=CARTESIAN_POINT('',(0.0033,-0.003,-0.006));
#562=CARTESIAN_POINT('',(0.00205,-0.003,-0.006));
#563=CARTESIAN_POINT('',(0.02325,-0.006,0.));
#564=CARTESIAN_POINT('',(0.0033,-0.009,0.));
#565=CARTESIAN_POINT('',(0.00205,-0.009,0.));
#566=CARTESIAN_POINT('',(0.0432,-0.003,0.));
#567=CARTESIAN_POINT('',(0.04195,-0.003,0.));
#568=CARTESIAN_POINT('',(0.0432,-0.009,0.));
#569=CARTESIAN_POINT('',(0.04195,-0.009,0.));
#570=CARTESIAN_POINT('',(0.0033,-0.003,0.));
#571=CARTESIAN_POINT('',(0.00205,-0.003,0.));
#572=CARTESIAN_POINT('',(0.0033,-0.003,0.));
#573=CARTESIAN_POINT('',(0.0432,-0.009,0.));
#574=CARTESIAN_POINT('',(0.0432,-0.003,0.));
#575=CARTESIAN_POINT('',(0.0033,-0.009,0.));
#576=MECHANICAL_DESIGN_GEOMETRIC_PRESENTATION_REPRESENTATION('',(#353),
#577);
#577=(
GEOMETRIC_REPRESENTATION_CONTEXT(3)
GLOBAL_UNCERTAINTY_ASSIGNED_CONTEXT((#578))
GLOBAL_UNIT_ASSIGNED_CONTEXT((#581,#580,#579))
REPRESENTATION_CONTEXT('Cellule de charge','TOP_LEVEL_ASSEMBLY_PART')
);
#578=UNCERTAINTY_MEASURE_WITH_UNIT(LENGTH_MEASURE(1.E-8),#581,
'DISTANCE_ACCURACY_VALUE','Maximum Tolerance applied to model');
#579=(
NAMED_UNIT(*)
SI_UNIT($,.STERADIAN.)
SOLID_ANGLE_UNIT()
);
#580=(
NAMED_UNIT(*)
PLANE_ANGLE_UNIT()
SI_UNIT($,.RADIAN.)
);
#581=(
LENGTH_UNIT()
NAMED_UNIT(*)
SI_UNIT($,.METRE.)
);
#582=PRODUCT_DEFINITION_SHAPE('','',#583);
#583=PRODUCT_DEFINITION('','',#585,#584);
#584=PRODUCT_DEFINITION_CONTEXT('',#591,'design');
#585=PRODUCT_DEFINITION_FORMATION_WITH_SPECIFIED_SOURCE('','',#587,
 .NOT_KNOWN.);
#586=PRODUCT_RELATED_PRODUCT_CATEGORY('','',(#587));
#587=PRODUCT('Cellule de charge','Cellule de charge',
'Cellule de charge',(#589));
#588=PRODUCT_CATEGORY('','');
#589=PRODUCT_CONTEXT('',#591,'mechanical');
#590=APPLICATION_PROTOCOL_DEFINITION('international standard',
'ap242_managed_model_based_3d_engineering',2020,#591);
#591=APPLICATION_CONTEXT('managed model based 3d engineering');
ENDSEC;
END-ISO-10303-21;
