ISO-10303-21;
HEADER;
/* Generated by software containing ST-Developer
 * from STEP Tools, Inc. (www.steptools.com) 
 */
/* OPTION: using custom renumber hook */

FILE_DESCRIPTION(
/* description */ ('STEP AP242 Edition 2',
'CAx-IF Rec.Pracs.---Representation and Presentation of Product Manufa
cturing Information (PMI)---4.0---2014-10-13',
'CAx-IF Rec.Pracs.---3D Tessellated Geometry---0.4---2014-09-14','2;1',
'CAx-IF Rec.Pracs.---User Defined Attributes---1.5---2016-08-15'),
/* implementation_level */ '2;1');

FILE_NAME(
/* name */ 'Assemblage V2 - Pied diffuseur',
/* time_stamp */ '2026-09-29T21:10:08Z',
/* author */ (''),
/* organization */ (''),
/* preprocessor_version */ 'ST-DEVELOPER v20',
/* originating_system */ 'ONSHAPE BY PTC INC, 1.221',
/* authorisation */ '  ');

FILE_SCHEMA (('AP242_MANAGED_MODEL_BASED_3D_ENGINEERING_MIM_LF { 1 0 10303 442 3 1 4 }'));
ENDSEC;

DATA;
#10=SHAPE_REPRESENTATION_RELATIONSHIP('','',#279,#11);
#11=ADVANCED_BREP_SHAPE_REPRESENTATION('',(#277),#453);
#12=CIRCLE('',#284,0.005);
#13=CIRCLE('',#285,0.005);
#14=CIRCLE('',#288,0.005);
#15=CIRCLE('',#289,0.005);
#16=CIRCLE('',#293,0.001);
#17=CIRCLE('',#294,0.001);
#18=CIRCLE('',#297,0.001);
#19=CIRCLE('',#298,0.001);
#20=CYLINDRICAL_SURFACE('',#283,0.005);
#21=CYLINDRICAL_SURFACE('',#287,0.005);
#22=CYLINDRICAL_SURFACE('',#292,0.001);
#23=CYLINDRICAL_SURFACE('',#296,0.001);
#24=ORIENTED_EDGE('',*,*,#96,.F.);
#25=ORIENTED_EDGE('',*,*,#97,.F.);
#26=ORIENTED_EDGE('',*,*,#98,.T.);
#27=ORIENTED_EDGE('',*,*,#99,.T.);
#28=ORIENTED_EDGE('',*,*,#100,.F.);
#29=ORIENTED_EDGE('',*,*,#99,.F.);
#30=ORIENTED_EDGE('',*,*,#101,.T.);
#31=ORIENTED_EDGE('',*,*,#102,.T.);
#32=ORIENTED_EDGE('',*,*,#103,.F.);
#33=ORIENTED_EDGE('',*,*,#102,.F.);
#34=ORIENTED_EDGE('',*,*,#104,.T.);
#35=ORIENTED_EDGE('',*,*,#105,.T.);
#36=ORIENTED_EDGE('',*,*,#106,.F.);
#37=ORIENTED_EDGE('',*,*,#105,.F.);
#38=ORIENTED_EDGE('',*,*,#107,.T.);
#39=ORIENTED_EDGE('',*,*,#108,.T.);
#40=ORIENTED_EDGE('',*,*,#109,.T.);
#41=ORIENTED_EDGE('',*,*,#108,.F.);
#42=ORIENTED_EDGE('',*,*,#110,.F.);
#43=ORIENTED_EDGE('',*,*,#111,.T.);
#44=ORIENTED_EDGE('',*,*,#112,.F.);
#45=ORIENTED_EDGE('',*,*,#113,.F.);
#46=ORIENTED_EDGE('',*,*,#114,.T.);
#47=ORIENTED_EDGE('',*,*,#115,.T.);
#48=ORIENTED_EDGE('',*,*,#116,.F.);
#49=ORIENTED_EDGE('',*,*,#115,.F.);
#50=ORIENTED_EDGE('',*,*,#117,.T.);
#51=ORIENTED_EDGE('',*,*,#118,.T.);
#52=ORIENTED_EDGE('',*,*,#119,.F.);
#53=ORIENTED_EDGE('',*,*,#118,.F.);
#54=ORIENTED_EDGE('',*,*,#120,.T.);
#55=ORIENTED_EDGE('',*,*,#121,.T.);
#56=ORIENTED_EDGE('',*,*,#122,.T.);
#57=ORIENTED_EDGE('',*,*,#121,.F.);
#58=ORIENTED_EDGE('',*,*,#123,.F.);
#59=ORIENTED_EDGE('',*,*,#124,.T.);
#60=ORIENTED_EDGE('',*,*,#125,.T.);
#61=ORIENTED_EDGE('',*,*,#124,.F.);
#62=ORIENTED_EDGE('',*,*,#126,.F.);
#63=ORIENTED_EDGE('',*,*,#127,.T.);
#64=ORIENTED_EDGE('',*,*,#128,.T.);
#65=ORIENTED_EDGE('',*,*,#127,.F.);
#66=ORIENTED_EDGE('',*,*,#129,.F.);
#67=ORIENTED_EDGE('',*,*,#113,.T.);
#68=ORIENTED_EDGE('',*,*,#130,.T.);
#69=ORIENTED_EDGE('',*,*,#111,.F.);
#70=ORIENTED_EDGE('',*,*,#131,.F.);
#71=ORIENTED_EDGE('',*,*,#97,.T.);
#72=ORIENTED_EDGE('',*,*,#114,.F.);
#73=ORIENTED_EDGE('',*,*,#129,.T.);
#74=ORIENTED_EDGE('',*,*,#126,.T.);
#75=ORIENTED_EDGE('',*,*,#123,.T.);
#76=ORIENTED_EDGE('',*,*,#120,.F.);
#77=ORIENTED_EDGE('',*,*,#117,.F.);
#78=ORIENTED_EDGE('',*,*,#98,.F.);
#79=ORIENTED_EDGE('',*,*,#131,.T.);
#80=ORIENTED_EDGE('',*,*,#110,.T.);
#81=ORIENTED_EDGE('',*,*,#107,.F.);
#82=ORIENTED_EDGE('',*,*,#104,.F.);
#83=ORIENTED_EDGE('',*,*,#101,.F.);
#84=ORIENTED_EDGE('',*,*,#112,.T.);
#85=ORIENTED_EDGE('',*,*,#116,.T.);
#86=ORIENTED_EDGE('',*,*,#119,.T.);
#87=ORIENTED_EDGE('',*,*,#122,.F.);
#88=ORIENTED_EDGE('',*,*,#125,.F.);
#89=ORIENTED_EDGE('',*,*,#128,.F.);
#90=ORIENTED_EDGE('',*,*,#96,.T.);
#91=ORIENTED_EDGE('',*,*,#100,.T.);
#92=ORIENTED_EDGE('',*,*,#103,.T.);
#93=ORIENTED_EDGE('',*,*,#106,.T.);
#94=ORIENTED_EDGE('',*,*,#109,.F.);
#95=ORIENTED_EDGE('',*,*,#130,.F.);
#96=EDGE_CURVE('',#132,#133,#156,.T.);
#97=EDGE_CURVE('',#134,#132,#157,.T.);
#98=EDGE_CURVE('',#134,#135,#158,.T.);
#99=EDGE_CURVE('',#135,#133,#159,.T.);
#100=EDGE_CURVE('',#133,#136,#160,.T.);
#101=EDGE_CURVE('',#135,#137,#161,.T.);
#102=EDGE_CURVE('',#137,#136,#162,.T.);
#103=EDGE_CURVE('',#136,#138,#12,.T.);
#104=EDGE_CURVE('',#137,#139,#13,.T.);
#105=EDGE_CURVE('',#139,#138,#163,.T.);
#106=EDGE_CURVE('',#138,#140,#164,.T.);
#107=EDGE_CURVE('',#139,#141,#165,.T.);
#108=EDGE_CURVE('',#141,#140,#166,.T.);
#109=EDGE_CURVE('',#142,#140,#14,.T.);
#110=EDGE_CURVE('',#143,#141,#15,.T.);
#111=EDGE_CURVE('',#143,#142,#167,.T.);
#112=EDGE_CURVE('',#144,#145,#168,.T.);
#113=EDGE_CURVE('',#146,#144,#169,.T.);
#114=EDGE_CURVE('',#146,#147,#170,.T.);
#115=EDGE_CURVE('',#147,#145,#171,.T.);
#116=EDGE_CURVE('',#145,#148,#172,.T.);
#117=EDGE_CURVE('',#147,#149,#173,.T.);
#118=EDGE_CURVE('',#149,#148,#174,.T.);
#119=EDGE_CURVE('',#148,#150,#16,.T.);
#120=EDGE_CURVE('',#149,#151,#17,.T.);
#121=EDGE_CURVE('',#151,#150,#175,.T.);
#122=EDGE_CURVE('',#152,#150,#176,.T.);
#123=EDGE_CURVE('',#153,#151,#177,.T.);
#124=EDGE_CURVE('',#153,#152,#178,.T.);
#125=EDGE_CURVE('',#154,#152,#18,.T.);
#126=EDGE_CURVE('',#155,#153,#19,.T.);
#127=EDGE_CURVE('',#155,#154,#179,.T.);
#128=EDGE_CURVE('',#144,#154,#180,.T.);
#129=EDGE_CURVE('',#146,#155,#181,.T.);
#130=EDGE_CURVE('',#132,#142,#182,.T.);
#131=EDGE_CURVE('',#134,#143,#183,.T.);
#132=VERTEX_POINT('',#380);
#133=VERTEX_POINT('',#381);
#134=VERTEX_POINT('',#383);
#135=VERTEX_POINT('',#385);
#136=VERTEX_POINT('',#389);
#137=VERTEX_POINT('',#391);
#138=VERTEX_POINT('',#395);
#139=VERTEX_POINT('',#397);
#140=VERTEX_POINT('',#401);
#141=VERTEX_POINT('',#403);
#142=VERTEX_POINT('',#407);
#143=VERTEX_POINT('',#409);
#144=VERTEX_POINT('',#413);
#145=VERTEX_POINT('',#414);
#146=VERTEX_POINT('',#416);
#147=VERTEX_POINT('',#418);
#148=VERTEX_POINT('',#422);
#149=VERTEX_POINT('',#424);
#150=VERTEX_POINT('',#428);
#151=VERTEX_POINT('',#430);
#152=VERTEX_POINT('',#434);
#153=VERTEX_POINT('',#436);
#154=VERTEX_POINT('',#440);
#155=VERTEX_POINT('',#442);
#156=LINE('',#379,#184);
#157=LINE('',#382,#185);
#158=LINE('',#384,#186);
#159=LINE('',#386,#187);
#160=LINE('',#388,#188);
#161=LINE('',#390,#189);
#162=LINE('',#392,#190);
#163=LINE('',#398,#191);
#164=LINE('',#400,#192);
#165=LINE('',#402,#193);
#166=LINE('',#404,#194);
#167=LINE('',#410,#195);
#168=LINE('',#412,#196);
#169=LINE('',#415,#197);
#170=LINE('',#417,#198);
#171=LINE('',#419,#199);
#172=LINE('',#421,#200);
#173=LINE('',#423,#201);
#174=LINE('',#425,#202);
#175=LINE('',#431,#203);
#176=LINE('',#433,#204);
#177=LINE('',#435,#205);
#178=LINE('',#437,#206);
#179=LINE('',#443,#207);
#180=LINE('',#445,#208);
#181=LINE('',#446,#209);
#182=LINE('',#448,#210);
#183=LINE('',#449,#211);
#184=VECTOR('',#307,1.);
#185=VECTOR('',#308,1.);
#186=VECTOR('',#309,1.);
#187=VECTOR('',#310,1.);
#188=VECTOR('',#313,1.);
#189=VECTOR('',#314,1.);
#190=VECTOR('',#315,1.);
#191=VECTOR('',#322,1.);
#192=VECTOR('',#325,1.);
#193=VECTOR('',#326,1.);
#194=VECTOR('',#327,1.);
#195=VECTOR('',#334,1.);
#196=VECTOR('',#337,1.);
#197=VECTOR('',#338,1.);
#198=VECTOR('',#339,1.);
#199=VECTOR('',#340,1.);
#200=VECTOR('',#343,1.);
#201=VECTOR('',#344,1.);
#202=VECTOR('',#345,1.);
#203=VECTOR('',#352,1.);
#204=VECTOR('',#355,1.);
#205=VECTOR('',#356,1.);
#206=VECTOR('',#357,1.);
#207=VECTOR('',#364,1.);
#208=VECTOR('',#367,1.);
#209=VECTOR('',#368,1.);
#210=VECTOR('',#371,1.);
#211=VECTOR('',#372,1.);
#212=EDGE_LOOP('',(#24,#25,#26,#27));
#213=EDGE_LOOP('',(#28,#29,#30,#31));
#214=EDGE_LOOP('',(#32,#33,#34,#35));
#215=EDGE_LOOP('',(#36,#37,#38,#39));
#216=EDGE_LOOP('',(#40,#41,#42,#43));
#217=EDGE_LOOP('',(#44,#45,#46,#47));
#218=EDGE_LOOP('',(#48,#49,#50,#51));
#219=EDGE_LOOP('',(#52,#53,#54,#55));
#220=EDGE_LOOP('',(#56,#57,#58,#59));
#221=EDGE_LOOP('',(#60,#61,#62,#63));
#222=EDGE_LOOP('',(#64,#65,#66,#67));
#223=EDGE_LOOP('',(#68,#69,#70,#71));
#224=EDGE_LOOP('',(#72,#73,#74,#75,#76,#77));
#225=EDGE_LOOP('',(#78,#79,#80,#81,#82,#83));
#226=EDGE_LOOP('',(#84,#85,#86,#87,#88,#89));
#227=EDGE_LOOP('',(#90,#91,#92,#93,#94,#95));
#228=FACE_BOUND('',#212,.T.);
#229=FACE_BOUND('',#213,.T.);
#230=FACE_BOUND('',#214,.T.);
#231=FACE_BOUND('',#215,.T.);
#232=FACE_BOUND('',#216,.T.);
#233=FACE_BOUND('',#217,.T.);
#234=FACE_BOUND('',#218,.T.);
#235=FACE_BOUND('',#219,.T.);
#236=FACE_BOUND('',#220,.T.);
#237=FACE_BOUND('',#221,.T.);
#238=FACE_BOUND('',#222,.T.);
#239=FACE_BOUND('',#223,.T.);
#240=FACE_BOUND('',#224,.T.);
#241=FACE_BOUND('',#225,.T.);
#242=FACE_BOUND('',#226,.T.);
#243=FACE_BOUND('',#227,.T.);
#244=PLANE('',#281);
#245=PLANE('',#282);
#246=PLANE('',#286);
#247=PLANE('',#290);
#248=PLANE('',#291);
#249=PLANE('',#295);
#250=PLANE('',#299);
#251=PLANE('',#300);
#252=PLANE('',#301);
#253=PLANE('',#302);
#254=ADVANCED_FACE('',(#228),#244,.T.);
#255=ADVANCED_FACE('',(#229),#245,.T.);
#256=ADVANCED_FACE('',(#230),#20,.T.);
#257=ADVANCED_FACE('',(#231),#246,.T.);
#258=ADVANCED_FACE('',(#232),#21,.T.);
#259=ADVANCED_FACE('',(#233),#247,.T.);
#260=ADVANCED_FACE('',(#234),#248,.T.);
#261=ADVANCED_FACE('',(#235),#22,.F.);
#262=ADVANCED_FACE('',(#236),#249,.F.);
#263=ADVANCED_FACE('',(#237),#23,.F.);
#264=ADVANCED_FACE('',(#238),#250,.F.);
#265=ADVANCED_FACE('',(#239),#251,.F.);
#266=ADVANCED_FACE('',(#240,#241),#252,.F.);
#267=ADVANCED_FACE('',(#242,#243),#253,.T.);
#268=CLOSED_SHELL('',(#254,#255,#256,#257,#258,#259,#260,#261,#262,#263,
#264,#265,#266,#267));
#269=STYLED_ITEM('',(#270),#277);
#270=PRESENTATION_STYLE_ASSIGNMENT((#271));
#271=SURFACE_STYLE_USAGE(.BOTH.,#272);
#272=SURFACE_SIDE_STYLE('',(#273));
#273=SURFACE_STYLE_FILL_AREA(#274);
#274=FILL_AREA_STYLE('',(#275));
#275=FILL_AREA_STYLE_COLOUR('',#276);
#276=COLOUR_RGB('',0.231372549019608,0.380392156862745,0.705882352941177);
#277=MANIFOLD_SOLID_BREP('Pied diffuseur',#268);
#278=SHAPE_DEFINITION_REPRESENTATION(#458,#279);
#279=SHAPE_REPRESENTATION('Pied diffuseur',(#280),#453);
#280=AXIS2_PLACEMENT_3D('',#377,#303,#304);
#281=AXIS2_PLACEMENT_3D('',#378,#305,#306);
#282=AXIS2_PLACEMENT_3D('',#387,#311,#312);
#283=AXIS2_PLACEMENT_3D('',#393,#316,#317);
#284=AXIS2_PLACEMENT_3D('',#394,#318,#319);
#285=AXIS2_PLACEMENT_3D('',#396,#320,#321);
#286=AXIS2_PLACEMENT_3D('',#399,#323,#324);
#287=AXIS2_PLACEMENT_3D('',#405,#328,#329);
#288=AXIS2_PLACEMENT_3D('',#406,#330,#331);
#289=AXIS2_PLACEMENT_3D('',#408,#332,#333);
#290=AXIS2_PLACEMENT_3D('',#411,#335,#336);
#291=AXIS2_PLACEMENT_3D('',#420,#341,#342);
#292=AXIS2_PLACEMENT_3D('',#426,#346,#347);
#293=AXIS2_PLACEMENT_3D('',#427,#348,#349);
#294=AXIS2_PLACEMENT_3D('',#429,#350,#351);
#295=AXIS2_PLACEMENT_3D('',#432,#353,#354);
#296=AXIS2_PLACEMENT_3D('',#438,#358,#359);
#297=AXIS2_PLACEMENT_3D('',#439,#360,#361);
#298=AXIS2_PLACEMENT_3D('',#441,#362,#363);
#299=AXIS2_PLACEMENT_3D('',#444,#365,#366);
#300=AXIS2_PLACEMENT_3D('',#447,#369,#370);
#301=AXIS2_PLACEMENT_3D('',#450,#373,#374);
#302=AXIS2_PLACEMENT_3D('',#451,#375,#376);
#303=DIRECTION('',(0.,0.,1.));
#304=DIRECTION('',(1.,0.,0.));
#305=DIRECTION('',(0.,0.,1.));
#306=DIRECTION('',(1.,0.,0.));
#307=DIRECTION('',(-1.,0.,0.));
#308=DIRECTION('',(0.,-1.,0.));
#309=DIRECTION('',(-1.,0.,0.));
#310=DIRECTION('',(0.,-1.,0.));
#311=DIRECTION('',(-0.756553330373239,0.,0.653931998223944));
#312=DIRECTION('',(0.653931998223944,0.,0.756553330373239));
#313=DIRECTION('',(-0.653931998223944,0.,-0.756553330373239));
#314=DIRECTION('',(-0.653931998223944,0.,-0.756553330373239));
#315=DIRECTION('',(0.,-1.,0.));
#316=DIRECTION('',(0.,-1.,0.));
#317=DIRECTION('',(0.,0.,-1.));
#318=DIRECTION('',(0.,-1.,0.));
#319=DIRECTION('',(0.,0.,-1.));
#320=DIRECTION('',(0.,-1.,0.));
#321=DIRECTION('',(0.,0.,-1.));
#322=DIRECTION('',(0.,-1.,0.));
#323=DIRECTION('',(0.,0.,-1.));
#324=DIRECTION('',(-1.,0.,0.));
#325=DIRECTION('',(1.,0.,0.));
#326=DIRECTION('',(1.,0.,0.));
#327=DIRECTION('',(0.,-1.,0.));
#328=DIRECTION('',(0.,-1.,0.));
#329=DIRECTION('',(0.,0.,-1.));
#330=DIRECTION('',(0.,1.,0.));
#331=DIRECTION('',(0.,0.,-1.));
#332=DIRECTION('',(0.,1.,0.));
#333=DIRECTION('',(0.,0.,-1.));
#334=DIRECTION('',(0.,-1.,0.));
#335=DIRECTION('',(0.,0.,-1.));
#336=DIRECTION('',(-1.,0.,0.));
#337=DIRECTION('',(1.,0.,0.));
#338=DIRECTION('',(0.,-1.,0.));
#339=DIRECTION('',(1.,0.,0.));
#340=DIRECTION('',(0.,-1.,0.));
#341=DIRECTION('',(-0.756553330373239,0.,-0.653931998223944));
#342=DIRECTION('',(-0.653931998223944,0.,0.756553330373239));
#343=DIRECTION('',(0.653931998223944,0.,-0.756553330373239));
#344=DIRECTION('',(0.653931998223944,0.,-0.756553330373239));
#345=DIRECTION('',(0.,-1.,0.));
#346=DIRECTION('',(0.,-1.,0.));
#347=DIRECTION('',(0.,0.,-1.));
#348=DIRECTION('',(0.,1.,0.));
#349=DIRECTION('',(0.,0.,-1.));
#350=DIRECTION('',(0.,1.,0.));
#351=DIRECTION('',(0.,0.,-1.));
#352=DIRECTION('',(0.,-1.,0.));
#353=DIRECTION('',(0.,0.,-1.));
#354=DIRECTION('',(-1.,0.,0.));
#355=DIRECTION('',(1.,0.,0.));
#356=DIRECTION('',(1.,0.,0.));
#357=DIRECTION('',(0.,-1.,0.));
#358=DIRECTION('',(0.,-1.,0.));
#359=DIRECTION('',(0.,0.,-1.));
#360=DIRECTION('',(0.,-1.,0.));
#361=DIRECTION('',(0.,0.,-1.));
#362=DIRECTION('',(0.,-1.,0.));
#363=DIRECTION('',(0.,0.,-1.));
#364=DIRECTION('',(0.,-1.,0.));
#365=DIRECTION('',(-0.756553330373239,0.,0.653931998223944));
#366=DIRECTION('',(0.653931998223944,0.,0.756553330373239));
#367=DIRECTION('',(-0.653931998223944,0.,-0.756553330373239));
#368=DIRECTION('',(-0.653931998223944,0.,-0.756553330373239));
#369=DIRECTION('',(-0.756553330373239,0.,-0.653931998223944));
#370=DIRECTION('',(-0.653931998223944,0.,0.756553330373239));
#371=DIRECTION('',(0.653931998223944,0.,-0.756553330373239));
#372=DIRECTION('',(0.653931998223944,0.,-0.756553330373239));
#373=DIRECTION('',(0.,-1.,0.));
#374=DIRECTION('',(1.,0.,0.));
#375=DIRECTION('',(0.,-1.,0.));
#376=DIRECTION('',(1.,0.,0.));
#377=CARTESIAN_POINT('',(0.,0.,0.));
#378=CARTESIAN_POINT('',(0.,-0.1,-0.065));
#379=CARTESIAN_POINT('',(0.,-0.168,-0.065));
#380=CARTESIAN_POINT('',(0.065,-0.168,-0.065));
#381=CARTESIAN_POINT('',(-0.065,-0.168,-0.065));
#382=CARTESIAN_POINT('',(0.065,-0.1,-0.065));
#383=CARTESIAN_POINT('',(0.065,-0.1,-0.065));
#384=CARTESIAN_POINT('',(0.,-0.1,-0.065));
#385=CARTESIAN_POINT('',(-0.065,-0.1,-0.065));
#386=CARTESIAN_POINT('',(-0.065,-0.1,-0.065));
#387=CARTESIAN_POINT('',(-0.0743913833259331,-0.1,-0.0758651700044401));
#388=CARTESIAN_POINT('',(-0.0743913833259331,-0.168,-0.0758651700044401));
#389=CARTESIAN_POINT('',(-0.0837827666518662,-0.168,-0.0867303400088803));
#390=CARTESIAN_POINT('',(-0.0743913833259331,-0.1,-0.0758651700044401));
#391=CARTESIAN_POINT('',(-0.0837827666518662,-0.1,-0.0867303400088803));
#392=CARTESIAN_POINT('',(-0.0837827666518662,-0.1,-0.0867303400088803));
#393=CARTESIAN_POINT('',(-0.08,-0.1,-0.09));
#394=CARTESIAN_POINT('',(-0.08,-0.168,-0.09));
#395=CARTESIAN_POINT('',(-0.08,-0.168,-0.095));
#396=CARTESIAN_POINT('',(-0.08,-0.1,-0.09));
#397=CARTESIAN_POINT('',(-0.08,-0.1,-0.095));
#398=CARTESIAN_POINT('',(-0.08,-0.1,-0.095));
#399=CARTESIAN_POINT('',(-0.04,-0.1,-0.095));
#400=CARTESIAN_POINT('',(-0.04,-0.168,-0.095));
#401=CARTESIAN_POINT('',(0.08,-0.168,-0.095));
#402=CARTESIAN_POINT('',(-0.04,-0.1,-0.095));
#403=CARTESIAN_POINT('',(0.08,-0.1,-0.095));
#404=CARTESIAN_POINT('',(0.08,-0.1,-0.095));
#405=CARTESIAN_POINT('',(0.08,-0.1,-0.09));
#406=CARTESIAN_POINT('',(0.08,-0.168,-0.09));
#407=CARTESIAN_POINT('',(0.0837827666518662,-0.168,-0.0867303400088803));
#408=CARTESIAN_POINT('',(0.08,-0.1,-0.09));
#409=CARTESIAN_POINT('',(0.0837827666518662,-0.1,-0.0867303400088803));
#410=CARTESIAN_POINT('',(0.0837827666518662,-0.1,-0.0867303400088803));
#411=CARTESIAN_POINT('',(-2.08166817117217E-17,-0.1,-0.0675));
#412=CARTESIAN_POINT('',(-2.08166817117217E-17,-0.168,-0.0675));
#413=CARTESIAN_POINT('',(-0.0605519725188706,-0.168,-0.0675));
#414=CARTESIAN_POINT('',(0.0605519725188706,-0.168,-0.0675));
#415=CARTESIAN_POINT('',(-0.0605519725188706,-0.1,-0.0675));
#416=CARTESIAN_POINT('',(-0.0605519725188706,-0.1,-0.0675));
#417=CARTESIAN_POINT('',(-2.08166817117217E-17,-0.1,-0.0675));
#418=CARTESIAN_POINT('',(0.0605519725188706,-0.1,-0.0675));
#419=CARTESIAN_POINT('',(0.0605519725188706,-0.1,-0.0675));
#420=CARTESIAN_POINT('',(0.0695611925938047,-0.1,-0.077923034000888));
#421=CARTESIAN_POINT('',(0.0695611925938047,-0.168,-0.077923034000888));
#422=CARTESIAN_POINT('',(0.0785704126687387,-0.168,-0.088346068001776));
#423=CARTESIAN_POINT('',(0.0695611925938047,-0.1,-0.077923034000888));
#424=CARTESIAN_POINT('',(0.0785704126687387,-0.1,-0.088346068001776));
#425=CARTESIAN_POINT('',(0.0785704126687387,-0.1,-0.088346068001776));
#426=CARTESIAN_POINT('',(0.0778138593383655,-0.1,-0.089));
#427=CARTESIAN_POINT('',(0.0778138593383655,-0.168,-0.089));
#428=CARTESIAN_POINT('',(0.0778138593383655,-0.168,-0.09));
#429=CARTESIAN_POINT('',(0.0778138593383655,-0.1,-0.089));
#430=CARTESIAN_POINT('',(0.0778138593383655,-0.1,-0.09));
#431=CARTESIAN_POINT('',(0.0778138593383655,-0.1,-0.09));
#432=CARTESIAN_POINT('',(0.0389069296691828,-0.1,-0.09));
#433=CARTESIAN_POINT('',(0.0389069296691828,-0.168,-0.09));
#434=CARTESIAN_POINT('',(-0.0778138593383655,-0.168,-0.09));
#435=CARTESIAN_POINT('',(0.0389069296691828,-0.1,-0.09));
#436=CARTESIAN_POINT('',(-0.0778138593383655,-0.1,-0.09));
#437=CARTESIAN_POINT('',(-0.0778138593383655,-0.1,-0.09));
#438=CARTESIAN_POINT('',(-0.0778138593383655,-0.1,-0.089));
#439=CARTESIAN_POINT('',(-0.0778138593383655,-0.168,-0.089));
#440=CARTESIAN_POINT('',(-0.0785704126687388,-0.168,-0.088346068001776));
#441=CARTESIAN_POINT('',(-0.0778138593383655,-0.1,-0.089));
#442=CARTESIAN_POINT('',(-0.0785704126687388,-0.1,-0.088346068001776));
#443=CARTESIAN_POINT('',(-0.0785704126687388,-0.1,-0.088346068001776));
#444=CARTESIAN_POINT('',(-0.0695611925938047,-0.1,-0.077923034000888));
#445=CARTESIAN_POINT('',(-0.0695611925938047,-0.168,-0.077923034000888));
#446=CARTESIAN_POINT('',(-0.0695611925938047,-0.1,-0.077923034000888));
#447=CARTESIAN_POINT('',(0.0743913833259331,-0.1,-0.0758651700044401));
#448=CARTESIAN_POINT('',(0.0743913833259331,-0.168,-0.0758651700044401));
#449=CARTESIAN_POINT('',(0.0743913833259331,-0.1,-0.0758651700044401));
#450=CARTESIAN_POINT('',(-1.38777878078145E-17,-0.1,-0.131927116513252));
#451=CARTESIAN_POINT('',(-1.38777878078145E-17,-0.168,-0.131927116513252));
#452=MECHANICAL_DESIGN_GEOMETRIC_PRESENTATION_REPRESENTATION('',(#269),
#453);
#453=(
GEOMETRIC_REPRESENTATION_CONTEXT(3)
GLOBAL_UNCERTAINTY_ASSIGNED_CONTEXT((#454))
GLOBAL_UNIT_ASSIGNED_CONTEXT((#457,#456,#455))
REPRESENTATION_CONTEXT('Pied diffuseur','TOP_LEVEL_ASSEMBLY_PART')
);
#454=UNCERTAINTY_MEASURE_WITH_UNIT(LENGTH_MEASURE(1.E-8),#457,
'DISTANCE_ACCURACY_VALUE','Maximum Tolerance applied to model');
#455=(
NAMED_UNIT(*)
SI_UNIT($,.STERADIAN.)
SOLID_ANGLE_UNIT()
);
#456=(
NAMED_UNIT(*)
PLANE_ANGLE_UNIT()
SI_UNIT($,.RADIAN.)
);
#457=(
LENGTH_UNIT()
NAMED_UNIT(*)
SI_UNIT($,.METRE.)
);
#458=PRODUCT_DEFINITION_SHAPE('','',#459);
#459=PRODUCT_DEFINITION('','',#461,#460);
#460=PRODUCT_DEFINITION_CONTEXT('',#467,'design');
#461=PRODUCT_DEFINITION_FORMATION_WITH_SPECIFIED_SOURCE('','',#463,
 .NOT_KNOWN.);
#462=PRODUCT_RELATED_PRODUCT_CATEGORY('','',(#463));
#463=PRODUCT('Pied diffuseur','Pied diffuseur','Pied diffuseur',(#465));
#464=PRODUCT_CATEGORY('','');
#465=PRODUCT_CONTEXT('',#467,'mechanical');
#466=APPLICATION_PROTOCOL_DEFINITION('international standard',
'ap242_managed_model_based_3d_engineering',2020,#467);
#467=APPLICATION_CONTEXT('managed model based 3d engineering');
ENDSEC;
END-ISO-10303-21;
